G04 Layer_Color=8388736*
%FSAX43Y43*%
%MOMM*%
G71*
G01*
G75*
%ADD32C,0.050*%
%ADD36C,1.700*%
%ADD37C,1.600*%
%ADD46R,0.750X0.750*%
%ADD47R,0.750X0.750*%
%ADD48R,1.400X1.400*%
%ADD49R,1.700X1.400*%
%ADD50R,1.000X1.000*%
%ADD51R,1.400X1.400*%
%ADD52R,1.100X0.900*%
%ADD53R,0.950X0.500*%
%ADD54R,4.300X2.005*%
G04:AMPARAMS|DCode=55|XSize=2.5mm|YSize=2.5mm|CornerRadius=0.11mm|HoleSize=0mm|Usage=FLASHONLY|Rotation=270.000|XOffset=0mm|YOffset=0mm|HoleType=Round|Shape=RoundedRectangle|*
%AMROUNDEDRECTD55*
21,1,2.500,2.280,0,0,270.0*
21,1,2.280,2.500,0,0,270.0*
1,1,0.220,-1.140,-1.140*
1,1,0.220,-1.140,1.140*
1,1,0.220,1.140,1.140*
1,1,0.220,1.140,-1.140*
%
%ADD55ROUNDEDRECTD55*%
%ADD56O,0.400X0.900*%
%ADD57O,0.900X0.400*%
%ADD58R,0.950X0.850*%
%ADD59R,0.600X0.600*%
%ADD60R,1.600X1.600*%
G04:AMPARAMS|DCode=61|XSize=1.8mm|YSize=1.8mm|CornerRadius=0.22mm|HoleSize=0mm|Usage=FLASHONLY|Rotation=0.000|XOffset=0mm|YOffset=0mm|HoleType=Round|Shape=RoundedRectangle|*
%AMROUNDEDRECTD61*
21,1,1.800,1.360,0,0,0.0*
21,1,1.360,1.800,0,0,0.0*
1,1,0.440,0.680,-0.680*
1,1,0.440,-0.680,-0.680*
1,1,0.440,-0.680,0.680*
1,1,0.440,0.680,0.680*
%
%ADD61ROUNDEDRECTD61*%
%ADD62C,1.800*%
%ADD63R,4.300X2.513*%
G36*
X0080250Y0024150D02*
X0080250D01*
Y0023150D01*
X0049950D01*
Y0028150D01*
X0050950D01*
Y0024150D01*
X0079250D01*
Y0029150D01*
X0080250D01*
Y0024150D01*
D02*
G37*
G36*
X0080250Y0042550D02*
Y0041550D01*
Y0030200D01*
X0079250D01*
Y0041550D01*
X0050950D01*
Y0031250D01*
X0049950D01*
Y0041550D01*
Y0042550D01*
Y0042550D01*
X0050950D01*
Y0042550D01*
X0079250D01*
Y0042550D01*
X0080250D01*
Y0042550D01*
D02*
G37*
D32*
X0000000Y0000000D02*
Y0058000D01*
Y0000000D02*
X0089000D01*
Y0058000D01*
X0000000D02*
X0089000D01*
D36*
X0061000Y0005000D02*
D03*
D37*
X0028420Y0050610D02*
D03*
X0030960D02*
D03*
X0033500D02*
D03*
X0036040D02*
D03*
X0038580D02*
D03*
X0041120D02*
D03*
X0043660D02*
D03*
X0021960D02*
D03*
X0016880D02*
D03*
X0014340D02*
D03*
X0011800D02*
D03*
X0009260D02*
D03*
X0006720D02*
D03*
X0004180D02*
D03*
X0001640D02*
D03*
X0019420D02*
D03*
X0036040Y0002350D02*
D03*
X0038580D02*
D03*
X0041120D02*
D03*
X0043660D02*
D03*
X0046200D02*
D03*
X0028280D02*
D03*
X0025740D02*
D03*
X0023200D02*
D03*
X0020660D02*
D03*
X0018120D02*
D03*
X0015580D02*
D03*
X0013040D02*
D03*
X0036040Y0004890D02*
D03*
X0038580D02*
D03*
X0041120D02*
D03*
X0043660D02*
D03*
X0046200D02*
D03*
X0013040D02*
D03*
X0015580D02*
D03*
X0018120D02*
D03*
X0020660D02*
D03*
X0023200D02*
D03*
X0025740D02*
D03*
X0028280D02*
D03*
X0019420Y0053150D02*
D03*
X0001640D02*
D03*
X0004180D02*
D03*
X0006720D02*
D03*
X0009260D02*
D03*
X0011800D02*
D03*
X0014340D02*
D03*
X0016880D02*
D03*
X0021960D02*
D03*
X0043660D02*
D03*
X0041120D02*
D03*
X0038580D02*
D03*
X0036040D02*
D03*
X0033500D02*
D03*
X0030960D02*
D03*
X0028420D02*
D03*
D46*
X0041100Y0008550D02*
D03*
Y0007450D02*
D03*
X0039650Y0008550D02*
D03*
Y0007450D02*
D03*
X0036000Y0008550D02*
D03*
Y0007450D02*
D03*
X0037100D02*
D03*
Y0008550D02*
D03*
X0075500Y0026150D02*
D03*
Y0027250D02*
D03*
X0076450Y0027250D02*
D03*
Y0026150D02*
D03*
X0062450Y0029550D02*
D03*
Y0028450D02*
D03*
X0019420Y0014550D02*
D03*
Y0015650D02*
D03*
X0056000Y0028500D02*
D03*
Y0027400D02*
D03*
Y0030300D02*
D03*
Y0031400D02*
D03*
X0076450Y0033200D02*
D03*
Y0032100D02*
D03*
X0063600Y0032700D02*
D03*
Y0031600D02*
D03*
X0075550Y0033200D02*
D03*
Y0032100D02*
D03*
X0064500Y0031600D02*
D03*
Y0030500D02*
D03*
X0062700Y0031600D02*
D03*
Y0032700D02*
D03*
X0083900Y0028575D02*
D03*
Y0029675D02*
D03*
X0080900D02*
D03*
Y0028575D02*
D03*
X0065450Y0030500D02*
D03*
Y0031600D02*
D03*
X0068450Y0030500D02*
D03*
Y0031600D02*
D03*
X0055600Y0008421D02*
D03*
Y0007321D02*
D03*
X0053050D02*
D03*
Y0008421D02*
D03*
X0024500Y0048700D02*
D03*
Y0047600D02*
D03*
X0073550Y0030500D02*
D03*
Y0031600D02*
D03*
X0065450Y0028450D02*
D03*
Y0029550D02*
D03*
X0022050Y0009300D02*
D03*
Y0010400D02*
D03*
D47*
X0074950Y0005350D02*
D03*
X0076050D02*
D03*
X0071450Y0030500D02*
D03*
X0072550D02*
D03*
X0082950Y0029675D02*
D03*
X0081850D02*
D03*
X0062450Y0030500D02*
D03*
X0063550D02*
D03*
X0061875Y0034200D02*
D03*
X0062975D02*
D03*
X0025600Y0006750D02*
D03*
X0024500D02*
D03*
X0066400Y0030500D02*
D03*
X0067500D02*
D03*
X0078600Y0029675D02*
D03*
X0077500D02*
D03*
X0070500Y0030500D02*
D03*
X0069400D02*
D03*
X0067500Y0031450D02*
D03*
X0066400D02*
D03*
X0063400Y0029550D02*
D03*
X0064500D02*
D03*
Y0028450D02*
D03*
X0063400D02*
D03*
X0020950Y0008350D02*
D03*
X0022050D02*
D03*
X0076050Y0003050D02*
D03*
X0074950D02*
D03*
Y0004200D02*
D03*
X0076050D02*
D03*
X0074950Y0006500D02*
D03*
X0076050D02*
D03*
X0074950Y0007650D02*
D03*
X0076050D02*
D03*
D48*
X0020650Y0007000D02*
D03*
X0022450D02*
D03*
D49*
X0054550Y0031700D02*
D03*
Y0029900D02*
D03*
D50*
X0026050Y0016900D02*
D03*
X0024550D02*
D03*
X0026050Y0012350D02*
D03*
X0024550D02*
D03*
X0023350Y0016900D02*
D03*
X0021850D02*
D03*
X0023350Y0012350D02*
D03*
X0021850D02*
D03*
D51*
X0018120Y0016000D02*
D03*
Y0014200D02*
D03*
D52*
X0053050Y0003971D02*
D03*
Y0005971D02*
D03*
X0055600Y0005921D02*
D03*
Y0003921D02*
D03*
D53*
X0076475Y0030325D02*
D03*
Y0029675D02*
D03*
Y0029025D02*
D03*
X0074575D02*
D03*
Y0029675D02*
D03*
Y0030325D02*
D03*
D54*
X0086650Y0029675D02*
D03*
D55*
X0059200Y0029000D02*
D03*
D56*
X0060450Y0030900D02*
D03*
X0059950D02*
D03*
X0059450D02*
D03*
X0058950D02*
D03*
X0058450D02*
D03*
X0057950D02*
D03*
Y0027100D02*
D03*
X0058450D02*
D03*
X0058950D02*
D03*
X0059450D02*
D03*
X0059950D02*
D03*
X0060450D02*
D03*
D57*
X0057300Y0030250D02*
D03*
Y0029750D02*
D03*
Y0029250D02*
D03*
Y0028750D02*
D03*
Y0028250D02*
D03*
Y0027750D02*
D03*
X0061100D02*
D03*
Y0028250D02*
D03*
Y0028750D02*
D03*
Y0029250D02*
D03*
Y0029750D02*
D03*
Y0030250D02*
D03*
D58*
X0058525Y0036150D02*
D03*
Y0035100D02*
D03*
X0059875Y0036150D02*
D03*
Y0035100D02*
D03*
D59*
X0050350Y0023550D02*
D03*
D60*
X0046200Y0050610D02*
D03*
X0024500D02*
D03*
X0033500Y0002350D02*
D03*
X0010500D02*
D03*
X0033500Y0004890D02*
D03*
X0010500D02*
D03*
X0024500Y0053150D02*
D03*
X0046200D02*
D03*
D61*
X0021450Y0014550D02*
D03*
D62*
X0023990D02*
D03*
D63*
X0086650Y0025295D02*
D03*
Y0034055D02*
D03*
M02*
