G04 Layer_Color=8421504*
%FSAX43Y43*%
%MOMM*%
G71*
G01*
G75*
%ADD10R,0.650X0.650*%
%ADD11R,0.650X0.650*%
%ADD12R,1.300X1.300*%
%ADD13R,1.600X1.300*%
%ADD14R,0.900X0.900*%
%ADD15R,1.300X1.300*%
%ADD16R,1.000X0.800*%
%ADD17R,0.850X0.400*%
%ADD18R,4.200X1.905*%
%ADD20O,0.300X0.800*%
%ADD21O,0.800X0.300*%
%ADD22R,0.850X0.750*%
%ADD32C,0.050*%
G36*
X0060350Y0027850D02*
X0059250Y0027850D01*
X0059250Y0028950D01*
X0060350Y0028950D01*
X0060350Y0027850D01*
D02*
G37*
G36*
X0059150Y0028950D02*
X0059150Y0027850D01*
X0058050Y0027850D01*
X0058050Y0028950D01*
X0059150Y0028950D01*
D02*
G37*
G36*
X0080250Y0024150D02*
X0080250D01*
Y0023150D01*
X0049950D01*
Y0024150D01*
Y0028150D01*
X0050950D01*
Y0024150D01*
X0079250D01*
Y0029150D01*
X0080250D01*
Y0024150D01*
D02*
G37*
G36*
X0080250Y0042550D02*
Y0041550D01*
Y0030200D01*
X0079250D01*
Y0041550D01*
X0050950D01*
Y0031250D01*
X0049950D01*
Y0041550D01*
Y0042550D01*
Y0042550D01*
X0050950D01*
Y0042550D01*
X0079250D01*
Y0042550D01*
X0080250D01*
Y0042550D01*
D02*
G37*
G36*
X0060350Y0029050D02*
X0059250D01*
X0059250Y0030150D01*
X0060350Y0030150D01*
X0060350Y0029050D01*
D02*
G37*
G36*
X0059150Y0030150D02*
Y0029050D01*
X0058050Y0029050D01*
Y0030150D01*
X0059150Y0030150D01*
D02*
G37*
D10*
X0041100Y0008550D02*
D03*
Y0007450D02*
D03*
X0039650Y0008550D02*
D03*
Y0007450D02*
D03*
X0036000Y0008550D02*
D03*
Y0007450D02*
D03*
X0037100D02*
D03*
Y0008550D02*
D03*
X0075500Y0026150D02*
D03*
Y0027250D02*
D03*
X0076450Y0027250D02*
D03*
Y0026150D02*
D03*
X0062450Y0029550D02*
D03*
Y0028450D02*
D03*
X0019420Y0014550D02*
D03*
Y0015650D02*
D03*
X0056000Y0028500D02*
D03*
Y0027400D02*
D03*
Y0030300D02*
D03*
Y0031400D02*
D03*
X0076450Y0033200D02*
D03*
Y0032100D02*
D03*
X0063600Y0032700D02*
D03*
Y0031600D02*
D03*
X0075550Y0033200D02*
D03*
Y0032100D02*
D03*
X0064500Y0031600D02*
D03*
Y0030500D02*
D03*
X0062700Y0031600D02*
D03*
Y0032700D02*
D03*
X0083900Y0028575D02*
D03*
Y0029675D02*
D03*
X0080900D02*
D03*
Y0028575D02*
D03*
X0065450Y0030500D02*
D03*
Y0031600D02*
D03*
X0068450Y0030500D02*
D03*
Y0031600D02*
D03*
X0055600Y0008421D02*
D03*
Y0007321D02*
D03*
X0053050D02*
D03*
Y0008421D02*
D03*
X0024500Y0048700D02*
D03*
Y0047600D02*
D03*
X0073550Y0030500D02*
D03*
Y0031600D02*
D03*
X0065450Y0028450D02*
D03*
Y0029550D02*
D03*
X0022050Y0009300D02*
D03*
Y0010400D02*
D03*
D11*
X0074950Y0005350D02*
D03*
X0076050D02*
D03*
X0071450Y0030500D02*
D03*
X0072550D02*
D03*
X0082950Y0029675D02*
D03*
X0081850D02*
D03*
X0062450Y0030500D02*
D03*
X0063550D02*
D03*
X0061875Y0034200D02*
D03*
X0062975D02*
D03*
X0025600Y0006750D02*
D03*
X0024500D02*
D03*
X0066400Y0030500D02*
D03*
X0067500D02*
D03*
X0078600Y0029675D02*
D03*
X0077500D02*
D03*
X0070500Y0030500D02*
D03*
X0069400D02*
D03*
X0067500Y0031450D02*
D03*
X0066400D02*
D03*
X0063400Y0029550D02*
D03*
X0064500D02*
D03*
Y0028450D02*
D03*
X0063400D02*
D03*
X0020950Y0008350D02*
D03*
X0022050D02*
D03*
X0076050Y0003050D02*
D03*
X0074950D02*
D03*
Y0004200D02*
D03*
X0076050D02*
D03*
X0074950Y0006500D02*
D03*
X0076050D02*
D03*
X0074950Y0007650D02*
D03*
X0076050D02*
D03*
D12*
X0020650Y0007000D02*
D03*
X0022450D02*
D03*
D13*
X0054550Y0031700D02*
D03*
Y0029900D02*
D03*
D14*
X0026050Y0016900D02*
D03*
X0024550D02*
D03*
X0026050Y0012350D02*
D03*
X0024550D02*
D03*
X0023350Y0016900D02*
D03*
X0021850D02*
D03*
X0023350Y0012350D02*
D03*
X0021850D02*
D03*
D15*
X0018120Y0016000D02*
D03*
Y0014200D02*
D03*
D16*
X0053050Y0003971D02*
D03*
Y0005971D02*
D03*
X0055600Y0005921D02*
D03*
Y0003921D02*
D03*
D17*
X0076475Y0030325D02*
D03*
Y0029675D02*
D03*
Y0029025D02*
D03*
X0074575D02*
D03*
Y0029675D02*
D03*
Y0030325D02*
D03*
D18*
X0086650Y0029675D02*
D03*
D20*
X0060450Y0030900D02*
D03*
X0059950D02*
D03*
X0059450D02*
D03*
X0058950D02*
D03*
X0058450D02*
D03*
X0057950D02*
D03*
Y0027100D02*
D03*
X0058450D02*
D03*
X0058950D02*
D03*
X0059450D02*
D03*
X0059950D02*
D03*
X0060450D02*
D03*
D21*
X0057300Y0030250D02*
D03*
Y0029750D02*
D03*
Y0029250D02*
D03*
Y0028750D02*
D03*
Y0028250D02*
D03*
Y0027750D02*
D03*
X0061100D02*
D03*
Y0028250D02*
D03*
Y0028750D02*
D03*
Y0029250D02*
D03*
Y0029750D02*
D03*
Y0030250D02*
D03*
D22*
X0058525Y0036150D02*
D03*
Y0035100D02*
D03*
X0059875Y0036150D02*
D03*
Y0035100D02*
D03*
D32*
X0000000Y0000000D02*
Y0058000D01*
Y0000000D02*
X0089000D01*
Y0058000D01*
X0000000D02*
X0089000D01*
M02*
