G04 Layer_Color=65535*
%FSAX43Y43*%
%MOMM*%
G71*
G01*
G75*
%ADD24C,0.200*%
%ADD26C,0.300*%
%ADD28C,0.350*%
%ADD29C,0.250*%
%ADD32C,0.050*%
%ADD41C,0.150*%
%ADD42C,0.025*%
%ADD43C,0.028*%
%ADD44C,0.100*%
%ADD45C,0.020*%
D24*
X0074700Y0030875D02*
G03*
X0074700Y0030875I-0000150J0000000D01*
G01*
X0020150Y0013250D02*
X0025250D01*
X0020150Y0015850D02*
X0025250D01*
Y0013250D02*
Y0015850D01*
X0020150Y0013250D02*
Y0015850D01*
X0052650Y0006621D02*
X0053450D01*
X0055200Y0006571D02*
X0056000D01*
X0075775Y0028675D02*
Y0030675D01*
X0075275Y0028675D02*
Y0030675D01*
Y0028675D02*
X0075775D01*
X0075275Y0030675D02*
X0075775D01*
X0047511Y0052710D02*
X0047844D01*
X0047677D01*
Y0053710D01*
X0047511Y0053544D01*
X0026000Y0052610D02*
X0026333D01*
X0026167D01*
Y0053610D01*
X0026000Y0053444D01*
X0031731Y0004415D02*
X0032064D01*
X0031898D01*
Y0005414D01*
X0031731Y0005248D01*
X0008911Y0004410D02*
X0009244D01*
X0009077D01*
Y0005410D01*
X0008911Y0005244D01*
X0061900Y0031150D02*
X0062100D01*
X0062000D01*
Y0031750D01*
X0061900Y0031650D01*
X0057700Y0034100D02*
X0057867D01*
X0057783D01*
Y0034600D01*
X0057700Y0034517D01*
X0049300Y0023150D02*
X0049500D01*
X0049400D01*
Y0023750D01*
X0049300Y0023650D01*
D26*
X0040083Y0013459D02*
X0040225Y0013600D01*
Y0013883D01*
X0040083Y0014025D01*
X0039941D01*
X0039800Y0013883D01*
Y0013600D01*
X0039658Y0013459D01*
X0039517D01*
X0039375Y0013600D01*
Y0013883D01*
X0039517Y0014025D01*
X0040225Y0013175D02*
X0039375Y0012609D01*
X0040225D02*
X0039375Y0013175D01*
Y0012326D02*
Y0012042D01*
Y0012184D01*
X0040225D01*
X0040083Y0012326D01*
X0039375Y0011051D02*
Y0011617D01*
X0039941Y0011051D01*
X0040083D01*
X0040225Y0011193D01*
Y0011476D01*
X0040083Y0011617D01*
X0040225Y0010201D02*
X0040083Y0010484D01*
X0039800Y0010768D01*
X0039517D01*
X0039375Y0010626D01*
Y0010343D01*
X0039517Y0010201D01*
X0039658D01*
X0039800Y0010343D01*
Y0010768D01*
X0039375Y0009351D02*
Y0009918D01*
X0039941Y0009351D01*
X0040083D01*
X0040225Y0009493D01*
Y0009776D01*
X0040083Y0009918D01*
X0025850Y0015000D02*
Y0014333D01*
X0026183Y0014000D01*
X0026516Y0014333D01*
Y0015000D01*
X0026850D02*
Y0014000D01*
X0027350D01*
X0027516Y0014167D01*
Y0014833D01*
X0027350Y0015000D01*
X0026850D01*
X0027849D02*
Y0014000D01*
X0028349D01*
X0028516Y0014167D01*
Y0014833D01*
X0028349Y0015000D01*
X0027849D01*
X0028849Y0013833D02*
X0029515D01*
X0029849Y0014000D02*
Y0015000D01*
X0030349D01*
X0030515Y0014833D01*
Y0014500D01*
X0030349Y0014333D01*
X0029849D01*
X0030182D02*
X0030515Y0014000D01*
X0030848D02*
Y0014666D01*
X0031182Y0015000D01*
X0031515Y0014666D01*
Y0014000D01*
Y0014500D01*
X0030848D01*
X0031848Y0015000D02*
Y0014000D01*
X0032348D01*
X0032515Y0014167D01*
Y0014833D01*
X0032348Y0015000D01*
X0031848D01*
X0032848D02*
X0033181D01*
X0033014D01*
Y0014000D01*
X0032848D01*
X0033181D01*
X0034181Y0015000D02*
X0033847D01*
X0033681Y0014833D01*
Y0014167D01*
X0033847Y0014000D01*
X0034181D01*
X0034347Y0014167D01*
Y0014833D01*
X0034181Y0015000D01*
X0056750Y0005821D02*
X0057750D01*
Y0005321D01*
X0057583Y0005154D01*
X0057250D01*
X0057083Y0005321D01*
Y0005821D01*
Y0005487D02*
X0056750Y0005154D01*
X0057750Y0004821D02*
X0056750Y0004155D01*
X0057750D02*
X0056750Y0004821D01*
X0051850Y0005871D02*
Y0005204D01*
Y0005537D01*
X0050850D01*
X0051850Y0004871D02*
X0050850Y0004205D01*
X0051850D02*
X0050850Y0004871D01*
X0019700Y0016400D02*
Y0017400D01*
X0020200D01*
X0020366Y0017233D01*
Y0016900D01*
X0020200Y0016733D01*
X0019700D01*
X0020033D02*
X0020366Y0016400D01*
X0020700D02*
X0021033D01*
X0020866D01*
Y0017400D01*
X0020700Y0017233D01*
X0019350Y0011700D02*
Y0012700D01*
X0019850D01*
X0020016Y0012533D01*
Y0012200D01*
X0019850Y0012033D01*
X0019350D01*
X0019683D02*
X0020016Y0011700D01*
X0021016D02*
X0020350D01*
X0021016Y0012366D01*
Y0012533D01*
X0020850Y0012700D01*
X0020516D01*
X0020350Y0012533D01*
X0062010Y0027050D02*
Y0026300D01*
X0062160Y0026150D01*
X0062460D01*
X0062610Y0026300D01*
Y0027050D01*
X0062910Y0026150D02*
X0063210D01*
X0063060D01*
Y0027050D01*
X0062910Y0026900D01*
X0041575Y0012400D02*
X0040725Y0011834D01*
X0041575D02*
X0040725Y0012400D01*
X0041575Y0011550D02*
Y0010984D01*
Y0011267D01*
X0040725D01*
Y0010701D02*
X0041291D01*
X0041575Y0010417D01*
X0041291Y0010134D01*
X0040725D01*
X0041150D01*
Y0010701D01*
X0041575Y0009851D02*
X0040725D01*
Y0009284D01*
X0026046Y0056170D02*
X0025623D01*
X0025835D01*
Y0055112D01*
X0025623Y0054900D01*
X0025412D01*
X0025200Y0055112D01*
X0027316Y0054900D02*
X0026470D01*
X0027316Y0055746D01*
Y0055958D01*
X0027104Y0056170D01*
X0026681D01*
X0026470Y0055958D01*
X0046646Y0056170D02*
X0046223D01*
X0046435D01*
Y0055112D01*
X0046223Y0054900D01*
X0046012D01*
X0045800Y0055112D01*
X0047070Y0054900D02*
X0047493D01*
X0047281D01*
Y0056170D01*
X0047070Y0055958D01*
X0033296Y0008120D02*
X0032873D01*
X0033085D01*
Y0007062D01*
X0032873Y0006850D01*
X0032662D01*
X0032450Y0007062D01*
X0034354Y0006850D02*
Y0008120D01*
X0033720Y0007485D01*
X0034566D01*
X0010370Y0008120D02*
X0009947D01*
X0010159D01*
Y0007062D01*
X0009947Y0006850D01*
X0009736D01*
X0009524Y0007062D01*
X0010793Y0007908D02*
X0011005Y0008120D01*
X0011428D01*
X0011640Y0007908D01*
Y0007696D01*
X0011428Y0007485D01*
X0011217D01*
X0011428D01*
X0011640Y0007273D01*
Y0007062D01*
X0011428Y0006850D01*
X0011005D01*
X0010793Y0007062D01*
D28*
X0083550Y0021925D02*
Y0023325D01*
X0084250D01*
X0084483Y0023091D01*
Y0022625D01*
X0084250Y0022392D01*
X0083550D01*
X0084017D02*
X0084483Y0021925D01*
X0085883Y0023325D02*
X0084950D01*
Y0022625D01*
X0085416D01*
X0084950D01*
Y0021925D01*
X0086349Y0023325D02*
X0086816D01*
X0086582D01*
Y0021925D01*
X0086349D01*
X0086816D01*
X0088215Y0023325D02*
X0087749D01*
X0087515Y0023091D01*
Y0022158D01*
X0087749Y0021925D01*
X0088215D01*
X0088448Y0022158D01*
Y0023091D01*
X0088215Y0023325D01*
X0072196Y0010570D02*
X0071350D01*
Y0009935D01*
X0071773D01*
X0071350D01*
Y0009300D01*
X0072620Y0010146D02*
Y0009300D01*
Y0009723D01*
X0072831Y0009935D01*
X0073043Y0010146D01*
X0073254D01*
X0074524Y0009300D02*
X0074101D01*
X0073889Y0009512D01*
Y0009935D01*
X0074101Y0010146D01*
X0074524D01*
X0074736Y0009935D01*
Y0009723D01*
X0073889D01*
X0076005Y0008877D02*
Y0010146D01*
X0075370D01*
X0075159Y0009935D01*
Y0009512D01*
X0075370Y0009300D01*
X0076005D01*
X0077698Y0010570D02*
Y0009300D01*
X0078333D01*
X0078544Y0009512D01*
Y0009723D01*
X0078333Y0009935D01*
X0077698D01*
X0078333D01*
X0078544Y0010146D01*
Y0010358D01*
X0078333Y0010570D01*
X0077698D01*
X0079179Y0010146D02*
X0079602D01*
X0079814Y0009935D01*
Y0009300D01*
X0079179D01*
X0078968Y0009512D01*
X0079179Y0009723D01*
X0079814D01*
X0080237Y0009300D02*
Y0010146D01*
X0080872D01*
X0081084Y0009935D01*
Y0009300D01*
X0082353Y0010570D02*
Y0009300D01*
X0081718D01*
X0081507Y0009512D01*
Y0009935D01*
X0081718Y0010146D01*
X0082353D01*
X0082776D02*
X0082988D01*
Y0009935D01*
X0082776D01*
Y0010146D01*
Y0009512D02*
X0082988D01*
Y0009300D01*
X0082776D01*
Y0009512D01*
X0051658Y0056391D02*
X0051425Y0056625D01*
X0050958D01*
X0050725Y0056391D01*
Y0056158D01*
X0050958Y0055925D01*
X0051425D01*
X0051658Y0055692D01*
Y0055458D01*
X0051425Y0055225D01*
X0050958D01*
X0050725Y0055458D01*
X0052125Y0056625D02*
X0053058Y0055225D01*
Y0056625D02*
X0052125Y0055225D01*
X0053524D02*
X0053991D01*
X0053757D01*
Y0056625D01*
X0053524Y0056391D01*
X0055623Y0055225D02*
X0054690D01*
X0055623Y0056158D01*
Y0056391D01*
X0055390Y0056625D01*
X0054924D01*
X0054690Y0056391D01*
X0057023Y0056625D02*
X0056556Y0056391D01*
X0056090Y0055925D01*
Y0055458D01*
X0056323Y0055225D01*
X0056790D01*
X0057023Y0055458D01*
Y0055692D01*
X0056790Y0055925D01*
X0056090D01*
X0058423Y0055225D02*
X0057489D01*
X0058423Y0056158D01*
Y0056391D01*
X0058189Y0056625D01*
X0057723D01*
X0057489Y0056391D01*
X0061222Y0056625D02*
X0060289D01*
Y0055225D01*
X0061222D01*
X0060289Y0055925D02*
X0060755D01*
X0061688Y0056158D02*
X0062155Y0055225D01*
X0062621Y0056158D01*
X0063321D02*
X0063787D01*
X0064021Y0055925D01*
Y0055225D01*
X0063321D01*
X0063088Y0055458D01*
X0063321Y0055692D01*
X0064021D01*
X0064487Y0055225D02*
X0064954D01*
X0064720D01*
Y0056625D01*
X0064487D01*
X0065654Y0056158D02*
Y0055458D01*
X0065887Y0055225D01*
X0066587D01*
Y0056158D01*
X0067286D02*
X0067753D01*
X0067986Y0055925D01*
Y0055225D01*
X0067286D01*
X0067053Y0055458D01*
X0067286Y0055692D01*
X0067986D01*
X0068686Y0056391D02*
Y0056158D01*
X0068453D01*
X0068919D01*
X0068686D01*
Y0055458D01*
X0068919Y0055225D01*
X0069619D02*
X0070085D01*
X0069852D01*
Y0056158D01*
X0069619D01*
X0071018Y0055225D02*
X0071485D01*
X0071718Y0055458D01*
Y0055925D01*
X0071485Y0056158D01*
X0071018D01*
X0070785Y0055925D01*
Y0055458D01*
X0071018Y0055225D01*
X0072185D02*
Y0056158D01*
X0072884D01*
X0073118Y0055925D01*
Y0055225D01*
X0074984Y0056625D02*
Y0055225D01*
X0075684D01*
X0075917Y0055458D01*
Y0055692D01*
X0075684Y0055925D01*
X0074984D01*
X0075684D01*
X0075917Y0056158D01*
Y0056391D01*
X0075684Y0056625D01*
X0074984D01*
X0076617Y0055225D02*
X0077083D01*
X0077316Y0055458D01*
Y0055925D01*
X0077083Y0056158D01*
X0076617D01*
X0076383Y0055925D01*
Y0055458D01*
X0076617Y0055225D01*
X0078016Y0056158D02*
X0078483D01*
X0078716Y0055925D01*
Y0055225D01*
X0078016D01*
X0077783Y0055458D01*
X0078016Y0055692D01*
X0078716D01*
X0079182Y0056158D02*
Y0055225D01*
Y0055692D01*
X0079416Y0055925D01*
X0079649Y0056158D01*
X0079882D01*
X0081515Y0056625D02*
Y0055225D01*
X0080815D01*
X0080582Y0055458D01*
Y0055925D01*
X0080815Y0056158D01*
X0081515D01*
X0056650Y0052550D02*
Y0053820D01*
X0057285D01*
X0057496Y0053608D01*
Y0053185D01*
X0057285Y0052973D01*
X0056650D01*
X0058766Y0053608D02*
X0058554Y0053820D01*
X0058131D01*
X0057920Y0053608D01*
Y0052762D01*
X0058131Y0052550D01*
X0058554D01*
X0058766Y0052762D01*
X0059189Y0053820D02*
Y0052550D01*
X0059824D01*
X0060036Y0052762D01*
Y0052973D01*
X0059824Y0053185D01*
X0059189D01*
X0059824D01*
X0060036Y0053396D01*
Y0053608D01*
X0059824Y0053820D01*
X0059189D01*
X0060459Y0052338D02*
X0061305D01*
X0062575Y0053820D02*
X0061728D01*
Y0052550D01*
X0062575D01*
X0061728Y0053185D02*
X0062152D01*
X0063633Y0052550D02*
Y0053820D01*
X0062998Y0053185D01*
X0063844D01*
X0065114Y0052550D02*
X0064268D01*
X0065114Y0053396D01*
Y0053608D01*
X0064902Y0053820D01*
X0064479D01*
X0064268Y0053608D01*
X0065537D02*
X0065749Y0053820D01*
X0066172D01*
X0066384Y0053608D01*
Y0053396D01*
X0066172Y0053185D01*
X0066384Y0052973D01*
Y0052762D01*
X0066172Y0052550D01*
X0065749D01*
X0065537Y0052762D01*
Y0052973D01*
X0065749Y0053185D01*
X0065537Y0053396D01*
Y0053608D01*
X0065749Y0053185D02*
X0066172D01*
X0066807Y0053820D02*
Y0052973D01*
X0067230Y0052550D01*
X0067653Y0052973D01*
Y0053820D01*
X0068076Y0053608D02*
X0068288Y0053820D01*
X0068711D01*
X0068923Y0053608D01*
Y0052762D01*
X0068711Y0052550D01*
X0068288D01*
X0068076Y0052762D01*
Y0053608D01*
X0069346D02*
X0069557Y0053820D01*
X0069981D01*
X0070192Y0053608D01*
Y0053396D01*
X0069981Y0053185D01*
X0069769D01*
X0069981D01*
X0070192Y0052973D01*
Y0052762D01*
X0069981Y0052550D01*
X0069557D01*
X0069346Y0052762D01*
X0070615Y0052550D02*
Y0053396D01*
X0071039Y0053820D01*
X0071462Y0053396D01*
Y0052550D01*
Y0053185D01*
X0070615D01*
X0074001Y0053820D02*
X0073155D01*
Y0053185D01*
X0073578Y0053396D01*
X0073789D01*
X0074001Y0053185D01*
Y0052762D01*
X0073789Y0052550D01*
X0073366D01*
X0073155Y0052762D01*
X0074424Y0053608D02*
X0074636Y0053820D01*
X0075059D01*
X0075271Y0053608D01*
Y0052762D01*
X0075059Y0052550D01*
X0074636D01*
X0074424Y0052762D01*
Y0053608D01*
X0075694Y0052550D02*
X0076117D01*
X0075905D01*
Y0053820D01*
X0075694Y0053608D01*
X0076752Y0053820D02*
X0077598D01*
Y0053608D01*
X0076752Y0052762D01*
Y0052550D01*
X0070157Y0038466D02*
X0069924Y0038700D01*
X0069457D01*
X0069224Y0038466D01*
Y0038233D01*
X0069457Y0038000D01*
X0069924D01*
X0070157Y0037767D01*
Y0037533D01*
X0069924Y0037300D01*
X0069457D01*
X0069224Y0037533D01*
X0070623Y0038700D02*
X0071556Y0037300D01*
Y0038700D02*
X0070623Y0037300D01*
X0072023D02*
X0072489D01*
X0072256D01*
Y0038700D01*
X0072023Y0038466D01*
X0074122Y0037300D02*
X0073189D01*
X0074122Y0038233D01*
Y0038466D01*
X0073889Y0038700D01*
X0073422D01*
X0073189Y0038466D01*
X0075522Y0038700D02*
X0075055Y0038466D01*
X0074589Y0038000D01*
Y0037533D01*
X0074822Y0037300D01*
X0075288D01*
X0075522Y0037533D01*
Y0037767D01*
X0075288Y0038000D01*
X0074589D01*
X0076921Y0037300D02*
X0075988D01*
X0076921Y0038233D01*
Y0038466D01*
X0076688Y0038700D01*
X0076221D01*
X0075988Y0038466D01*
D29*
X0077000Y0004925D02*
Y0005725D01*
X0077400D01*
X0077533Y0005591D01*
Y0005325D01*
X0077400Y0005192D01*
X0077000D01*
X0077267D02*
X0077533Y0004925D01*
X0078200D02*
Y0005725D01*
X0077800Y0005325D01*
X0078333D01*
X0078599Y0005058D02*
X0078733Y0004925D01*
X0078999D01*
X0079133Y0005058D01*
Y0005591D01*
X0078999Y0005725D01*
X0078733D01*
X0078599Y0005591D01*
Y0005458D01*
X0078733Y0005325D01*
X0079133D01*
X0079399Y0005591D02*
X0079533Y0005725D01*
X0079799D01*
X0079932Y0005591D01*
Y0005058D01*
X0079799Y0004925D01*
X0079533D01*
X0079399Y0005058D01*
Y0005591D01*
X0077000Y0007300D02*
Y0008100D01*
X0077400D01*
X0077533Y0007966D01*
Y0007700D01*
X0077400Y0007567D01*
X0077000D01*
X0077267D02*
X0077533Y0007300D01*
X0077800Y0007433D02*
X0077933Y0007300D01*
X0078200D01*
X0078333Y0007433D01*
Y0007966D01*
X0078200Y0008100D01*
X0077933D01*
X0077800Y0007966D01*
Y0007833D01*
X0077933Y0007700D01*
X0078333D01*
X0078599Y0007300D02*
X0078866D01*
X0078733D01*
Y0008100D01*
X0078599Y0007966D01*
X0079799Y0008100D02*
X0079266D01*
Y0007700D01*
X0079533Y0007833D01*
X0079666D01*
X0079799Y0007700D01*
Y0007433D01*
X0079666Y0007300D01*
X0079399D01*
X0079266Y0007433D01*
X0077000Y0006100D02*
Y0006900D01*
X0077400D01*
X0077533Y0006766D01*
Y0006500D01*
X0077400Y0006367D01*
X0077000D01*
X0077267D02*
X0077533Y0006100D01*
X0077800Y0006766D02*
X0077933Y0006900D01*
X0078200D01*
X0078333Y0006766D01*
Y0006633D01*
X0078200Y0006500D01*
X0078333Y0006367D01*
Y0006233D01*
X0078200Y0006100D01*
X0077933D01*
X0077800Y0006233D01*
Y0006367D01*
X0077933Y0006500D01*
X0077800Y0006633D01*
Y0006766D01*
X0077933Y0006500D02*
X0078200D01*
X0079133Y0006900D02*
X0078866Y0006766D01*
X0078599Y0006500D01*
Y0006233D01*
X0078733Y0006100D01*
X0078999D01*
X0079133Y0006233D01*
Y0006367D01*
X0078999Y0006500D01*
X0078599D01*
X0079399Y0006766D02*
X0079533Y0006900D01*
X0079799D01*
X0079932Y0006766D01*
Y0006633D01*
X0079799Y0006500D01*
X0079932Y0006367D01*
Y0006233D01*
X0079799Y0006100D01*
X0079533D01*
X0079399Y0006233D01*
Y0006367D01*
X0079533Y0006500D01*
X0079399Y0006633D01*
Y0006766D01*
X0079533Y0006500D02*
X0079799D01*
X0077000Y0003750D02*
Y0004550D01*
X0077400D01*
X0077533Y0004416D01*
Y0004150D01*
X0077400Y0004017D01*
X0077000D01*
X0077267D02*
X0077533Y0003750D01*
X0078200D02*
Y0004550D01*
X0077800Y0004150D01*
X0078333D01*
X0078599Y0004416D02*
X0078733Y0004550D01*
X0078999D01*
X0079133Y0004416D01*
Y0004283D01*
X0078999Y0004150D01*
X0078866D01*
X0078999D01*
X0079133Y0004017D01*
Y0003883D01*
X0078999Y0003750D01*
X0078733D01*
X0078599Y0003883D01*
X0079799Y0003750D02*
Y0004550D01*
X0079399Y0004150D01*
X0079932D01*
X0077400Y0003375D02*
X0077133D01*
X0077000Y0003241D01*
Y0002708D01*
X0077133Y0002575D01*
X0077400D01*
X0077533Y0002708D01*
Y0003241D01*
X0077400Y0003375D01*
X0077933Y0003241D02*
Y0003108D01*
X0077800D01*
X0078066D01*
X0077933D01*
Y0002708D01*
X0078066Y0002575D01*
X0078466Y0003375D02*
Y0002575D01*
Y0002975D01*
X0078599Y0003108D01*
X0078866D01*
X0078999Y0002975D01*
Y0002575D01*
X0079666D02*
X0079399D01*
X0079266Y0002708D01*
Y0002975D01*
X0079399Y0003108D01*
X0079666D01*
X0079799Y0002975D01*
Y0002842D01*
X0079266D01*
X0080066Y0003108D02*
Y0002575D01*
Y0002842D01*
X0080199Y0002975D01*
X0080332Y0003108D01*
X0080466D01*
X0060458Y0007016D02*
X0060325Y0007150D01*
X0060058D01*
X0059925Y0007016D01*
Y0006483D01*
X0060058Y0006350D01*
X0060325D01*
X0060458Y0006483D01*
Y0006750D01*
X0060192D01*
X0060725Y0006350D02*
Y0007150D01*
X0061258Y0006350D01*
Y0007150D01*
X0061524D02*
Y0006350D01*
X0061924D01*
X0062058Y0006483D01*
Y0007016D01*
X0061924Y0007150D01*
X0061524D01*
X0075183Y0041066D02*
X0075050Y0041200D01*
X0074783D01*
X0074650Y0041066D01*
Y0040933D01*
X0074783Y0040800D01*
X0075050D01*
X0075183Y0040667D01*
Y0040533D01*
X0075050Y0040400D01*
X0074783D01*
X0074650Y0040533D01*
X0075450Y0041200D02*
Y0040400D01*
Y0040800D01*
X0075583Y0040933D01*
X0075850D01*
X0075983Y0040800D01*
Y0040400D01*
X0076249D02*
X0076516D01*
X0076383D01*
Y0040933D01*
X0076249D01*
X0077316Y0040400D02*
X0077049D01*
X0076916Y0040533D01*
Y0040800D01*
X0077049Y0040933D01*
X0077316D01*
X0077449Y0040800D01*
Y0040667D01*
X0076916D01*
X0077716Y0040400D02*
X0077982D01*
X0077849D01*
Y0041200D01*
X0077716D01*
X0078915D02*
Y0040400D01*
X0078515D01*
X0078382Y0040533D01*
Y0040800D01*
X0078515Y0040933D01*
X0078915D01*
X0036350Y0010800D02*
Y0011300D01*
X0035975D01*
Y0011050D01*
Y0011300D01*
X0035600D01*
Y0010550D02*
X0036350D01*
Y0010175D01*
X0036225Y0010050D01*
X0035975D01*
X0035850Y0010175D01*
Y0010550D01*
Y0010300D02*
X0035600Y0010050D01*
X0036225Y0009800D02*
X0036350Y0009676D01*
Y0009426D01*
X0036225Y0009301D01*
X0035725D01*
X0035600Y0009426D01*
Y0009676D01*
X0035725Y0009800D01*
X0036225D01*
X0037550Y0010550D02*
Y0011050D01*
X0037175D01*
Y0010800D01*
Y0011050D01*
X0036800D01*
Y0010300D02*
X0037550D01*
Y0009925D01*
X0037425Y0009800D01*
X0037175D01*
X0037050Y0009925D01*
Y0010300D01*
Y0010050D02*
X0036800Y0009800D01*
Y0009551D02*
Y0009301D01*
Y0009426D01*
X0037550D01*
X0037425Y0009551D01*
X0073250Y0028100D02*
Y0027433D01*
X0073383Y0027300D01*
X0073650D01*
X0073783Y0027433D01*
Y0028100D01*
X0074583Y0027300D02*
X0074050D01*
X0074583Y0027833D01*
Y0027966D01*
X0074450Y0028100D01*
X0074183D01*
X0074050Y0027966D01*
X0057308Y0035308D02*
Y0035841D01*
X0057175Y0035975D01*
X0056908D01*
X0056775Y0035841D01*
Y0035308D01*
X0056908Y0035175D01*
X0057175D01*
X0057042Y0035442D02*
X0057308Y0035175D01*
X0057175D02*
X0057308Y0035308D01*
X0057575Y0035175D02*
X0057841D01*
X0057708D01*
Y0035975D01*
X0057575Y0035841D01*
D32*
X0000000Y0000000D02*
Y0058000D01*
Y0000000D02*
X0089000D01*
Y0058000D01*
X0000000D02*
X0089000D01*
D41*
X0061700Y0031350D02*
G03*
X0061700Y0031350I-0000150J0000000D01*
G01*
X0053475Y0036725D02*
X0077200D01*
X0053475Y0025550D02*
X0077200D01*
X0053475D02*
Y0036725D01*
X0077200Y0025550D02*
Y0029000D01*
Y0030350D02*
Y0036725D01*
D42*
X0055926Y0045250D02*
X0057603D01*
X0054250D02*
X0054275D01*
X0055952Y0045275D02*
X0057603D01*
X0054250D02*
X0054301D01*
X0055977Y0045301D02*
X0057603D01*
X0054250D02*
X0054326D01*
X0056003Y0045326D02*
X0057603D01*
X0054250D02*
X0054377D01*
X0056028Y0045352D02*
X0057603D01*
X0054250D02*
X0054402D01*
X0056053Y0045377D02*
X0057603D01*
X0054250D02*
X0054428D01*
X0056079Y0045402D02*
X0057603D01*
X0054250D02*
X0054479D01*
X0056104Y0045428D02*
X0057603D01*
X0054250D02*
X0054504D01*
X0056130Y0045453D02*
X0057603D01*
X0054250D02*
X0054529D01*
X0056155Y0045479D02*
X0057603D01*
X0054250D02*
X0054555D01*
X0056180Y0045504D02*
X0057603D01*
X0054250D02*
X0054606D01*
X0056206Y0045529D02*
X0057603D01*
X0054250D02*
X0054631D01*
X0056231Y0045555D02*
X0057603D01*
X0054250D02*
X0054656D01*
X0056257Y0045580D02*
X0057603D01*
X0054250D02*
X0054707D01*
X0056282Y0045606D02*
X0057603D01*
X0054250D02*
X0054733D01*
X0056307Y0045631D02*
X0057603D01*
X0054250D02*
X0054758D01*
X0056333Y0045656D02*
X0057603D01*
X0054250D02*
X0054783D01*
X0056358Y0045682D02*
X0057603D01*
X0054250D02*
X0054834D01*
X0056384Y0045707D02*
X0057603D01*
X0054250D02*
X0054860D01*
X0056409Y0045733D02*
X0057603D01*
X0054250D02*
X0054885D01*
X0056434Y0045758D02*
X0057603D01*
X0054250D02*
X0054910D01*
X0056460Y0045783D02*
X0057603D01*
X0054250D02*
X0054936D01*
X0056485Y0045809D02*
X0057603D01*
X0054250D02*
X0054987D01*
X0056511Y0045834D02*
X0057603D01*
X0054250D02*
X0055012D01*
X0056536Y0045860D02*
X0057603D01*
X0054250D02*
X0055037D01*
X0056561Y0045885D02*
X0057603D01*
X0054250D02*
X0055063D01*
X0056587Y0045910D02*
X0057603D01*
X0054250D02*
X0055088D01*
X0056587Y0045936D02*
X0057603D01*
X0054250D02*
X0055139D01*
X0056612Y0045961D02*
X0057603D01*
X0054250D02*
X0055164D01*
X0056638Y0045987D02*
X0057603D01*
X0054250D02*
X0055190D01*
X0056663Y0046012D02*
X0057603D01*
X0054250D02*
X0055215D01*
X0056688Y0046037D02*
X0057603D01*
X0054250D02*
X0055241D01*
X0056714Y0046063D02*
X0057603D01*
X0054250D02*
X0055266D01*
X0056739Y0046088D02*
X0057603D01*
X0054250D02*
X0055291D01*
X0056739Y0046114D02*
X0057603D01*
X0054250D02*
X0055342D01*
X0056765Y0046139D02*
X0057603D01*
X0054250D02*
X0055368D01*
X0056790Y0046164D02*
X0057603D01*
X0054250D02*
X0055393D01*
X0056815Y0046190D02*
X0057603D01*
X0054250D02*
X0055418D01*
X0056841Y0046215D02*
X0057603D01*
X0054250D02*
X0055444D01*
X0056866Y0046241D02*
X0057603D01*
X0054250D02*
X0055469D01*
X0056866Y0046266D02*
X0057603D01*
X0054250D02*
X0055495D01*
X0056892Y0046291D02*
X0057603D01*
X0054250D02*
X0055520D01*
X0056917Y0046317D02*
X0057603D01*
X0054250D02*
X0055571D01*
X0056942Y0046342D02*
X0057603D01*
X0054250D02*
X0055596D01*
X0056942Y0046368D02*
X0057603D01*
X0054250D02*
X0055622D01*
X0056968Y0046393D02*
X0057603D01*
X0054250D02*
X0055647D01*
X0056993Y0046418D02*
X0057603D01*
X0054250D02*
X0055672D01*
X0057019Y0046444D02*
X0057603D01*
X0054250D02*
X0055698D01*
X0057019Y0046469D02*
X0057603D01*
X0054250D02*
X0055723D01*
X0057044Y0046495D02*
X0057603D01*
X0054250D02*
X0055749D01*
X0057069Y0046520D02*
X0057603D01*
X0054250D02*
X0055774D01*
X0057069Y0046545D02*
X0057603D01*
X0054250D02*
X0055799D01*
X0057095Y0046571D02*
X0057603D01*
X0054250D02*
X0055825D01*
X0057120Y0046596D02*
X0057603D01*
X0054250D02*
X0055850D01*
X0057120Y0046622D02*
X0057603D01*
X0054250D02*
X0055876D01*
X0057146Y0046647D02*
X0057603D01*
X0054250D02*
X0055901D01*
X0057171Y0046672D02*
X0057603D01*
X0054250D02*
X0055926D01*
X0057171Y0046698D02*
X0057603D01*
X0054250D02*
X0055952D01*
X0057196Y0046723D02*
X0057603D01*
X0054250D02*
X0055977D01*
X0057222Y0046749D02*
X0057603D01*
X0054250D02*
X0056003D01*
X0057222Y0046774D02*
X0057603D01*
X0054250D02*
X0056028D01*
X0057247Y0046799D02*
X0057603D01*
X0054250D02*
X0056053D01*
X0057247Y0046825D02*
X0057603D01*
X0054250D02*
X0056079D01*
X0057273Y0046850D02*
X0057603D01*
X0054250D02*
X0056104D01*
X0057298Y0046876D02*
X0057603D01*
X0054250D02*
X0056130D01*
X0057298Y0046901D02*
X0057603D01*
X0054250D02*
X0056155D01*
X0057323Y0046926D02*
X0057603D01*
X0054250D02*
X0056180D01*
X0057323Y0046952D02*
X0057603D01*
X0054250D02*
X0056206D01*
X0057349Y0046977D02*
X0057603D01*
X0054250D02*
X0056231D01*
X0057349Y0047003D02*
X0057603D01*
X0054250D02*
X0056257D01*
X0057374Y0047028D02*
X0057603D01*
X0054250D02*
X0056282D01*
X0074697Y0047053D02*
X0075408D01*
X0059254D02*
X0059940D01*
X0057374D02*
X0057603D01*
X0054250D02*
X0056307D01*
X0074494Y0047079D02*
X0075662D01*
X0059025D02*
X0060194D01*
X0057400D02*
X0057603D01*
X0054250D02*
X0056333D01*
X0078837Y0047104D02*
X0079650D01*
X0076754D02*
X0077542D01*
X0074367D02*
X0075840D01*
X0070912D02*
X0073275D01*
X0068830D02*
X0069617D01*
X0066848D02*
X0067534D01*
X0065274D02*
X0066061D01*
X0063851D02*
X0064461D01*
X0061210D02*
X0063546D01*
X0058873D02*
X0060346D01*
X0057400D02*
X0057603D01*
X0054250D02*
X0056358D01*
X0078837Y0047130D02*
X0079650D01*
X0076754D02*
X0077542D01*
X0074265D02*
X0075942D01*
X0070912D02*
X0073275D01*
X0068830D02*
X0069617D01*
X0066848D02*
X0067534D01*
X0065274D02*
X0066061D01*
X0063851D02*
X0064461D01*
X0061210D02*
X0063546D01*
X0058797D02*
X0060448D01*
X0057425D02*
X0057603D01*
X0054250D02*
X0056358D01*
X0078837Y0047155D02*
X0079650D01*
X0076754D02*
X0077542D01*
X0074164D02*
X0076043D01*
X0070912D02*
X0073275D01*
X0068830D02*
X0069617D01*
X0066848D02*
X0067534D01*
X0065248D02*
X0066086D01*
X0063851D02*
X0064461D01*
X0061210D02*
X0063546D01*
X0058720D02*
X0060524D01*
X0057425D02*
X0057603D01*
X0054250D02*
X0056384D01*
X0078837Y0047180D02*
X0079650D01*
X0076754D02*
X0077542D01*
X0074087D02*
X0076119D01*
X0070912D02*
X0073275D01*
X0068830D02*
X0069617D01*
X0066848D02*
X0067534D01*
X0065248D02*
X0066086D01*
X0063851D02*
X0064461D01*
X0061210D02*
X0063546D01*
X0058644D02*
X0060600D01*
X0057450D02*
X0057603D01*
X0054250D02*
X0056409D01*
X0078837Y0047206D02*
X0079650D01*
X0076754D02*
X0077542D01*
X0074037D02*
X0076170D01*
X0070912D02*
X0073275D01*
X0068830D02*
X0069617D01*
X0066848D02*
X0067534D01*
X0065223D02*
X0066112D01*
X0063851D02*
X0064461D01*
X0061210D02*
X0063546D01*
X0058593D02*
X0060651D01*
X0057450D02*
X0057603D01*
X0054250D02*
X0056434D01*
X0078837Y0047231D02*
X0079650D01*
X0076754D02*
X0077542D01*
X0073986D02*
X0076221D01*
X0070912D02*
X0073275D01*
X0068830D02*
X0069617D01*
X0066848D02*
X0067534D01*
X0065197D02*
X0066112D01*
X0063851D02*
X0064461D01*
X0061210D02*
X0063546D01*
X0058543D02*
X0060702D01*
X0057450D02*
X0057603D01*
X0054250D02*
X0056460D01*
X0078837Y0047257D02*
X0079650D01*
X0076754D02*
X0077542D01*
X0073935D02*
X0076272D01*
X0070912D02*
X0073275D01*
X0068830D02*
X0069617D01*
X0066848D02*
X0067534D01*
X0065197D02*
X0066137D01*
X0063851D02*
X0064461D01*
X0061210D02*
X0063546D01*
X0058517D02*
X0060752D01*
X0057476D02*
X0057603D01*
X0054250D02*
X0056460D01*
X0078837Y0047282D02*
X0079650D01*
X0076754D02*
X0077542D01*
X0073884D02*
X0076297D01*
X0070912D02*
X0073275D01*
X0068830D02*
X0069617D01*
X0066848D02*
X0067534D01*
X0065172D02*
X0066163D01*
X0063851D02*
X0064461D01*
X0061210D02*
X0063546D01*
X0058492D02*
X0060778D01*
X0057476D02*
X0057603D01*
X0054250D02*
X0056485D01*
X0078837Y0047307D02*
X0079650D01*
X0076754D02*
X0077542D01*
X0073859D02*
X0076348D01*
X0070912D02*
X0073275D01*
X0068830D02*
X0069617D01*
X0066848D02*
X0067534D01*
X0065172D02*
X0066163D01*
X0063851D02*
X0064461D01*
X0061210D02*
X0063546D01*
X0058466D02*
X0060829D01*
X0057501D02*
X0057603D01*
X0054250D02*
X0056511D01*
X0078837Y0047333D02*
X0079650D01*
X0076754D02*
X0077542D01*
X0073808D02*
X0076373D01*
X0070912D02*
X0073275D01*
X0068830D02*
X0069617D01*
X0066848D02*
X0067534D01*
X0065147D02*
X0066188D01*
X0063851D02*
X0064461D01*
X0061210D02*
X0063546D01*
X0058441D02*
X0060854D01*
X0057501D02*
X0057603D01*
X0054250D02*
X0056536D01*
X0078837Y0047358D02*
X0079650D01*
X0076754D02*
X0077542D01*
X0073783D02*
X0076399D01*
X0070912D02*
X0073275D01*
X0068830D02*
X0069617D01*
X0066848D02*
X0067534D01*
X0065121D02*
X0066188D01*
X0063851D02*
X0064461D01*
X0061210D02*
X0063546D01*
X0058416D02*
X0060879D01*
X0057501D02*
X0057603D01*
X0054250D02*
X0056536D01*
X0078837Y0047384D02*
X0079650D01*
X0076754D02*
X0077542D01*
X0073757D02*
X0076424D01*
X0070912D02*
X0073275D01*
X0068830D02*
X0069617D01*
X0066848D02*
X0067534D01*
X0065121D02*
X0066213D01*
X0063851D02*
X0064461D01*
X0061210D02*
X0063546D01*
X0059660D02*
X0060879D01*
X0058390D02*
X0059635D01*
X0057527D02*
X0057603D01*
X0054250D02*
X0056561D01*
X0078837Y0047409D02*
X0079650D01*
X0076754D02*
X0077542D01*
X0075205D02*
X0076450D01*
X0073732D02*
X0074951D01*
X0070912D02*
X0073275D01*
X0068830D02*
X0069617D01*
X0066848D02*
X0067534D01*
X0065096D02*
X0066213D01*
X0063851D02*
X0064461D01*
X0061210D02*
X0063546D01*
X0059940D02*
X0060905D01*
X0058390D02*
X0059330D01*
X0057527D02*
X0057603D01*
X0054250D02*
X0056561D01*
X0078837Y0047434D02*
X0079650D01*
X0076754D02*
X0077542D01*
X0075383D02*
X0076475D01*
X0073706D02*
X0074799D01*
X0070912D02*
X0073275D01*
X0068830D02*
X0069617D01*
X0066848D02*
X0067534D01*
X0065096D02*
X0066239D01*
X0063851D02*
X0064461D01*
X0061210D02*
X0063546D01*
X0060041D02*
X0060930D01*
X0058365D02*
X0059254D01*
X0057527D02*
X0057603D01*
X0054250D02*
X0056587D01*
X0078837Y0047460D02*
X0079650D01*
X0076754D02*
X0077542D01*
X0075484D02*
X0076475D01*
X0073681D02*
X0074697D01*
X0070912D02*
X0071700D01*
X0068830D02*
X0069617D01*
X0066848D02*
X0067534D01*
X0065070D02*
X0066264D01*
X0063851D02*
X0064461D01*
X0061210D02*
X0061997D01*
X0060092D02*
X0060930D01*
X0058365D02*
X0059203D01*
X0057527D02*
X0057603D01*
X0054250D02*
X0056587D01*
X0078837Y0047485D02*
X0079650D01*
X0076754D02*
X0077542D01*
X0075535D02*
X0076500D01*
X0073656D02*
X0074646D01*
X0070912D02*
X0071700D01*
X0068830D02*
X0069617D01*
X0066848D02*
X0067534D01*
X0065070D02*
X0066264D01*
X0063851D02*
X0064461D01*
X0061210D02*
X0061997D01*
X0060143D02*
X0060930D01*
X0058339D02*
X0059178D01*
X0057552D02*
X0057603D01*
X0054250D02*
X0056612D01*
X0078837Y0047511D02*
X0079650D01*
X0076754D02*
X0077542D01*
X0075586D02*
X0076500D01*
X0073630D02*
X0074595D01*
X0070912D02*
X0071700D01*
X0068830D02*
X0069617D01*
X0066848D02*
X0067534D01*
X0065045D02*
X0066290D01*
X0063851D02*
X0064461D01*
X0061210D02*
X0061997D01*
X0060168D02*
X0060956D01*
X0058339D02*
X0059152D01*
X0057552D02*
X0057603D01*
X0054250D02*
X0056612D01*
X0078837Y0047536D02*
X0079650D01*
X0076754D02*
X0077542D01*
X0075611D02*
X0076526D01*
X0073605D02*
X0074545D01*
X0070912D02*
X0071700D01*
X0068830D02*
X0069617D01*
X0066848D02*
X0067534D01*
X0065020D02*
X0066290D01*
X0063851D02*
X0064461D01*
X0061210D02*
X0061997D01*
X0060168D02*
X0060956D01*
X0058339D02*
X0059127D01*
X0057552D02*
X0057603D01*
X0054250D02*
X0056612D01*
X0078837Y0047561D02*
X0079650D01*
X0076754D02*
X0077542D01*
X0075637D02*
X0076526D01*
X0073605D02*
X0074519D01*
X0070912D02*
X0071700D01*
X0068830D02*
X0069617D01*
X0066848D02*
X0067534D01*
X0065705D02*
X0066315D01*
X0065020D02*
X0065680D01*
X0063851D02*
X0064461D01*
X0061210D02*
X0061997D01*
X0060168D02*
X0060956D01*
X0058339D02*
X0059127D01*
X0057552D02*
X0057603D01*
X0054250D02*
X0056612D01*
X0078837Y0047587D02*
X0079650D01*
X0076754D02*
X0077542D01*
X0075662D02*
X0076526D01*
X0073579D02*
X0074494D01*
X0070912D02*
X0071700D01*
X0068830D02*
X0069617D01*
X0066848D02*
X0067534D01*
X0065731D02*
X0066315D01*
X0064994D02*
X0065680D01*
X0063851D02*
X0064461D01*
X0061210D02*
X0061997D01*
X0060168D02*
X0060956D01*
X0058339D02*
X0059127D01*
X0057552D02*
X0057603D01*
X0054250D02*
X0056638D01*
X0078837Y0047612D02*
X0079650D01*
X0076754D02*
X0077542D01*
X0075662D02*
X0076526D01*
X0073579D02*
X0074468D01*
X0070912D02*
X0071700D01*
X0068830D02*
X0069617D01*
X0066848D02*
X0067534D01*
X0065731D02*
X0066340D01*
X0064994D02*
X0065655D01*
X0063851D02*
X0064461D01*
X0061210D02*
X0061997D01*
X0060168D02*
X0060956D01*
X0058314D02*
X0059127D01*
X0057577D02*
X0057603D01*
X0054250D02*
X0056638D01*
X0078837Y0047638D02*
X0079650D01*
X0076754D02*
X0077542D01*
X0075688D02*
X0076551D01*
X0073554D02*
X0074443D01*
X0070912D02*
X0071700D01*
X0068830D02*
X0069617D01*
X0066848D02*
X0067534D01*
X0065756D02*
X0066366D01*
X0064969D02*
X0065629D01*
X0063851D02*
X0064461D01*
X0061210D02*
X0061997D01*
X0060143D02*
X0060956D01*
X0058314D02*
X0059101D01*
X0057577D02*
X0057603D01*
X0054250D02*
X0056638D01*
X0078837Y0047663D02*
X0079650D01*
X0076754D02*
X0077542D01*
X0075688D02*
X0076551D01*
X0073554D02*
X0074418D01*
X0070912D02*
X0071700D01*
X0068830D02*
X0069617D01*
X0066848D02*
X0067534D01*
X0065756D02*
X0066366D01*
X0064969D02*
X0065629D01*
X0063851D02*
X0064461D01*
X0061210D02*
X0061997D01*
X0060092D02*
X0060956D01*
X0057577D02*
X0057603D01*
X0054250D02*
X0056638D01*
X0078837Y0047688D02*
X0079650D01*
X0076754D02*
X0077542D01*
X0073529D02*
X0074392D01*
X0070912D02*
X0071700D01*
X0068830D02*
X0069617D01*
X0066848D02*
X0067534D01*
X0065782D02*
X0066391D01*
X0064943D02*
X0065604D01*
X0063851D02*
X0064461D01*
X0061210D02*
X0061997D01*
X0060041D02*
X0060956D01*
X0057577D02*
X0057603D01*
X0054250D02*
X0056638D01*
X0078837Y0047714D02*
X0079650D01*
X0076754D02*
X0077542D01*
X0073529D02*
X0074392D01*
X0070912D02*
X0071700D01*
X0068830D02*
X0069617D01*
X0066848D02*
X0067534D01*
X0065807D02*
X0066391D01*
X0064918D02*
X0065604D01*
X0063851D02*
X0064461D01*
X0061210D02*
X0061997D01*
X0059940D02*
X0060956D01*
X0054250D02*
X0056638D01*
X0078837Y0047739D02*
X0079650D01*
X0076754D02*
X0077542D01*
X0073529D02*
X0074367D01*
X0070912D02*
X0071700D01*
X0068830D02*
X0069617D01*
X0066848D02*
X0067534D01*
X0065807D02*
X0066417D01*
X0064918D02*
X0065578D01*
X0063851D02*
X0064461D01*
X0061210D02*
X0061997D01*
X0059813D02*
X0060930D01*
X0054250D02*
X0056638D01*
X0078837Y0047765D02*
X0079650D01*
X0076754D02*
X0077542D01*
X0073503D02*
X0074367D01*
X0070912D02*
X0071700D01*
X0068830D02*
X0069617D01*
X0066848D02*
X0067534D01*
X0065832D02*
X0066442D01*
X0064893D02*
X0065578D01*
X0063851D02*
X0064461D01*
X0061210D02*
X0061997D01*
X0059609D02*
X0060930D01*
X0054250D02*
X0056638D01*
X0076754Y0047790D02*
X0079650D01*
X0073503D02*
X0074367D01*
X0070912D02*
X0073148D01*
X0068830D02*
X0069617D01*
X0066848D02*
X0067534D01*
X0065832D02*
X0066442D01*
X0064893D02*
X0065553D01*
X0063851D02*
X0064461D01*
X0061210D02*
X0063419D01*
X0059406D02*
X0060930D01*
X0054250D02*
X0056638D01*
X0076754Y0047815D02*
X0079650D01*
X0073503D02*
X0074341D01*
X0070912D02*
X0073148D01*
X0068830D02*
X0069617D01*
X0066848D02*
X0067534D01*
X0065858D02*
X0066467D01*
X0064867D02*
X0065553D01*
X0063851D02*
X0064461D01*
X0061210D02*
X0063445D01*
X0059203D02*
X0060905D01*
X0054250D02*
X0056612D01*
X0076754Y0047841D02*
X0079650D01*
X0073503D02*
X0074341D01*
X0070912D02*
X0073148D01*
X0068830D02*
X0069617D01*
X0066848D02*
X0067534D01*
X0065883D02*
X0066467D01*
X0064842D02*
X0065528D01*
X0063851D02*
X0064461D01*
X0061210D02*
X0063445D01*
X0059051D02*
X0060879D01*
X0054250D02*
X0056612D01*
X0076754Y0047866D02*
X0079650D01*
X0073503D02*
X0074341D01*
X0070912D02*
X0073148D01*
X0068830D02*
X0069617D01*
X0066848D02*
X0067534D01*
X0065883D02*
X0066493D01*
X0064842D02*
X0065502D01*
X0063851D02*
X0064461D01*
X0061210D02*
X0063445D01*
X0058924D02*
X0060854D01*
X0054250D02*
X0056612D01*
X0076754Y0047892D02*
X0079650D01*
X0073503D02*
X0074341D01*
X0070912D02*
X0073148D01*
X0068830D02*
X0069617D01*
X0066848D02*
X0067534D01*
X0065909D02*
X0066493D01*
X0064816D02*
X0065502D01*
X0063851D02*
X0064461D01*
X0061210D02*
X0063445D01*
X0058822D02*
X0060829D01*
X0054250D02*
X0056612D01*
X0076754Y0047917D02*
X0079650D01*
X0073503D02*
X0074316D01*
X0070912D02*
X0073148D01*
X0068830D02*
X0069617D01*
X0066848D02*
X0067534D01*
X0065909D02*
X0066518D01*
X0064816D02*
X0065477D01*
X0063851D02*
X0064461D01*
X0061210D02*
X0063445D01*
X0058746D02*
X0060803D01*
X0054250D02*
X0056587D01*
X0076754Y0047942D02*
X0079650D01*
X0073503D02*
X0074316D01*
X0070912D02*
X0073148D01*
X0068830D02*
X0069617D01*
X0066848D02*
X0067534D01*
X0065934D02*
X0066544D01*
X0064791D02*
X0065477D01*
X0063851D02*
X0064461D01*
X0061210D02*
X0063445D01*
X0058670D02*
X0060778D01*
X0054250D02*
X0056587D01*
X0076754Y0047968D02*
X0079650D01*
X0073503D02*
X0074316D01*
X0070912D02*
X0073148D01*
X0068830D02*
X0069617D01*
X0066848D02*
X0067534D01*
X0065959D02*
X0066544D01*
X0064791D02*
X0065451D01*
X0063851D02*
X0064461D01*
X0061210D02*
X0063445D01*
X0058619D02*
X0060727D01*
X0054250D02*
X0056561D01*
X0076754Y0047993D02*
X0079650D01*
X0073503D02*
X0074316D01*
X0070912D02*
X0073148D01*
X0068830D02*
X0069617D01*
X0066848D02*
X0067534D01*
X0065959D02*
X0066569D01*
X0064766D02*
X0065451D01*
X0063851D02*
X0064461D01*
X0061210D02*
X0063445D01*
X0058568D02*
X0060676D01*
X0054250D02*
X0056561D01*
X0076754Y0048019D02*
X0079650D01*
X0073503D02*
X0074316D01*
X0070912D02*
X0073148D01*
X0068830D02*
X0069617D01*
X0066848D02*
X0067534D01*
X0065985D02*
X0066569D01*
X0064740D02*
X0065426D01*
X0063851D02*
X0064461D01*
X0061210D02*
X0063445D01*
X0058543D02*
X0060600D01*
X0054250D02*
X0056536D01*
X0076754Y0048044D02*
X0079650D01*
X0073503D02*
X0074341D01*
X0070912D02*
X0073148D01*
X0068830D02*
X0069617D01*
X0066848D02*
X0067534D01*
X0065985D02*
X0066594D01*
X0064740D02*
X0065401D01*
X0063851D02*
X0064461D01*
X0061210D02*
X0063445D01*
X0058517D02*
X0060524D01*
X0054250D02*
X0056511D01*
X0076754Y0048069D02*
X0079650D01*
X0073503D02*
X0074341D01*
X0070912D02*
X0073148D01*
X0068830D02*
X0069617D01*
X0066848D02*
X0067534D01*
X0066010D02*
X0066594D01*
X0064715D02*
X0065401D01*
X0063851D02*
X0064461D01*
X0061210D02*
X0063445D01*
X0058466D02*
X0060422D01*
X0054250D02*
X0056485D01*
X0076754Y0048095D02*
X0079650D01*
X0073503D02*
X0074341D01*
X0070912D02*
X0073148D01*
X0068830D02*
X0069617D01*
X0066848D02*
X0067534D01*
X0066036D02*
X0066620D01*
X0064715D02*
X0065375D01*
X0063851D02*
X0064461D01*
X0061210D02*
X0063445D01*
X0058466D02*
X0060295D01*
X0054250D02*
X0056460D01*
X0076754Y0048120D02*
X0079650D01*
X0073503D02*
X0074341D01*
X0070912D02*
X0073148D01*
X0068830D02*
X0069617D01*
X0066848D02*
X0067534D01*
X0066036D02*
X0066645D01*
X0064689D02*
X0065375D01*
X0063851D02*
X0064461D01*
X0061210D02*
X0063445D01*
X0058441D02*
X0060143D01*
X0054250D02*
X0056434D01*
X0078837Y0048146D02*
X0079650D01*
X0076754D02*
X0077542D01*
X0073503D02*
X0074367D01*
X0070912D02*
X0073148D01*
X0068830D02*
X0069617D01*
X0066848D02*
X0067534D01*
X0066061D02*
X0066645D01*
X0064689D02*
X0065350D01*
X0063851D02*
X0064461D01*
X0061210D02*
X0063445D01*
X0058416D02*
X0059965D01*
X0054250D02*
X0056384D01*
X0078837Y0048171D02*
X0079650D01*
X0076754D02*
X0077542D01*
X0073529D02*
X0074367D01*
X0070912D02*
X0071700D01*
X0068830D02*
X0069617D01*
X0066848D02*
X0067534D01*
X0066061D02*
X0066671D01*
X0064664D02*
X0065350D01*
X0063851D02*
X0064461D01*
X0061210D02*
X0061997D01*
X0058416D02*
X0059762D01*
X0054250D02*
X0056358D01*
X0078837Y0048196D02*
X0079650D01*
X0076754D02*
X0077542D01*
X0073529D02*
X0074367D01*
X0070912D02*
X0071700D01*
X0068830D02*
X0069617D01*
X0066848D02*
X0067534D01*
X0066086D02*
X0066671D01*
X0064639D02*
X0065324D01*
X0063851D02*
X0064461D01*
X0061210D02*
X0061997D01*
X0058390D02*
X0059584D01*
X0054250D02*
X0056307D01*
X0078837Y0048222D02*
X0079650D01*
X0076754D02*
X0077542D01*
X0073529D02*
X0074392D01*
X0070912D02*
X0071700D01*
X0068830D02*
X0069617D01*
X0066848D02*
X0067534D01*
X0066112D02*
X0066696D01*
X0064639D02*
X0065299D01*
X0063851D02*
X0064461D01*
X0061210D02*
X0061997D01*
X0058390D02*
X0059432D01*
X0054250D02*
X0056257D01*
X0078837Y0048247D02*
X0079650D01*
X0076754D02*
X0077542D01*
X0073554D02*
X0074418D01*
X0070912D02*
X0071700D01*
X0068830D02*
X0069617D01*
X0066848D02*
X0067534D01*
X0066112D02*
X0066696D01*
X0064613D02*
X0065299D01*
X0063851D02*
X0064461D01*
X0061210D02*
X0061997D01*
X0058390D02*
X0059305D01*
X0057577D02*
X0057603D01*
X0054250D02*
X0056180D01*
X0078837Y0048273D02*
X0079650D01*
X0076754D02*
X0077542D01*
X0075688D02*
X0076526D01*
X0073554D02*
X0074418D01*
X0070912D02*
X0071700D01*
X0068830D02*
X0069617D01*
X0066848D02*
X0067534D01*
X0066137D02*
X0066721D01*
X0064613D02*
X0065274D01*
X0063851D02*
X0064461D01*
X0061210D02*
X0061997D01*
X0058390D02*
X0059254D01*
X0057577D02*
X0057603D01*
X0054250D02*
X0056104D01*
X0078837Y0048298D02*
X0079650D01*
X0076754D02*
X0077542D01*
X0075688D02*
X0076526D01*
X0073554D02*
X0074443D01*
X0070912D02*
X0071700D01*
X0068830D02*
X0069617D01*
X0066848D02*
X0067534D01*
X0066137D02*
X0066747D01*
X0064588D02*
X0065274D01*
X0063851D02*
X0064461D01*
X0061210D02*
X0061997D01*
X0058390D02*
X0059203D01*
X0057552D02*
X0057603D01*
X0054250D02*
X0056003D01*
X0078837Y0048323D02*
X0079650D01*
X0076754D02*
X0077542D01*
X0075662D02*
X0076526D01*
X0073579D02*
X0074468D01*
X0070912D02*
X0071700D01*
X0068830D02*
X0069617D01*
X0066848D02*
X0067534D01*
X0066163D02*
X0066747D01*
X0064562D02*
X0065248D01*
X0063851D02*
X0064461D01*
X0061210D02*
X0061997D01*
X0058390D02*
X0059178D01*
X0057552D02*
X0057603D01*
X0054250D02*
X0055901D01*
X0078837Y0048349D02*
X0079650D01*
X0076754D02*
X0077542D01*
X0075662D02*
X0076526D01*
X0073579D02*
X0074494D01*
X0070912D02*
X0071700D01*
X0068830D02*
X0069617D01*
X0066848D02*
X0067534D01*
X0066188D02*
X0066772D01*
X0064562D02*
X0065248D01*
X0063851D02*
X0064461D01*
X0061210D02*
X0061997D01*
X0060143D02*
X0060905D01*
X0058390D02*
X0059178D01*
X0057527D02*
X0057603D01*
X0054250D02*
X0055723D01*
X0078837Y0048374D02*
X0079650D01*
X0076754D02*
X0077542D01*
X0075637D02*
X0076500D01*
X0073605D02*
X0074545D01*
X0070912D02*
X0071700D01*
X0068830D02*
X0069617D01*
X0066848D02*
X0067534D01*
X0066188D02*
X0066772D01*
X0064537D02*
X0065223D01*
X0063851D02*
X0064461D01*
X0061210D02*
X0061997D01*
X0060117D02*
X0060905D01*
X0058390D02*
X0059178D01*
X0057527D02*
X0057603D01*
X0054250D02*
X0055368D01*
X0078837Y0048400D02*
X0079650D01*
X0076754D02*
X0077542D01*
X0075611D02*
X0076500D01*
X0073630D02*
X0074570D01*
X0070912D02*
X0071700D01*
X0068830D02*
X0069617D01*
X0066848D02*
X0067534D01*
X0066213D02*
X0066798D01*
X0064537D02*
X0065223D01*
X0063851D02*
X0064461D01*
X0061210D02*
X0061997D01*
X0060117D02*
X0060905D01*
X0058390D02*
X0059178D01*
X0057501D02*
X0057603D01*
X0054250D02*
X0054936D01*
X0078837Y0048425D02*
X0079650D01*
X0076754D02*
X0077542D01*
X0075561D02*
X0076500D01*
X0073656D02*
X0074621D01*
X0070912D02*
X0071700D01*
X0068830D02*
X0069617D01*
X0066848D02*
X0067534D01*
X0066213D02*
X0066823D01*
X0064512D02*
X0065197D01*
X0063851D02*
X0064461D01*
X0061210D02*
X0061997D01*
X0060092D02*
X0060879D01*
X0058390D02*
X0059203D01*
X0057501D02*
X0057603D01*
X0054250D02*
X0054707D01*
X0078837Y0048450D02*
X0079650D01*
X0076754D02*
X0077542D01*
X0075510D02*
X0076475D01*
X0073656D02*
X0074697D01*
X0070912D02*
X0071700D01*
X0068830D02*
X0069617D01*
X0066848D02*
X0067534D01*
X0066239D02*
X0066823D01*
X0064512D02*
X0065172D01*
X0063851D02*
X0064461D01*
X0061210D02*
X0061997D01*
X0060067D02*
X0060879D01*
X0058416D02*
X0059228D01*
X0057476D02*
X0057603D01*
X0054250D02*
X0054606D01*
X0078837Y0048476D02*
X0079650D01*
X0076754D02*
X0077542D01*
X0075434D02*
X0076450D01*
X0073681D02*
X0074773D01*
X0070912D02*
X0073224D01*
X0067788D02*
X0070633D01*
X0066264D02*
X0067534D01*
X0064486D02*
X0065172D01*
X0063851D02*
X0064461D01*
X0061210D02*
X0063521D01*
X0060041D02*
X0060879D01*
X0058416D02*
X0059279D01*
X0057450D02*
X0057603D01*
X0054250D02*
X0054504D01*
X0078837Y0048501D02*
X0079650D01*
X0076754D02*
X0077542D01*
X0075307D02*
X0076450D01*
X0073706D02*
X0074900D01*
X0070912D02*
X0073249D01*
X0067788D02*
X0070658D01*
X0066264D02*
X0067534D01*
X0063851D02*
X0065147D01*
X0061210D02*
X0063521D01*
X0059965D02*
X0060854D01*
X0058441D02*
X0059355D01*
X0057425D02*
X0057603D01*
X0054250D02*
X0054453D01*
X0078837Y0048527D02*
X0079650D01*
X0076754D02*
X0077542D01*
X0073732D02*
X0076424D01*
X0070912D02*
X0073249D01*
X0067788D02*
X0070658D01*
X0066290D02*
X0067534D01*
X0063851D02*
X0065147D01*
X0061210D02*
X0063521D01*
X0059838D02*
X0060854D01*
X0058441D02*
X0059508D01*
X0057425D02*
X0057603D01*
X0054250D02*
X0054402D01*
X0078837Y0048552D02*
X0079650D01*
X0076754D02*
X0077542D01*
X0073757D02*
X0076399D01*
X0070912D02*
X0073249D01*
X0067788D02*
X0070658D01*
X0066290D02*
X0067534D01*
X0063851D02*
X0065121D01*
X0061210D02*
X0063521D01*
X0058466D02*
X0060829D01*
X0057400D02*
X0057603D01*
X0054250D02*
X0054377D01*
X0078837Y0048577D02*
X0079650D01*
X0076754D02*
X0077542D01*
X0073808D02*
X0076373D01*
X0070912D02*
X0073249D01*
X0067788D02*
X0070658D01*
X0066315D02*
X0067534D01*
X0063851D02*
X0065121D01*
X0061210D02*
X0063521D01*
X0058492D02*
X0060829D01*
X0057374D02*
X0057603D01*
X0054250D02*
X0054326D01*
X0078837Y0048603D02*
X0079650D01*
X0076754D02*
X0077542D01*
X0073833D02*
X0076348D01*
X0070912D02*
X0073249D01*
X0067788D02*
X0070658D01*
X0066340D02*
X0067534D01*
X0063851D02*
X0065096D01*
X0061210D02*
X0063521D01*
X0058517D02*
X0060803D01*
X0057349D02*
X0057603D01*
X0054250D02*
X0054301D01*
X0078837Y0048628D02*
X0079650D01*
X0076754D02*
X0077542D01*
X0073884D02*
X0076323D01*
X0070912D02*
X0073249D01*
X0067788D02*
X0070658D01*
X0066340D02*
X0067534D01*
X0063851D02*
X0065070D01*
X0061210D02*
X0063521D01*
X0058543D02*
X0060778D01*
X0057323D02*
X0057603D01*
X0054250D02*
X0054301D01*
X0078837Y0048654D02*
X0079650D01*
X0076754D02*
X0077542D01*
X0073935D02*
X0076272D01*
X0070912D02*
X0073249D01*
X0067788D02*
X0070658D01*
X0066366D02*
X0067534D01*
X0063851D02*
X0065070D01*
X0061210D02*
X0063521D01*
X0058593D02*
X0060752D01*
X0057298D02*
X0057603D01*
X0054250D02*
X0054275D01*
X0078837Y0048679D02*
X0079650D01*
X0076754D02*
X0077542D01*
X0073986D02*
X0076221D01*
X0070912D02*
X0073249D01*
X0067788D02*
X0070658D01*
X0066366D02*
X0067534D01*
X0063851D02*
X0065045D01*
X0061210D02*
X0063521D01*
X0058619D02*
X0060727D01*
X0057273D02*
X0057603D01*
X0078837Y0048704D02*
X0079650D01*
X0076754D02*
X0077542D01*
X0074037D02*
X0076170D01*
X0070912D02*
X0073249D01*
X0067788D02*
X0070658D01*
X0066391D02*
X0067534D01*
X0063851D02*
X0065045D01*
X0061210D02*
X0063521D01*
X0058670D02*
X0060676D01*
X0057222D02*
X0057603D01*
X0078837Y0048730D02*
X0079650D01*
X0076754D02*
X0077542D01*
X0074087D02*
X0076119D01*
X0070912D02*
X0073249D01*
X0067788D02*
X0070658D01*
X0066417D02*
X0067534D01*
X0063851D02*
X0065020D01*
X0061210D02*
X0063521D01*
X0058720D02*
X0060625D01*
X0057196D02*
X0057603D01*
X0078837Y0048755D02*
X0079650D01*
X0076754D02*
X0077542D01*
X0074164D02*
X0076043D01*
X0070912D02*
X0073249D01*
X0067788D02*
X0070658D01*
X0066417D02*
X0067534D01*
X0063851D02*
X0065020D01*
X0061210D02*
X0063521D01*
X0058771D02*
X0060575D01*
X0057146D02*
X0057603D01*
X0078837Y0048781D02*
X0079650D01*
X0076754D02*
X0077542D01*
X0074265D02*
X0075967D01*
X0070912D02*
X0073249D01*
X0067788D02*
X0070658D01*
X0066442D02*
X0067534D01*
X0063851D02*
X0064994D01*
X0061210D02*
X0063521D01*
X0058847D02*
X0060498D01*
X0057095D02*
X0057603D01*
X0078837Y0048806D02*
X0079650D01*
X0076754D02*
X0077542D01*
X0074367D02*
X0075865D01*
X0070912D02*
X0073249D01*
X0067788D02*
X0070658D01*
X0066442D02*
X0067534D01*
X0063851D02*
X0064994D01*
X0061210D02*
X0063521D01*
X0058949D02*
X0060422D01*
X0057044D02*
X0057603D01*
X0078863Y0048831D02*
X0079625D01*
X0076754D02*
X0077516D01*
X0074494D02*
X0075738D01*
X0070938D02*
X0073224D01*
X0067788D02*
X0070633D01*
X0066467D02*
X0067534D01*
X0063877D02*
X0064943D01*
X0061210D02*
X0063521D01*
X0059076D02*
X0060295D01*
X0056968D02*
X0057603D01*
X0074697Y0048857D02*
X0075535D01*
X0059228D02*
X0060092D01*
X0056917D02*
X0057603D01*
X0056815Y0048882D02*
X0057603D01*
X0056714Y0048908D02*
X0057603D01*
X0056587Y0048933D02*
X0057603D01*
X0056434Y0048958D02*
X0057603D01*
X0056206Y0048984D02*
X0057603D01*
X0055926Y0049009D02*
X0057603D01*
X0055571Y0049035D02*
X0057603D01*
X0054250D02*
X0054275D01*
X0055342Y0049060D02*
X0057603D01*
X0054250D02*
X0054275D01*
X0055215Y0049085D02*
X0057603D01*
X0054250D02*
X0054275D01*
X0055139Y0049111D02*
X0057603D01*
X0054250D02*
X0054301D01*
X0055063Y0049136D02*
X0057603D01*
X0054250D02*
X0054301D01*
X0055037Y0049162D02*
X0057603D01*
X0054250D02*
X0054326D01*
X0055012Y0049187D02*
X0057603D01*
X0054250D02*
X0054326D01*
X0054987Y0049212D02*
X0057603D01*
X0054250D02*
X0054352D01*
X0054961Y0049238D02*
X0057603D01*
X0054250D02*
X0054352D01*
X0054936Y0049263D02*
X0057603D01*
X0054250D02*
X0054377D01*
X0054936Y0049289D02*
X0057603D01*
X0054250D02*
X0054377D01*
X0054910Y0049314D02*
X0057603D01*
X0054250D02*
X0054402D01*
X0054910Y0049339D02*
X0057603D01*
X0054250D02*
X0054402D01*
X0054910Y0049365D02*
X0057603D01*
X0054250D02*
X0054428D01*
X0054910Y0049390D02*
X0057603D01*
X0054250D02*
X0054453D01*
X0054910Y0049416D02*
X0057603D01*
X0054250D02*
X0054453D01*
X0054910Y0049441D02*
X0057603D01*
X0054250D02*
X0054479D01*
X0054910Y0049466D02*
X0057603D01*
X0054250D02*
X0054504D01*
X0054910Y0049492D02*
X0057603D01*
X0054250D02*
X0054504D01*
X0054936Y0049517D02*
X0057603D01*
X0054250D02*
X0054529D01*
X0054936Y0049543D02*
X0057603D01*
X0054250D02*
X0054555D01*
X0054961Y0049568D02*
X0057603D01*
X0054250D02*
X0054580D01*
X0054961Y0049593D02*
X0057603D01*
X0054250D02*
X0054580D01*
X0054987Y0049619D02*
X0057603D01*
X0054250D02*
X0054606D01*
X0054987Y0049644D02*
X0057603D01*
X0054250D02*
X0054631D01*
X0055012Y0049670D02*
X0057603D01*
X0054250D02*
X0054656D01*
X0055037Y0049695D02*
X0057603D01*
X0054250D02*
X0054682D01*
X0055037Y0049720D02*
X0057603D01*
X0054250D02*
X0054707D01*
X0055063Y0049746D02*
X0057603D01*
X0054250D02*
X0054733D01*
X0055088Y0049771D02*
X0057603D01*
X0054250D02*
X0054758D01*
X0055088Y0049797D02*
X0057603D01*
X0054250D02*
X0054783D01*
X0055114Y0049822D02*
X0057603D01*
X0054250D02*
X0054809D01*
X0055139Y0049847D02*
X0057603D01*
X0054250D02*
X0054834D01*
X0055164Y0049873D02*
X0057603D01*
X0054250D02*
X0054860D01*
X0055164Y0049898D02*
X0057603D01*
X0054250D02*
X0054885D01*
X0055190Y0049924D02*
X0057603D01*
X0054250D02*
X0054910D01*
X0055215Y0049949D02*
X0057603D01*
X0054250D02*
X0054936D01*
X0055241Y0049974D02*
X0057603D01*
X0054250D02*
X0054961D01*
X0055266Y0050000D02*
X0057603D01*
X0054250D02*
X0054987D01*
X0055291Y0050025D02*
X0057603D01*
X0054250D02*
X0055037D01*
X0055342Y0050051D02*
X0057603D01*
X0054250D02*
X0055063D01*
X0055368Y0050076D02*
X0057603D01*
X0054250D02*
X0055088D01*
X0055393Y0050101D02*
X0057603D01*
X0054250D02*
X0055114D01*
X0055418Y0050127D02*
X0057603D01*
X0054250D02*
X0055164D01*
X0055444Y0050152D02*
X0057603D01*
X0054250D02*
X0055190D01*
X0055495Y0050178D02*
X0057603D01*
X0054250D02*
X0055215D01*
X0055520Y0050203D02*
X0057603D01*
X0054250D02*
X0055266D01*
X0055571Y0050228D02*
X0057603D01*
X0054250D02*
X0055291D01*
X0055596Y0050254D02*
X0057603D01*
X0054250D02*
X0055342D01*
X0055647Y0050279D02*
X0057603D01*
X0054250D02*
X0055368D01*
X0055672Y0050305D02*
X0057603D01*
X0054250D02*
X0055418D01*
X0055723Y0050330D02*
X0057603D01*
X0054250D02*
X0055444D01*
X0055749Y0050355D02*
X0057603D01*
X0054250D02*
X0055495D01*
X0055799Y0050381D02*
X0057603D01*
X0054250D02*
X0055520D01*
X0055825Y0050406D02*
X0057603D01*
X0054250D02*
X0055571D01*
X0055876Y0050432D02*
X0057603D01*
X0054250D02*
X0055596D01*
X0055901Y0050457D02*
X0057603D01*
X0054250D02*
X0055647D01*
X0055952Y0050482D02*
X0057603D01*
X0054250D02*
X0055698D01*
X0056003Y0050508D02*
X0057603D01*
X0054250D02*
X0055749D01*
X0056028Y0050533D02*
X0057603D01*
X0054250D02*
X0055774D01*
X0056079Y0050559D02*
X0057603D01*
X0054250D02*
X0055825D01*
X0056104Y0050584D02*
X0057603D01*
X0054250D02*
X0055876D01*
X0056155Y0050609D02*
X0057603D01*
X0054250D02*
X0055926D01*
X0056180Y0050635D02*
X0057603D01*
X0054250D02*
X0055977D01*
X0056231Y0050660D02*
X0057603D01*
X0054250D02*
X0056003D01*
D43*
X0062454Y0001200D02*
X0070480D01*
X0062454Y0001225D02*
X0070455D01*
X0062479Y0001251D02*
X0070404D01*
X0062479Y0001276D02*
X0070353D01*
X0062504Y0001302D02*
X0070328D01*
X0062530Y0001327D02*
X0070277D01*
X0062530Y0001352D02*
X0070251D01*
X0062555Y0001378D02*
X0070201D01*
X0062555Y0001403D02*
X0070150D01*
X0062581Y0001429D02*
X0070124D01*
X0062606Y0001454D02*
X0070074D01*
X0062606Y0001479D02*
X0070048D01*
X0062631Y0001505D02*
X0069997D01*
X0062631Y0001530D02*
X0069947D01*
X0062657Y0001556D02*
X0069921D01*
X0062682Y0001581D02*
X0069870D01*
X0062682Y0001606D02*
X0069845D01*
X0062708Y0001632D02*
X0069794D01*
X0062708Y0001657D02*
X0069743D01*
X0062733Y0001683D02*
X0069718D01*
X0062758Y0001708D02*
X0069667D01*
X0062758Y0001733D02*
X0069642D01*
X0062784Y0001759D02*
X0069591D01*
X0062784Y0001784D02*
X0069540D01*
X0065400Y0001810D02*
X0069515D01*
X0062809D02*
X0065273D01*
X0070810Y0001835D02*
X0070836D01*
X0065425D02*
X0069464D01*
X0062835D02*
X0065273D01*
X0070785Y0001860D02*
X0070836D01*
X0065451D02*
X0069439D01*
X0062835D02*
X0065273D01*
X0070734Y0001886D02*
X0070836D01*
X0065476D02*
X0069388D01*
X0065197D02*
X0065273D01*
X0062860D02*
X0065095D01*
X0070683Y0001911D02*
X0070810D01*
X0065476D02*
X0069337D01*
X0065197D02*
X0065273D01*
X0062860D02*
X0065044D01*
X0070632Y0001937D02*
X0070810D01*
X0065476D02*
X0069312D01*
X0065197D02*
X0065248D01*
X0062885D02*
X0065019D01*
X0070607Y0001962D02*
X0070785D01*
X0065502D02*
X0069261D01*
X0065197D02*
X0065248D01*
X0062911D02*
X0065019D01*
X0070556Y0001987D02*
X0070785D01*
X0065502D02*
X0069235D01*
X0065197D02*
X0065248D01*
X0062911D02*
X0064994D01*
X0070505Y0002013D02*
X0070759D01*
X0066162D02*
X0069185D01*
X0065502D02*
X0065959D01*
X0065171D02*
X0065248D01*
X0062936D02*
X0064994D01*
X0070480Y0002038D02*
X0070759D01*
X0066264D02*
X0069134D01*
X0065502D02*
X0065933D01*
X0065171D02*
X0065248D01*
X0062936D02*
X0064994D01*
X0070429Y0002064D02*
X0070734D01*
X0066314D02*
X0069108D01*
X0065527D02*
X0065908D01*
X0065171D02*
X0065248D01*
X0062962D02*
X0064968D01*
X0070378Y0002089D02*
X0070734D01*
X0066365D02*
X0069058D01*
X0065527D02*
X0065908D01*
X0065171D02*
X0065248D01*
X0062987D02*
X0064968D01*
X0070328Y0002114D02*
X0070709D01*
X0066391D02*
X0069032D01*
X0065527D02*
X0065908D01*
X0065171D02*
X0065248D01*
X0062987D02*
X0064968D01*
X0070302Y0002140D02*
X0070683D01*
X0066441D02*
X0068981D01*
X0065527D02*
X0065933D01*
X0065171D02*
X0065222D01*
X0063012D02*
X0064968D01*
X0070251Y0002165D02*
X0070683D01*
X0066467D02*
X0068931D01*
X0065857D02*
X0065933D01*
X0065527D02*
X0065832D01*
X0065171D02*
X0065222D01*
X0063012D02*
X0064968D01*
X0070201Y0002191D02*
X0070658D01*
X0066594D02*
X0068905D01*
X0066492D02*
X0066568D01*
X0065857D02*
X0065959D01*
X0065527D02*
X0065832D01*
X0065146D02*
X0065222D01*
X0063038D02*
X0064968D01*
X0070175Y0002216D02*
X0070658D01*
X0066695D02*
X0068854D01*
X0066492D02*
X0066594D01*
X0065883D02*
X0065984D01*
X0065527D02*
X0065806D01*
X0065146D02*
X0065222D01*
X0063063D02*
X0064968D01*
X0070124Y0002241D02*
X0070632D01*
X0066746D02*
X0068829D01*
X0066518D02*
X0066619D01*
X0065908D02*
X0066010D01*
X0065527D02*
X0065806D01*
X0065146D02*
X0065197D01*
X0063063D02*
X0064968D01*
X0070074Y0002267D02*
X0070632D01*
X0066797D02*
X0068778D01*
X0066543D02*
X0066645D01*
X0065933D02*
X0066035D01*
X0065527D02*
X0065806D01*
X0065121D02*
X0065197D01*
X0063089D02*
X0064968D01*
X0070023Y0002292D02*
X0070607D01*
X0066822D02*
X0068727D01*
X0066543D02*
X0066645D01*
X0065959D02*
X0066060D01*
X0065527D02*
X0065806D01*
X0065095D02*
X0065197D01*
X0063089D02*
X0064968D01*
X0069997Y0002318D02*
X0070607D01*
X0066822D02*
X0068702D01*
X0066543D02*
X0066670D01*
X0065959D02*
X0066086D01*
X0065527D02*
X0065806D01*
X0065070D02*
X0065171D01*
X0063114D02*
X0064968D01*
X0069947Y0002343D02*
X0070582D01*
X0066848D02*
X0068651D01*
X0066543D02*
X0066695D01*
X0065984D02*
X0066111D01*
X0065527D02*
X0065806D01*
X0065044D02*
X0065171D01*
X0063139D02*
X0064968D01*
X0069896Y0002368D02*
X0070582D01*
X0066848D02*
X0068626D01*
X0066492D02*
X0066721D01*
X0066035D02*
X0066162D01*
X0065527D02*
X0065806D01*
X0063139D02*
X0065146D01*
X0069845Y0002394D02*
X0070556D01*
X0066848D02*
X0068575D01*
X0066441D02*
X0066746D01*
X0066060D02*
X0066213D01*
X0065502D02*
X0065806D01*
X0063165D02*
X0065146D01*
X0069820Y0002419D02*
X0070556D01*
X0066848D02*
X0068524D01*
X0066619D02*
X0066746D01*
X0066086D02*
X0066594D01*
X0065502D02*
X0065806D01*
X0064917D02*
X0065121D01*
X0063165D02*
X0064892D01*
X0069769Y0002445D02*
X0070531D01*
X0066848D02*
X0068499D01*
X0066645D02*
X0066772D01*
X0066137D02*
X0066568D01*
X0065502D02*
X0065806D01*
X0064968D02*
X0065070D01*
X0063190D02*
X0064892D01*
X0069718Y0002470D02*
X0070505D01*
X0066848D02*
X0068448D01*
X0066670D02*
X0066797D01*
X0066187D02*
X0066518D01*
X0065502D02*
X0065806D01*
X0063216D02*
X0064867D01*
X0069693Y0002495D02*
X0070505D01*
X0066695D02*
X0068423D01*
X0066264D02*
X0066416D01*
X0065502D02*
X0065806D01*
X0063216D02*
X0064867D01*
X0069642Y0002521D02*
X0070480D01*
X0066721D02*
X0068372D01*
X0065476D02*
X0065806D01*
X0063241D02*
X0064867D01*
X0069591Y0002546D02*
X0070480D01*
X0066721D02*
X0068321D01*
X0065476D02*
X0065806D01*
X0063241D02*
X0064841D01*
X0069540Y0002572D02*
X0070455D01*
X0066746D02*
X0068296D01*
X0065476D02*
X0065806D01*
X0063266D02*
X0064841D01*
X0069515Y0002597D02*
X0070455D01*
X0066975D02*
X0068245D01*
X0066772D02*
X0066873D01*
X0065730D02*
X0065832D01*
X0065451D02*
X0065679D01*
X0063292D02*
X0064841D01*
X0069464Y0002622D02*
X0070429D01*
X0067026D02*
X0068219D01*
X0066797D02*
X0066899D01*
X0065730D02*
X0065832D01*
X0065451D02*
X0065679D01*
X0063292D02*
X0064816D01*
X0069413Y0002648D02*
X0070429D01*
X0067076D02*
X0068169D01*
X0066822D02*
X0066924D01*
X0065730D02*
X0065832D01*
X0065425D02*
X0065654D01*
X0063317D02*
X0064816D01*
X0069388Y0002673D02*
X0070404D01*
X0067102D02*
X0068118D01*
X0066822D02*
X0066949D01*
X0065756D02*
X0065857D01*
X0065425D02*
X0065629D01*
X0063317D02*
X0064816D01*
X0069337Y0002699D02*
X0070404D01*
X0067127D02*
X0068092D01*
X0066848D02*
X0066975D01*
X0065756D02*
X0065857D01*
X0065400D02*
X0065629D01*
X0063343D02*
X0064790D01*
X0069286Y0002724D02*
X0070378D01*
X0067127D02*
X0068042D01*
X0066873D02*
X0066975D01*
X0065781D02*
X0065883D01*
X0065400D02*
X0065603D01*
X0063368D02*
X0064790D01*
X0069235Y0002749D02*
X0070353D01*
X0067153D02*
X0068016D01*
X0066899D02*
X0067000D01*
X0065781D02*
X0065883D01*
X0065375D02*
X0065603D01*
X0063368D02*
X0064790D01*
X0069210Y0002775D02*
X0070353D01*
X0067153D02*
X0067965D01*
X0066924D02*
X0067026D01*
X0065806D02*
X0065908D01*
X0065349D02*
X0065578D01*
X0063393D02*
X0064765D01*
X0069159Y0002800D02*
X0070328D01*
X0067153D02*
X0067915D01*
X0066949D02*
X0067051D01*
X0065806D02*
X0065908D01*
X0065324D02*
X0065578D01*
X0063393D02*
X0064765D01*
X0069108Y0002826D02*
X0070328D01*
X0067153D02*
X0067889D01*
X0066949D02*
X0067076D01*
X0065832D02*
X0065933D01*
X0065298D02*
X0065552D01*
X0063419D02*
X0064765D01*
X0069083Y0002851D02*
X0070302D01*
X0067127D02*
X0067838D01*
X0066975D02*
X0067076D01*
X0065832D02*
X0065959D01*
X0065324D02*
X0065552D01*
X0063444D02*
X0064765D01*
X0069032Y0002876D02*
X0070302D01*
X0067127D02*
X0067813D01*
X0067000D02*
X0067102D01*
X0065857D02*
X0065984D01*
X0065324D02*
X0065527D01*
X0063444D02*
X0064740D01*
X0068981Y0002902D02*
X0070277D01*
X0067026D02*
X0067762D01*
X0065883D02*
X0065984D01*
X0065324D02*
X0065527D01*
X0063470D02*
X0064740D01*
X0068931Y0002927D02*
X0070277D01*
X0067051D02*
X0067711D01*
X0065883D02*
X0066010D01*
X0065349D02*
X0065527D01*
X0063470D02*
X0064740D01*
X0068905Y0002953D02*
X0070251D01*
X0067076D02*
X0067686D01*
X0065908D02*
X0066035D01*
X0065349D02*
X0065527D01*
X0063495D02*
X0064714D01*
X0068854Y0002978D02*
X0070251D01*
X0067102D02*
X0067635D01*
X0065908D02*
X0066086D01*
X0065349D02*
X0065527D01*
X0063520D02*
X0064714D01*
X0068804Y0003003D02*
X0070226D01*
X0067127D02*
X0067610D01*
X0065933D02*
X0066111D01*
X0065375D02*
X0065527D01*
X0063520D02*
X0064714D01*
X0068778Y0003029D02*
X0070201D01*
X0067153D02*
X0067559D01*
X0065959D02*
X0066137D01*
X0065375D02*
X0065527D01*
X0063546D02*
X0064714D01*
X0068727Y0003054D02*
X0070201D01*
X0067178D02*
X0067508D01*
X0065933D02*
X0066162D01*
X0065375D02*
X0065527D01*
X0063546D02*
X0064689D01*
X0068677Y0003080D02*
X0070175D01*
X0067229D02*
X0067483D01*
X0065933D02*
X0066187D01*
X0065375D02*
X0065527D01*
X0063571D02*
X0064689D01*
X0068626Y0003105D02*
X0070175D01*
X0067254D02*
X0067432D01*
X0065933D02*
X0066213D01*
X0065375D02*
X0065527D01*
X0063597D02*
X0064689D01*
X0068600Y0003130D02*
X0070150D01*
X0067305D02*
X0067407D01*
X0065908D02*
X0066238D01*
X0065375D02*
X0065527D01*
X0063597D02*
X0064689D01*
X0068550Y0003156D02*
X0070150D01*
X0066111D02*
X0066264D01*
X0065908D02*
X0066086D01*
X0065375D02*
X0065527D01*
X0063622D02*
X0064663D01*
X0068499Y0003181D02*
X0070124D01*
X0066137D02*
X0066289D01*
X0065908D02*
X0066086D01*
X0065375D02*
X0065527D01*
X0063622D02*
X0064663D01*
X0068448Y0003207D02*
X0070124D01*
X0066162D02*
X0066314D01*
X0065908D02*
X0066060D01*
X0065375D02*
X0065527D01*
X0063647D02*
X0064663D01*
X0068423Y0003232D02*
X0070099D01*
X0066187D02*
X0066365D01*
X0065883D02*
X0066060D01*
X0065375D02*
X0065527D01*
X0063673D02*
X0064663D01*
X0068372Y0003257D02*
X0070099D01*
X0066213D02*
X0066391D01*
X0065883D02*
X0066035D01*
X0065375D02*
X0065527D01*
X0063673D02*
X0064638D01*
X0068321Y0003283D02*
X0070074D01*
X0066238D02*
X0066416D01*
X0065883D02*
X0066035D01*
X0065375D02*
X0065527D01*
X0063698D02*
X0064638D01*
X0068296Y0003308D02*
X0070074D01*
X0066264D02*
X0066416D01*
X0065883D02*
X0066010D01*
X0065349D02*
X0065527D01*
X0063698D02*
X0064638D01*
X0068245Y0003334D02*
X0070048D01*
X0066314D02*
X0066441D01*
X0065857D02*
X0066010D01*
X0065349D02*
X0065502D01*
X0063724D02*
X0064638D01*
X0068194Y0003359D02*
X0070023D01*
X0066340D02*
X0066467D01*
X0065857D02*
X0066010D01*
X0065349D02*
X0065502D01*
X0063749D02*
X0064638D01*
X0068143Y0003384D02*
X0070023D01*
X0066365D02*
X0066492D01*
X0065857D02*
X0065984D01*
X0065349D02*
X0065502D01*
X0063749D02*
X0064638D01*
X0068118Y0003410D02*
X0069997D01*
X0066391D02*
X0066518D01*
X0065857D02*
X0065984D01*
X0065324D02*
X0065502D01*
X0063774D02*
X0064613D01*
X0068067Y0003435D02*
X0069997D01*
X0066416D02*
X0066543D01*
X0065832D02*
X0065959D01*
X0065324D02*
X0065502D01*
X0063774D02*
X0064613D01*
X0068016Y0003461D02*
X0069972D01*
X0066416D02*
X0066568D01*
X0065832D02*
X0065959D01*
X0065324D02*
X0065502D01*
X0063800D02*
X0064613D01*
X0067991Y0003486D02*
X0069972D01*
X0066391D02*
X0066594D01*
X0065832D02*
X0065959D01*
X0065298D02*
X0065476D01*
X0063825D02*
X0064613D01*
X0067991Y0003511D02*
X0069947D01*
X0066340D02*
X0066594D01*
X0065832D02*
X0065959D01*
X0065298D02*
X0065476D01*
X0063825D02*
X0064613D01*
X0068016Y0003537D02*
X0069947D01*
X0066340D02*
X0066619D01*
X0065832D02*
X0065959D01*
X0065298D02*
X0065476D01*
X0063851D02*
X0064613D01*
X0068016Y0003562D02*
X0069921D01*
X0066314D02*
X0066645D01*
X0065832D02*
X0065984D01*
X0065273D02*
X0065451D01*
X0063851D02*
X0064613D01*
X0068016Y0003588D02*
X0069921D01*
X0066314D02*
X0066619D01*
X0065857D02*
X0065984D01*
X0065273D02*
X0065451D01*
X0063876D02*
X0064613D01*
X0068016Y0003613D02*
X0069896D01*
X0066314D02*
X0066543D01*
X0065857D02*
X0065984D01*
X0065248D02*
X0065451D01*
X0063901D02*
X0064587D01*
X0068042Y0003638D02*
X0069870D01*
X0066314D02*
X0066492D01*
X0065883D02*
X0066010D01*
X0065248D02*
X0065476D01*
X0063901D02*
X0064587D01*
X0068092Y0003664D02*
X0069870D01*
X0066264D02*
X0066416D01*
X0065883D02*
X0066010D01*
X0065248D02*
X0065502D01*
X0063927D02*
X0064587D01*
X0068143Y0003689D02*
X0069845D01*
X0066213D02*
X0066365D01*
X0065908D02*
X0066035D01*
X0065298D02*
X0065527D01*
X0063927D02*
X0064587D01*
X0068169Y0003715D02*
X0069845D01*
X0066162D02*
X0066314D01*
X0065908D02*
X0066035D01*
X0065324D02*
X0065552D01*
X0063952D02*
X0064587D01*
X0068219Y0003740D02*
X0069820D01*
X0066111D02*
X0066264D01*
X0065933D02*
X0066060D01*
X0065349D02*
X0065552D01*
X0063978D02*
X0064587D01*
X0068245Y0003765D02*
X0069820D01*
X0065959D02*
X0066213D01*
X0065375D02*
X0065578D01*
X0063978D02*
X0064613D01*
X0068296Y0003791D02*
X0069794D01*
X0065959D02*
X0066187D01*
X0065400D02*
X0065578D01*
X0064003D02*
X0064613D01*
X0068321Y0003816D02*
X0069794D01*
X0065908D02*
X0066137D01*
X0065400D02*
X0065603D01*
X0064003D02*
X0064613D01*
X0068346Y0003842D02*
X0069769D01*
X0065883D02*
X0066111D01*
X0065425D02*
X0065629D01*
X0064028D02*
X0064613D01*
X0068372Y0003867D02*
X0069769D01*
X0065857D02*
X0066060D01*
X0065451D02*
X0065629D01*
X0064054D02*
X0064613D01*
X0068397Y0003892D02*
X0069743D01*
X0065832D02*
X0066035D01*
X0065476D02*
X0065654D01*
X0064054D02*
X0064638D01*
X0068423Y0003918D02*
X0069743D01*
X0065806D02*
X0065984D01*
X0065502D02*
X0065654D01*
X0064079D02*
X0064638D01*
X0068473Y0003943D02*
X0069718D01*
X0065781D02*
X0065959D01*
X0065527D02*
X0065654D01*
X0064079D02*
X0064638D01*
X0068499Y0003969D02*
X0069693D01*
X0065756D02*
X0065933D01*
X0065527D02*
X0065679D01*
X0064105D02*
X0064663D01*
X0068524Y0003994D02*
X0069693D01*
X0065730D02*
X0065883D01*
X0065552D02*
X0065679D01*
X0064130D02*
X0064663D01*
X0068524Y0004019D02*
X0069667D01*
X0065578D02*
X0065857D01*
X0064130D02*
X0064689D01*
X0068550Y0004045D02*
X0069667D01*
X0065603D02*
X0065832D01*
X0064155D02*
X0064689D01*
X0068575Y0004070D02*
X0069642D01*
X0065603D02*
X0065806D01*
X0064155D02*
X0064689D01*
X0068600Y0004096D02*
X0069642D01*
X0065629D02*
X0065781D01*
X0064181D02*
X0064714D01*
X0068626Y0004121D02*
X0069616D01*
X0065629D02*
X0065756D01*
X0064206D02*
X0064714D01*
X0068651Y0004146D02*
X0069616D01*
X0065654D02*
X0065730D01*
X0064206D02*
X0064714D01*
X0068651Y0004172D02*
X0069591D01*
X0065654D02*
X0065705D01*
X0064232D02*
X0064740D01*
X0068677Y0004197D02*
X0069591D01*
X0064232D02*
X0064740D01*
X0068702Y0004223D02*
X0069566D01*
X0064257D02*
X0064765D01*
X0068727Y0004248D02*
X0069540D01*
X0064282D02*
X0064765D01*
X0068727Y0004273D02*
X0069540D01*
X0064282D02*
X0064790D01*
X0068753Y0004299D02*
X0069515D01*
X0064308D02*
X0064790D01*
X0068778Y0004324D02*
X0069515D01*
X0064308D02*
X0064816D01*
X0068778Y0004350D02*
X0069489D01*
X0064333D02*
X0064816D01*
X0068804Y0004375D02*
X0069489D01*
X0064359D02*
X0064816D01*
X0068804Y0004400D02*
X0069464D01*
X0064359D02*
X0064841D01*
X0068829Y0004426D02*
X0069464D01*
X0064384D02*
X0064841D01*
X0068854Y0004451D02*
X0069439D01*
X0064384D02*
X0064867D01*
X0068854Y0004477D02*
X0069439D01*
X0064409D02*
X0064867D01*
X0068880Y0004502D02*
X0069413D01*
X0064435D02*
X0064892D01*
X0068880Y0004527D02*
X0069413D01*
X0064435D02*
X0064892D01*
X0068905Y0004553D02*
X0069388D01*
X0064460D02*
X0064917D01*
X0068905Y0004578D02*
X0069362D01*
X0064460D02*
X0064917D01*
X0068905Y0004604D02*
X0069362D01*
X0064486D02*
X0064917D01*
X0068981Y0004629D02*
X0069337D01*
X0064511D02*
X0064867D01*
X0069058Y0004654D02*
X0069337D01*
X0064511D02*
X0064841D01*
X0069134Y0004680D02*
X0069312D01*
X0064536D02*
X0064790D01*
X0069185Y0004705D02*
X0069312D01*
X0064536D02*
X0064740D01*
X0069261Y0004731D02*
X0069286D01*
X0064562D02*
X0064714D01*
X0064587Y0004756D02*
X0064663D01*
X0064587Y0004781D02*
X0064638D01*
X0065222Y0005162D02*
X0065298D01*
X0065197Y0005188D02*
X0065324D01*
X0065146Y0005213D02*
X0065349D01*
X0065121Y0005239D02*
X0065375D01*
X0065070Y0005264D02*
X0065400D01*
X0065044Y0005289D02*
X0065425D01*
X0064994Y0005315D02*
X0065451D01*
X0064968Y0005340D02*
X0065476D01*
X0064968Y0005366D02*
X0065527D01*
X0064968Y0005391D02*
X0065552D01*
X0064994Y0005416D02*
X0065603D01*
X0064994Y0005442D02*
X0065629D01*
X0065019Y0005467D02*
X0065679D01*
X0065044Y0005493D02*
X0065730D01*
X0065044Y0005518D02*
X0065781D01*
X0065070Y0005543D02*
X0065832D01*
X0065070Y0005569D02*
X0065908D01*
X0065095Y0005594D02*
X0065984D01*
X0065121Y0005620D02*
X0066060D01*
X0065121Y0005645D02*
X0066162D01*
X0065146Y0005670D02*
X0066289D01*
X0065171Y0005696D02*
X0066467D01*
X0065171Y0005721D02*
X0066975D01*
X0065197Y0005747D02*
X0067280D01*
X0065197Y0005772D02*
X0067483D01*
X0065222Y0005797D02*
X0067610D01*
X0065248Y0005823D02*
X0067737D01*
X0065248Y0005848D02*
X0067838D01*
X0065273Y0005874D02*
X0067915D01*
X0065273Y0005899D02*
X0067991D01*
X0065298Y0005924D02*
X0068042D01*
X0065324Y0005950D02*
X0068092D01*
X0065324Y0005975D02*
X0068143D01*
X0065349Y0006001D02*
X0068194D01*
X0065375Y0006026D02*
X0068219D01*
X0065375Y0006051D02*
X0068270D01*
X0065400Y0006077D02*
X0068296D01*
X0065400Y0006102D02*
X0068321D01*
X0065425Y0006128D02*
X0068346D01*
X0065451Y0006153D02*
X0068372D01*
X0065451Y0006178D02*
X0068372D01*
X0065476Y0006204D02*
X0068397D01*
X0065476Y0006229D02*
X0068397D01*
X0065502Y0006255D02*
X0068423D01*
X0065527Y0006280D02*
X0068423D01*
X0065527Y0006305D02*
X0068423D01*
X0065552Y0006331D02*
X0068448D01*
X0065552Y0006356D02*
X0068448D01*
X0065578Y0006382D02*
X0068448D01*
X0065603Y0006407D02*
X0068423D01*
X0065603Y0006432D02*
X0068423D01*
X0065629Y0006458D02*
X0068423D01*
X0065654Y0006483D02*
X0068397D01*
X0065654Y0006509D02*
X0068397D01*
X0065679Y0006534D02*
X0068372D01*
X0065679Y0006559D02*
X0068372D01*
X0065705Y0006585D02*
X0068346D01*
X0065730Y0006610D02*
X0068346D01*
X0065730Y0006636D02*
X0068321D01*
X0065756Y0006661D02*
X0068296D01*
X0065756Y0006686D02*
X0068296D01*
X0065781Y0006712D02*
X0068270D01*
X0065806Y0006737D02*
X0068270D01*
X0065806Y0006763D02*
X0068245D01*
X0065832Y0006788D02*
X0068245D01*
X0065857Y0006813D02*
X0068219D01*
X0065857Y0006839D02*
X0068219D01*
X0065883Y0006864D02*
X0068194D01*
X0065883Y0006890D02*
X0068194D01*
X0065908Y0006915D02*
X0068169D01*
X0065933Y0006940D02*
X0068169D01*
X0065933Y0006966D02*
X0068143D01*
X0065959Y0006991D02*
X0068143D01*
X0065959Y0007017D02*
X0068118D01*
X0065984Y0007042D02*
X0068118D01*
X0066010Y0007067D02*
X0068092D01*
X0066010Y0007093D02*
X0068092D01*
X0066035Y0007118D02*
X0068067D01*
X0066060Y0007144D02*
X0068067D01*
X0066060Y0007169D02*
X0068042D01*
X0066086Y0007194D02*
X0068042D01*
X0066086Y0007220D02*
X0068016D01*
X0066111Y0007245D02*
X0068016D01*
X0066137Y0007271D02*
X0067991D01*
X0066137Y0007296D02*
X0067991D01*
X0066162Y0007321D02*
X0067965D01*
X0066162Y0007347D02*
X0067940D01*
X0066187Y0007372D02*
X0067940D01*
X0066213Y0007398D02*
X0067915D01*
X0066213Y0007423D02*
X0067915D01*
X0066238Y0007448D02*
X0067889D01*
X0066238Y0007474D02*
X0067889D01*
X0066264Y0007499D02*
X0067864D01*
X0066289Y0007525D02*
X0067864D01*
X0066289Y0007550D02*
X0067838D01*
X0066314Y0007575D02*
X0067838D01*
X0066340Y0007601D02*
X0067813D01*
X0066340Y0007626D02*
X0067813D01*
X0066365Y0007652D02*
X0067788D01*
X0066365Y0007677D02*
X0067788D01*
X0066391Y0007702D02*
X0067762D01*
X0066416Y0007728D02*
X0067762D01*
X0066416Y0007753D02*
X0067737D01*
X0066441Y0007779D02*
X0067737D01*
X0066441Y0007804D02*
X0067711D01*
X0066467Y0007829D02*
X0067711D01*
X0066492Y0007855D02*
X0067686D01*
X0066492Y0007880D02*
X0067686D01*
X0066518Y0007906D02*
X0067661D01*
X0066543Y0007931D02*
X0067661D01*
X0066543Y0007956D02*
X0067635D01*
X0066568Y0007982D02*
X0067635D01*
X0066568Y0008007D02*
X0067610D01*
X0066594Y0008033D02*
X0067584D01*
X0066619Y0008058D02*
X0067584D01*
X0066619Y0008083D02*
X0067559D01*
X0066645Y0008109D02*
X0067559D01*
X0066645Y0008134D02*
X0067534D01*
X0066670Y0008160D02*
X0067534D01*
X0066695Y0008185D02*
X0067508D01*
X0066695Y0008210D02*
X0067508D01*
X0066721Y0008236D02*
X0067483D01*
X0066746Y0008261D02*
X0067483D01*
X0066746Y0008287D02*
X0067457D01*
X0066772Y0008312D02*
X0067457D01*
X0066772Y0008337D02*
X0067432D01*
X0066797Y0008363D02*
X0067432D01*
X0066822Y0008388D02*
X0067407D01*
X0066822Y0008414D02*
X0067407D01*
X0066848Y0008439D02*
X0067381D01*
X0066848Y0008464D02*
X0067381D01*
X0066873Y0008490D02*
X0067356D01*
X0066899Y0008515D02*
X0067356D01*
X0066899Y0008541D02*
X0067330D01*
X0066924Y0008566D02*
X0067330D01*
X0066924Y0008591D02*
X0067305D01*
X0066949Y0008617D02*
X0067305D01*
X0066975Y0008642D02*
X0067280D01*
X0066975Y0008668D02*
X0067280D01*
X0067000Y0008693D02*
X0067254D01*
X0067026Y0008718D02*
X0067229D01*
X0067026Y0008744D02*
X0067229D01*
X0067051Y0008769D02*
X0067203D01*
X0067051Y0008795D02*
X0067203D01*
X0067076Y0008820D02*
X0067178D01*
X0067102Y0008845D02*
X0067178D01*
X0067102Y0008871D02*
X0067153D01*
D44*
X0061200Y0031200D02*
X0061400Y0031000D01*
X0060900Y0031200D02*
X0061200D01*
X0057000D02*
X0057500D01*
X0057000Y0030700D02*
Y0031200D01*
Y0026800D02*
Y0027300D01*
Y0026800D02*
X0057500D01*
X0060900D02*
X0061400D01*
Y0027250D01*
Y0030700D02*
Y0031000D01*
X0079250Y0023000D02*
X0080400D01*
X0049800Y0042700D02*
X0050950D01*
X0049800Y0041550D02*
Y0042700D01*
X0079250D02*
X0080400D01*
Y0041550D02*
Y0042700D01*
X0080400Y0023000D02*
Y0024150D01*
X0049800Y0023000D02*
X0050950D01*
X0049800D02*
Y0024150D01*
D45*
X0065434Y0020960D02*
X0065475D01*
X0065495D02*
X0066064D01*
X0066084D02*
X0066105D01*
X0065292Y0020940D02*
X0066288D01*
X0065129Y0020919D02*
X0066389D01*
X0065028Y0020899D02*
X0066511D01*
X0064946Y0020879D02*
X0066613D01*
X0064865Y0020859D02*
X0066694D01*
X0064784Y0020838D02*
X0066775D01*
X0064703Y0020818D02*
X0066836D01*
X0064642Y0020798D02*
X0066897D01*
X0064581Y0020777D02*
X0066958D01*
X0064520Y0020757D02*
X0067019D01*
X0064459Y0020737D02*
X0067080D01*
X0064418Y0020716D02*
X0067141D01*
X0064357Y0020696D02*
X0067182D01*
X0064316Y0020676D02*
X0067243D01*
X0064256Y0020655D02*
X0067283D01*
X0064215Y0020635D02*
X0067324D01*
X0064174Y0020615D02*
X0067364D01*
X0064134Y0020594D02*
X0067405D01*
X0064093Y0020574D02*
X0067446D01*
X0064052Y0020554D02*
X0067486D01*
X0064012Y0020533D02*
X0065495D01*
X0066064D02*
X0067527D01*
X0063971Y0020513D02*
X0065312D01*
X0066206D02*
X0067568D01*
X0063951Y0020493D02*
X0065190D01*
X0066348D02*
X0067608D01*
X0063910Y0020472D02*
X0065089D01*
X0066470D02*
X0067629D01*
X0063869Y0020452D02*
X0064987D01*
X0066552D02*
X0067669D01*
X0063829Y0020432D02*
X0064926D01*
X0066633D02*
X0067710D01*
X0063808Y0020411D02*
X0064845D01*
X0066694D02*
X0067751D01*
X0063768Y0020391D02*
X0064784D01*
X0066775D02*
X0067771D01*
X0063748Y0020371D02*
X0064723D01*
X0066836D02*
X0067812D01*
X0063748Y0020351D02*
X0064662D01*
X0066877D02*
X0067832D01*
X0063768Y0020330D02*
X0064601D01*
X0066938D02*
X0067852D01*
X0063788Y0020310D02*
X0064560D01*
X0066999D02*
X0067832D01*
X0063788Y0020290D02*
X0064499D01*
X0067039D02*
X0067812D01*
X0063808Y0020269D02*
X0064459D01*
X0067100D02*
X0067812D01*
X0063829Y0020249D02*
X0064418D01*
X0067141D02*
X0067791D01*
X0063829Y0020229D02*
X0064357D01*
X0067182D02*
X0067771D01*
X0063849Y0020208D02*
X0064337D01*
X0067222D02*
X0067771D01*
X0063869Y0020188D02*
X0064296D01*
X0067263D02*
X0067751D01*
X0063869Y0020168D02*
X0064256D01*
X0067304D02*
X0067730D01*
X0063890Y0020147D02*
X0064215D01*
X0065454D02*
X0065475D01*
X0065495D02*
X0066084D01*
X0067344D02*
X0067730D01*
X0063910Y0020127D02*
X0064174D01*
X0065312D02*
X0066247D01*
X0067385D02*
X0067710D01*
X0063930Y0020107D02*
X0064134D01*
X0065211D02*
X0066348D01*
X0067405D02*
X0067690D01*
X0063930Y0020086D02*
X0064093D01*
X0065109D02*
X0066430D01*
X0067446D02*
X0067669D01*
X0063951Y0020066D02*
X0064073D01*
X0065028D02*
X0066511D01*
X0067486D02*
X0067669D01*
X0063971Y0020046D02*
X0064032D01*
X0064946D02*
X0066592D01*
X0067507D02*
X0067649D01*
X0063971Y0020025D02*
X0064012D01*
X0064885D02*
X0066653D01*
X0067547D02*
X0067629D01*
X0064824Y0020005D02*
X0066714D01*
X0067588D02*
X0067629D01*
X0064764Y0019985D02*
X0066775D01*
X0064723Y0019964D02*
X0066836D01*
X0064662Y0019944D02*
X0066877D01*
X0064621Y0019924D02*
X0066917D01*
X0064581Y0019903D02*
X0066978D01*
X0064540Y0019883D02*
X0067019D01*
X0064479Y0019863D02*
X0067060D01*
X0064459Y0019843D02*
X0067100D01*
X0064398Y0019822D02*
X0067141D01*
X0064377Y0019802D02*
X0065454D01*
X0065475D02*
X0065495D01*
X0066064D02*
X0067182D01*
X0064337Y0019782D02*
X0065353D01*
X0066206D02*
X0067202D01*
X0064296Y0019761D02*
X0065231D01*
X0066308D02*
X0067243D01*
X0064256Y0019741D02*
X0065150D01*
X0066409D02*
X0067283D01*
X0064235Y0019721D02*
X0065068D01*
X0066470D02*
X0067324D01*
X0064215Y0019700D02*
X0065007D01*
X0066552D02*
X0067344D01*
X0064215Y0019680D02*
X0064946D01*
X0066613D02*
X0067385D01*
X0064235Y0019660D02*
X0064885D01*
X0066653D02*
X0067385D01*
X0064256Y0019639D02*
X0064824D01*
X0066714D02*
X0067364D01*
X0064256Y0019619D02*
X0064784D01*
X0066755D02*
X0067344D01*
X0064276Y0019599D02*
X0064743D01*
X0066816D02*
X0067344D01*
X0064296Y0019578D02*
X0064703D01*
X0066856D02*
X0067324D01*
X0064296Y0019558D02*
X0064662D01*
X0066897D02*
X0067304D01*
X0064316Y0019538D02*
X0064621D01*
X0066938D02*
X0067283D01*
X0064337Y0019517D02*
X0064581D01*
X0066978D02*
X0067283D01*
X0064357Y0019497D02*
X0064540D01*
X0067019D02*
X0067263D01*
X0064357Y0019477D02*
X0064499D01*
X0067060D02*
X0067243D01*
X0064377Y0019456D02*
X0064459D01*
X0067080D02*
X0067243D01*
X0064398Y0019436D02*
X0064418D01*
X0067121D02*
X0067222D01*
X0067141Y0019416D02*
X0067202D01*
X0062000Y0019395D02*
X0062853D01*
X0067649D02*
X0069518D01*
X0069539D02*
X0069559D01*
X0062000Y0019375D02*
X0062853D01*
X0067649D02*
X0069701D01*
X0062000Y0019355D02*
X0062853D01*
X0065515D02*
X0066044D01*
X0067649D02*
X0069803D01*
X0062000Y0019335D02*
X0062853D01*
X0065373D02*
X0066166D01*
X0067649D02*
X0069884D01*
X0062000Y0019314D02*
X0062853D01*
X0065272D02*
X0066267D01*
X0067649D02*
X0069945D01*
X0062000Y0019294D02*
X0062853D01*
X0065190D02*
X0066348D01*
X0067649D02*
X0070006D01*
X0062000Y0019274D02*
X0062853D01*
X0065129D02*
X0066409D01*
X0067649D02*
X0070047D01*
X0062000Y0019253D02*
X0062853D01*
X0065068D02*
X0066470D01*
X0067649D02*
X0070087D01*
X0062000Y0019233D02*
X0062853D01*
X0065007D02*
X0066531D01*
X0067649D02*
X0070128D01*
X0062000Y0019213D02*
X0062853D01*
X0064967D02*
X0066572D01*
X0067649D02*
X0070148D01*
X0062000Y0019192D02*
X0062853D01*
X0064906D02*
X0066633D01*
X0067649D02*
X0070189D01*
X0062000Y0019172D02*
X0062853D01*
X0064865D02*
X0066674D01*
X0067649D02*
X0070209D01*
X0062000Y0019152D02*
X0062853D01*
X0064824D02*
X0066714D01*
X0067649D02*
X0070250D01*
X0062000Y0019131D02*
X0062853D01*
X0064784D02*
X0066755D01*
X0067649D02*
X0070270D01*
X0062000Y0019111D02*
X0062853D01*
X0064743D02*
X0065698D01*
X0065739D02*
X0066796D01*
X0067649D02*
X0070291D01*
X0062000Y0019091D02*
X0062853D01*
X0064723D02*
X0065475D01*
X0066064D02*
X0066836D01*
X0067649D02*
X0070311D01*
X0062000Y0019070D02*
X0062853D01*
X0064682D02*
X0065373D01*
X0066166D02*
X0066856D01*
X0067649D02*
X0070331D01*
X0062000Y0019050D02*
X0062853D01*
X0064662D02*
X0065292D01*
X0066247D02*
X0066897D01*
X0067649D02*
X0070352D01*
X0062000Y0019030D02*
X0062853D01*
X0064682D02*
X0065231D01*
X0066328D02*
X0066917D01*
X0067649D02*
X0070372D01*
X0062000Y0019009D02*
X0062853D01*
X0064682D02*
X0065170D01*
X0066389D02*
X0066917D01*
X0067649D02*
X0070372D01*
X0062000Y0018989D02*
X0062853D01*
X0064703D02*
X0065109D01*
X0066430D02*
X0066897D01*
X0067649D02*
X0070392D01*
X0062000Y0018969D02*
X0062853D01*
X0064723D02*
X0065048D01*
X0066491D02*
X0066897D01*
X0067649D02*
X0070412D01*
X0062000Y0018948D02*
X0062853D01*
X0064723D02*
X0065007D01*
X0066531D02*
X0066877D01*
X0067649D02*
X0070412D01*
X0062000Y0018928D02*
X0062853D01*
X0064743D02*
X0064967D01*
X0066572D02*
X0066856D01*
X0067649D02*
X0070433D01*
X0062000Y0018908D02*
X0062853D01*
X0064764D02*
X0064926D01*
X0066613D02*
X0066856D01*
X0067649D02*
X0070453D01*
X0062000Y0018887D02*
X0062853D01*
X0064784D02*
X0064885D01*
X0066653D02*
X0066836D01*
X0067649D02*
X0070453D01*
X0062000Y0018867D02*
X0062853D01*
X0064784D02*
X0064845D01*
X0066694D02*
X0066816D01*
X0067649D02*
X0070473D01*
X0062000Y0018847D02*
X0062853D01*
X0064804D02*
X0064824D01*
X0066735D02*
X0066816D01*
X0067649D02*
X0070473D01*
X0062000Y0018827D02*
X0062853D01*
X0066755D02*
X0066796D01*
X0067649D02*
X0070494D01*
X0062000Y0018806D02*
X0062853D01*
X0067649D02*
X0070494D01*
X0062000Y0018786D02*
X0062853D01*
X0067649D02*
X0070494D01*
X0062000Y0018766D02*
X0062853D01*
X0067649D02*
X0068502D01*
X0069315D02*
X0070514D01*
X0062000Y0018745D02*
X0062853D01*
X0067649D02*
X0068502D01*
X0069437D02*
X0070514D01*
X0062000Y0018725D02*
X0062853D01*
X0067649D02*
X0068502D01*
X0069498D02*
X0070514D01*
X0062000Y0018705D02*
X0062853D01*
X0067649D02*
X0068502D01*
X0069539D02*
X0070534D01*
X0062000Y0018684D02*
X0062853D01*
X0067649D02*
X0068502D01*
X0069579D02*
X0070534D01*
X0073643D02*
X0073806D01*
X0062000Y0018664D02*
X0062853D01*
X0067649D02*
X0068502D01*
X0069600D02*
X0070534D01*
X0073582D02*
X0073867D01*
X0062000Y0018644D02*
X0062853D01*
X0067649D02*
X0068502D01*
X0069620D02*
X0070534D01*
X0073562D02*
X0073908D01*
X0062000Y0018623D02*
X0062853D01*
X0067649D02*
X0068502D01*
X0069640D02*
X0070555D01*
X0073521D02*
X0073643D01*
X0073806D02*
X0073928D01*
X0062000Y0018603D02*
X0062853D01*
X0065637D02*
X0065983D01*
X0067649D02*
X0068502D01*
X0069661D02*
X0070555D01*
X0071876D02*
X0071896D01*
X0071916D02*
X0072262D01*
X0072282D02*
X0072302D01*
X0073501D02*
X0073603D01*
X0073847D02*
X0073948D01*
X0062000Y0018583D02*
X0062853D01*
X0065495D02*
X0066105D01*
X0067649D02*
X0068502D01*
X0069661D02*
X0070555D01*
X0071733D02*
X0072505D01*
X0073481D02*
X0073562D01*
X0073887D02*
X0073968D01*
X0062000Y0018562D02*
X0062853D01*
X0065393D02*
X0066206D01*
X0067649D02*
X0068502D01*
X0069681D02*
X0070555D01*
X0071632D02*
X0072607D01*
X0073460D02*
X0073542D01*
X0073908D02*
X0073989D01*
X0062000Y0018542D02*
X0062853D01*
X0065312D02*
X0066288D01*
X0067649D02*
X0068502D01*
X0069681D02*
X0070555D01*
X0071571D02*
X0072709D01*
X0073460D02*
X0073521D01*
X0073582D02*
X0073765D01*
X0073928D02*
X0073989D01*
X0062000Y0018522D02*
X0062853D01*
X0065251D02*
X0066348D01*
X0067649D02*
X0068502D01*
X0069701D02*
X0070575D01*
X0071510D02*
X0072770D01*
X0073440D02*
X0073521D01*
X0073582D02*
X0073806D01*
X0073948D02*
X0074009D01*
X0062000Y0018501D02*
X0062853D01*
X0065190D02*
X0066409D01*
X0067649D02*
X0068502D01*
X0069701D02*
X0070575D01*
X0071469D02*
X0072810D01*
X0073440D02*
X0073501D01*
X0073582D02*
X0073826D01*
X0073948D02*
X0074009D01*
X0062000Y0018481D02*
X0062853D01*
X0065150D02*
X0066450D01*
X0067649D02*
X0068502D01*
X0069701D02*
X0070575D01*
X0071428D02*
X0072871D01*
X0073420D02*
X0073501D01*
X0073582D02*
X0073643D01*
X0073765D02*
X0073847D01*
X0073968D02*
X0074029D01*
X0062000Y0018461D02*
X0062853D01*
X0065109D02*
X0066491D01*
X0067649D02*
X0068502D01*
X0069722D02*
X0070575D01*
X0071388D02*
X0072912D01*
X0073420D02*
X0073481D01*
X0073582D02*
X0073643D01*
X0073786D02*
X0073847D01*
X0073968D02*
X0074029D01*
X0062000Y0018440D02*
X0062853D01*
X0065068D02*
X0066531D01*
X0067649D02*
X0068502D01*
X0069722D02*
X0070575D01*
X0071347D02*
X0072932D01*
X0073420D02*
X0073481D01*
X0073582D02*
X0073643D01*
X0073786D02*
X0073847D01*
X0073968D02*
X0074029D01*
X0062000Y0018420D02*
X0062853D01*
X0065028D02*
X0066572D01*
X0067649D02*
X0068502D01*
X0069722D02*
X0070575D01*
X0071327D02*
X0072973D01*
X0073420D02*
X0073481D01*
X0073582D02*
X0073643D01*
X0073786D02*
X0073847D01*
X0073989D02*
X0074029D01*
X0062000Y0018400D02*
X0062853D01*
X0065007D02*
X0066592D01*
X0067649D02*
X0068502D01*
X0069722D02*
X0070575D01*
X0071286D02*
X0072993D01*
X0073420D02*
X0073460D01*
X0073582D02*
X0073664D01*
X0073684D02*
X0073704D01*
X0073725D02*
X0073847D01*
X0073989D02*
X0074029D01*
X0062000Y0018379D02*
X0062853D01*
X0064967D02*
X0066633D01*
X0067649D02*
X0068502D01*
X0069722D02*
X0070575D01*
X0071266D02*
X0073013D01*
X0073420D02*
X0073481D01*
X0073582D02*
X0073826D01*
X0073989D02*
X0074029D01*
X0062000Y0018359D02*
X0062853D01*
X0064946D02*
X0066653D01*
X0067649D02*
X0068502D01*
X0069722D02*
X0070575D01*
X0071246D02*
X0073034D01*
X0073420D02*
X0073460D01*
X0073582D02*
X0073786D01*
X0073989D02*
X0074029D01*
X0062000Y0018339D02*
X0062853D01*
X0064906D02*
X0066674D01*
X0067649D02*
X0068502D01*
X0069722D02*
X0070575D01*
X0071225D02*
X0073054D01*
X0073420D02*
X0073481D01*
X0073582D02*
X0073643D01*
X0073704D02*
X0073786D01*
X0073989D02*
X0074029D01*
X0062000Y0018319D02*
X0062853D01*
X0064885D02*
X0066714D01*
X0067649D02*
X0068502D01*
X0069722D02*
X0070595D01*
X0071205D02*
X0073074D01*
X0073420D02*
X0073481D01*
X0073582D02*
X0073643D01*
X0073725D02*
X0073806D01*
X0073968D02*
X0074029D01*
X0062000Y0018298D02*
X0062853D01*
X0064865D02*
X0066735D01*
X0067649D02*
X0068502D01*
X0069722D02*
X0070575D01*
X0071185D02*
X0073095D01*
X0073420D02*
X0073481D01*
X0073582D02*
X0073643D01*
X0073745D02*
X0073826D01*
X0073968D02*
X0074029D01*
X0062000Y0018278D02*
X0062853D01*
X0064845D02*
X0066755D01*
X0067649D02*
X0068502D01*
X0069722D02*
X0070575D01*
X0071185D02*
X0073115D01*
X0073420D02*
X0073501D01*
X0073582D02*
X0073643D01*
X0073765D02*
X0073826D01*
X0073968D02*
X0074029D01*
X0062000Y0018258D02*
X0062853D01*
X0064824D02*
X0066775D01*
X0067649D02*
X0068502D01*
X0069722D02*
X0070595D01*
X0071164D02*
X0073115D01*
X0073440D02*
X0073501D01*
X0073582D02*
X0073643D01*
X0073765D02*
X0073847D01*
X0073948D02*
X0074009D01*
X0062000Y0018237D02*
X0062853D01*
X0064804D02*
X0066796D01*
X0067649D02*
X0068502D01*
X0069722D02*
X0070575D01*
X0071144D02*
X0073135D01*
X0073440D02*
X0073521D01*
X0073582D02*
X0073643D01*
X0073786D02*
X0073847D01*
X0073948D02*
X0074009D01*
X0062000Y0018217D02*
X0062853D01*
X0064784D02*
X0066816D01*
X0067649D02*
X0068502D01*
X0069722D02*
X0070575D01*
X0071144D02*
X0073135D01*
X0073460D02*
X0073521D01*
X0073582D02*
X0073643D01*
X0073806D02*
X0073867D01*
X0073928D02*
X0073989D01*
X0062000Y0018197D02*
X0062853D01*
X0064764D02*
X0066836D01*
X0067649D02*
X0068502D01*
X0069722D02*
X0070575D01*
X0071124D02*
X0073156D01*
X0073460D02*
X0073542D01*
X0073908D02*
X0073989D01*
X0062000Y0018176D02*
X0062853D01*
X0064743D02*
X0066856D01*
X0067649D02*
X0068502D01*
X0069722D02*
X0070575D01*
X0071124D02*
X0073156D01*
X0073481D02*
X0073562D01*
X0073887D02*
X0073968D01*
X0062000Y0018156D02*
X0062853D01*
X0064723D02*
X0066877D01*
X0067649D02*
X0068502D01*
X0069701D02*
X0070575D01*
X0071103D02*
X0073176D01*
X0073501D02*
X0073603D01*
X0073847D02*
X0073948D01*
X0062000Y0018136D02*
X0062853D01*
X0064703D02*
X0066897D01*
X0067649D02*
X0068502D01*
X0069701D02*
X0070575D01*
X0071103D02*
X0072038D01*
X0072262D02*
X0073176D01*
X0073521D02*
X0073643D01*
X0073806D02*
X0073928D01*
X0062000Y0018115D02*
X0062853D01*
X0064682D02*
X0066897D01*
X0067649D02*
X0068502D01*
X0069701D02*
X0070575D01*
X0071083D02*
X0071957D01*
X0072343D02*
X0073176D01*
X0073562D02*
X0073908D01*
X0062000Y0018095D02*
X0062853D01*
X0064682D02*
X0066917D01*
X0067649D02*
X0068502D01*
X0069701D02*
X0070575D01*
X0071083D02*
X0071916D01*
X0072384D02*
X0073196D01*
X0073582D02*
X0073867D01*
X0062000Y0018075D02*
X0062853D01*
X0064662D02*
X0066938D01*
X0067649D02*
X0068502D01*
X0069681D02*
X0070555D01*
X0071083D02*
X0071876D01*
X0072404D02*
X0073196D01*
X0073643D02*
X0073806D01*
X0062000Y0018054D02*
X0062853D01*
X0064642D02*
X0066938D01*
X0067649D02*
X0068502D01*
X0069681D02*
X0070555D01*
X0071063D02*
X0071855D01*
X0072424D02*
X0073196D01*
X0062000Y0018034D02*
X0062853D01*
X0064642D02*
X0065780D01*
X0065800D02*
X0065840D01*
X0065861D02*
X0066958D01*
X0067649D02*
X0068502D01*
X0069661D02*
X0070555D01*
X0071063D02*
X0071835D01*
X0072444D02*
X0073196D01*
X0062000Y0018014D02*
X0062853D01*
X0064621D02*
X0065617D01*
X0065962D02*
X0066978D01*
X0067649D02*
X0068502D01*
X0069661D02*
X0070555D01*
X0071063D02*
X0071835D01*
X0072465D02*
X0073217D01*
X0062000Y0017993D02*
X0062853D01*
X0064621D02*
X0065556D01*
X0066023D02*
X0066978D01*
X0067649D02*
X0068502D01*
X0069640D02*
X0070534D01*
X0071063D02*
X0071815D01*
X0072465D02*
X0073217D01*
X0062000Y0017973D02*
X0062853D01*
X0064601D02*
X0065515D01*
X0066084D02*
X0066999D01*
X0067649D02*
X0068502D01*
X0069620D02*
X0070534D01*
X0071042D02*
X0071794D01*
X0072485D02*
X0073217D01*
X0062000Y0017953D02*
X0062853D01*
X0064581D02*
X0065475D01*
X0066125D02*
X0066999D01*
X0067649D02*
X0068502D01*
X0069600D02*
X0070534D01*
X0071042D02*
X0071794D01*
X0072485D02*
X0073217D01*
X0062000Y0017932D02*
X0062853D01*
X0064581D02*
X0065454D01*
X0066145D02*
X0067019D01*
X0067649D02*
X0068502D01*
X0069579D02*
X0070514D01*
X0071042D02*
X0071794D01*
X0072485D02*
X0073217D01*
X0062000Y0017912D02*
X0062853D01*
X0064560D02*
X0065434D01*
X0066166D02*
X0067019D01*
X0067649D02*
X0068502D01*
X0069539D02*
X0070514D01*
X0071042D02*
X0071774D01*
X0072485D02*
X0073217D01*
X0062000Y0017892D02*
X0062853D01*
X0064560D02*
X0065393D01*
X0066186D02*
X0067039D01*
X0067649D02*
X0068502D01*
X0069498D02*
X0070494D01*
X0071042D02*
X0071774D01*
X0072505D02*
X0073217D01*
X0062000Y0017871D02*
X0062853D01*
X0064560D02*
X0065373D01*
X0066206D02*
X0067039D01*
X0067649D02*
X0068502D01*
X0069437D02*
X0070494D01*
X0071042D02*
X0071774D01*
X0072485D02*
X0073217D01*
X0062000Y0017851D02*
X0062853D01*
X0064540D02*
X0065373D01*
X0066227D02*
X0067060D01*
X0067649D02*
X0070494D01*
X0071042D02*
X0071774D01*
X0072485D02*
X0073217D01*
X0062000Y0017831D02*
X0062853D01*
X0064540D02*
X0065353D01*
X0066247D02*
X0067060D01*
X0067649D02*
X0070473D01*
X0071042D02*
X0071754D01*
X0072485D02*
X0073217D01*
X0062000Y0017811D02*
X0062853D01*
X0064520D02*
X0065332D01*
X0066267D02*
X0067060D01*
X0067649D02*
X0070473D01*
X0071042D02*
X0071754D01*
X0072485D02*
X0073217D01*
X0062000Y0017790D02*
X0062853D01*
X0064520D02*
X0065312D01*
X0066267D02*
X0067080D01*
X0067649D02*
X0070453D01*
X0072485D02*
X0073217D01*
X0062000Y0017770D02*
X0062853D01*
X0064520D02*
X0065312D01*
X0066288D02*
X0067080D01*
X0067649D02*
X0070433D01*
X0072485D02*
X0073217D01*
X0062000Y0017750D02*
X0062853D01*
X0064499D02*
X0065292D01*
X0066308D02*
X0067080D01*
X0067649D02*
X0070433D01*
X0072485D02*
X0073217D01*
X0062000Y0017729D02*
X0062853D01*
X0064499D02*
X0065292D01*
X0066308D02*
X0067100D01*
X0067649D02*
X0070412D01*
X0072485D02*
X0073217D01*
X0062000Y0017709D02*
X0062853D01*
X0064499D02*
X0065272D01*
X0066328D02*
X0067100D01*
X0067649D02*
X0070392D01*
X0072485D02*
X0073217D01*
X0062000Y0017689D02*
X0062853D01*
X0064499D02*
X0065272D01*
X0066328D02*
X0067100D01*
X0067649D02*
X0070372D01*
X0072485D02*
X0073217D01*
X0062000Y0017668D02*
X0062853D01*
X0064479D02*
X0065251D01*
X0066348D02*
X0067100D01*
X0067649D02*
X0070372D01*
X0072485D02*
X0073217D01*
X0062000Y0017648D02*
X0062853D01*
X0064479D02*
X0065251D01*
X0066348D02*
X0067121D01*
X0067649D02*
X0070352D01*
X0072363D02*
X0073217D01*
X0062000Y0017628D02*
X0062853D01*
X0064479D02*
X0065251D01*
X0066348D02*
X0067121D01*
X0067649D02*
X0070331D01*
X0072201D02*
X0073217D01*
X0062000Y0017607D02*
X0062853D01*
X0064479D02*
X0065231D01*
X0066369D02*
X0067121D01*
X0067649D02*
X0070311D01*
X0072058D02*
X0073217D01*
X0062000Y0017587D02*
X0062853D01*
X0064479D02*
X0065231D01*
X0066369D02*
X0067121D01*
X0067649D02*
X0070291D01*
X0071957D02*
X0073217D01*
X0062000Y0017567D02*
X0062853D01*
X0064459D02*
X0065231D01*
X0066369D02*
X0067121D01*
X0067649D02*
X0070270D01*
X0071855D02*
X0073217D01*
X0062000Y0017546D02*
X0062853D01*
X0064459D02*
X0065211D01*
X0066369D02*
X0067121D01*
X0067649D02*
X0070230D01*
X0071774D02*
X0073217D01*
X0062000Y0017526D02*
X0062853D01*
X0064459D02*
X0065211D01*
X0066369D02*
X0067141D01*
X0067649D02*
X0070209D01*
X0071693D02*
X0073217D01*
X0062000Y0017506D02*
X0062853D01*
X0064459D02*
X0065211D01*
X0066389D02*
X0067141D01*
X0067649D02*
X0070189D01*
X0071632D02*
X0073217D01*
X0062000Y0017485D02*
X0062853D01*
X0064459D02*
X0065211D01*
X0066389D02*
X0067141D01*
X0067649D02*
X0070148D01*
X0071571D02*
X0073217D01*
X0062000Y0017465D02*
X0062853D01*
X0064459D02*
X0065211D01*
X0066389D02*
X0067141D01*
X0067649D02*
X0070128D01*
X0071510D02*
X0073217D01*
X0062000Y0017445D02*
X0062853D01*
X0064459D02*
X0065211D01*
X0066389D02*
X0067141D01*
X0067649D02*
X0070087D01*
X0071449D02*
X0073217D01*
X0062000Y0017424D02*
X0062853D01*
X0064438D02*
X0065190D01*
X0066389D02*
X0067141D01*
X0067649D02*
X0070047D01*
X0071408D02*
X0073217D01*
X0062000Y0017404D02*
X0062853D01*
X0064459D02*
X0065190D01*
X0066389D02*
X0067141D01*
X0067649D02*
X0070006D01*
X0071368D02*
X0073217D01*
X0062000Y0017384D02*
X0062853D01*
X0064438D02*
X0065190D01*
X0066389D02*
X0067141D01*
X0067649D02*
X0069945D01*
X0071327D02*
X0073217D01*
X0062000Y0017363D02*
X0062853D01*
X0064438D02*
X0065190D01*
X0066389D02*
X0067141D01*
X0067649D02*
X0069884D01*
X0071286D02*
X0073217D01*
X0062000Y0017343D02*
X0062853D01*
X0064438D02*
X0065190D01*
X0066389D02*
X0067141D01*
X0067649D02*
X0069884D01*
X0071266D02*
X0073217D01*
X0062000Y0017323D02*
X0062853D01*
X0064438D02*
X0065190D01*
X0066389D02*
X0067161D01*
X0067649D02*
X0069904D01*
X0071225D02*
X0073217D01*
X0062000Y0017303D02*
X0062853D01*
X0064438D02*
X0065190D01*
X0066389D02*
X0067141D01*
X0067649D02*
X0069925D01*
X0071205D02*
X0073217D01*
X0062000Y0017282D02*
X0062853D01*
X0064438D02*
X0065190D01*
X0066389D02*
X0067161D01*
X0067649D02*
X0069925D01*
X0071185D02*
X0073217D01*
X0062000Y0017262D02*
X0062853D01*
X0064438D02*
X0065190D01*
X0066389D02*
X0067161D01*
X0067649D02*
X0069945D01*
X0071164D02*
X0073217D01*
X0062000Y0017242D02*
X0062853D01*
X0064438D02*
X0065190D01*
X0066389D02*
X0067141D01*
X0067649D02*
X0069945D01*
X0071124D02*
X0073217D01*
X0062000Y0017221D02*
X0062853D01*
X0064438D02*
X0065190D01*
X0066389D02*
X0067161D01*
X0067649D02*
X0069010D01*
X0069031D02*
X0069965D01*
X0071124D02*
X0072465D01*
X0072485D02*
X0073217D01*
X0062000Y0017201D02*
X0062853D01*
X0064438D02*
X0065190D01*
X0066389D02*
X0067161D01*
X0067649D02*
X0068502D01*
X0069051D02*
X0069965D01*
X0071103D02*
X0072384D01*
X0072485D02*
X0073217D01*
X0062000Y0017181D02*
X0062853D01*
X0064438D02*
X0065190D01*
X0066389D02*
X0067141D01*
X0067649D02*
X0068502D01*
X0069051D02*
X0069986D01*
X0071083D02*
X0072323D01*
X0072505D02*
X0073217D01*
X0062000Y0017160D02*
X0062853D01*
X0064438D02*
X0065190D01*
X0066389D02*
X0067141D01*
X0067649D02*
X0068502D01*
X0069071D02*
X0070006D01*
X0071063D02*
X0072241D01*
X0072485D02*
X0073217D01*
X0062000Y0017140D02*
X0062853D01*
X0064459D02*
X0065211D01*
X0066389D02*
X0067141D01*
X0067649D02*
X0068502D01*
X0069071D02*
X0070006D01*
X0071042D02*
X0072180D01*
X0072485D02*
X0073217D01*
X0062000Y0017120D02*
X0062853D01*
X0064438D02*
X0065190D01*
X0066389D02*
X0067141D01*
X0067649D02*
X0068502D01*
X0069092D02*
X0070026D01*
X0071042D02*
X0072099D01*
X0072485D02*
X0073217D01*
X0062000Y0017099D02*
X0062853D01*
X0064459D02*
X0065211D01*
X0066389D02*
X0067141D01*
X0067649D02*
X0068502D01*
X0069112D02*
X0070026D01*
X0071022D02*
X0072038D01*
X0072505D02*
X0073217D01*
X0062000Y0017079D02*
X0062853D01*
X0064459D02*
X0065211D01*
X0066389D02*
X0067141D01*
X0067649D02*
X0068502D01*
X0069112D02*
X0070047D01*
X0071002D02*
X0071957D01*
X0072485D02*
X0073217D01*
X0062000Y0017059D02*
X0062853D01*
X0064459D02*
X0065211D01*
X0066389D02*
X0067141D01*
X0067649D02*
X0068502D01*
X0069132D02*
X0070047D01*
X0071002D02*
X0071896D01*
X0072505D02*
X0073217D01*
X0062000Y0017038D02*
X0062853D01*
X0064459D02*
X0065211D01*
X0066389D02*
X0067141D01*
X0067649D02*
X0068502D01*
X0069132D02*
X0070067D01*
X0070981D02*
X0071855D01*
X0072485D02*
X0073217D01*
X0062000Y0017018D02*
X0062853D01*
X0064459D02*
X0065211D01*
X0066369D02*
X0067141D01*
X0067649D02*
X0068502D01*
X0069153D02*
X0070087D01*
X0070981D02*
X0071815D01*
X0072485D02*
X0073217D01*
X0062000Y0016998D02*
X0062853D01*
X0064459D02*
X0065231D01*
X0066369D02*
X0067141D01*
X0067649D02*
X0068502D01*
X0069153D02*
X0070087D01*
X0070981D02*
X0071774D01*
X0072505D02*
X0073217D01*
X0062000Y0016977D02*
X0062853D01*
X0064459D02*
X0065231D01*
X0066369D02*
X0067121D01*
X0067649D02*
X0068502D01*
X0069173D02*
X0070108D01*
X0070961D02*
X0071754D01*
X0072485D02*
X0073217D01*
X0062000Y0016957D02*
X0062853D01*
X0064479D02*
X0065231D01*
X0066369D02*
X0067121D01*
X0067649D02*
X0068502D01*
X0069173D02*
X0070108D01*
X0070961D02*
X0071733D01*
X0072485D02*
X0073217D01*
X0062000Y0016937D02*
X0062853D01*
X0064479D02*
X0065231D01*
X0066369D02*
X0067121D01*
X0067649D02*
X0068502D01*
X0069193D02*
X0070128D01*
X0070961D02*
X0071713D01*
X0072485D02*
X0073217D01*
X0062000Y0016916D02*
X0062853D01*
X0064479D02*
X0065251D01*
X0066348D02*
X0067121D01*
X0067649D02*
X0068502D01*
X0069193D02*
X0070128D01*
X0070941D02*
X0071693D01*
X0072485D02*
X0073217D01*
X0062000Y0016896D02*
X0062853D01*
X0064479D02*
X0065251D01*
X0066348D02*
X0067121D01*
X0067649D02*
X0068502D01*
X0069214D02*
X0070148D01*
X0070941D02*
X0071672D01*
X0072485D02*
X0073217D01*
X0062000Y0016876D02*
X0062853D01*
X0064479D02*
X0065251D01*
X0066348D02*
X0067100D01*
X0067649D02*
X0068502D01*
X0069234D02*
X0070169D01*
X0070941D02*
X0071672D01*
X0072485D02*
X0073217D01*
X0062000Y0016855D02*
X0062853D01*
X0064499D02*
X0065272D01*
X0066328D02*
X0067100D01*
X0067649D02*
X0068502D01*
X0069234D02*
X0070169D01*
X0070941D02*
X0071652D01*
X0072465D02*
X0073217D01*
X0062000Y0016835D02*
X0062853D01*
X0064499D02*
X0065272D01*
X0066328D02*
X0067100D01*
X0067649D02*
X0068502D01*
X0069254D02*
X0070189D01*
X0070941D02*
X0071652D01*
X0072465D02*
X0073217D01*
X0062000Y0016815D02*
X0062853D01*
X0064499D02*
X0065292D01*
X0066308D02*
X0067100D01*
X0067649D02*
X0068502D01*
X0069254D02*
X0070189D01*
X0070920D02*
X0071652D01*
X0072465D02*
X0073217D01*
X0062000Y0016795D02*
X0062853D01*
X0064499D02*
X0065292D01*
X0066308D02*
X0067080D01*
X0067649D02*
X0068502D01*
X0069275D02*
X0070209D01*
X0070920D02*
X0071652D01*
X0072444D02*
X0073217D01*
X0062000Y0016774D02*
X0062853D01*
X0064520D02*
X0065312D01*
X0066288D02*
X0067080D01*
X0067649D02*
X0068502D01*
X0069275D02*
X0070230D01*
X0070920D02*
X0071632D01*
X0072444D02*
X0073217D01*
X0062000Y0016754D02*
X0062853D01*
X0064520D02*
X0065312D01*
X0066288D02*
X0067080D01*
X0067649D02*
X0068502D01*
X0069295D02*
X0070230D01*
X0070920D02*
X0071652D01*
X0072444D02*
X0073217D01*
X0062000Y0016734D02*
X0062853D01*
X0064520D02*
X0065332D01*
X0066267D02*
X0067060D01*
X0067649D02*
X0068502D01*
X0069295D02*
X0070250D01*
X0070920D02*
X0071652D01*
X0072424D02*
X0073217D01*
X0062000Y0016713D02*
X0064174D01*
X0064540D02*
X0065353D01*
X0066267D02*
X0067060D01*
X0067649D02*
X0068502D01*
X0069315D02*
X0070250D01*
X0070920D02*
X0071652D01*
X0072424D02*
X0073217D01*
X0062000Y0016693D02*
X0064174D01*
X0064540D02*
X0065353D01*
X0066247D02*
X0067060D01*
X0067649D02*
X0068502D01*
X0069315D02*
X0070270D01*
X0070920D02*
X0071652D01*
X0072404D02*
X0073217D01*
X0062000Y0016673D02*
X0064174D01*
X0064540D02*
X0065373D01*
X0066227D02*
X0067039D01*
X0067649D02*
X0068502D01*
X0069336D02*
X0070270D01*
X0070920D02*
X0071652D01*
X0072384D02*
X0073217D01*
X0062000Y0016652D02*
X0064174D01*
X0064560D02*
X0065393D01*
X0066206D02*
X0067039D01*
X0067649D02*
X0068502D01*
X0069356D02*
X0070291D01*
X0070920D02*
X0071652D01*
X0072384D02*
X0073217D01*
X0062000Y0016632D02*
X0064174D01*
X0064560D02*
X0065414D01*
X0066186D02*
X0067019D01*
X0067649D02*
X0068502D01*
X0069356D02*
X0070291D01*
X0070920D02*
X0071672D01*
X0072363D02*
X0073217D01*
X0062000Y0016612D02*
X0064174D01*
X0064581D02*
X0065454D01*
X0066166D02*
X0067019D01*
X0067649D02*
X0068502D01*
X0069376D02*
X0070311D01*
X0070920D02*
X0071672D01*
X0072343D02*
X0073217D01*
X0062000Y0016591D02*
X0064174D01*
X0064581D02*
X0065475D01*
X0066125D02*
X0066999D01*
X0067649D02*
X0068502D01*
X0069376D02*
X0070331D01*
X0070920D02*
X0071693D01*
X0072323D02*
X0073217D01*
X0062000Y0016571D02*
X0064174D01*
X0064601D02*
X0065515D01*
X0066084D02*
X0066999D01*
X0067649D02*
X0068502D01*
X0069396D02*
X0070331D01*
X0070920D02*
X0071713D01*
X0072282D02*
X0073217D01*
X0062000Y0016551D02*
X0064174D01*
X0064601D02*
X0065556D01*
X0066044D02*
X0066978D01*
X0067649D02*
X0068502D01*
X0069396D02*
X0070352D01*
X0070920D02*
X0071733D01*
X0072262D02*
X0073217D01*
X0062000Y0016530D02*
X0064174D01*
X0064621D02*
X0065597D01*
X0066003D02*
X0066978D01*
X0067649D02*
X0068502D01*
X0069417D02*
X0070352D01*
X0070941D02*
X0071754D01*
X0072221D02*
X0073217D01*
X0062000Y0016510D02*
X0064174D01*
X0064621D02*
X0065698D01*
X0065881D02*
X0066958D01*
X0067649D02*
X0068502D01*
X0069417D02*
X0070372D01*
X0070941D02*
X0071794D01*
X0072180D02*
X0073217D01*
X0062000Y0016490D02*
X0064174D01*
X0064642D02*
X0066958D01*
X0067649D02*
X0068502D01*
X0069437D02*
X0070372D01*
X0070941D02*
X0071876D01*
X0072099D02*
X0073217D01*
X0062000Y0016469D02*
X0064174D01*
X0064662D02*
X0066938D01*
X0067649D02*
X0068502D01*
X0069437D02*
X0070392D01*
X0070941D02*
X0073217D01*
X0062000Y0016449D02*
X0064174D01*
X0064682D02*
X0066917D01*
X0067649D02*
X0068502D01*
X0069457D02*
X0070412D01*
X0070961D02*
X0073217D01*
X0062000Y0016429D02*
X0064174D01*
X0064682D02*
X0066917D01*
X0067649D02*
X0068502D01*
X0069457D02*
X0070412D01*
X0070961D02*
X0073217D01*
X0062000Y0016408D02*
X0064174D01*
X0064703D02*
X0066897D01*
X0067649D02*
X0068502D01*
X0069478D02*
X0070433D01*
X0070961D02*
X0073217D01*
X0062000Y0016388D02*
X0064174D01*
X0064723D02*
X0066877D01*
X0067649D02*
X0068502D01*
X0069498D02*
X0070433D01*
X0070981D02*
X0073217D01*
X0062000Y0016368D02*
X0064174D01*
X0064743D02*
X0066856D01*
X0067649D02*
X0068502D01*
X0069498D02*
X0070453D01*
X0070981D02*
X0073217D01*
X0062000Y0016347D02*
X0064174D01*
X0064743D02*
X0066836D01*
X0067649D02*
X0068502D01*
X0069518D02*
X0070473D01*
X0070981D02*
X0073217D01*
X0062000Y0016327D02*
X0064174D01*
X0064764D02*
X0066816D01*
X0067649D02*
X0068502D01*
X0069518D02*
X0070473D01*
X0071002D02*
X0073217D01*
X0062000Y0016307D02*
X0064174D01*
X0064784D02*
X0066796D01*
X0067649D02*
X0068502D01*
X0069539D02*
X0070494D01*
X0071002D02*
X0073217D01*
X0062000Y0016287D02*
X0064174D01*
X0064804D02*
X0066775D01*
X0067649D02*
X0068502D01*
X0069539D02*
X0070494D01*
X0071022D02*
X0073237D01*
X0062000Y0016266D02*
X0064174D01*
X0064824D02*
X0066755D01*
X0067649D02*
X0068502D01*
X0069559D02*
X0070514D01*
X0071042D02*
X0073217D01*
X0062000Y0016246D02*
X0064174D01*
X0064865D02*
X0066735D01*
X0067649D02*
X0068502D01*
X0069579D02*
X0070514D01*
X0071042D02*
X0072526D01*
X0072546D02*
X0073237D01*
X0062000Y0016226D02*
X0064174D01*
X0064885D02*
X0066714D01*
X0067649D02*
X0068502D01*
X0069579D02*
X0070534D01*
X0071063D02*
X0072505D01*
X0072546D02*
X0073237D01*
X0062000Y0016205D02*
X0064174D01*
X0064906D02*
X0066694D01*
X0067649D02*
X0068502D01*
X0069600D02*
X0070534D01*
X0071083D02*
X0072505D01*
X0072546D02*
X0073237D01*
X0062000Y0016185D02*
X0064174D01*
X0064926D02*
X0066653D01*
X0067649D02*
X0068502D01*
X0069600D02*
X0070555D01*
X0071103D02*
X0072485D01*
X0072546D02*
X0073237D01*
X0062000Y0016165D02*
X0064174D01*
X0064967D02*
X0066633D01*
X0067649D02*
X0068502D01*
X0069620D02*
X0070575D01*
X0071124D02*
X0072465D01*
X0072546D02*
X0073237D01*
X0062000Y0016144D02*
X0064174D01*
X0064987D02*
X0066592D01*
X0067649D02*
X0068502D01*
X0069620D02*
X0070575D01*
X0071144D02*
X0072424D01*
X0072546D02*
X0073237D01*
X0062000Y0016124D02*
X0064174D01*
X0065028D02*
X0066572D01*
X0067649D02*
X0068502D01*
X0069640D02*
X0070595D01*
X0071164D02*
X0072404D01*
X0072566D02*
X0073257D01*
X0062000Y0016104D02*
X0064174D01*
X0065048D02*
X0066531D01*
X0067649D02*
X0068502D01*
X0069640D02*
X0070595D01*
X0071185D02*
X0072384D01*
X0072566D02*
X0073257D01*
X0062000Y0016083D02*
X0064174D01*
X0065089D02*
X0066491D01*
X0067649D02*
X0068502D01*
X0069661D02*
X0070616D01*
X0071225D02*
X0072343D01*
X0072566D02*
X0073257D01*
X0062000Y0016063D02*
X0064174D01*
X0065129D02*
X0066450D01*
X0067649D02*
X0068502D01*
X0069661D02*
X0070616D01*
X0071246D02*
X0072302D01*
X0072566D02*
X0073257D01*
X0062000Y0016043D02*
X0064174D01*
X0065190D02*
X0066409D01*
X0067649D02*
X0068502D01*
X0069681D02*
X0070636D01*
X0071286D02*
X0072262D01*
X0072587D02*
X0073278D01*
X0062000Y0016022D02*
X0064174D01*
X0065231D02*
X0066348D01*
X0067649D02*
X0068502D01*
X0069681D02*
X0070656D01*
X0071327D02*
X0072221D01*
X0072587D02*
X0073278D01*
X0062000Y0016002D02*
X0064174D01*
X0065292D02*
X0066308D01*
X0067649D02*
X0068502D01*
X0069701D02*
X0070656D01*
X0071368D02*
X0072160D01*
X0072587D02*
X0073278D01*
X0065373Y0015982D02*
X0066227D01*
X0071428D02*
X0072099D01*
X0065454Y0015961D02*
X0066145D01*
X0071489D02*
X0072038D01*
X0065576Y0015941D02*
X0065597D01*
X0065617D02*
X0066003D01*
X0071591D02*
X0071936D01*
X0064804Y0015697D02*
X0064845D01*
X0064784Y0015677D02*
X0064885D01*
X0066755D02*
X0066796D01*
X0064764Y0015657D02*
X0064906D01*
X0066735D02*
X0066816D01*
X0064764Y0015636D02*
X0064946D01*
X0066694D02*
X0066816D01*
X0064743Y0015616D02*
X0064987D01*
X0066653D02*
X0066836D01*
X0064723Y0015596D02*
X0065028D01*
X0066613D02*
X0066856D01*
X0064703Y0015575D02*
X0065089D01*
X0066572D02*
X0066877D01*
X0064703Y0015555D02*
X0065129D01*
X0066511D02*
X0066877D01*
X0064682Y0015535D02*
X0065170D01*
X0066470D02*
X0066897D01*
X0064662Y0015514D02*
X0065231D01*
X0066409D02*
X0066917D01*
X0064682Y0015494D02*
X0065292D01*
X0066348D02*
X0066917D01*
X0064703Y0015474D02*
X0065373D01*
X0066267D02*
X0066938D01*
X0064743Y0015453D02*
X0065475D01*
X0066186D02*
X0066897D01*
X0064784Y0015433D02*
X0065576D01*
X0066064D02*
X0066856D01*
X0064824Y0015413D02*
X0066816D01*
X0064845Y0015392D02*
X0066796D01*
X0064885Y0015372D02*
X0066755D01*
X0064926Y0015352D02*
X0066714D01*
X0064987Y0015331D02*
X0066653D01*
X0065028Y0015311D02*
X0066613D01*
X0065089Y0015291D02*
X0066552D01*
X0065150Y0015271D02*
X0066491D01*
X0065211Y0015250D02*
X0066430D01*
X0065272Y0015230D02*
X0066369D01*
X0065353Y0015210D02*
X0066288D01*
X0065475Y0015189D02*
X0066186D01*
X0065597Y0015169D02*
X0065617D01*
X0065637D02*
X0066003D01*
X0066023D02*
X0066044D01*
X0064398Y0015128D02*
X0064418D01*
X0064377Y0015108D02*
X0064459D01*
X0064377Y0015088D02*
X0064499D01*
X0067141D02*
X0067202D01*
X0064357Y0015067D02*
X0064520D01*
X0067121D02*
X0067222D01*
X0064337Y0015047D02*
X0064560D01*
X0067080D02*
X0067243D01*
X0064316Y0015027D02*
X0064601D01*
X0067039D02*
X0067243D01*
X0064316Y0015006D02*
X0064642D01*
X0066999D02*
X0067263D01*
X0064296Y0014986D02*
X0064682D01*
X0066978D02*
X0067283D01*
X0064276Y0014966D02*
X0064723D01*
X0066917D02*
X0067283D01*
X0064276Y0014945D02*
X0064764D01*
X0066877D02*
X0067304D01*
X0064256Y0014925D02*
X0064804D01*
X0066836D02*
X0067324D01*
X0064235Y0014905D02*
X0064845D01*
X0066796D02*
X0067344D01*
X0064215Y0014884D02*
X0064906D01*
X0066735D02*
X0067344D01*
X0064215Y0014864D02*
X0064946D01*
X0066694D02*
X0067364D01*
X0064235Y0014844D02*
X0065007D01*
X0066633D02*
X0067385D01*
X0064256Y0014823D02*
X0065089D01*
X0066572D02*
X0067385D01*
X0064296Y0014803D02*
X0065150D01*
X0066491D02*
X0067344D01*
X0064337Y0014783D02*
X0065231D01*
X0066409D02*
X0067324D01*
X0064357Y0014763D02*
X0065332D01*
X0066308D02*
X0067283D01*
X0064398Y0014742D02*
X0065454D01*
X0066206D02*
X0067243D01*
X0064438Y0014722D02*
X0065617D01*
X0066023D02*
X0066044D01*
X0066064D02*
X0067202D01*
X0064479Y0014702D02*
X0067161D01*
X0064499Y0014681D02*
X0067121D01*
X0064540Y0014661D02*
X0067080D01*
X0064601Y0014641D02*
X0067060D01*
X0064642Y0014620D02*
X0066999D01*
X0064682Y0014600D02*
X0066958D01*
X0064743Y0014580D02*
X0066897D01*
X0064784Y0014559D02*
X0066856D01*
X0064845Y0014539D02*
X0066796D01*
X0063971Y0014519D02*
X0064032D01*
X0064906D02*
X0066735D01*
X0063951Y0014498D02*
X0064052D01*
X0064967D02*
X0066674D01*
X0067588D02*
X0067629D01*
X0063930Y0014478D02*
X0064093D01*
X0065028D02*
X0066613D01*
X0067547D02*
X0067629D01*
X0063930Y0014458D02*
X0064134D01*
X0065109D02*
X0066531D01*
X0067507D02*
X0067649D01*
X0063910Y0014437D02*
X0064154D01*
X0065190D02*
X0066450D01*
X0067486D02*
X0067669D01*
X0063890Y0014417D02*
X0064195D01*
X0065292D02*
X0066348D01*
X0067446D02*
X0067669D01*
X0063890Y0014397D02*
X0064235D01*
X0065434D02*
X0066206D01*
X0067405D02*
X0067690D01*
X0063869Y0014376D02*
X0064276D01*
X0065617D02*
X0066064D01*
X0067364D02*
X0067710D01*
X0063849Y0014356D02*
X0064316D01*
X0067324D02*
X0067730D01*
X0063849Y0014336D02*
X0064337D01*
X0067283D02*
X0067730D01*
X0063829Y0014315D02*
X0064398D01*
X0067243D02*
X0067751D01*
X0063808Y0014295D02*
X0064438D01*
X0067202D02*
X0067771D01*
X0063788Y0014275D02*
X0064479D01*
X0067161D02*
X0067771D01*
X0063788Y0014255D02*
X0064520D01*
X0067121D02*
X0067791D01*
X0063768Y0014234D02*
X0064581D01*
X0067080D02*
X0067812D01*
X0063748Y0014214D02*
X0064621D01*
X0067019D02*
X0067812D01*
X0063748Y0014194D02*
X0064682D01*
X0066958D02*
X0067832D01*
X0063768Y0014173D02*
X0064723D01*
X0066917D02*
X0067852D01*
X0063808Y0014153D02*
X0064784D01*
X0066856D02*
X0067832D01*
X0063829Y0014133D02*
X0064845D01*
X0066796D02*
X0067812D01*
X0063869Y0014112D02*
X0064926D01*
X0066714D02*
X0067771D01*
X0063910Y0014092D02*
X0065007D01*
X0066633D02*
X0067730D01*
X0063930Y0014072D02*
X0065089D01*
X0066552D02*
X0067710D01*
X0063971Y0014051D02*
X0065190D01*
X0066450D02*
X0067669D01*
X0064012Y0014031D02*
X0065272D01*
X0066369D02*
X0067629D01*
X0064052Y0014011D02*
X0065414D01*
X0065434D02*
X0065454D01*
X0066186D02*
X0066206D01*
X0066227D02*
X0067608D01*
X0064073Y0013990D02*
X0065698D01*
X0065719D02*
X0065759D01*
X0065780D02*
X0065800D01*
X0065861D02*
X0065881D01*
X0065901D02*
X0065922D01*
X0065942D02*
X0067568D01*
X0064113Y0013970D02*
X0067527D01*
X0064154Y0013950D02*
X0067486D01*
X0064195Y0013929D02*
X0067446D01*
X0064235Y0013909D02*
X0067405D01*
X0064276Y0013889D02*
X0067364D01*
X0064337Y0013868D02*
X0067304D01*
X0064377Y0013848D02*
X0067263D01*
X0064438Y0013828D02*
X0067202D01*
X0064479Y0013807D02*
X0067161D01*
X0064540Y0013787D02*
X0067100D01*
X0064601Y0013767D02*
X0067039D01*
X0064642Y0013747D02*
X0066999D01*
X0064723Y0013726D02*
X0066917D01*
X0064784Y0013706D02*
X0066856D01*
X0064865Y0013686D02*
X0066775D01*
X0064926Y0013665D02*
X0066714D01*
X0065028Y0013645D02*
X0066613D01*
X0065109Y0013625D02*
X0066531D01*
X0065251Y0013604D02*
X0066409D01*
X0065373Y0013584D02*
X0065393D01*
X0065414D02*
X0066267D01*
X0065617Y0013564D02*
X0065658D01*
X0065678D02*
X0065962D01*
X0065983D02*
X0066023D01*
M02*
