G04 Layer_Physical_Order=1*
G04 Layer_Color=255*
%FSAX43Y43*%
%MOMM*%
G71*
G01*
G75*
%ADD10R,0.650X0.650*%
%ADD11R,0.650X0.650*%
%ADD12R,1.300X1.300*%
%ADD13R,1.600X1.300*%
%ADD14R,0.900X0.900*%
%ADD15R,1.300X1.300*%
%ADD16R,1.000X0.800*%
%ADD17R,0.850X0.400*%
%ADD18R,4.200X1.905*%
G04:AMPARAMS|DCode=19|XSize=2.4mm|YSize=2.4mm|CornerRadius=0.06mm|HoleSize=0mm|Usage=FLASHONLY|Rotation=270.000|XOffset=0mm|YOffset=0mm|HoleType=Round|Shape=RoundedRectangle|*
%AMROUNDEDRECTD19*
21,1,2.400,2.280,0,0,270.0*
21,1,2.280,2.400,0,0,270.0*
1,1,0.120,-1.140,-1.140*
1,1,0.120,-1.140,1.140*
1,1,0.120,1.140,1.140*
1,1,0.120,1.140,-1.140*
%
%ADD19ROUNDEDRECTD19*%
%ADD20O,0.300X0.800*%
%ADD21O,0.800X0.300*%
%ADD22R,0.850X0.750*%
%ADD23R,0.500X0.500*%
%ADD24C,0.200*%
%ADD25C,0.650*%
%ADD26C,0.300*%
%ADD27C,0.127*%
%ADD28C,0.350*%
%ADD29C,0.250*%
%ADD30C,0.400*%
%ADD31C,1.200*%
%ADD32C,0.050*%
%ADD33C,1.500*%
%ADD34R,1.500X1.500*%
G04:AMPARAMS|DCode=35|XSize=1.7mm|YSize=1.7mm|CornerRadius=0.17mm|HoleSize=0mm|Usage=FLASHONLY|Rotation=0.000|XOffset=0mm|YOffset=0mm|HoleType=Round|Shape=RoundedRectangle|*
%AMROUNDEDRECTD35*
21,1,1.700,1.360,0,0,0.0*
21,1,1.360,1.700,0,0,0.0*
1,1,0.340,0.680,-0.680*
1,1,0.340,-0.680,-0.680*
1,1,0.340,-0.680,0.680*
1,1,0.340,0.680,0.680*
%
%ADD35ROUNDEDRECTD35*%
%ADD36C,1.700*%
%ADD37C,1.600*%
%ADD38R,4.200X2.413*%
%ADD39C,0.500*%
%ADD40C,0.600*%
G36*
X0085100Y0028950D02*
X0084625D01*
X0084225Y0029350D01*
X0084100D01*
Y0030000D01*
X0084225D01*
X0084625Y0030400D01*
X0085100D01*
Y0028950D01*
D02*
G37*
G36*
X0088750Y0032850D02*
X0084500D01*
Y0030875D01*
X0084299D01*
Y0030429D01*
X0084121Y0030251D01*
X0080325D01*
X0080324Y0030051D01*
X0079175D01*
X0079175Y0030251D01*
X0077151D01*
Y0030525D01*
X0077150Y0030535D01*
Y0030775D01*
X0076903Y0030776D01*
X0076900Y0030776D01*
X0076826D01*
Y0031530D01*
X0076852Y0031537D01*
X0076889Y0031552D01*
X0076922Y0031572D01*
X0076952Y0031598D01*
X0076978Y0031628D01*
X0076998Y0031661D01*
X0077013Y0031698D01*
X0077023Y0031736D01*
X0077026Y0031775D01*
Y0032425D01*
X0077023Y0032464D01*
X0077013Y0032502D01*
X0076998Y0032539D01*
X0076978Y0032575D01*
X0076025D01*
Y0033824D01*
X0075962Y0033873D01*
X0075938Y0033902D01*
X0075936Y0033907D01*
X0075920Y0033953D01*
X0075897Y0034000D01*
X0075868Y0034044D01*
X0075833Y0034083D01*
X0075794Y0034118D01*
X0075750Y0034147D01*
X0075703Y0034170D01*
X0075654Y0034187D01*
X0075602Y0034197D01*
X0075550Y0034201D01*
X0075498Y0034197D01*
X0075446Y0034187D01*
X0075397Y0034170D01*
X0075350Y0034147D01*
X0075306Y0034118D01*
X0075267Y0034083D01*
X0075232Y0034044D01*
X0075203Y0034000D01*
X0075180Y0033953D01*
X0075163Y0033904D01*
X0075153Y0033852D01*
X0075149Y0033800D01*
X0075153Y0033748D01*
X0075163Y0033696D01*
X0075171Y0033672D01*
X0075167Y0033664D01*
X0075141Y0033650D01*
X0075118Y0033632D01*
X0075100Y0033609D01*
X0075086Y0033583D01*
X0075077Y0033554D01*
X0075074Y0033525D01*
Y0032875D01*
X0075077Y0032846D01*
X0075086Y0032817D01*
X0075095Y0032756D01*
X0075086Y0032687D01*
X0075056Y0032613D01*
X0075051Y0032605D01*
X0075048Y0032602D01*
X0075022Y0032572D01*
X0075002Y0032539D01*
X0074987Y0032502D01*
X0074977Y0032464D01*
X0074974Y0032425D01*
Y0031775D01*
X0074977Y0031736D01*
X0074987Y0031698D01*
X0075002Y0031661D01*
X0075022Y0031628D01*
X0075048Y0031598D01*
X0075078Y0031572D01*
X0075111Y0031552D01*
X0075148Y0031537D01*
X0075186Y0031527D01*
X0075225Y0031524D01*
X0075875D01*
X0075899Y0031526D01*
X0075922Y0031522D01*
X0076034Y0031451D01*
X0076064Y0031419D01*
X0076074Y0031401D01*
Y0030776D01*
X0075793Y0030775D01*
X0075797Y0028574D01*
X0075950Y0028574D01*
X0076074Y0028450D01*
Y0027915D01*
X0076070Y0027910D01*
X0076020Y0027867D01*
X0075902Y0027813D01*
X0075864Y0027823D01*
X0075825Y0027826D01*
X0075175D01*
X0075136Y0027823D01*
X0075098Y0027813D01*
X0075061Y0027798D01*
X0075028Y0027778D01*
X0074998Y0027752D01*
X0074972Y0027722D01*
X0074952Y0027689D01*
X0074937Y0027652D01*
X0074927Y0027614D01*
X0074924Y0027575D01*
Y0026925D01*
X0074927Y0026886D01*
X0074937Y0026848D01*
X0074952Y0026811D01*
X0074972Y0026778D01*
X0074998Y0026748D01*
X0075001Y0026745D01*
X0075006Y0026737D01*
X0075036Y0026663D01*
X0075045Y0026594D01*
X0075036Y0026533D01*
X0075027Y0026504D01*
X0075024Y0026475D01*
Y0025825D01*
X0075027Y0025796D01*
X0075036Y0025767D01*
X0075050Y0025741D01*
X0075068Y0025718D01*
X0075091Y0025700D01*
X0075117Y0025686D01*
X0075121Y0025678D01*
X0075113Y0025654D01*
X0075103Y0025602D01*
X0075099Y0025550D01*
X0075103Y0025498D01*
X0075113Y0025446D01*
X0075130Y0025397D01*
X0075153Y0025350D01*
X0075182Y0025306D01*
X0075217Y0025267D01*
X0075256Y0025232D01*
X0075300Y0025203D01*
X0075347Y0025180D01*
X0075396Y0025163D01*
X0075448Y0025153D01*
X0075500Y0025149D01*
X0075552Y0025153D01*
X0075604Y0025163D01*
X0075653Y0025180D01*
X0075700Y0025203D01*
X0075744Y0025232D01*
X0075783Y0025267D01*
X0075818Y0025306D01*
X0075847Y0025350D01*
X0075870Y0025397D01*
X0075887Y0025446D01*
X0075891Y0025465D01*
X0075926Y0025505D01*
X0075970Y0025534D01*
X0076003Y0025550D01*
X0075975D01*
Y0026775D01*
X0076978D01*
X0076998Y0026811D01*
X0077013Y0026848D01*
X0077023Y0026886D01*
X0077026Y0026925D01*
Y0027575D01*
X0077023Y0027614D01*
X0077013Y0027652D01*
X0076998Y0027689D01*
X0076978Y0027722D01*
X0076952Y0027752D01*
X0076922Y0027778D01*
X0076889Y0027798D01*
X0076852Y0027813D01*
X0076826Y0027820D01*
Y0028574D01*
X0077150D01*
Y0028815D01*
Y0029100D01*
X0078935D01*
X0078935Y0029100D01*
X0079170Y0029100D01*
X0079170Y0029299D01*
X0080296D01*
X0080300Y0029100D01*
X0080300Y0029100D01*
X0080300D01*
D01*
X0084120D01*
X0084300Y0028920D01*
Y0028505D01*
X0084500D01*
Y0027930D01*
X0084490Y0027930D01*
X0084500Y0027921D01*
Y0026500D01*
X0088750D01*
Y0000300D01*
X0000300D01*
Y0057700D01*
X0088750D01*
Y0032850D01*
D02*
G37*
%LPC*%
G36*
X0074750Y0008230D02*
X0074625D01*
X0074585Y0008227D01*
X0074546Y0008217D01*
X0074509Y0008202D01*
X0074475Y0008181D01*
X0074445Y0008155D01*
X0074419Y0008125D01*
X0074398Y0008091D01*
X0074383Y0008054D01*
X0074373Y0008015D01*
X0074370Y0007975D01*
Y0007850D01*
X0074750D01*
Y0008230D01*
D02*
G37*
G36*
X0040230Y0008350D02*
X0039650D01*
X0039070D01*
Y0008225D01*
X0039073Y0008185D01*
X0039083Y0008146D01*
X0039098Y0008109D01*
X0039119Y0008075D01*
X0039145Y0008045D01*
X0039148Y0008042D01*
X0039150Y0008040D01*
X0039178Y0007974D01*
X0039182Y0007954D01*
X0039185Y0007921D01*
X0039169Y0007874D01*
X0039078Y0007747D01*
X0039032Y0007736D01*
X0038988Y0007718D01*
X0038948Y0007693D01*
X0038912Y0007663D01*
X0038367Y0007118D01*
X0038337Y0007082D01*
X0038312Y0007042D01*
X0038294Y0006998D01*
X0038283Y0006952D01*
X0038279Y0006905D01*
Y0005739D01*
X0038272Y0005737D01*
X0038199Y0005706D01*
X0038130Y0005670D01*
X0038063Y0005628D01*
X0038001Y0005580D01*
X0037943Y0005527D01*
X0037890Y0005469D01*
X0037842Y0005407D01*
X0037800Y0005340D01*
X0037764Y0005271D01*
X0037733Y0005198D01*
X0037710Y0005123D01*
X0037693Y0005046D01*
X0037683Y0004969D01*
X0037679Y0004890D01*
X0037683Y0004811D01*
X0037693Y0004734D01*
X0037710Y0004657D01*
X0037733Y0004582D01*
X0037764Y0004509D01*
X0037800Y0004440D01*
X0037842Y0004373D01*
X0037890Y0004311D01*
X0037943Y0004253D01*
X0038001Y0004200D01*
X0038063Y0004152D01*
X0038130Y0004110D01*
X0038199Y0004074D01*
X0038272Y0004043D01*
X0038347Y0004020D01*
X0038424Y0004003D01*
X0038501Y0003993D01*
X0038580Y0003989D01*
X0038659Y0003993D01*
X0038736Y0004003D01*
X0038813Y0004020D01*
X0038888Y0004043D01*
X0038961Y0004074D01*
X0039030Y0004110D01*
X0039097Y0004152D01*
X0039159Y0004200D01*
X0039217Y0004253D01*
X0039270Y0004311D01*
X0039318Y0004373D01*
X0039360Y0004440D01*
X0039396Y0004509D01*
X0039427Y0004582D01*
X0039450Y0004657D01*
X0039467Y0004734D01*
X0039477Y0004811D01*
X0039481Y0004890D01*
X0039477Y0004969D01*
X0039467Y0005046D01*
X0039450Y0005123D01*
X0039427Y0005198D01*
X0039396Y0005271D01*
X0039360Y0005340D01*
X0039318Y0005407D01*
X0039270Y0005469D01*
X0039217Y0005527D01*
X0039159Y0005580D01*
X0039097Y0005628D01*
X0039030Y0005670D01*
X0038961Y0005706D01*
X0038888Y0005737D01*
X0038881Y0005739D01*
Y0006780D01*
X0039053Y0006952D01*
X0039063Y0006958D01*
X0039218Y0007018D01*
X0039241Y0007000D01*
X0039267Y0006986D01*
X0039296Y0006977D01*
X0039325Y0006974D01*
X0039975D01*
X0040004Y0006977D01*
X0040033Y0006986D01*
X0040059Y0007000D01*
X0040082Y0007018D01*
X0040100Y0007041D01*
X0040114Y0007067D01*
X0040123Y0007096D01*
X0040126Y0007125D01*
Y0007775D01*
X0040123Y0007804D01*
X0040118Y0007821D01*
X0040114Y0007833D01*
X0040114Y0007833D01*
X0040109Y0007869D01*
X0040118Y0007954D01*
X0040122Y0007974D01*
X0040150Y0008040D01*
X0040152Y0008042D01*
X0040155Y0008045D01*
X0040181Y0008075D01*
X0040202Y0008109D01*
X0040217Y0008146D01*
X0040227Y0008185D01*
X0040230Y0008225D01*
Y0008350D01*
D02*
G37*
G36*
X0023355Y0007400D02*
X0022450D01*
Y0007200D01*
X0023355D01*
Y0007400D01*
D02*
G37*
G36*
X0052850Y0009000D02*
X0052725D01*
X0052685Y0008997D01*
X0052646Y0008988D01*
X0052609Y0008973D01*
X0052575Y0008952D01*
X0052545Y0008926D01*
X0052519Y0008895D01*
X0052498Y0008861D01*
X0052483Y0008824D01*
X0052473Y0008786D01*
X0052470Y0008746D01*
Y0008621D01*
X0052850D01*
Y0009000D01*
D02*
G37*
G36*
X0075850Y0008230D02*
X0075725D01*
X0075685Y0008227D01*
X0075646Y0008217D01*
X0075609Y0008202D01*
X0075575Y0008181D01*
X0075532Y0008155D01*
X0075468D01*
X0075425Y0008181D01*
X0075391Y0008202D01*
X0075354Y0008217D01*
X0075315Y0008227D01*
X0075275Y0008230D01*
X0075150D01*
Y0007650D01*
X0074950D01*
Y0007450D01*
X0074370D01*
Y0007325D01*
X0074373Y0007285D01*
X0074383Y0007246D01*
X0074398Y0007209D01*
X0074419Y0007175D01*
X0074445Y0007109D01*
Y0007041D01*
X0074419Y0006975D01*
X0074398Y0006941D01*
X0074383Y0006904D01*
X0074373Y0006865D01*
X0074370Y0006825D01*
Y0006700D01*
X0074950D01*
Y0006300D01*
X0074370D01*
Y0006175D01*
X0074373Y0006135D01*
X0074383Y0006096D01*
X0074398Y0006059D01*
X0074419Y0006025D01*
X0074445Y0005959D01*
Y0005891D01*
X0074419Y0005825D01*
X0074398Y0005791D01*
X0074383Y0005754D01*
X0074373Y0005715D01*
X0074370Y0005675D01*
Y0005550D01*
X0074950D01*
Y0005150D01*
X0074370D01*
Y0005025D01*
X0074373Y0004985D01*
X0074383Y0004946D01*
X0074398Y0004909D01*
X0074419Y0004875D01*
X0074445Y0004809D01*
Y0004741D01*
X0074419Y0004675D01*
X0074398Y0004641D01*
X0074383Y0004604D01*
X0074373Y0004565D01*
X0074370Y0004525D01*
Y0004400D01*
X0074950D01*
Y0004000D01*
X0074370D01*
Y0003875D01*
X0074373Y0003835D01*
X0074383Y0003796D01*
X0074398Y0003759D01*
X0074419Y0003725D01*
X0074445Y0003659D01*
Y0003591D01*
X0074419Y0003525D01*
X0074398Y0003491D01*
X0074383Y0003454D01*
X0074373Y0003415D01*
X0074370Y0003375D01*
Y0003250D01*
X0074950D01*
Y0003050D01*
X0075150D01*
Y0002470D01*
X0075275D01*
X0075315Y0002473D01*
X0075354Y0002483D01*
X0075391Y0002498D01*
X0075425Y0002519D01*
X0075468Y0002545D01*
X0075532D01*
X0075575Y0002519D01*
X0075609Y0002498D01*
X0075646Y0002483D01*
X0075685Y0002473D01*
X0075725Y0002470D01*
X0075850D01*
Y0003050D01*
X0076050D01*
Y0003250D01*
X0076630D01*
Y0003375D01*
X0076627Y0003415D01*
X0076617Y0003454D01*
X0076602Y0003491D01*
X0076581Y0003525D01*
X0076555Y0003591D01*
Y0003659D01*
X0076581Y0003725D01*
X0076602Y0003759D01*
X0076617Y0003796D01*
X0076627Y0003835D01*
X0076630Y0003875D01*
Y0004000D01*
X0076050D01*
Y0004400D01*
X0076630D01*
Y0004525D01*
X0076627Y0004565D01*
X0076617Y0004604D01*
X0076602Y0004641D01*
X0076581Y0004675D01*
X0076555Y0004741D01*
Y0004809D01*
X0076581Y0004875D01*
X0076602Y0004909D01*
X0076617Y0004946D01*
X0076627Y0004985D01*
X0076630Y0005025D01*
Y0005150D01*
X0076050D01*
Y0005550D01*
X0076630D01*
Y0005675D01*
X0076627Y0005715D01*
X0076617Y0005754D01*
X0076602Y0005791D01*
X0076581Y0005825D01*
X0076555Y0005891D01*
Y0005959D01*
X0076581Y0006025D01*
X0076602Y0006059D01*
X0076617Y0006096D01*
X0076627Y0006135D01*
X0076630Y0006175D01*
Y0006300D01*
X0076050D01*
Y0006700D01*
X0076630D01*
Y0006825D01*
X0076627Y0006865D01*
X0076617Y0006904D01*
X0076602Y0006941D01*
X0076581Y0006975D01*
X0076555Y0007041D01*
Y0007109D01*
X0076581Y0007175D01*
X0076602Y0007209D01*
X0076617Y0007246D01*
X0076627Y0007285D01*
X0076630Y0007325D01*
Y0007450D01*
X0076050D01*
Y0007650D01*
X0075850D01*
Y0008230D01*
D02*
G37*
G36*
X0076375D02*
X0076250D01*
Y0007850D01*
X0076630D01*
Y0007975D01*
X0076627Y0008015D01*
X0076617Y0008054D01*
X0076602Y0008091D01*
X0076581Y0008125D01*
X0076555Y0008155D01*
X0076525Y0008181D01*
X0076491Y0008202D01*
X0076454Y0008217D01*
X0076415Y0008227D01*
X0076375Y0008230D01*
D02*
G37*
G36*
X0025925Y0007330D02*
X0025800D01*
Y0006950D01*
X0026180D01*
Y0007075D01*
X0026177Y0007115D01*
X0026167Y0007154D01*
X0026152Y0007191D01*
X0026131Y0007225D01*
X0026105Y0007255D01*
X0026075Y0007281D01*
X0026041Y0007302D01*
X0026004Y0007317D01*
X0025965Y0007327D01*
X0025925Y0007330D01*
D02*
G37*
G36*
X0061400Y0005976D02*
Y0005400D01*
X0061976D01*
X0061975Y0005404D01*
X0061940Y0005479D01*
X0061899Y0005551D01*
X0061853Y0005620D01*
X0061802Y0005685D01*
X0061746Y0005746D01*
X0061685Y0005802D01*
X0061620Y0005853D01*
X0061551Y0005899D01*
X0061479Y0005940D01*
X0061404Y0005975D01*
X0061400Y0005976D01*
D02*
G37*
G36*
X0053630Y0008221D02*
X0053050D01*
X0052470D01*
Y0008096D01*
X0052473Y0008056D01*
X0052483Y0008017D01*
X0052498Y0007980D01*
X0052519Y0007946D01*
X0052545Y0007916D01*
X0052548Y0007913D01*
X0052550Y0007911D01*
X0052578Y0007845D01*
X0052582Y0007825D01*
X0052591Y0007739D01*
X0052586Y0007704D01*
X0052586Y0007703D01*
X0052582Y0007692D01*
X0052577Y0007675D01*
X0052574Y0007646D01*
Y0006996D01*
X0052577Y0006966D01*
X0052586Y0006938D01*
X0052600Y0006912D01*
X0052618Y0006889D01*
X0052641Y0006870D01*
X0052667Y0006856D01*
X0052696Y0006848D01*
X0052724Y0006845D01*
Y0006521D01*
X0052550D01*
X0052521Y0006519D01*
X0052492Y0006510D01*
X0052466Y0006496D01*
X0052443Y0006477D01*
X0052425Y0006454D01*
X0052411Y0006428D01*
X0052402Y0006400D01*
X0052399Y0006371D01*
Y0005571D01*
X0052402Y0005541D01*
X0052411Y0005513D01*
X0052425Y0005487D01*
X0052443Y0005464D01*
X0052466Y0005445D01*
X0052492Y0005431D01*
X0052521Y0005423D01*
X0052550Y0005420D01*
X0053550D01*
X0053579Y0005423D01*
X0053608Y0005431D01*
X0053634Y0005445D01*
X0053657Y0005464D01*
X0053675Y0005487D01*
X0053689Y0005513D01*
X0053698Y0005541D01*
X0053701Y0005571D01*
Y0006371D01*
X0053698Y0006400D01*
X0053689Y0006428D01*
X0053675Y0006454D01*
X0053657Y0006477D01*
X0053634Y0006496D01*
X0053608Y0006510D01*
X0053579Y0006519D01*
X0053550Y0006521D01*
X0053376D01*
Y0006845D01*
X0053404Y0006848D01*
X0053433Y0006856D01*
X0053459Y0006870D01*
X0053482Y0006889D01*
X0053500Y0006912D01*
X0053514Y0006938D01*
X0053523Y0006966D01*
X0053526Y0006996D01*
Y0007646D01*
X0053523Y0007675D01*
X0053518Y0007692D01*
X0053514Y0007703D01*
X0053514Y0007704D01*
X0053509Y0007739D01*
X0053518Y0007825D01*
X0053522Y0007845D01*
X0053550Y0007911D01*
X0053552Y0007913D01*
X0053555Y0007916D01*
X0053581Y0007946D01*
X0053602Y0007980D01*
X0053617Y0008017D01*
X0053627Y0008056D01*
X0053630Y0008096D01*
Y0008221D01*
D02*
G37*
G36*
X0056180Y0008221D02*
X0055600D01*
X0055020D01*
Y0008104D01*
X0055020Y0008096D01*
X0055020Y0008096D01*
X0055023Y0008056D01*
X0055023Y0008056D01*
X0055033Y0008017D01*
X0055033Y0008017D01*
X0055048Y0007980D01*
X0055054Y0007969D01*
X0055084Y0007907D01*
X0055084Y0007907D01*
X0055104Y0007844D01*
X0055122Y0007760D01*
X0055127Y0007706D01*
X0055124Y0007646D01*
X0055124Y0007600D01*
X0055124Y0007599D01*
X0055124Y0007539D01*
Y0006996D01*
X0055127Y0006966D01*
X0055136Y0006938D01*
X0055150Y0006912D01*
X0055168Y0006889D01*
X0055191Y0006870D01*
X0055217Y0006856D01*
X0055246Y0006848D01*
X0055274Y0006845D01*
Y0006471D01*
X0055100D01*
X0055071Y0006469D01*
X0055042Y0006460D01*
X0055016Y0006446D01*
X0054993Y0006427D01*
X0054975Y0006404D01*
X0054961Y0006378D01*
X0054952Y0006350D01*
X0054949Y0006321D01*
Y0005521D01*
X0054952Y0005491D01*
X0054961Y0005463D01*
X0054975Y0005437D01*
X0054993Y0005414D01*
X0055016Y0005395D01*
X0055042Y0005381D01*
X0055071Y0005373D01*
X0055100Y0005370D01*
X0056100D01*
X0056129Y0005373D01*
X0056158Y0005381D01*
X0056184Y0005395D01*
X0056207Y0005414D01*
X0056225Y0005437D01*
X0056239Y0005463D01*
X0056248Y0005491D01*
X0056251Y0005521D01*
Y0006321D01*
X0056248Y0006350D01*
X0056239Y0006378D01*
X0056225Y0006404D01*
X0056207Y0006427D01*
X0056184Y0006446D01*
X0056158Y0006460D01*
X0056129Y0006469D01*
X0056100Y0006471D01*
X0055926D01*
Y0006845D01*
X0055954Y0006848D01*
X0055983Y0006856D01*
X0056009Y0006870D01*
X0056032Y0006889D01*
X0056050Y0006912D01*
X0056064Y0006938D01*
X0056073Y0006966D01*
X0056076Y0006996D01*
Y0007646D01*
X0056073Y0007675D01*
X0056068Y0007692D01*
X0056064Y0007703D01*
X0056064Y0007704D01*
X0056059Y0007739D01*
X0056068Y0007825D01*
X0056072Y0007845D01*
X0056100Y0007911D01*
X0056102Y0007913D01*
X0056105Y0007916D01*
X0056131Y0007946D01*
X0056152Y0007980D01*
X0056167Y0008017D01*
X0056177Y0008056D01*
X0056180Y0008096D01*
Y0008221D01*
D02*
G37*
G36*
X0060600Y0005976D02*
X0060596Y0005975D01*
X0060521Y0005940D01*
X0060449Y0005899D01*
X0060380Y0005853D01*
X0060315Y0005802D01*
X0060254Y0005746D01*
X0060198Y0005685D01*
X0060147Y0005620D01*
X0060101Y0005551D01*
X0060060Y0005479D01*
X0060025Y0005404D01*
X0060024Y0005400D01*
X0060600D01*
Y0005976D01*
D02*
G37*
G36*
X0025400Y0007330D02*
X0025300D01*
Y0006170D01*
X0025400D01*
Y0006750D01*
Y0007330D01*
D02*
G37*
G36*
X0026180Y0006550D02*
X0025800D01*
Y0006170D01*
X0025925D01*
X0025965Y0006173D01*
X0026004Y0006183D01*
X0026041Y0006198D01*
X0026075Y0006219D01*
X0026105Y0006245D01*
X0026131Y0006275D01*
X0026152Y0006309D01*
X0026167Y0006346D01*
X0026177Y0006385D01*
X0026180Y0006425D01*
Y0006550D01*
D02*
G37*
G36*
X0022250Y0006100D02*
X0021753D01*
X0021760Y0006098D01*
X0021800Y0006095D01*
X0022250D01*
Y0006100D01*
D02*
G37*
G36*
X0023355Y0006800D02*
X0022650D01*
Y0006095D01*
X0023100D01*
X0023140Y0006098D01*
X0023179Y0006108D01*
X0023216Y0006123D01*
X0023250Y0006144D01*
X0023280Y0006170D01*
X0023306Y0006200D01*
X0023327Y0006234D01*
X0023342Y0006271D01*
X0023352Y0006310D01*
X0023355Y0006350D01*
Y0006800D01*
D02*
G37*
G36*
X0026500Y0013055D02*
X0026250D01*
Y0012550D01*
X0026755D01*
Y0012800D01*
X0026752Y0012840D01*
X0026742Y0012879D01*
X0026727Y0012916D01*
X0026706Y0012950D01*
X0026680Y0012980D01*
X0026650Y0013006D01*
X0026616Y0013027D01*
X0026579Y0013042D01*
X0026540Y0013052D01*
X0026500Y0013055D01*
D02*
G37*
G36*
X0018770Y0016905D02*
X0018320D01*
Y0016200D01*
X0019150D01*
Y0015900D01*
X0019220D01*
Y0016230D01*
X0019095D01*
X0019025Y0016393D01*
Y0016650D01*
X0019022Y0016690D01*
X0019012Y0016729D01*
X0018997Y0016766D01*
X0018976Y0016800D01*
X0018950Y0016830D01*
X0018920Y0016856D01*
X0018886Y0016877D01*
X0018849Y0016892D01*
X0018810Y0016902D01*
X0018770Y0016905D01*
D02*
G37*
G36*
X0022300Y0017501D02*
X0020450D01*
X0020421Y0017498D01*
X0020392Y0017489D01*
X0020366Y0017475D01*
X0020343Y0017457D01*
X0020325Y0017434D01*
X0020311Y0017408D01*
X0020302Y0017379D01*
X0020299Y0017350D01*
Y0015900D01*
X0020300D01*
Y0015300D01*
X0016843D01*
X0016821Y0015298D01*
X0016792Y0015289D01*
X0016766Y0015275D01*
X0016743Y0015257D01*
X0016725Y0015234D01*
X0016711Y0015208D01*
X0016702Y0015179D01*
X0016699Y0015150D01*
Y0004550D01*
X0016702Y0004521D01*
X0016711Y0004492D01*
X0016725Y0004466D01*
X0016743Y0004443D01*
X0017293Y0003893D01*
X0017316Y0003875D01*
X0017342Y0003861D01*
X0017371Y0003852D01*
X0017400Y0003849D01*
X0018850D01*
X0018879Y0003852D01*
X0018908Y0003861D01*
X0018934Y0003875D01*
X0018957Y0003893D01*
X0019557Y0004493D01*
X0019575Y0004516D01*
X0019589Y0004542D01*
X0019598Y0004571D01*
X0019601Y0004600D01*
Y0004708D01*
X0019773Y0004734D01*
X0019790Y0004657D01*
X0019813Y0004582D01*
X0019844Y0004509D01*
X0019880Y0004440D01*
X0019922Y0004373D01*
X0019970Y0004311D01*
X0020023Y0004253D01*
X0020081Y0004200D01*
X0020143Y0004152D01*
X0020210Y0004110D01*
X0020279Y0004074D01*
X0020352Y0004043D01*
X0020427Y0004020D01*
X0020504Y0004003D01*
X0020581Y0003993D01*
X0020660Y0003989D01*
X0020739Y0003993D01*
X0020816Y0004003D01*
X0020893Y0004020D01*
X0020968Y0004043D01*
X0021041Y0004074D01*
X0021110Y0004110D01*
X0021177Y0004152D01*
X0021239Y0004200D01*
X0021297Y0004253D01*
X0021350Y0004311D01*
X0021398Y0004373D01*
X0021440Y0004440D01*
X0021476Y0004509D01*
X0021507Y0004582D01*
X0021530Y0004657D01*
X0021547Y0004734D01*
X0021557Y0004811D01*
X0021561Y0004890D01*
X0021557Y0004969D01*
X0021547Y0005046D01*
X0021530Y0005123D01*
X0021507Y0005198D01*
X0021501Y0005212D01*
Y0006047D01*
X0021581Y0006099D01*
X0021584Y0006100D01*
X0021500D01*
Y0007850D01*
X0023257D01*
X0023250Y0007856D01*
X0023216Y0007877D01*
X0023179Y0007892D01*
X0023140Y0007902D01*
X0023100Y0007905D01*
X0022600D01*
Y0008349D01*
X0023278D01*
X0024023Y0007604D01*
Y0006750D01*
X0024024Y0006732D01*
Y0005734D01*
X0024020Y0005732D01*
Y0004440D01*
X0023690Y0004110D01*
X0022150D01*
Y0004111D01*
X0022035D01*
X0021982Y0004108D01*
X0021929Y0004099D01*
X0021878Y0004084D01*
X0021829Y0004064D01*
X0021782Y0004038D01*
X0021738Y0004007D01*
X0021699Y0003971D01*
X0020934Y0003207D01*
X0020893Y0003220D01*
X0020816Y0003237D01*
X0020739Y0003247D01*
X0020660Y0003251D01*
X0020581Y0003247D01*
X0020504Y0003237D01*
X0020427Y0003220D01*
X0020352Y0003197D01*
X0020279Y0003166D01*
X0020210Y0003130D01*
X0020143Y0003088D01*
X0020081Y0003040D01*
X0020023Y0002987D01*
X0019970Y0002929D01*
X0019922Y0002867D01*
X0019880Y0002800D01*
X0019844Y0002731D01*
X0019813Y0002658D01*
X0019790Y0002583D01*
X0019773Y0002506D01*
X0019763Y0002429D01*
X0019759Y0002350D01*
X0019763Y0002271D01*
X0019773Y0002194D01*
X0019790Y0002117D01*
X0019813Y0002042D01*
X0019844Y0001969D01*
X0019880Y0001900D01*
X0019922Y0001833D01*
X0019970Y0001771D01*
X0020023Y0001713D01*
X0020081Y0001660D01*
X0020143Y0001612D01*
X0020210Y0001570D01*
X0020279Y0001534D01*
X0020352Y0001503D01*
X0020427Y0001480D01*
X0020504Y0001463D01*
X0020581Y0001453D01*
X0020660Y0001449D01*
X0020739Y0001453D01*
X0020816Y0001463D01*
X0020893Y0001480D01*
X0020968Y0001503D01*
X0021041Y0001534D01*
X0021110Y0001570D01*
X0021177Y0001612D01*
X0021239Y0001660D01*
X0021297Y0001713D01*
X0021350Y0001771D01*
X0021398Y0001833D01*
X0021440Y0001900D01*
X0021476Y0001969D01*
X0021507Y0002042D01*
X0021530Y0002117D01*
X0021547Y0002194D01*
X0021557Y0002271D01*
X0021561Y0002350D01*
X0021557Y0002429D01*
X0021551Y0002478D01*
X0022185Y0003112D01*
X0022240Y0003106D01*
Y0003145D01*
X0024029Y0003145D01*
X0024041Y0003171D01*
X0024092Y0003186D01*
X0024141Y0003206D01*
X0024188Y0003232D01*
X0024232Y0003263D01*
X0024271Y0003299D01*
X0024836Y0003864D01*
X0024872Y0003903D01*
X0024903Y0003947D01*
X0024929Y0003994D01*
X0024941Y0004023D01*
X0024975Y0004045D01*
Y0007375D01*
X0024975Y0007376D01*
Y0007801D01*
X0024972Y0007854D01*
X0024963Y0007907D01*
X0024948Y0007958D01*
X0024928Y0008007D01*
X0024902Y0008054D01*
X0024871Y0008098D01*
X0024835Y0008137D01*
X0023811Y0009161D01*
X0023772Y0009197D01*
X0023728Y0009228D01*
X0023681Y0009254D01*
X0023632Y0009274D01*
X0023581Y0009289D01*
X0023528Y0009298D01*
X0023475Y0009301D01*
X0022600D01*
Y0009899D01*
X0024528D01*
X0024964Y0009464D01*
X0025003Y0009428D01*
X0025047Y0009397D01*
X0025094Y0009371D01*
X0025143Y0009351D01*
X0025194Y0009336D01*
X0025247Y0009327D01*
X0025300Y0009324D01*
X0035524D01*
Y0008550D01*
X0035524Y0008550D01*
Y0008225D01*
X0035527Y0008196D01*
X0035536Y0008167D01*
X0035550Y0008141D01*
X0035568Y0008118D01*
X0035591Y0008100D01*
X0035612Y0008089D01*
X0035617Y0008056D01*
Y0007944D01*
X0035612Y0007911D01*
X0035591Y0007900D01*
X0035568Y0007882D01*
X0035550Y0007859D01*
X0035536Y0007833D01*
X0035527Y0007804D01*
X0035524Y0007775D01*
Y0007125D01*
X0035527Y0007096D01*
X0035536Y0007067D01*
X0035550Y0007041D01*
X0035568Y0007018D01*
X0035591Y0007000D01*
X0035617Y0006986D01*
X0035646Y0006977D01*
X0035675Y0006974D01*
X0035739D01*
Y0005739D01*
X0035732Y0005737D01*
X0035659Y0005706D01*
X0035590Y0005670D01*
X0035523Y0005628D01*
X0035461Y0005580D01*
X0035403Y0005527D01*
X0035350Y0005469D01*
X0035302Y0005407D01*
X0035260Y0005340D01*
X0035224Y0005271D01*
X0035193Y0005198D01*
X0035170Y0005123D01*
X0035153Y0005046D01*
X0035143Y0004969D01*
X0035139Y0004890D01*
X0035143Y0004811D01*
X0035153Y0004734D01*
X0035170Y0004657D01*
X0035193Y0004582D01*
X0035224Y0004509D01*
X0035260Y0004440D01*
X0035302Y0004373D01*
X0035350Y0004311D01*
X0035403Y0004253D01*
X0035461Y0004200D01*
X0035523Y0004152D01*
X0035590Y0004110D01*
X0035659Y0004074D01*
X0035732Y0004043D01*
X0035807Y0004020D01*
X0035884Y0004003D01*
X0035961Y0003993D01*
X0036040Y0003989D01*
X0036119Y0003993D01*
X0036196Y0004003D01*
X0036273Y0004020D01*
X0036348Y0004043D01*
X0036421Y0004074D01*
X0036490Y0004110D01*
X0036557Y0004152D01*
X0036619Y0004200D01*
X0036677Y0004253D01*
X0036730Y0004311D01*
X0036778Y0004373D01*
X0036820Y0004440D01*
X0036856Y0004509D01*
X0036887Y0004582D01*
X0036910Y0004657D01*
X0036927Y0004734D01*
X0036937Y0004811D01*
X0036941Y0004890D01*
X0036937Y0004969D01*
X0036927Y0005046D01*
X0036910Y0005123D01*
X0036887Y0005198D01*
X0036856Y0005271D01*
X0036820Y0005340D01*
X0036778Y0005407D01*
X0036730Y0005469D01*
X0036677Y0005527D01*
X0036619Y0005580D01*
X0036557Y0005628D01*
X0036490Y0005670D01*
X0036421Y0005706D01*
X0036348Y0005737D01*
X0036341Y0005739D01*
Y0006976D01*
X0036354Y0006977D01*
X0036383Y0006986D01*
X0036409Y0007000D01*
X0036432Y0007018D01*
X0036450Y0007041D01*
X0036461Y0007062D01*
X0036494Y0007067D01*
X0036606D01*
X0036639Y0007062D01*
X0036650Y0007041D01*
X0036668Y0007018D01*
X0036691Y0007000D01*
X0036717Y0006986D01*
X0036746Y0006977D01*
X0036775Y0006974D01*
X0037425D01*
X0037454Y0006977D01*
X0037483Y0006986D01*
X0037509Y0007000D01*
X0037532Y0007018D01*
X0037550Y0007041D01*
X0037564Y0007067D01*
X0037573Y0007096D01*
X0037576Y0007125D01*
Y0007729D01*
X0037576Y0007775D01*
X0037573Y0007825D01*
X0037572Y0007858D01*
X0037580Y0007923D01*
X0037583Y0007931D01*
X0037579Y0007896D01*
X0037572Y0007858D01*
X0037573Y0007832D01*
X0037579Y0007896D01*
X0037591Y0007957D01*
X0037616Y0008036D01*
X0037646Y0008098D01*
X0037652Y0008109D01*
X0037667Y0008146D01*
X0037667Y0008146D01*
X0037677Y0008185D01*
X0037677Y0008185D01*
X0037680Y0008225D01*
X0037680Y0008225D01*
X0037680Y0008233D01*
Y0008350D01*
X0037425D01*
Y0008225D01*
X0036475D01*
Y0009325D01*
X0037425Y0009325D01*
Y0009324D01*
X0040478D01*
X0040624Y0009178D01*
Y0008550D01*
X0040624Y0008550D01*
Y0008225D01*
X0040627Y0008196D01*
X0040636Y0008167D01*
X0040650Y0008141D01*
X0040668Y0008118D01*
X0040691Y0008100D01*
X0040712Y0008089D01*
X0040717Y0008056D01*
Y0007944D01*
X0040712Y0007911D01*
X0040691Y0007900D01*
X0040668Y0007882D01*
X0040650Y0007859D01*
X0040636Y0007833D01*
X0040627Y0007804D01*
X0040624Y0007775D01*
Y0007125D01*
X0040627Y0007096D01*
X0040636Y0007067D01*
X0040650Y0007041D01*
X0040668Y0007018D01*
X0040691Y0007000D01*
X0040717Y0006986D01*
X0040746Y0006977D01*
X0040775Y0006974D01*
X0040824D01*
Y0005740D01*
X0040812Y0005737D01*
X0040739Y0005706D01*
X0040670Y0005670D01*
X0040603Y0005628D01*
X0040541Y0005580D01*
X0040483Y0005527D01*
X0040430Y0005469D01*
X0040382Y0005407D01*
X0040340Y0005340D01*
X0040304Y0005271D01*
X0040273Y0005198D01*
X0040250Y0005123D01*
X0040233Y0005046D01*
X0040223Y0004969D01*
X0040219Y0004890D01*
X0040223Y0004811D01*
X0040233Y0004734D01*
X0040250Y0004657D01*
X0040273Y0004582D01*
X0040304Y0004509D01*
X0040340Y0004440D01*
X0040382Y0004373D01*
X0040430Y0004311D01*
X0040483Y0004253D01*
X0040541Y0004200D01*
X0040603Y0004152D01*
X0040670Y0004110D01*
X0040739Y0004074D01*
X0040812Y0004043D01*
X0040887Y0004020D01*
X0040964Y0004003D01*
X0041041Y0003993D01*
X0041120Y0003989D01*
X0041199Y0003993D01*
X0041276Y0004003D01*
X0041353Y0004020D01*
X0041428Y0004043D01*
X0041501Y0004074D01*
X0041570Y0004110D01*
X0041637Y0004152D01*
X0041699Y0004200D01*
X0041757Y0004253D01*
X0041810Y0004311D01*
X0041858Y0004373D01*
X0041900Y0004440D01*
X0041936Y0004509D01*
X0041967Y0004582D01*
X0041990Y0004657D01*
X0042007Y0004734D01*
X0042017Y0004811D01*
X0042021Y0004890D01*
X0042017Y0004969D01*
X0042007Y0005046D01*
X0041990Y0005123D01*
X0041967Y0005198D01*
X0041936Y0005271D01*
X0041900Y0005340D01*
X0041858Y0005407D01*
X0041810Y0005469D01*
X0041757Y0005527D01*
X0041699Y0005580D01*
X0041637Y0005628D01*
X0041570Y0005670D01*
X0041501Y0005706D01*
X0041428Y0005737D01*
X0041426Y0005737D01*
Y0006974D01*
X0041454Y0006977D01*
X0041483Y0006986D01*
X0041509Y0007000D01*
X0041532Y0007018D01*
X0041550Y0007041D01*
X0041564Y0007067D01*
X0041573Y0007096D01*
X0041576Y0007125D01*
Y0007775D01*
X0041573Y0007804D01*
X0041564Y0007833D01*
X0041550Y0007859D01*
X0041532Y0007882D01*
X0041509Y0007900D01*
X0041488Y0007911D01*
X0041483Y0007944D01*
Y0008056D01*
X0041488Y0008089D01*
X0041509Y0008100D01*
X0041532Y0008118D01*
X0041550Y0008141D01*
X0041564Y0008167D01*
X0041573Y0008196D01*
X0041576Y0008225D01*
Y0008550D01*
X0041576Y0008550D01*
Y0009375D01*
X0041573Y0009428D01*
X0041564Y0009481D01*
X0041549Y0009532D01*
X0041529Y0009581D01*
X0041503Y0009628D01*
X0041472Y0009672D01*
X0041436Y0009711D01*
X0041011Y0010136D01*
X0040972Y0010172D01*
X0040928Y0010203D01*
X0040881Y0010229D01*
X0040832Y0010249D01*
X0040781Y0010264D01*
X0040728Y0010273D01*
X0040675Y0010276D01*
X0025497D01*
X0025151Y0010622D01*
Y0011596D01*
X0025151Y0011600D01*
X0025151Y0011604D01*
Y0012800D01*
X0025148Y0012829D01*
X0025139Y0012858D01*
X0025125Y0012884D01*
X0025107Y0012907D01*
X0025084Y0012925D01*
X0025058Y0012939D01*
X0025029Y0012948D01*
X0025000Y0012951D01*
X0022900D01*
X0022871Y0012948D01*
X0022842Y0012939D01*
X0022816Y0012925D01*
X0022793Y0012907D01*
X0022775Y0012884D01*
X0022761Y0012858D01*
X0022752Y0012829D01*
X0022749Y0012800D01*
Y0010901D01*
X0021700D01*
X0021693Y0010900D01*
X0021550Y0010900D01*
X0021549Y0010876D01*
Y0010050D01*
Y0008950D01*
X0021474Y0008875D01*
X0021318Y0008875D01*
X0019854D01*
X0019854Y0008875D01*
X0019854Y0008875D01*
X0019838D01*
Y0008875D01*
X0019724D01*
Y0008875D01*
X0019628D01*
X0019618Y0008891D01*
X0019601Y0008962D01*
Y0012929D01*
X0019771Y0013099D01*
X0020299D01*
Y0011900D01*
X0020302Y0011871D01*
X0020311Y0011842D01*
X0020325Y0011816D01*
X0020343Y0011793D01*
X0020366Y0011775D01*
X0020392Y0011761D01*
X0020421Y0011752D01*
X0020450Y0011749D01*
X0022300D01*
X0022329Y0011752D01*
X0022358Y0011761D01*
X0022384Y0011775D01*
X0022407Y0011793D01*
X0022425Y0011816D01*
X0022439Y0011842D01*
X0022448Y0011871D01*
X0022451Y0011900D01*
Y0013867D01*
X0022451Y0013870D01*
Y0015230D01*
X0022451Y0015233D01*
Y0017350D01*
X0022448Y0017379D01*
X0022439Y0017408D01*
X0022425Y0017434D01*
X0022407Y0017457D01*
X0022384Y0017475D01*
X0022358Y0017489D01*
X0022329Y0017498D01*
X0022300Y0017501D01*
D02*
G37*
G36*
X0025850Y0013055D02*
X0025600D01*
X0025560Y0013052D01*
X0025521Y0013042D01*
X0025484Y0013027D01*
X0025450Y0013006D01*
X0025420Y0012980D01*
X0025394Y0012950D01*
X0025373Y0012916D01*
X0025358Y0012879D01*
X0025348Y0012840D01*
X0025345Y0012800D01*
Y0012550D01*
X0025850D01*
Y0013055D01*
D02*
G37*
G36*
X0026755Y0016700D02*
X0026250D01*
Y0016195D01*
X0026500D01*
X0026540Y0016198D01*
X0026579Y0016208D01*
X0026616Y0016223D01*
X0026650Y0016244D01*
X0026680Y0016270D01*
X0026706Y0016300D01*
X0026727Y0016334D01*
X0026742Y0016371D01*
X0026752Y0016410D01*
X0026755Y0016450D01*
Y0016700D01*
D02*
G37*
G36*
X0017920Y0016905D02*
X0017470D01*
X0017430Y0016902D01*
X0017391Y0016892D01*
X0017354Y0016877D01*
X0017320Y0016856D01*
X0017290Y0016830D01*
X0017264Y0016800D01*
X0017243Y0016766D01*
X0017228Y0016729D01*
X0017218Y0016690D01*
X0017215Y0016650D01*
Y0016200D01*
X0017920D01*
Y0016905D01*
D02*
G37*
G36*
X0019745Y0016230D02*
X0019620D01*
Y0015900D01*
X0020000D01*
Y0015975D01*
X0019997Y0016015D01*
X0019987Y0016054D01*
X0019972Y0016091D01*
X0019951Y0016125D01*
X0019925Y0016155D01*
X0019895Y0016181D01*
X0019861Y0016202D01*
X0019824Y0016217D01*
X0019785Y0016227D01*
X0019745Y0016230D01*
D02*
G37*
G36*
X0025850Y0016700D02*
X0025345D01*
Y0016450D01*
X0025348Y0016410D01*
X0025358Y0016371D01*
X0025373Y0016334D01*
X0025394Y0016300D01*
X0025420Y0016270D01*
X0025450Y0016244D01*
X0025484Y0016223D01*
X0025521Y0016208D01*
X0025560Y0016198D01*
X0025600Y0016195D01*
X0025850D01*
Y0016700D01*
D02*
G37*
G36*
X0055925Y0009000D02*
X0055800D01*
Y0008621D01*
X0056180D01*
Y0008746D01*
X0056177Y0008786D01*
X0056167Y0008824D01*
X0056152Y0008861D01*
X0056131Y0008895D01*
X0056105Y0008926D01*
X0056075Y0008952D01*
X0056041Y0008973D01*
X0056004Y0008988D01*
X0055965Y0008997D01*
X0055925Y0009000D01*
D02*
G37*
G36*
X0037425Y0009130D02*
Y0008750D01*
X0037680D01*
Y0008875D01*
X0037677Y0008915D01*
X0037667Y0008954D01*
X0037652Y0008991D01*
X0037631Y0009025D01*
X0037605Y0009055D01*
X0037575Y0009081D01*
X0037541Y0009102D01*
X0037504Y0009117D01*
X0037465Y0009127D01*
X0037425Y0009130D01*
D02*
G37*
G36*
X0053375Y0009000D02*
X0053250D01*
Y0008621D01*
X0053630D01*
Y0008746D01*
X0053627Y0008786D01*
X0053617Y0008824D01*
X0053602Y0008861D01*
X0053581Y0008895D01*
X0053555Y0008926D01*
X0053525Y0008952D01*
X0053491Y0008973D01*
X0053454Y0008988D01*
X0053415Y0008997D01*
X0053375Y0009000D01*
D02*
G37*
G36*
X0055400D02*
X0055275D01*
X0055235Y0008997D01*
X0055196Y0008988D01*
X0055159Y0008973D01*
X0055125Y0008952D01*
X0055095Y0008926D01*
X0055069Y0008895D01*
X0055048Y0008861D01*
X0055033Y0008824D01*
X0055023Y0008786D01*
X0055020Y0008746D01*
Y0008621D01*
X0055400D01*
Y0009000D01*
D02*
G37*
G36*
X0025850Y0012150D02*
X0025345D01*
Y0011900D01*
X0025348Y0011860D01*
X0025358Y0011821D01*
X0025373Y0011784D01*
X0025394Y0011750D01*
X0025420Y0011720D01*
X0025450Y0011694D01*
X0025484Y0011673D01*
X0025521Y0011658D01*
X0025560Y0011648D01*
X0025600Y0011645D01*
X0025850D01*
Y0012150D01*
D02*
G37*
G36*
X0026755D02*
X0026250D01*
Y0011645D01*
X0026500D01*
X0026540Y0011648D01*
X0026579Y0011658D01*
X0026616Y0011673D01*
X0026650Y0011694D01*
X0026680Y0011720D01*
X0026706Y0011750D01*
X0026727Y0011784D01*
X0026742Y0011821D01*
X0026752Y0011860D01*
X0026755Y0011900D01*
Y0012150D01*
D02*
G37*
G36*
X0039450Y0009130D02*
X0039325D01*
X0039285Y0009127D01*
X0039246Y0009117D01*
X0039209Y0009102D01*
X0039175Y0009081D01*
X0039145Y0009055D01*
X0039119Y0009025D01*
X0039098Y0008991D01*
X0039083Y0008954D01*
X0039073Y0008915D01*
X0039070Y0008875D01*
Y0008750D01*
X0039450D01*
Y0009130D01*
D02*
G37*
G36*
X0039975D02*
X0039850D01*
Y0008750D01*
X0040230D01*
Y0008875D01*
X0040227Y0008915D01*
X0040217Y0008954D01*
X0040202Y0008991D01*
X0040181Y0009025D01*
X0040155Y0009055D01*
X0040125Y0009081D01*
X0040091Y0009102D01*
X0040054Y0009117D01*
X0040015Y0009127D01*
X0039975Y0009130D01*
D02*
G37*
G36*
X0041120Y0003251D02*
X0041041Y0003247D01*
X0040964Y0003237D01*
X0040887Y0003220D01*
X0040812Y0003197D01*
X0040739Y0003166D01*
X0040670Y0003130D01*
X0040603Y0003088D01*
X0040541Y0003040D01*
X0040483Y0002987D01*
X0040430Y0002929D01*
X0040382Y0002867D01*
X0040340Y0002800D01*
X0040304Y0002731D01*
X0040273Y0002658D01*
X0040250Y0002583D01*
X0040233Y0002506D01*
X0040223Y0002429D01*
X0040219Y0002350D01*
X0040223Y0002271D01*
X0040233Y0002194D01*
X0040250Y0002117D01*
X0040273Y0002042D01*
X0040304Y0001969D01*
X0040340Y0001900D01*
X0040382Y0001833D01*
X0040430Y0001771D01*
X0040483Y0001713D01*
X0040541Y0001660D01*
X0040603Y0001612D01*
X0040670Y0001570D01*
X0040739Y0001534D01*
X0040812Y0001503D01*
X0040887Y0001480D01*
X0040964Y0001463D01*
X0041041Y0001453D01*
X0041120Y0001449D01*
X0041199Y0001453D01*
X0041276Y0001463D01*
X0041353Y0001480D01*
X0041428Y0001503D01*
X0041501Y0001534D01*
X0041570Y0001570D01*
X0041637Y0001612D01*
X0041699Y0001660D01*
X0041757Y0001713D01*
X0041810Y0001771D01*
X0041858Y0001833D01*
X0041900Y0001900D01*
X0041936Y0001969D01*
X0041967Y0002042D01*
X0041990Y0002117D01*
X0042007Y0002194D01*
X0042017Y0002271D01*
X0042021Y0002350D01*
X0042017Y0002429D01*
X0042007Y0002506D01*
X0041990Y0002583D01*
X0041967Y0002658D01*
X0041936Y0002731D01*
X0041900Y0002800D01*
X0041858Y0002867D01*
X0041810Y0002929D01*
X0041757Y0002987D01*
X0041699Y0003040D01*
X0041637Y0003088D01*
X0041570Y0003130D01*
X0041501Y0003166D01*
X0041428Y0003197D01*
X0041353Y0003220D01*
X0041276Y0003237D01*
X0041199Y0003247D01*
X0041120Y0003251D01*
D02*
G37*
G36*
X0043660D02*
X0043581Y0003247D01*
X0043504Y0003237D01*
X0043427Y0003220D01*
X0043352Y0003197D01*
X0043279Y0003166D01*
X0043210Y0003130D01*
X0043143Y0003088D01*
X0043081Y0003040D01*
X0043023Y0002987D01*
X0042970Y0002929D01*
X0042922Y0002867D01*
X0042880Y0002800D01*
X0042844Y0002731D01*
X0042813Y0002658D01*
X0042790Y0002583D01*
X0042773Y0002506D01*
X0042763Y0002429D01*
X0042759Y0002350D01*
X0042763Y0002271D01*
X0042773Y0002194D01*
X0042790Y0002117D01*
X0042813Y0002042D01*
X0042844Y0001969D01*
X0042880Y0001900D01*
X0042922Y0001833D01*
X0042970Y0001771D01*
X0043023Y0001713D01*
X0043081Y0001660D01*
X0043143Y0001612D01*
X0043210Y0001570D01*
X0043279Y0001534D01*
X0043352Y0001503D01*
X0043427Y0001480D01*
X0043504Y0001463D01*
X0043581Y0001453D01*
X0043660Y0001449D01*
X0043739Y0001453D01*
X0043816Y0001463D01*
X0043893Y0001480D01*
X0043968Y0001503D01*
X0044041Y0001534D01*
X0044110Y0001570D01*
X0044177Y0001612D01*
X0044239Y0001660D01*
X0044297Y0001713D01*
X0044350Y0001771D01*
X0044398Y0001833D01*
X0044440Y0001900D01*
X0044476Y0001969D01*
X0044507Y0002042D01*
X0044530Y0002117D01*
X0044547Y0002194D01*
X0044557Y0002271D01*
X0044561Y0002350D01*
X0044557Y0002429D01*
X0044547Y0002506D01*
X0044530Y0002583D01*
X0044507Y0002658D01*
X0044476Y0002731D01*
X0044440Y0002800D01*
X0044398Y0002867D01*
X0044350Y0002929D01*
X0044297Y0002987D01*
X0044239Y0003040D01*
X0044177Y0003088D01*
X0044110Y0003130D01*
X0044041Y0003166D01*
X0043968Y0003197D01*
X0043893Y0003220D01*
X0043816Y0003237D01*
X0043739Y0003247D01*
X0043660Y0003251D01*
D02*
G37*
G36*
X0036040D02*
X0035961Y0003247D01*
X0035884Y0003237D01*
X0035807Y0003220D01*
X0035732Y0003197D01*
X0035659Y0003166D01*
X0035590Y0003130D01*
X0035523Y0003088D01*
X0035461Y0003040D01*
X0035403Y0002987D01*
X0035350Y0002929D01*
X0035302Y0002867D01*
X0035260Y0002800D01*
X0035224Y0002731D01*
X0035193Y0002658D01*
X0035170Y0002583D01*
X0035153Y0002506D01*
X0035143Y0002429D01*
X0035139Y0002350D01*
X0035143Y0002271D01*
X0035153Y0002194D01*
X0035170Y0002117D01*
X0035193Y0002042D01*
X0035224Y0001969D01*
X0035260Y0001900D01*
X0035302Y0001833D01*
X0035350Y0001771D01*
X0035403Y0001713D01*
X0035461Y0001660D01*
X0035523Y0001612D01*
X0035590Y0001570D01*
X0035659Y0001534D01*
X0035732Y0001503D01*
X0035807Y0001480D01*
X0035884Y0001463D01*
X0035961Y0001453D01*
X0036040Y0001449D01*
X0036119Y0001453D01*
X0036196Y0001463D01*
X0036273Y0001480D01*
X0036348Y0001503D01*
X0036421Y0001534D01*
X0036490Y0001570D01*
X0036557Y0001612D01*
X0036619Y0001660D01*
X0036677Y0001713D01*
X0036730Y0001771D01*
X0036778Y0001833D01*
X0036820Y0001900D01*
X0036856Y0001969D01*
X0036887Y0002042D01*
X0036910Y0002117D01*
X0036927Y0002194D01*
X0036937Y0002271D01*
X0036941Y0002350D01*
X0036937Y0002429D01*
X0036927Y0002506D01*
X0036910Y0002583D01*
X0036887Y0002658D01*
X0036856Y0002731D01*
X0036820Y0002800D01*
X0036778Y0002867D01*
X0036730Y0002929D01*
X0036677Y0002987D01*
X0036619Y0003040D01*
X0036557Y0003088D01*
X0036490Y0003130D01*
X0036421Y0003166D01*
X0036348Y0003197D01*
X0036273Y0003220D01*
X0036196Y0003237D01*
X0036119Y0003247D01*
X0036040Y0003251D01*
D02*
G37*
G36*
X0038580D02*
X0038501Y0003247D01*
X0038424Y0003237D01*
X0038347Y0003220D01*
X0038272Y0003197D01*
X0038199Y0003166D01*
X0038130Y0003130D01*
X0038063Y0003088D01*
X0038001Y0003040D01*
X0037943Y0002987D01*
X0037890Y0002929D01*
X0037842Y0002867D01*
X0037800Y0002800D01*
X0037764Y0002731D01*
X0037733Y0002658D01*
X0037710Y0002583D01*
X0037693Y0002506D01*
X0037683Y0002429D01*
X0037679Y0002350D01*
X0037683Y0002271D01*
X0037693Y0002194D01*
X0037710Y0002117D01*
X0037733Y0002042D01*
X0037764Y0001969D01*
X0037800Y0001900D01*
X0037842Y0001833D01*
X0037890Y0001771D01*
X0037943Y0001713D01*
X0038001Y0001660D01*
X0038063Y0001612D01*
X0038130Y0001570D01*
X0038199Y0001534D01*
X0038272Y0001503D01*
X0038347Y0001480D01*
X0038424Y0001463D01*
X0038501Y0001453D01*
X0038580Y0001449D01*
X0038659Y0001453D01*
X0038736Y0001463D01*
X0038813Y0001480D01*
X0038888Y0001503D01*
X0038961Y0001534D01*
X0039030Y0001570D01*
X0039097Y0001612D01*
X0039159Y0001660D01*
X0039217Y0001713D01*
X0039270Y0001771D01*
X0039318Y0001833D01*
X0039360Y0001900D01*
X0039396Y0001969D01*
X0039427Y0002042D01*
X0039450Y0002117D01*
X0039467Y0002194D01*
X0039477Y0002271D01*
X0039481Y0002350D01*
X0039477Y0002429D01*
X0039467Y0002506D01*
X0039450Y0002583D01*
X0039427Y0002658D01*
X0039396Y0002731D01*
X0039360Y0002800D01*
X0039318Y0002867D01*
X0039270Y0002929D01*
X0039217Y0002987D01*
X0039159Y0003040D01*
X0039097Y0003088D01*
X0039030Y0003130D01*
X0038961Y0003166D01*
X0038888Y0003197D01*
X0038813Y0003220D01*
X0038736Y0003237D01*
X0038659Y0003247D01*
X0038580Y0003251D01*
D02*
G37*
G36*
X0034250Y0003251D02*
X0032750D01*
X0032721Y0003248D01*
X0032692Y0003239D01*
X0032666Y0003225D01*
X0032643Y0003207D01*
X0032625Y0003184D01*
X0032611Y0003158D01*
X0032602Y0003129D01*
X0032599Y0003100D01*
Y0001600D01*
X0032602Y0001571D01*
X0032611Y0001542D01*
X0032625Y0001516D01*
X0032643Y0001493D01*
X0032666Y0001475D01*
X0032692Y0001461D01*
X0032721Y0001452D01*
X0032750Y0001449D01*
X0034250D01*
X0034279Y0001452D01*
X0034308Y0001461D01*
X0034334Y0001475D01*
X0034357Y0001493D01*
X0034375Y0001516D01*
X0034389Y0001542D01*
X0034398Y0001571D01*
X0034401Y0001600D01*
Y0003100D01*
X0034398Y0003129D01*
X0034389Y0003158D01*
X0034375Y0003184D01*
X0034357Y0003207D01*
X0034334Y0003225D01*
X0034308Y0003239D01*
X0034279Y0003248D01*
X0034250Y0003251D01*
D02*
G37*
G36*
X0074750Y0002850D02*
X0074370D01*
Y0002725D01*
X0074373Y0002685D01*
X0074383Y0002646D01*
X0074398Y0002609D01*
X0074419Y0002575D01*
X0074445Y0002545D01*
X0074475Y0002519D01*
X0074509Y0002498D01*
X0074546Y0002483D01*
X0074585Y0002473D01*
X0074625Y0002470D01*
X0074750D01*
Y0002850D01*
D02*
G37*
G36*
X0046200Y0003251D02*
X0046121Y0003247D01*
X0046044Y0003237D01*
X0045967Y0003220D01*
X0045892Y0003197D01*
X0045819Y0003166D01*
X0045750Y0003130D01*
X0045683Y0003088D01*
X0045621Y0003040D01*
X0045563Y0002987D01*
X0045510Y0002929D01*
X0045462Y0002867D01*
X0045420Y0002800D01*
X0045384Y0002731D01*
X0045353Y0002658D01*
X0045330Y0002583D01*
X0045313Y0002506D01*
X0045303Y0002429D01*
X0045299Y0002350D01*
X0045303Y0002271D01*
X0045313Y0002194D01*
X0045330Y0002117D01*
X0045353Y0002042D01*
X0045384Y0001969D01*
X0045420Y0001900D01*
X0045462Y0001833D01*
X0045510Y0001771D01*
X0045563Y0001713D01*
X0045621Y0001660D01*
X0045683Y0001612D01*
X0045750Y0001570D01*
X0045819Y0001534D01*
X0045892Y0001503D01*
X0045967Y0001480D01*
X0046044Y0001463D01*
X0046121Y0001453D01*
X0046200Y0001449D01*
X0046279Y0001453D01*
X0046356Y0001463D01*
X0046433Y0001480D01*
X0046508Y0001503D01*
X0046581Y0001534D01*
X0046650Y0001570D01*
X0046717Y0001612D01*
X0046779Y0001660D01*
X0046837Y0001713D01*
X0046890Y0001771D01*
X0046938Y0001833D01*
X0046980Y0001900D01*
X0047016Y0001969D01*
X0047047Y0002042D01*
X0047070Y0002117D01*
X0047087Y0002194D01*
X0047097Y0002271D01*
X0047101Y0002350D01*
X0047097Y0002429D01*
X0047087Y0002506D01*
X0047070Y0002583D01*
X0047047Y0002658D01*
X0047016Y0002731D01*
X0046980Y0002800D01*
X0046938Y0002867D01*
X0046890Y0002929D01*
X0046837Y0002987D01*
X0046779Y0003040D01*
X0046717Y0003088D01*
X0046650Y0003130D01*
X0046581Y0003166D01*
X0046508Y0003197D01*
X0046433Y0003220D01*
X0046356Y0003237D01*
X0046279Y0003247D01*
X0046200Y0003251D01*
D02*
G37*
G36*
X0011250Y0003251D02*
X0009750D01*
X0009721Y0003248D01*
X0009692Y0003239D01*
X0009666Y0003225D01*
X0009643Y0003207D01*
X0009625Y0003184D01*
X0009611Y0003158D01*
X0009602Y0003129D01*
X0009599Y0003100D01*
Y0001600D01*
X0009602Y0001571D01*
X0009611Y0001542D01*
X0009625Y0001516D01*
X0009643Y0001493D01*
X0009666Y0001475D01*
X0009692Y0001461D01*
X0009721Y0001452D01*
X0009750Y0001449D01*
X0011250D01*
X0011279Y0001452D01*
X0011308Y0001461D01*
X0011334Y0001475D01*
X0011357Y0001493D01*
X0011375Y0001516D01*
X0011389Y0001542D01*
X0011398Y0001571D01*
X0011401Y0001600D01*
Y0003100D01*
X0011398Y0003129D01*
X0011389Y0003158D01*
X0011375Y0003184D01*
X0011357Y0003207D01*
X0011334Y0003225D01*
X0011308Y0003239D01*
X0011279Y0003248D01*
X0011250Y0003251D01*
D02*
G37*
G36*
X0025340Y0001950D02*
X0024819D01*
X0024829Y0001925D01*
X0024870Y0001848D01*
X0024917Y0001774D01*
X0024970Y0001704D01*
X0025029Y0001639D01*
X0025094Y0001580D01*
X0025164Y0001527D01*
X0025238Y0001480D01*
X0025315Y0001439D01*
X0025340Y0001429D01*
Y0001950D01*
D02*
G37*
G36*
X0026661D02*
X0026140D01*
Y0001429D01*
X0026165Y0001439D01*
X0026242Y0001480D01*
X0026316Y0001527D01*
X0026386Y0001580D01*
X0026451Y0001639D01*
X0026510Y0001704D01*
X0026563Y0001774D01*
X0026610Y0001848D01*
X0026651Y0001925D01*
X0026661Y0001950D01*
D02*
G37*
G36*
X0022800D02*
X0022279D01*
X0022289Y0001925D01*
X0022330Y0001848D01*
X0022377Y0001774D01*
X0022430Y0001704D01*
X0022489Y0001639D01*
X0022554Y0001580D01*
X0022624Y0001527D01*
X0022698Y0001480D01*
X0022775Y0001439D01*
X0022800Y0001429D01*
Y0001950D01*
D02*
G37*
G36*
X0024121D02*
X0023600D01*
Y0001429D01*
X0023625Y0001439D01*
X0023702Y0001480D01*
X0023776Y0001527D01*
X0023846Y0001580D01*
X0023911Y0001639D01*
X0023970Y0001704D01*
X0024023Y0001774D01*
X0024070Y0001848D01*
X0024111Y0001925D01*
X0024121Y0001950D01*
D02*
G37*
G36*
X0018120Y0003251D02*
X0018041Y0003247D01*
X0017964Y0003237D01*
X0017887Y0003220D01*
X0017812Y0003197D01*
X0017739Y0003166D01*
X0017670Y0003130D01*
X0017603Y0003088D01*
X0017541Y0003040D01*
X0017483Y0002987D01*
X0017430Y0002929D01*
X0017382Y0002867D01*
X0017340Y0002800D01*
X0017304Y0002731D01*
X0017273Y0002658D01*
X0017250Y0002583D01*
X0017233Y0002506D01*
X0017223Y0002429D01*
X0017219Y0002350D01*
X0017223Y0002271D01*
X0017233Y0002194D01*
X0017250Y0002117D01*
X0017273Y0002042D01*
X0017304Y0001969D01*
X0017340Y0001900D01*
X0017382Y0001833D01*
X0017430Y0001771D01*
X0017483Y0001713D01*
X0017541Y0001660D01*
X0017603Y0001612D01*
X0017670Y0001570D01*
X0017739Y0001534D01*
X0017812Y0001503D01*
X0017887Y0001480D01*
X0017964Y0001463D01*
X0018041Y0001453D01*
X0018120Y0001449D01*
X0018199Y0001453D01*
X0018276Y0001463D01*
X0018353Y0001480D01*
X0018428Y0001503D01*
X0018501Y0001534D01*
X0018570Y0001570D01*
X0018637Y0001612D01*
X0018699Y0001660D01*
X0018757Y0001713D01*
X0018810Y0001771D01*
X0018858Y0001833D01*
X0018900Y0001900D01*
X0018936Y0001969D01*
X0018967Y0002042D01*
X0018990Y0002117D01*
X0019007Y0002194D01*
X0019017Y0002271D01*
X0019021Y0002350D01*
X0019017Y0002429D01*
X0019007Y0002506D01*
X0018990Y0002583D01*
X0018967Y0002658D01*
X0018936Y0002731D01*
X0018900Y0002800D01*
X0018858Y0002867D01*
X0018810Y0002929D01*
X0018757Y0002987D01*
X0018699Y0003040D01*
X0018637Y0003088D01*
X0018570Y0003130D01*
X0018501Y0003166D01*
X0018428Y0003197D01*
X0018353Y0003220D01*
X0018276Y0003237D01*
X0018199Y0003247D01*
X0018120Y0003251D01*
D02*
G37*
G36*
X0028280D02*
X0028201Y0003247D01*
X0028124Y0003237D01*
X0028047Y0003220D01*
X0027972Y0003197D01*
X0027899Y0003166D01*
X0027830Y0003130D01*
X0027763Y0003088D01*
X0027701Y0003040D01*
X0027643Y0002987D01*
X0027590Y0002929D01*
X0027542Y0002867D01*
X0027500Y0002800D01*
X0027464Y0002731D01*
X0027433Y0002658D01*
X0027410Y0002583D01*
X0027393Y0002506D01*
X0027383Y0002429D01*
X0027379Y0002350D01*
X0027383Y0002271D01*
X0027393Y0002194D01*
X0027410Y0002117D01*
X0027433Y0002042D01*
X0027464Y0001969D01*
X0027500Y0001900D01*
X0027542Y0001833D01*
X0027590Y0001771D01*
X0027643Y0001713D01*
X0027701Y0001660D01*
X0027763Y0001612D01*
X0027830Y0001570D01*
X0027899Y0001534D01*
X0027972Y0001503D01*
X0028047Y0001480D01*
X0028124Y0001463D01*
X0028201Y0001453D01*
X0028280Y0001449D01*
X0028359Y0001453D01*
X0028436Y0001463D01*
X0028513Y0001480D01*
X0028588Y0001503D01*
X0028661Y0001534D01*
X0028730Y0001570D01*
X0028797Y0001612D01*
X0028859Y0001660D01*
X0028917Y0001713D01*
X0028970Y0001771D01*
X0029018Y0001833D01*
X0029060Y0001900D01*
X0029096Y0001969D01*
X0029127Y0002042D01*
X0029150Y0002117D01*
X0029167Y0002194D01*
X0029177Y0002271D01*
X0029181Y0002350D01*
X0029177Y0002429D01*
X0029167Y0002506D01*
X0029150Y0002583D01*
X0029127Y0002658D01*
X0029096Y0002731D01*
X0029060Y0002800D01*
X0029018Y0002867D01*
X0028970Y0002929D01*
X0028917Y0002987D01*
X0028859Y0003040D01*
X0028797Y0003088D01*
X0028730Y0003130D01*
X0028661Y0003166D01*
X0028588Y0003197D01*
X0028513Y0003220D01*
X0028436Y0003237D01*
X0028359Y0003247D01*
X0028280Y0003251D01*
D02*
G37*
G36*
X0013040D02*
X0012961Y0003247D01*
X0012884Y0003237D01*
X0012807Y0003220D01*
X0012732Y0003197D01*
X0012659Y0003166D01*
X0012590Y0003130D01*
X0012523Y0003088D01*
X0012461Y0003040D01*
X0012403Y0002987D01*
X0012350Y0002929D01*
X0012302Y0002867D01*
X0012260Y0002800D01*
X0012224Y0002731D01*
X0012193Y0002658D01*
X0012170Y0002583D01*
X0012153Y0002506D01*
X0012143Y0002429D01*
X0012139Y0002350D01*
X0012143Y0002271D01*
X0012153Y0002194D01*
X0012170Y0002117D01*
X0012193Y0002042D01*
X0012224Y0001969D01*
X0012260Y0001900D01*
X0012302Y0001833D01*
X0012350Y0001771D01*
X0012403Y0001713D01*
X0012461Y0001660D01*
X0012523Y0001612D01*
X0012590Y0001570D01*
X0012659Y0001534D01*
X0012732Y0001503D01*
X0012807Y0001480D01*
X0012884Y0001463D01*
X0012961Y0001453D01*
X0013040Y0001449D01*
X0013119Y0001453D01*
X0013196Y0001463D01*
X0013273Y0001480D01*
X0013348Y0001503D01*
X0013421Y0001534D01*
X0013490Y0001570D01*
X0013557Y0001612D01*
X0013619Y0001660D01*
X0013677Y0001713D01*
X0013730Y0001771D01*
X0013778Y0001833D01*
X0013820Y0001900D01*
X0013856Y0001969D01*
X0013887Y0002042D01*
X0013910Y0002117D01*
X0013927Y0002194D01*
X0013937Y0002271D01*
X0013941Y0002350D01*
X0013937Y0002429D01*
X0013927Y0002506D01*
X0013910Y0002583D01*
X0013887Y0002658D01*
X0013856Y0002731D01*
X0013820Y0002800D01*
X0013778Y0002867D01*
X0013730Y0002929D01*
X0013677Y0002987D01*
X0013619Y0003040D01*
X0013557Y0003088D01*
X0013490Y0003130D01*
X0013421Y0003166D01*
X0013348Y0003197D01*
X0013273Y0003220D01*
X0013196Y0003237D01*
X0013119Y0003247D01*
X0013040Y0003251D01*
D02*
G37*
G36*
X0015580D02*
X0015501Y0003247D01*
X0015424Y0003237D01*
X0015347Y0003220D01*
X0015272Y0003197D01*
X0015199Y0003166D01*
X0015130Y0003130D01*
X0015063Y0003088D01*
X0015001Y0003040D01*
X0014943Y0002987D01*
X0014890Y0002929D01*
X0014842Y0002867D01*
X0014800Y0002800D01*
X0014764Y0002731D01*
X0014733Y0002658D01*
X0014710Y0002583D01*
X0014693Y0002506D01*
X0014683Y0002429D01*
X0014679Y0002350D01*
X0014683Y0002271D01*
X0014693Y0002194D01*
X0014710Y0002117D01*
X0014733Y0002042D01*
X0014764Y0001969D01*
X0014800Y0001900D01*
X0014842Y0001833D01*
X0014890Y0001771D01*
X0014943Y0001713D01*
X0015001Y0001660D01*
X0015063Y0001612D01*
X0015130Y0001570D01*
X0015199Y0001534D01*
X0015272Y0001503D01*
X0015347Y0001480D01*
X0015424Y0001463D01*
X0015501Y0001453D01*
X0015580Y0001449D01*
X0015659Y0001453D01*
X0015736Y0001463D01*
X0015813Y0001480D01*
X0015888Y0001503D01*
X0015961Y0001534D01*
X0016030Y0001570D01*
X0016097Y0001612D01*
X0016159Y0001660D01*
X0016217Y0001713D01*
X0016270Y0001771D01*
X0016318Y0001833D01*
X0016360Y0001900D01*
X0016396Y0001969D01*
X0016427Y0002042D01*
X0016450Y0002117D01*
X0016467Y0002194D01*
X0016477Y0002271D01*
X0016481Y0002350D01*
X0016477Y0002429D01*
X0016467Y0002506D01*
X0016450Y0002583D01*
X0016427Y0002658D01*
X0016396Y0002731D01*
X0016360Y0002800D01*
X0016318Y0002867D01*
X0016270Y0002929D01*
X0016217Y0002987D01*
X0016159Y0003040D01*
X0016097Y0003088D01*
X0016030Y0003130D01*
X0015961Y0003166D01*
X0015888Y0003197D01*
X0015813Y0003220D01*
X0015736Y0003237D01*
X0015659Y0003247D01*
X0015580Y0003251D01*
D02*
G37*
G36*
X0076630Y0002850D02*
X0076250D01*
Y0002470D01*
X0076375D01*
X0076415Y0002473D01*
X0076454Y0002483D01*
X0076491Y0002498D01*
X0076525Y0002519D01*
X0076555Y0002545D01*
X0076581Y0002575D01*
X0076602Y0002609D01*
X0076617Y0002646D01*
X0076627Y0002685D01*
X0076630Y0002725D01*
Y0002850D01*
D02*
G37*
G36*
X0060600Y0004600D02*
X0060024D01*
X0060025Y0004596D01*
X0060060Y0004521D01*
X0060101Y0004449D01*
X0060147Y0004380D01*
X0060198Y0004315D01*
X0060254Y0004254D01*
X0060315Y0004198D01*
X0060380Y0004147D01*
X0060449Y0004101D01*
X0060521Y0004060D01*
X0060596Y0004025D01*
X0060600Y0004024D01*
Y0004600D01*
D02*
G37*
G36*
X0061976D02*
X0061400D01*
Y0004024D01*
X0061404Y0004025D01*
X0061479Y0004060D01*
X0061551Y0004101D01*
X0061620Y0004147D01*
X0061685Y0004198D01*
X0061746Y0004254D01*
X0061802Y0004315D01*
X0061853Y0004380D01*
X0061899Y0004449D01*
X0061940Y0004521D01*
X0061975Y0004596D01*
X0061976Y0004600D01*
D02*
G37*
G36*
X0011250Y0005791D02*
X0009750D01*
X0009721Y0005788D01*
X0009692Y0005779D01*
X0009666Y0005765D01*
X0009643Y0005747D01*
X0009625Y0005724D01*
X0009611Y0005698D01*
X0009602Y0005669D01*
X0009599Y0005640D01*
Y0004140D01*
X0009602Y0004111D01*
X0009611Y0004082D01*
X0009625Y0004056D01*
X0009643Y0004033D01*
X0009666Y0004015D01*
X0009692Y0004001D01*
X0009721Y0003992D01*
X0009750Y0003989D01*
X0011250D01*
X0011279Y0003992D01*
X0011308Y0004001D01*
X0011334Y0004015D01*
X0011357Y0004033D01*
X0011375Y0004056D01*
X0011389Y0004082D01*
X0011398Y0004111D01*
X0011401Y0004140D01*
Y0005640D01*
X0011398Y0005669D01*
X0011389Y0005698D01*
X0011375Y0005724D01*
X0011357Y0005747D01*
X0011334Y0005765D01*
X0011308Y0005779D01*
X0011279Y0005788D01*
X0011250Y0005791D01*
D02*
G37*
G36*
X0034250D02*
X0032750D01*
X0032721Y0005788D01*
X0032692Y0005779D01*
X0032666Y0005765D01*
X0032643Y0005747D01*
X0032625Y0005724D01*
X0032611Y0005698D01*
X0032602Y0005669D01*
X0032599Y0005640D01*
Y0004140D01*
X0032602Y0004111D01*
X0032611Y0004082D01*
X0032625Y0004056D01*
X0032643Y0004033D01*
X0032666Y0004015D01*
X0032692Y0004001D01*
X0032721Y0003992D01*
X0032750Y0003989D01*
X0034250D01*
X0034279Y0003992D01*
X0034308Y0004001D01*
X0034334Y0004015D01*
X0034357Y0004033D01*
X0034375Y0004056D01*
X0034389Y0004082D01*
X0034398Y0004111D01*
X0034401Y0004140D01*
Y0005640D01*
X0034398Y0005669D01*
X0034389Y0005698D01*
X0034375Y0005724D01*
X0034357Y0005747D01*
X0034334Y0005765D01*
X0034308Y0005779D01*
X0034279Y0005788D01*
X0034250Y0005791D01*
D02*
G37*
G36*
X0022800Y0005811D02*
X0022775Y0005801D01*
X0022698Y0005760D01*
X0022624Y0005713D01*
X0022554Y0005660D01*
X0022489Y0005601D01*
X0022430Y0005536D01*
X0022377Y0005466D01*
X0022330Y0005392D01*
X0022289Y0005315D01*
X0022279Y0005290D01*
X0022800D01*
Y0005811D01*
D02*
G37*
G36*
X0026140D02*
Y0005290D01*
X0026661D01*
X0026651Y0005315D01*
X0026610Y0005392D01*
X0026563Y0005466D01*
X0026510Y0005536D01*
X0026451Y0005601D01*
X0026386Y0005660D01*
X0026316Y0005713D01*
X0026242Y0005760D01*
X0026165Y0005801D01*
X0026140Y0005811D01*
D02*
G37*
G36*
X0046200Y0005791D02*
X0046121Y0005787D01*
X0046044Y0005777D01*
X0045967Y0005760D01*
X0045892Y0005737D01*
X0045819Y0005706D01*
X0045750Y0005670D01*
X0045683Y0005628D01*
X0045621Y0005580D01*
X0045563Y0005527D01*
X0045510Y0005469D01*
X0045462Y0005407D01*
X0045420Y0005340D01*
X0045384Y0005271D01*
X0045353Y0005198D01*
X0045330Y0005123D01*
X0045313Y0005046D01*
X0045303Y0004969D01*
X0045299Y0004890D01*
X0045303Y0004811D01*
X0045313Y0004734D01*
X0045330Y0004657D01*
X0045353Y0004582D01*
X0045384Y0004509D01*
X0045420Y0004440D01*
X0045462Y0004373D01*
X0045510Y0004311D01*
X0045563Y0004253D01*
X0045593Y0004226D01*
X0045572Y0004122D01*
X0045528Y0004051D01*
X0044854D01*
X0044449Y0004456D01*
X0044476Y0004509D01*
X0044507Y0004582D01*
X0044530Y0004657D01*
X0044547Y0004734D01*
X0044557Y0004811D01*
X0044561Y0004890D01*
X0044557Y0004969D01*
X0044547Y0005046D01*
X0044530Y0005123D01*
X0044507Y0005198D01*
X0044476Y0005271D01*
X0044440Y0005340D01*
X0044398Y0005407D01*
X0044350Y0005469D01*
X0044297Y0005527D01*
X0044239Y0005580D01*
X0044177Y0005628D01*
X0044110Y0005670D01*
X0044041Y0005706D01*
X0043968Y0005737D01*
X0043893Y0005760D01*
X0043816Y0005777D01*
X0043739Y0005787D01*
X0043660Y0005791D01*
X0043581Y0005787D01*
X0043504Y0005777D01*
X0043427Y0005760D01*
X0043352Y0005737D01*
X0043279Y0005706D01*
X0043210Y0005670D01*
X0043143Y0005628D01*
X0043081Y0005580D01*
X0043023Y0005527D01*
X0042970Y0005469D01*
X0042922Y0005407D01*
X0042880Y0005340D01*
X0042844Y0005271D01*
X0042813Y0005198D01*
X0042790Y0005123D01*
X0042773Y0005046D01*
X0042763Y0004969D01*
X0042759Y0004890D01*
X0042763Y0004811D01*
X0042773Y0004734D01*
X0042790Y0004657D01*
X0042813Y0004582D01*
X0042844Y0004509D01*
X0042880Y0004440D01*
X0042922Y0004373D01*
X0042970Y0004311D01*
X0043023Y0004253D01*
X0043081Y0004200D01*
X0043143Y0004152D01*
X0043210Y0004110D01*
X0043279Y0004074D01*
X0043352Y0004043D01*
X0043427Y0004020D01*
X0043504Y0004003D01*
X0043581Y0003993D01*
X0043660Y0003989D01*
X0043739Y0003993D01*
X0043816Y0004003D01*
X0043893Y0004020D01*
X0043968Y0004043D01*
X0044041Y0004074D01*
X0044094Y0004101D01*
X0044573Y0003623D01*
X0044603Y0003597D01*
X0044636Y0003577D01*
X0044673Y0003562D01*
X0044711Y0003552D01*
X0044750Y0003549D01*
X0046656D01*
X0046696Y0003552D01*
X0046734Y0003562D01*
X0046770Y0003577D01*
X0046804Y0003597D01*
X0046834Y0003623D01*
X0047360Y0004149D01*
X0052399D01*
Y0003571D01*
X0052402Y0003541D01*
X0052411Y0003513D01*
X0052425Y0003487D01*
X0052443Y0003464D01*
X0052466Y0003445D01*
X0052492Y0003431D01*
X0052521Y0003423D01*
X0052550Y0003420D01*
X0053550D01*
X0053579Y0003423D01*
X0053608Y0003431D01*
X0053634Y0003445D01*
X0053657Y0003464D01*
X0053675Y0003487D01*
X0053689Y0003513D01*
X0053698Y0003541D01*
X0053701Y0003571D01*
Y0004371D01*
X0053698Y0004400D01*
X0053689Y0004428D01*
X0053675Y0004454D01*
X0053667Y0004464D01*
X0053679Y0004537D01*
X0053709Y0004613D01*
X0053725Y0004639D01*
X0054527D01*
X0054949Y0004217D01*
Y0003521D01*
X0054952Y0003491D01*
X0054961Y0003463D01*
X0054975Y0003437D01*
X0054993Y0003414D01*
X0055016Y0003395D01*
X0055042Y0003381D01*
X0055071Y0003373D01*
X0055100Y0003370D01*
X0056100D01*
X0056129Y0003373D01*
X0056158Y0003381D01*
X0056184Y0003395D01*
X0056207Y0003414D01*
X0056225Y0003437D01*
X0056239Y0003463D01*
X0056248Y0003491D01*
X0056251Y0003521D01*
Y0004321D01*
X0056248Y0004350D01*
X0056239Y0004378D01*
X0056225Y0004404D01*
X0056207Y0004427D01*
X0056184Y0004446D01*
X0056158Y0004460D01*
X0056129Y0004469D01*
X0056100Y0004471D01*
X0055404D01*
X0054808Y0005067D01*
X0054778Y0005093D01*
X0054745Y0005113D01*
X0054708Y0005128D01*
X0054670Y0005138D01*
X0054631Y0005141D01*
X0047065D01*
X0047047Y0005198D01*
X0047016Y0005271D01*
X0046980Y0005340D01*
X0046938Y0005407D01*
X0046890Y0005469D01*
X0046837Y0005527D01*
X0046779Y0005580D01*
X0046717Y0005628D01*
X0046650Y0005670D01*
X0046581Y0005706D01*
X0046508Y0005737D01*
X0046433Y0005760D01*
X0046356Y0005777D01*
X0046279Y0005787D01*
X0046200Y0005791D01*
D02*
G37*
G36*
X0023600Y0005811D02*
Y0004890D01*
X0023200D01*
Y0004490D01*
X0022279D01*
X0022289Y0004465D01*
X0022330Y0004388D01*
X0022335Y0004379D01*
X0023711D01*
Y0005755D01*
X0023702Y0005760D01*
X0023625Y0005801D01*
X0023600Y0005811D01*
D02*
G37*
G36*
X0026140Y0003271D02*
Y0002750D01*
X0026661D01*
X0026651Y0002775D01*
X0026610Y0002852D01*
X0026563Y0002926D01*
X0026510Y0002996D01*
X0026451Y0003061D01*
X0026386Y0003120D01*
X0026316Y0003173D01*
X0026242Y0003220D01*
X0026165Y0003261D01*
X0026140Y0003271D01*
D02*
G37*
G36*
X0025340Y0005811D02*
X0025315Y0005801D01*
X0025238Y0005760D01*
X0025200Y0005736D01*
Y0004044D01*
X0025238Y0004020D01*
X0025315Y0003979D01*
X0025340Y0003969D01*
Y0004890D01*
Y0005811D01*
D02*
G37*
G36*
X0024040Y0002900D02*
X0022360D01*
X0022330Y0002852D01*
X0022289Y0002775D01*
X0022279Y0002750D01*
X0024121D01*
X0024111Y0002775D01*
X0024070Y0002852D01*
X0024040Y0002900D01*
D02*
G37*
G36*
X0025340Y0003271D02*
X0025315Y0003261D01*
X0025238Y0003220D01*
X0025164Y0003173D01*
X0025094Y0003120D01*
X0025029Y0003061D01*
X0024970Y0002996D01*
X0024917Y0002926D01*
X0024870Y0002852D01*
X0024829Y0002775D01*
X0024819Y0002750D01*
X0025340D01*
Y0003271D01*
D02*
G37*
G36*
X0015580Y0005791D02*
X0015501Y0005787D01*
X0015424Y0005777D01*
X0015347Y0005760D01*
X0015272Y0005737D01*
X0015199Y0005706D01*
X0015130Y0005670D01*
X0015063Y0005628D01*
X0015001Y0005580D01*
X0014943Y0005527D01*
X0014890Y0005469D01*
X0014842Y0005407D01*
X0014800Y0005340D01*
X0014764Y0005271D01*
X0014733Y0005198D01*
X0014710Y0005123D01*
X0014693Y0005046D01*
X0014683Y0004969D01*
X0014679Y0004890D01*
X0014683Y0004811D01*
X0014693Y0004734D01*
X0014710Y0004657D01*
X0014733Y0004582D01*
X0014764Y0004509D01*
X0014800Y0004440D01*
X0014842Y0004373D01*
X0014890Y0004311D01*
X0014943Y0004253D01*
X0015001Y0004200D01*
X0015063Y0004152D01*
X0015130Y0004110D01*
X0015199Y0004074D01*
X0015272Y0004043D01*
X0015347Y0004020D01*
X0015424Y0004003D01*
X0015501Y0003993D01*
X0015580Y0003989D01*
X0015659Y0003993D01*
X0015736Y0004003D01*
X0015813Y0004020D01*
X0015888Y0004043D01*
X0015961Y0004074D01*
X0016030Y0004110D01*
X0016097Y0004152D01*
X0016159Y0004200D01*
X0016217Y0004253D01*
X0016270Y0004311D01*
X0016318Y0004373D01*
X0016360Y0004440D01*
X0016396Y0004509D01*
X0016427Y0004582D01*
X0016450Y0004657D01*
X0016467Y0004734D01*
X0016477Y0004811D01*
X0016481Y0004890D01*
X0016477Y0004969D01*
X0016467Y0005046D01*
X0016450Y0005123D01*
X0016427Y0005198D01*
X0016396Y0005271D01*
X0016360Y0005340D01*
X0016318Y0005407D01*
X0016270Y0005469D01*
X0016217Y0005527D01*
X0016159Y0005580D01*
X0016097Y0005628D01*
X0016030Y0005670D01*
X0015961Y0005706D01*
X0015888Y0005737D01*
X0015813Y0005760D01*
X0015736Y0005777D01*
X0015659Y0005787D01*
X0015580Y0005791D01*
D02*
G37*
G36*
X0028280D02*
X0028201Y0005787D01*
X0028124Y0005777D01*
X0028047Y0005760D01*
X0027972Y0005737D01*
X0027899Y0005706D01*
X0027830Y0005670D01*
X0027763Y0005628D01*
X0027701Y0005580D01*
X0027643Y0005527D01*
X0027590Y0005469D01*
X0027542Y0005407D01*
X0027500Y0005340D01*
X0027464Y0005271D01*
X0027433Y0005198D01*
X0027410Y0005123D01*
X0027393Y0005046D01*
X0027383Y0004969D01*
X0027379Y0004890D01*
X0027383Y0004811D01*
X0027393Y0004734D01*
X0027410Y0004657D01*
X0027433Y0004582D01*
X0027464Y0004509D01*
X0027500Y0004440D01*
X0027542Y0004373D01*
X0027590Y0004311D01*
X0027643Y0004253D01*
X0027701Y0004200D01*
X0027763Y0004152D01*
X0027830Y0004110D01*
X0027899Y0004074D01*
X0027972Y0004043D01*
X0028047Y0004020D01*
X0028124Y0004003D01*
X0028201Y0003993D01*
X0028280Y0003989D01*
X0028359Y0003993D01*
X0028436Y0004003D01*
X0028513Y0004020D01*
X0028588Y0004043D01*
X0028661Y0004074D01*
X0028730Y0004110D01*
X0028797Y0004152D01*
X0028859Y0004200D01*
X0028917Y0004253D01*
X0028970Y0004311D01*
X0029018Y0004373D01*
X0029060Y0004440D01*
X0029096Y0004509D01*
X0029127Y0004582D01*
X0029150Y0004657D01*
X0029167Y0004734D01*
X0029177Y0004811D01*
X0029181Y0004890D01*
X0029177Y0004969D01*
X0029167Y0005046D01*
X0029150Y0005123D01*
X0029127Y0005198D01*
X0029096Y0005271D01*
X0029060Y0005340D01*
X0029018Y0005407D01*
X0028970Y0005469D01*
X0028917Y0005527D01*
X0028859Y0005580D01*
X0028797Y0005628D01*
X0028730Y0005670D01*
X0028661Y0005706D01*
X0028588Y0005737D01*
X0028513Y0005760D01*
X0028436Y0005777D01*
X0028359Y0005787D01*
X0028280Y0005791D01*
D02*
G37*
G36*
X0026661Y0004490D02*
X0026140D01*
Y0003969D01*
X0026165Y0003979D01*
X0026242Y0004020D01*
X0026316Y0004067D01*
X0026386Y0004120D01*
X0026451Y0004179D01*
X0026510Y0004244D01*
X0026563Y0004314D01*
X0026610Y0004388D01*
X0026651Y0004465D01*
X0026661Y0004490D01*
D02*
G37*
G36*
X0013040Y0005791D02*
X0012961Y0005787D01*
X0012884Y0005777D01*
X0012807Y0005760D01*
X0012732Y0005737D01*
X0012659Y0005706D01*
X0012590Y0005670D01*
X0012523Y0005628D01*
X0012461Y0005580D01*
X0012403Y0005527D01*
X0012350Y0005469D01*
X0012302Y0005407D01*
X0012260Y0005340D01*
X0012224Y0005271D01*
X0012193Y0005198D01*
X0012170Y0005123D01*
X0012153Y0005046D01*
X0012143Y0004969D01*
X0012139Y0004890D01*
X0012143Y0004811D01*
X0012153Y0004734D01*
X0012170Y0004657D01*
X0012193Y0004582D01*
X0012224Y0004509D01*
X0012260Y0004440D01*
X0012302Y0004373D01*
X0012350Y0004311D01*
X0012403Y0004253D01*
X0012461Y0004200D01*
X0012523Y0004152D01*
X0012590Y0004110D01*
X0012659Y0004074D01*
X0012732Y0004043D01*
X0012807Y0004020D01*
X0012884Y0004003D01*
X0012961Y0003993D01*
X0013040Y0003989D01*
X0013119Y0003993D01*
X0013196Y0004003D01*
X0013273Y0004020D01*
X0013348Y0004043D01*
X0013421Y0004074D01*
X0013490Y0004110D01*
X0013557Y0004152D01*
X0013619Y0004200D01*
X0013677Y0004253D01*
X0013730Y0004311D01*
X0013778Y0004373D01*
X0013820Y0004440D01*
X0013856Y0004509D01*
X0013887Y0004582D01*
X0013910Y0004657D01*
X0013927Y0004734D01*
X0013937Y0004811D01*
X0013941Y0004890D01*
X0013937Y0004969D01*
X0013927Y0005046D01*
X0013910Y0005123D01*
X0013887Y0005198D01*
X0013856Y0005271D01*
X0013820Y0005340D01*
X0013778Y0005407D01*
X0013730Y0005469D01*
X0013677Y0005527D01*
X0013619Y0005580D01*
X0013557Y0005628D01*
X0013490Y0005670D01*
X0013421Y0005706D01*
X0013348Y0005737D01*
X0013273Y0005760D01*
X0013196Y0005777D01*
X0013119Y0005787D01*
X0013040Y0005791D01*
D02*
G37*
G36*
X0028420Y0051511D02*
X0028341Y0051507D01*
X0028264Y0051497D01*
X0028187Y0051480D01*
X0028112Y0051457D01*
X0028039Y0051426D01*
X0027970Y0051390D01*
X0027903Y0051348D01*
X0027841Y0051300D01*
X0027783Y0051247D01*
X0027730Y0051189D01*
X0027682Y0051127D01*
X0027640Y0051060D01*
X0027604Y0050991D01*
X0027573Y0050918D01*
X0027550Y0050843D01*
X0027533Y0050766D01*
X0027523Y0050689D01*
X0027519Y0050610D01*
X0027523Y0050531D01*
X0027533Y0050454D01*
X0027550Y0050377D01*
X0027573Y0050302D01*
X0027604Y0050229D01*
X0027640Y0050160D01*
X0027682Y0050093D01*
X0027730Y0050031D01*
X0027783Y0049973D01*
X0027841Y0049920D01*
X0027903Y0049872D01*
X0027970Y0049830D01*
X0028039Y0049794D01*
X0028112Y0049763D01*
X0028187Y0049740D01*
X0028264Y0049723D01*
X0028341Y0049713D01*
X0028420Y0049709D01*
X0028499Y0049713D01*
X0028576Y0049723D01*
X0028653Y0049740D01*
X0028728Y0049763D01*
X0028801Y0049794D01*
X0028870Y0049830D01*
X0028937Y0049872D01*
X0028999Y0049920D01*
X0029057Y0049973D01*
X0029110Y0050031D01*
X0029158Y0050093D01*
X0029200Y0050160D01*
X0029236Y0050229D01*
X0029267Y0050302D01*
X0029290Y0050377D01*
X0029307Y0050454D01*
X0029317Y0050531D01*
X0029321Y0050610D01*
X0029317Y0050689D01*
X0029307Y0050766D01*
X0029290Y0050843D01*
X0029267Y0050918D01*
X0029236Y0050991D01*
X0029200Y0051060D01*
X0029158Y0051127D01*
X0029110Y0051189D01*
X0029057Y0051247D01*
X0028999Y0051300D01*
X0028937Y0051348D01*
X0028870Y0051390D01*
X0028801Y0051426D01*
X0028728Y0051457D01*
X0028653Y0051480D01*
X0028576Y0051497D01*
X0028499Y0051507D01*
X0028420Y0051511D01*
D02*
G37*
G36*
X0030960Y0054051D02*
X0030881Y0054047D01*
X0030804Y0054037D01*
X0030727Y0054020D01*
X0030652Y0053997D01*
X0030579Y0053966D01*
X0030510Y0053930D01*
X0030443Y0053888D01*
X0030381Y0053840D01*
X0030323Y0053787D01*
X0030270Y0053729D01*
X0030222Y0053667D01*
X0030180Y0053600D01*
X0030144Y0053531D01*
X0030113Y0053458D01*
X0030090Y0053383D01*
X0030073Y0053306D01*
X0030063Y0053229D01*
X0030059Y0053150D01*
X0030063Y0053071D01*
X0030073Y0052994D01*
X0030090Y0052917D01*
X0030113Y0052842D01*
X0030144Y0052769D01*
X0030180Y0052700D01*
X0030222Y0052633D01*
X0030270Y0052571D01*
X0030323Y0052513D01*
X0030381Y0052460D01*
X0030443Y0052412D01*
X0030510Y0052370D01*
X0030579Y0052334D01*
X0030652Y0052303D01*
X0030709Y0052285D01*
Y0051475D01*
X0030652Y0051457D01*
X0030579Y0051426D01*
X0030510Y0051390D01*
X0030443Y0051348D01*
X0030381Y0051300D01*
X0030323Y0051247D01*
X0030270Y0051189D01*
X0030222Y0051127D01*
X0030180Y0051060D01*
X0030144Y0050991D01*
X0030113Y0050918D01*
X0030090Y0050843D01*
X0030073Y0050766D01*
X0030063Y0050689D01*
X0030059Y0050610D01*
X0030063Y0050531D01*
X0030073Y0050454D01*
X0030090Y0050377D01*
X0030113Y0050302D01*
X0030144Y0050229D01*
X0030180Y0050160D01*
X0030222Y0050093D01*
X0030270Y0050031D01*
X0030323Y0049973D01*
X0030381Y0049920D01*
X0030443Y0049872D01*
X0030510Y0049830D01*
X0030579Y0049794D01*
X0030652Y0049763D01*
X0030727Y0049740D01*
X0030804Y0049723D01*
X0030881Y0049713D01*
X0030960Y0049709D01*
X0031039Y0049713D01*
X0031116Y0049723D01*
X0031193Y0049740D01*
X0031268Y0049763D01*
X0031341Y0049794D01*
X0031410Y0049830D01*
X0031477Y0049872D01*
X0031539Y0049920D01*
X0031597Y0049973D01*
X0031650Y0050031D01*
X0031698Y0050093D01*
X0031740Y0050160D01*
X0031776Y0050229D01*
X0031807Y0050302D01*
X0031830Y0050377D01*
X0031847Y0050454D01*
X0031857Y0050531D01*
X0031861Y0050610D01*
X0031857Y0050689D01*
X0031847Y0050766D01*
X0031830Y0050843D01*
X0031807Y0050918D01*
X0031776Y0050991D01*
X0031740Y0051060D01*
X0031698Y0051127D01*
X0031650Y0051189D01*
X0031597Y0051247D01*
X0031539Y0051300D01*
X0031477Y0051348D01*
X0031410Y0051390D01*
X0031341Y0051426D01*
X0031268Y0051457D01*
X0031211Y0051475D01*
Y0052285D01*
X0031268Y0052303D01*
X0031341Y0052334D01*
X0031410Y0052370D01*
X0031477Y0052412D01*
X0031539Y0052460D01*
X0031597Y0052513D01*
X0031650Y0052571D01*
X0031698Y0052633D01*
X0031740Y0052700D01*
X0031776Y0052769D01*
X0031807Y0052842D01*
X0031830Y0052917D01*
X0031847Y0052994D01*
X0031857Y0053071D01*
X0031861Y0053150D01*
X0031857Y0053229D01*
X0031847Y0053306D01*
X0031830Y0053383D01*
X0031807Y0053458D01*
X0031776Y0053531D01*
X0031740Y0053600D01*
X0031698Y0053667D01*
X0031650Y0053729D01*
X0031597Y0053787D01*
X0031539Y0053840D01*
X0031477Y0053888D01*
X0031410Y0053930D01*
X0031341Y0053966D01*
X0031268Y0053997D01*
X0031193Y0054020D01*
X0031116Y0054037D01*
X0031039Y0054047D01*
X0030960Y0054051D01*
D02*
G37*
G36*
X0019420D02*
X0019341Y0054047D01*
X0019264Y0054037D01*
X0019187Y0054020D01*
X0019112Y0053997D01*
X0019039Y0053966D01*
X0018970Y0053930D01*
X0018903Y0053888D01*
X0018841Y0053840D01*
X0018783Y0053787D01*
X0018730Y0053729D01*
X0018682Y0053667D01*
X0018640Y0053600D01*
X0018604Y0053531D01*
X0018573Y0053458D01*
X0018550Y0053383D01*
X0018533Y0053306D01*
X0018523Y0053229D01*
X0018519Y0053150D01*
X0018523Y0053071D01*
X0018533Y0052994D01*
X0018550Y0052917D01*
X0018573Y0052842D01*
X0018604Y0052769D01*
X0018640Y0052700D01*
X0018682Y0052633D01*
X0018730Y0052571D01*
X0018783Y0052513D01*
X0018841Y0052460D01*
X0018903Y0052412D01*
X0018970Y0052370D01*
X0019039Y0052334D01*
X0019112Y0052303D01*
X0019169Y0052285D01*
Y0051475D01*
X0019112Y0051457D01*
X0019039Y0051426D01*
X0018970Y0051390D01*
X0018903Y0051348D01*
X0018841Y0051300D01*
X0018783Y0051247D01*
X0018730Y0051189D01*
X0018682Y0051127D01*
X0018640Y0051060D01*
X0018604Y0050991D01*
X0018573Y0050918D01*
X0018550Y0050843D01*
X0018533Y0050766D01*
X0018523Y0050689D01*
X0018519Y0050610D01*
X0018523Y0050531D01*
X0018533Y0050454D01*
X0018550Y0050377D01*
X0018573Y0050302D01*
X0018604Y0050229D01*
X0018640Y0050160D01*
X0018682Y0050093D01*
X0018730Y0050031D01*
X0018783Y0049973D01*
X0018841Y0049920D01*
X0018903Y0049872D01*
X0018970Y0049830D01*
X0019039Y0049794D01*
X0019112Y0049763D01*
X0019187Y0049740D01*
X0019264Y0049723D01*
X0019341Y0049713D01*
X0019420Y0049709D01*
X0019499Y0049713D01*
X0019576Y0049723D01*
X0019653Y0049740D01*
X0019728Y0049763D01*
X0019801Y0049794D01*
X0019870Y0049830D01*
X0019937Y0049872D01*
X0019999Y0049920D01*
X0020057Y0049973D01*
X0020110Y0050031D01*
X0020158Y0050093D01*
X0020200Y0050160D01*
X0020236Y0050229D01*
X0020267Y0050302D01*
X0020290Y0050377D01*
X0020307Y0050454D01*
X0020317Y0050531D01*
X0020321Y0050610D01*
X0020317Y0050689D01*
X0020307Y0050766D01*
X0020290Y0050843D01*
X0020267Y0050918D01*
X0020236Y0050991D01*
X0020200Y0051060D01*
X0020158Y0051127D01*
X0020110Y0051189D01*
X0020057Y0051247D01*
X0019999Y0051300D01*
X0019937Y0051348D01*
X0019870Y0051390D01*
X0019801Y0051426D01*
X0019728Y0051457D01*
X0019671Y0051475D01*
Y0052285D01*
X0019728Y0052303D01*
X0019801Y0052334D01*
X0019870Y0052370D01*
X0019937Y0052412D01*
X0019999Y0052460D01*
X0020057Y0052513D01*
X0020110Y0052571D01*
X0020158Y0052633D01*
X0020200Y0052700D01*
X0020236Y0052769D01*
X0020267Y0052842D01*
X0020290Y0052917D01*
X0020307Y0052994D01*
X0020317Y0053071D01*
X0020321Y0053150D01*
X0020317Y0053229D01*
X0020307Y0053306D01*
X0020290Y0053383D01*
X0020267Y0053458D01*
X0020236Y0053531D01*
X0020200Y0053600D01*
X0020158Y0053667D01*
X0020110Y0053729D01*
X0020057Y0053787D01*
X0019999Y0053840D01*
X0019937Y0053888D01*
X0019870Y0053930D01*
X0019801Y0053966D01*
X0019728Y0053997D01*
X0019653Y0054020D01*
X0019576Y0054037D01*
X0019499Y0054047D01*
X0019420Y0054051D01*
D02*
G37*
G36*
X0021960D02*
X0021881Y0054047D01*
X0021804Y0054037D01*
X0021727Y0054020D01*
X0021652Y0053997D01*
X0021579Y0053966D01*
X0021510Y0053930D01*
X0021443Y0053888D01*
X0021381Y0053840D01*
X0021323Y0053787D01*
X0021270Y0053729D01*
X0021222Y0053667D01*
X0021180Y0053600D01*
X0021144Y0053531D01*
X0021113Y0053458D01*
X0021090Y0053383D01*
X0021073Y0053306D01*
X0021063Y0053229D01*
X0021059Y0053150D01*
X0021063Y0053071D01*
X0021073Y0052994D01*
X0021090Y0052917D01*
X0021113Y0052842D01*
X0021144Y0052769D01*
X0021180Y0052700D01*
X0021222Y0052633D01*
X0021270Y0052571D01*
X0021323Y0052513D01*
X0021381Y0052460D01*
X0021443Y0052412D01*
X0021510Y0052370D01*
X0021579Y0052334D01*
X0021652Y0052303D01*
X0021709Y0052285D01*
Y0051475D01*
X0021652Y0051457D01*
X0021579Y0051426D01*
X0021510Y0051390D01*
X0021443Y0051348D01*
X0021381Y0051300D01*
X0021323Y0051247D01*
X0021270Y0051189D01*
X0021222Y0051127D01*
X0021180Y0051060D01*
X0021144Y0050991D01*
X0021113Y0050918D01*
X0021090Y0050843D01*
X0021073Y0050766D01*
X0021063Y0050689D01*
X0021059Y0050610D01*
X0021063Y0050531D01*
X0021073Y0050454D01*
X0021090Y0050377D01*
X0021113Y0050302D01*
X0021144Y0050229D01*
X0021180Y0050160D01*
X0021222Y0050093D01*
X0021270Y0050031D01*
X0021323Y0049973D01*
X0021381Y0049920D01*
X0021443Y0049872D01*
X0021510Y0049830D01*
X0021579Y0049794D01*
X0021652Y0049763D01*
X0021727Y0049740D01*
X0021804Y0049723D01*
X0021881Y0049713D01*
X0021960Y0049709D01*
X0022039Y0049713D01*
X0022116Y0049723D01*
X0022193Y0049740D01*
X0022268Y0049763D01*
X0022341Y0049794D01*
X0022410Y0049830D01*
X0022477Y0049872D01*
X0022539Y0049920D01*
X0022597Y0049973D01*
X0022650Y0050031D01*
X0022698Y0050093D01*
X0022740Y0050160D01*
X0022776Y0050229D01*
X0022807Y0050302D01*
X0022830Y0050377D01*
X0022847Y0050454D01*
X0022857Y0050531D01*
X0022861Y0050610D01*
X0022857Y0050689D01*
X0022847Y0050766D01*
X0022830Y0050843D01*
X0022807Y0050918D01*
X0022776Y0050991D01*
X0022740Y0051060D01*
X0022698Y0051127D01*
X0022650Y0051189D01*
X0022597Y0051247D01*
X0022539Y0051300D01*
X0022477Y0051348D01*
X0022410Y0051390D01*
X0022341Y0051426D01*
X0022268Y0051457D01*
X0022211Y0051475D01*
Y0052285D01*
X0022268Y0052303D01*
X0022341Y0052334D01*
X0022410Y0052370D01*
X0022477Y0052412D01*
X0022539Y0052460D01*
X0022597Y0052513D01*
X0022650Y0052571D01*
X0022698Y0052633D01*
X0022740Y0052700D01*
X0022776Y0052769D01*
X0022807Y0052842D01*
X0022830Y0052917D01*
X0022847Y0052994D01*
X0022857Y0053071D01*
X0022861Y0053150D01*
X0022857Y0053229D01*
X0022847Y0053306D01*
X0022830Y0053383D01*
X0022807Y0053458D01*
X0022776Y0053531D01*
X0022740Y0053600D01*
X0022698Y0053667D01*
X0022650Y0053729D01*
X0022597Y0053787D01*
X0022539Y0053840D01*
X0022477Y0053888D01*
X0022410Y0053930D01*
X0022341Y0053966D01*
X0022268Y0053997D01*
X0022193Y0054020D01*
X0022116Y0054037D01*
X0022039Y0054047D01*
X0021960Y0054051D01*
D02*
G37*
G36*
X0038580Y0051511D02*
X0038501Y0051507D01*
X0038424Y0051497D01*
X0038347Y0051480D01*
X0038272Y0051457D01*
X0038199Y0051426D01*
X0038130Y0051390D01*
X0038063Y0051348D01*
X0038001Y0051300D01*
X0037943Y0051247D01*
X0037890Y0051189D01*
X0037842Y0051127D01*
X0037800Y0051060D01*
X0037764Y0050991D01*
X0037733Y0050918D01*
X0037710Y0050843D01*
X0037693Y0050766D01*
X0037683Y0050689D01*
X0037679Y0050610D01*
X0037683Y0050531D01*
X0037693Y0050454D01*
X0037710Y0050377D01*
X0037733Y0050302D01*
X0037764Y0050229D01*
X0037800Y0050160D01*
X0037842Y0050093D01*
X0037890Y0050031D01*
X0037943Y0049973D01*
X0038001Y0049920D01*
X0038063Y0049872D01*
X0038130Y0049830D01*
X0038199Y0049794D01*
X0038272Y0049763D01*
X0038347Y0049740D01*
X0038424Y0049723D01*
X0038501Y0049713D01*
X0038580Y0049709D01*
X0038659Y0049713D01*
X0038736Y0049723D01*
X0038813Y0049740D01*
X0038888Y0049763D01*
X0038961Y0049794D01*
X0039030Y0049830D01*
X0039097Y0049872D01*
X0039159Y0049920D01*
X0039217Y0049973D01*
X0039270Y0050031D01*
X0039318Y0050093D01*
X0039360Y0050160D01*
X0039396Y0050229D01*
X0039427Y0050302D01*
X0039450Y0050377D01*
X0039467Y0050454D01*
X0039477Y0050531D01*
X0039481Y0050610D01*
X0039477Y0050689D01*
X0039467Y0050766D01*
X0039450Y0050843D01*
X0039427Y0050918D01*
X0039396Y0050991D01*
X0039360Y0051060D01*
X0039318Y0051127D01*
X0039270Y0051189D01*
X0039217Y0051247D01*
X0039159Y0051300D01*
X0039097Y0051348D01*
X0039030Y0051390D01*
X0038961Y0051426D01*
X0038888Y0051457D01*
X0038813Y0051480D01*
X0038736Y0051497D01*
X0038659Y0051507D01*
X0038580Y0051511D01*
D02*
G37*
G36*
X0041120Y0054051D02*
X0041041Y0054047D01*
X0040964Y0054037D01*
X0040887Y0054020D01*
X0040812Y0053997D01*
X0040739Y0053966D01*
X0040670Y0053930D01*
X0040603Y0053888D01*
X0040541Y0053840D01*
X0040483Y0053787D01*
X0040430Y0053729D01*
X0040382Y0053667D01*
X0040340Y0053600D01*
X0040304Y0053531D01*
X0040273Y0053458D01*
X0040250Y0053383D01*
X0040233Y0053306D01*
X0040223Y0053229D01*
X0040219Y0053150D01*
X0040223Y0053071D01*
X0040233Y0052994D01*
X0040250Y0052917D01*
X0040273Y0052842D01*
X0040304Y0052769D01*
X0040340Y0052700D01*
X0040382Y0052633D01*
X0040430Y0052571D01*
X0040483Y0052513D01*
X0040541Y0052460D01*
X0040603Y0052412D01*
X0040670Y0052370D01*
X0040739Y0052334D01*
X0040812Y0052303D01*
X0040869Y0052285D01*
Y0051475D01*
X0040812Y0051457D01*
X0040739Y0051426D01*
X0040670Y0051390D01*
X0040603Y0051348D01*
X0040541Y0051300D01*
X0040483Y0051247D01*
X0040430Y0051189D01*
X0040382Y0051127D01*
X0040340Y0051060D01*
X0040304Y0050991D01*
X0040273Y0050918D01*
X0040250Y0050843D01*
X0040233Y0050766D01*
X0040223Y0050689D01*
X0040219Y0050610D01*
X0040223Y0050531D01*
X0040233Y0050454D01*
X0040250Y0050377D01*
X0040273Y0050302D01*
X0040304Y0050229D01*
X0040340Y0050160D01*
X0040382Y0050093D01*
X0040430Y0050031D01*
X0040483Y0049973D01*
X0040541Y0049920D01*
X0040603Y0049872D01*
X0040670Y0049830D01*
X0040739Y0049794D01*
X0040812Y0049763D01*
X0040887Y0049740D01*
X0040964Y0049723D01*
X0041041Y0049713D01*
X0041120Y0049709D01*
X0041199Y0049713D01*
X0041276Y0049723D01*
X0041353Y0049740D01*
X0041428Y0049763D01*
X0041501Y0049794D01*
X0041570Y0049830D01*
X0041637Y0049872D01*
X0041699Y0049920D01*
X0041757Y0049973D01*
X0041810Y0050031D01*
X0041858Y0050093D01*
X0041900Y0050160D01*
X0041936Y0050229D01*
X0041967Y0050302D01*
X0041990Y0050377D01*
X0042007Y0050454D01*
X0042017Y0050531D01*
X0042021Y0050610D01*
X0042017Y0050689D01*
X0042007Y0050766D01*
X0041990Y0050843D01*
X0041967Y0050918D01*
X0041936Y0050991D01*
X0041900Y0051060D01*
X0041858Y0051127D01*
X0041810Y0051189D01*
X0041757Y0051247D01*
X0041699Y0051300D01*
X0041637Y0051348D01*
X0041570Y0051390D01*
X0041501Y0051426D01*
X0041428Y0051457D01*
X0041371Y0051475D01*
Y0052285D01*
X0041428Y0052303D01*
X0041501Y0052334D01*
X0041570Y0052370D01*
X0041637Y0052412D01*
X0041699Y0052460D01*
X0041757Y0052513D01*
X0041810Y0052571D01*
X0041858Y0052633D01*
X0041900Y0052700D01*
X0041936Y0052769D01*
X0041967Y0052842D01*
X0041990Y0052917D01*
X0042007Y0052994D01*
X0042017Y0053071D01*
X0042021Y0053150D01*
X0042017Y0053229D01*
X0042007Y0053306D01*
X0041990Y0053383D01*
X0041967Y0053458D01*
X0041936Y0053531D01*
X0041900Y0053600D01*
X0041858Y0053667D01*
X0041810Y0053729D01*
X0041757Y0053787D01*
X0041699Y0053840D01*
X0041637Y0053888D01*
X0041570Y0053930D01*
X0041501Y0053966D01*
X0041428Y0053997D01*
X0041353Y0054020D01*
X0041276Y0054037D01*
X0041199Y0054047D01*
X0041120Y0054051D01*
D02*
G37*
G36*
X0033500Y0051511D02*
X0033421Y0051507D01*
X0033344Y0051497D01*
X0033267Y0051480D01*
X0033192Y0051457D01*
X0033119Y0051426D01*
X0033050Y0051390D01*
X0032983Y0051348D01*
X0032921Y0051300D01*
X0032863Y0051247D01*
X0032810Y0051189D01*
X0032762Y0051127D01*
X0032720Y0051060D01*
X0032684Y0050991D01*
X0032653Y0050918D01*
X0032630Y0050843D01*
X0032613Y0050766D01*
X0032603Y0050689D01*
X0032599Y0050610D01*
X0032603Y0050531D01*
X0032613Y0050454D01*
X0032630Y0050377D01*
X0032653Y0050302D01*
X0032684Y0050229D01*
X0032720Y0050160D01*
X0032762Y0050093D01*
X0032810Y0050031D01*
X0032863Y0049973D01*
X0032921Y0049920D01*
X0032983Y0049872D01*
X0033050Y0049830D01*
X0033119Y0049794D01*
X0033192Y0049763D01*
X0033267Y0049740D01*
X0033344Y0049723D01*
X0033421Y0049713D01*
X0033500Y0049709D01*
X0033579Y0049713D01*
X0033656Y0049723D01*
X0033733Y0049740D01*
X0033808Y0049763D01*
X0033881Y0049794D01*
X0033950Y0049830D01*
X0034017Y0049872D01*
X0034079Y0049920D01*
X0034137Y0049973D01*
X0034190Y0050031D01*
X0034238Y0050093D01*
X0034280Y0050160D01*
X0034316Y0050229D01*
X0034347Y0050302D01*
X0034370Y0050377D01*
X0034387Y0050454D01*
X0034397Y0050531D01*
X0034401Y0050610D01*
X0034397Y0050689D01*
X0034387Y0050766D01*
X0034370Y0050843D01*
X0034347Y0050918D01*
X0034316Y0050991D01*
X0034280Y0051060D01*
X0034238Y0051127D01*
X0034190Y0051189D01*
X0034137Y0051247D01*
X0034079Y0051300D01*
X0034017Y0051348D01*
X0033950Y0051390D01*
X0033881Y0051426D01*
X0033808Y0051457D01*
X0033733Y0051480D01*
X0033656Y0051497D01*
X0033579Y0051507D01*
X0033500Y0051511D01*
D02*
G37*
G36*
X0036040Y0054051D02*
X0035961Y0054047D01*
X0035884Y0054037D01*
X0035807Y0054020D01*
X0035732Y0053997D01*
X0035659Y0053966D01*
X0035590Y0053930D01*
X0035523Y0053888D01*
X0035461Y0053840D01*
X0035403Y0053787D01*
X0035350Y0053729D01*
X0035302Y0053667D01*
X0035260Y0053600D01*
X0035224Y0053531D01*
X0035193Y0053458D01*
X0035170Y0053383D01*
X0035153Y0053306D01*
X0035143Y0053229D01*
X0035139Y0053150D01*
X0035143Y0053071D01*
X0035153Y0052994D01*
X0035170Y0052917D01*
X0035193Y0052842D01*
X0035224Y0052769D01*
X0035260Y0052700D01*
X0035302Y0052633D01*
X0035350Y0052571D01*
X0035403Y0052513D01*
X0035461Y0052460D01*
X0035523Y0052412D01*
X0035590Y0052370D01*
X0035659Y0052334D01*
X0035732Y0052303D01*
X0035789Y0052285D01*
Y0051475D01*
X0035732Y0051457D01*
X0035659Y0051426D01*
X0035590Y0051390D01*
X0035523Y0051348D01*
X0035461Y0051300D01*
X0035403Y0051247D01*
X0035350Y0051189D01*
X0035302Y0051127D01*
X0035260Y0051060D01*
X0035224Y0050991D01*
X0035193Y0050918D01*
X0035170Y0050843D01*
X0035153Y0050766D01*
X0035143Y0050689D01*
X0035139Y0050610D01*
X0035143Y0050531D01*
X0035153Y0050454D01*
X0035170Y0050377D01*
X0035193Y0050302D01*
X0035224Y0050229D01*
X0035260Y0050160D01*
X0035302Y0050093D01*
X0035350Y0050031D01*
X0035403Y0049973D01*
X0035461Y0049920D01*
X0035523Y0049872D01*
X0035590Y0049830D01*
X0035659Y0049794D01*
X0035732Y0049763D01*
X0035807Y0049740D01*
X0035884Y0049723D01*
X0035961Y0049713D01*
X0036040Y0049709D01*
X0036119Y0049713D01*
X0036196Y0049723D01*
X0036273Y0049740D01*
X0036348Y0049763D01*
X0036421Y0049794D01*
X0036490Y0049830D01*
X0036557Y0049872D01*
X0036619Y0049920D01*
X0036677Y0049973D01*
X0036730Y0050031D01*
X0036778Y0050093D01*
X0036820Y0050160D01*
X0036856Y0050229D01*
X0036887Y0050302D01*
X0036910Y0050377D01*
X0036927Y0050454D01*
X0036937Y0050531D01*
X0036941Y0050610D01*
X0036937Y0050689D01*
X0036927Y0050766D01*
X0036910Y0050843D01*
X0036887Y0050918D01*
X0036856Y0050991D01*
X0036820Y0051060D01*
X0036778Y0051127D01*
X0036730Y0051189D01*
X0036677Y0051247D01*
X0036619Y0051300D01*
X0036557Y0051348D01*
X0036490Y0051390D01*
X0036421Y0051426D01*
X0036348Y0051457D01*
X0036291Y0051475D01*
Y0052285D01*
X0036348Y0052303D01*
X0036421Y0052334D01*
X0036490Y0052370D01*
X0036557Y0052412D01*
X0036619Y0052460D01*
X0036677Y0052513D01*
X0036730Y0052571D01*
X0036778Y0052633D01*
X0036820Y0052700D01*
X0036856Y0052769D01*
X0036887Y0052842D01*
X0036910Y0052917D01*
X0036927Y0052994D01*
X0036937Y0053071D01*
X0036941Y0053150D01*
X0036937Y0053229D01*
X0036927Y0053306D01*
X0036910Y0053383D01*
X0036887Y0053458D01*
X0036856Y0053531D01*
X0036820Y0053600D01*
X0036778Y0053667D01*
X0036730Y0053729D01*
X0036677Y0053787D01*
X0036619Y0053840D01*
X0036557Y0053888D01*
X0036490Y0053930D01*
X0036421Y0053966D01*
X0036348Y0053997D01*
X0036273Y0054020D01*
X0036196Y0054037D01*
X0036119Y0054047D01*
X0036040Y0054051D01*
D02*
G37*
G36*
X0010181Y0050210D02*
X0009660D01*
Y0049689D01*
X0009685Y0049699D01*
X0009762Y0049740D01*
X0009836Y0049787D01*
X0009906Y0049840D01*
X0009971Y0049899D01*
X0010030Y0049964D01*
X0010083Y0050034D01*
X0010130Y0050108D01*
X0010171Y0050185D01*
X0010181Y0050210D01*
D02*
G37*
G36*
X0001640Y0051511D02*
X0001561Y0051507D01*
X0001484Y0051497D01*
X0001407Y0051480D01*
X0001332Y0051457D01*
X0001259Y0051426D01*
X0001190Y0051390D01*
X0001123Y0051348D01*
X0001061Y0051300D01*
X0001003Y0051247D01*
X0000950Y0051189D01*
X0000902Y0051127D01*
X0000860Y0051060D01*
X0000824Y0050991D01*
X0000793Y0050918D01*
X0000770Y0050843D01*
X0000753Y0050766D01*
X0000743Y0050689D01*
X0000739Y0050610D01*
X0000743Y0050531D01*
X0000753Y0050454D01*
X0000770Y0050377D01*
X0000793Y0050302D01*
X0000824Y0050229D01*
X0000860Y0050160D01*
X0000902Y0050093D01*
X0000950Y0050031D01*
X0001003Y0049973D01*
X0001061Y0049920D01*
X0001123Y0049872D01*
X0001190Y0049830D01*
X0001259Y0049794D01*
X0001332Y0049763D01*
X0001407Y0049740D01*
X0001484Y0049723D01*
X0001561Y0049713D01*
X0001640Y0049709D01*
X0001719Y0049713D01*
X0001796Y0049723D01*
X0001873Y0049740D01*
X0001948Y0049763D01*
X0002021Y0049794D01*
X0002090Y0049830D01*
X0002157Y0049872D01*
X0002219Y0049920D01*
X0002277Y0049973D01*
X0002330Y0050031D01*
X0002378Y0050093D01*
X0002420Y0050160D01*
X0002456Y0050229D01*
X0002487Y0050302D01*
X0002510Y0050377D01*
X0002527Y0050454D01*
X0002537Y0050531D01*
X0002541Y0050610D01*
X0002537Y0050689D01*
X0002527Y0050766D01*
X0002510Y0050843D01*
X0002487Y0050918D01*
X0002456Y0050991D01*
X0002420Y0051060D01*
X0002378Y0051127D01*
X0002330Y0051189D01*
X0002277Y0051247D01*
X0002219Y0051300D01*
X0002157Y0051348D01*
X0002090Y0051390D01*
X0002021Y0051426D01*
X0001948Y0051457D01*
X0001873Y0051480D01*
X0001796Y0051497D01*
X0001719Y0051507D01*
X0001640Y0051511D01*
D02*
G37*
G36*
X0016880Y0054051D02*
X0016801Y0054047D01*
X0016724Y0054037D01*
X0016647Y0054020D01*
X0016572Y0053997D01*
X0016499Y0053966D01*
X0016430Y0053930D01*
X0016363Y0053888D01*
X0016301Y0053840D01*
X0016243Y0053787D01*
X0016190Y0053729D01*
X0016142Y0053667D01*
X0016100Y0053600D01*
X0016064Y0053531D01*
X0016033Y0053458D01*
X0016010Y0053383D01*
X0015993Y0053306D01*
X0015983Y0053229D01*
X0015979Y0053150D01*
X0015983Y0053071D01*
X0015993Y0052994D01*
X0016010Y0052917D01*
X0016033Y0052842D01*
X0016064Y0052769D01*
X0016100Y0052700D01*
X0016142Y0052633D01*
X0016190Y0052571D01*
X0016243Y0052513D01*
X0016301Y0052460D01*
X0016363Y0052412D01*
X0016430Y0052370D01*
X0016499Y0052334D01*
X0016572Y0052303D01*
X0016629Y0052285D01*
Y0051475D01*
X0016572Y0051457D01*
X0016499Y0051426D01*
X0016430Y0051390D01*
X0016363Y0051348D01*
X0016301Y0051300D01*
X0016243Y0051247D01*
X0016190Y0051189D01*
X0016142Y0051127D01*
X0016100Y0051060D01*
X0016064Y0050991D01*
X0016033Y0050918D01*
X0016010Y0050843D01*
X0015993Y0050766D01*
X0015983Y0050689D01*
X0015979Y0050610D01*
X0015983Y0050531D01*
X0015993Y0050454D01*
X0016010Y0050377D01*
X0016033Y0050302D01*
X0016064Y0050229D01*
X0016100Y0050160D01*
X0016142Y0050093D01*
X0016190Y0050031D01*
X0016243Y0049973D01*
X0016301Y0049920D01*
X0016363Y0049872D01*
X0016430Y0049830D01*
X0016499Y0049794D01*
X0016572Y0049763D01*
X0016629Y0049745D01*
Y0048174D01*
X0016632Y0048135D01*
X0016642Y0048096D01*
X0016657Y0048060D01*
X0016677Y0048026D01*
X0016703Y0047996D01*
X0017106Y0047593D01*
X0017103Y0047550D01*
X0017106Y0047498D01*
X0017117Y0047446D01*
X0017133Y0047397D01*
X0017157Y0047350D01*
X0017186Y0047306D01*
X0017220Y0047267D01*
X0017260Y0047232D01*
X0017303Y0047203D01*
X0017350Y0047180D01*
X0017400Y0047163D01*
X0017451Y0047153D01*
X0017504Y0047149D01*
X0017556Y0047153D01*
X0017608Y0047163D01*
X0017657Y0047180D01*
X0017704Y0047203D01*
X0017748Y0047232D01*
X0017787Y0047267D01*
X0017822Y0047306D01*
X0017851Y0047350D01*
X0017874Y0047397D01*
X0017891Y0047446D01*
X0017901Y0047498D01*
X0017905Y0047550D01*
X0017901Y0047602D01*
X0017891Y0047654D01*
X0017874Y0047703D01*
X0017851Y0047750D01*
X0017822Y0047794D01*
X0017787Y0047833D01*
X0017748Y0047868D01*
X0017704Y0047897D01*
X0017657Y0047920D01*
X0017608Y0047937D01*
X0017556Y0047947D01*
X0017504Y0047951D01*
X0017460Y0047948D01*
X0017131Y0048278D01*
Y0049745D01*
X0017188Y0049763D01*
X0017261Y0049794D01*
X0017330Y0049830D01*
X0017397Y0049872D01*
X0017459Y0049920D01*
X0017517Y0049973D01*
X0017570Y0050031D01*
X0017618Y0050093D01*
X0017660Y0050160D01*
X0017696Y0050229D01*
X0017727Y0050302D01*
X0017750Y0050377D01*
X0017767Y0050454D01*
X0017777Y0050531D01*
X0017781Y0050610D01*
X0017777Y0050689D01*
X0017767Y0050766D01*
X0017750Y0050843D01*
X0017727Y0050918D01*
X0017696Y0050991D01*
X0017660Y0051060D01*
X0017618Y0051127D01*
X0017570Y0051189D01*
X0017517Y0051247D01*
X0017459Y0051300D01*
X0017397Y0051348D01*
X0017330Y0051390D01*
X0017261Y0051426D01*
X0017188Y0051457D01*
X0017131Y0051475D01*
Y0052285D01*
X0017188Y0052303D01*
X0017261Y0052334D01*
X0017330Y0052370D01*
X0017397Y0052412D01*
X0017459Y0052460D01*
X0017517Y0052513D01*
X0017570Y0052571D01*
X0017618Y0052633D01*
X0017660Y0052700D01*
X0017696Y0052769D01*
X0017727Y0052842D01*
X0017750Y0052917D01*
X0017767Y0052994D01*
X0017777Y0053071D01*
X0017781Y0053150D01*
X0017777Y0053229D01*
X0017767Y0053306D01*
X0017750Y0053383D01*
X0017727Y0053458D01*
X0017696Y0053531D01*
X0017660Y0053600D01*
X0017618Y0053667D01*
X0017570Y0053729D01*
X0017517Y0053787D01*
X0017459Y0053840D01*
X0017397Y0053888D01*
X0017330Y0053930D01*
X0017261Y0053966D01*
X0017188Y0053997D01*
X0017113Y0054020D01*
X0017036Y0054037D01*
X0016959Y0054047D01*
X0016880Y0054051D01*
D02*
G37*
G36*
X0008860Y0050210D02*
X0008339D01*
X0008349Y0050185D01*
X0008390Y0050108D01*
X0008437Y0050034D01*
X0008490Y0049964D01*
X0008549Y0049899D01*
X0008614Y0049840D01*
X0008684Y0049787D01*
X0008758Y0049740D01*
X0008835Y0049699D01*
X0008860Y0049689D01*
Y0050210D01*
D02*
G37*
G36*
X0011800Y0054051D02*
X0011721Y0054047D01*
X0011644Y0054037D01*
X0011567Y0054020D01*
X0011492Y0053997D01*
X0011419Y0053966D01*
X0011350Y0053930D01*
X0011283Y0053888D01*
X0011221Y0053840D01*
X0011163Y0053787D01*
X0011110Y0053729D01*
X0011062Y0053667D01*
X0011020Y0053600D01*
X0010984Y0053531D01*
X0010953Y0053458D01*
X0010930Y0053383D01*
X0010913Y0053306D01*
X0010903Y0053229D01*
X0010899Y0053150D01*
X0010903Y0053071D01*
X0010913Y0052994D01*
X0010930Y0052917D01*
X0010953Y0052842D01*
X0010984Y0052769D01*
X0011020Y0052700D01*
X0011062Y0052633D01*
X0011110Y0052571D01*
X0011163Y0052513D01*
X0011221Y0052460D01*
X0011283Y0052412D01*
X0011350Y0052370D01*
X0011419Y0052334D01*
X0011492Y0052303D01*
X0011549Y0052285D01*
Y0051475D01*
X0011492Y0051457D01*
X0011419Y0051426D01*
X0011350Y0051390D01*
X0011283Y0051348D01*
X0011221Y0051300D01*
X0011163Y0051247D01*
X0011110Y0051189D01*
X0011062Y0051127D01*
X0011020Y0051060D01*
X0010984Y0050991D01*
X0010953Y0050918D01*
X0010930Y0050843D01*
X0010913Y0050766D01*
X0010903Y0050689D01*
X0010899Y0050610D01*
X0010903Y0050531D01*
X0010913Y0050454D01*
X0010930Y0050377D01*
X0010953Y0050302D01*
X0010984Y0050229D01*
X0011020Y0050160D01*
X0011062Y0050093D01*
X0011110Y0050031D01*
X0011163Y0049973D01*
X0011221Y0049920D01*
X0011283Y0049872D01*
X0011350Y0049830D01*
X0011419Y0049794D01*
X0011492Y0049763D01*
X0011567Y0049740D01*
X0011644Y0049723D01*
X0011721Y0049713D01*
X0011800Y0049709D01*
X0011879Y0049713D01*
X0011956Y0049723D01*
X0012033Y0049740D01*
X0012108Y0049763D01*
X0012181Y0049794D01*
X0012250Y0049830D01*
X0012317Y0049872D01*
X0012379Y0049920D01*
X0012437Y0049973D01*
X0012490Y0050031D01*
X0012538Y0050093D01*
X0012580Y0050160D01*
X0012616Y0050229D01*
X0012647Y0050302D01*
X0012670Y0050377D01*
X0012687Y0050454D01*
X0012697Y0050531D01*
X0012701Y0050610D01*
X0012697Y0050689D01*
X0012687Y0050766D01*
X0012670Y0050843D01*
X0012647Y0050918D01*
X0012616Y0050991D01*
X0012580Y0051060D01*
X0012538Y0051127D01*
X0012490Y0051189D01*
X0012437Y0051247D01*
X0012379Y0051300D01*
X0012317Y0051348D01*
X0012250Y0051390D01*
X0012181Y0051426D01*
X0012108Y0051457D01*
X0012051Y0051475D01*
Y0052285D01*
X0012108Y0052303D01*
X0012181Y0052334D01*
X0012250Y0052370D01*
X0012317Y0052412D01*
X0012379Y0052460D01*
X0012437Y0052513D01*
X0012490Y0052571D01*
X0012538Y0052633D01*
X0012580Y0052700D01*
X0012616Y0052769D01*
X0012647Y0052842D01*
X0012670Y0052917D01*
X0012687Y0052994D01*
X0012697Y0053071D01*
X0012701Y0053150D01*
X0012697Y0053229D01*
X0012687Y0053306D01*
X0012670Y0053383D01*
X0012647Y0053458D01*
X0012616Y0053531D01*
X0012580Y0053600D01*
X0012538Y0053667D01*
X0012490Y0053729D01*
X0012437Y0053787D01*
X0012379Y0053840D01*
X0012317Y0053888D01*
X0012250Y0053930D01*
X0012181Y0053966D01*
X0012108Y0053997D01*
X0012033Y0054020D01*
X0011956Y0054037D01*
X0011879Y0054047D01*
X0011800Y0054051D01*
D02*
G37*
G36*
X0014340D02*
X0014261Y0054047D01*
X0014184Y0054037D01*
X0014107Y0054020D01*
X0014032Y0053997D01*
X0013959Y0053966D01*
X0013890Y0053930D01*
X0013823Y0053888D01*
X0013761Y0053840D01*
X0013703Y0053787D01*
X0013650Y0053729D01*
X0013602Y0053667D01*
X0013560Y0053600D01*
X0013524Y0053531D01*
X0013493Y0053458D01*
X0013470Y0053383D01*
X0013453Y0053306D01*
X0013443Y0053229D01*
X0013439Y0053150D01*
X0013443Y0053071D01*
X0013453Y0052994D01*
X0013470Y0052917D01*
X0013493Y0052842D01*
X0013524Y0052769D01*
X0013560Y0052700D01*
X0013602Y0052633D01*
X0013650Y0052571D01*
X0013703Y0052513D01*
X0013761Y0052460D01*
X0013823Y0052412D01*
X0013890Y0052370D01*
X0013959Y0052334D01*
X0014032Y0052303D01*
X0014089Y0052285D01*
Y0051475D01*
X0014032Y0051457D01*
X0013959Y0051426D01*
X0013890Y0051390D01*
X0013823Y0051348D01*
X0013761Y0051300D01*
X0013703Y0051247D01*
X0013650Y0051189D01*
X0013602Y0051127D01*
X0013560Y0051060D01*
X0013524Y0050991D01*
X0013493Y0050918D01*
X0013470Y0050843D01*
X0013453Y0050766D01*
X0013443Y0050689D01*
X0013439Y0050610D01*
X0013443Y0050531D01*
X0013453Y0050454D01*
X0013470Y0050377D01*
X0013493Y0050302D01*
X0013524Y0050229D01*
X0013560Y0050160D01*
X0013602Y0050093D01*
X0013650Y0050031D01*
X0013703Y0049973D01*
X0013761Y0049920D01*
X0013823Y0049872D01*
X0013890Y0049830D01*
X0013959Y0049794D01*
X0014032Y0049763D01*
X0014107Y0049740D01*
X0014184Y0049723D01*
X0014261Y0049713D01*
X0014340Y0049709D01*
X0014419Y0049713D01*
X0014496Y0049723D01*
X0014573Y0049740D01*
X0014648Y0049763D01*
X0014721Y0049794D01*
X0014790Y0049830D01*
X0014857Y0049872D01*
X0014919Y0049920D01*
X0014977Y0049973D01*
X0015030Y0050031D01*
X0015078Y0050093D01*
X0015120Y0050160D01*
X0015156Y0050229D01*
X0015187Y0050302D01*
X0015210Y0050377D01*
X0015227Y0050454D01*
X0015237Y0050531D01*
X0015241Y0050610D01*
X0015237Y0050689D01*
X0015227Y0050766D01*
X0015210Y0050843D01*
X0015187Y0050918D01*
X0015156Y0050991D01*
X0015120Y0051060D01*
X0015078Y0051127D01*
X0015030Y0051189D01*
X0014977Y0051247D01*
X0014919Y0051300D01*
X0014857Y0051348D01*
X0014790Y0051390D01*
X0014721Y0051426D01*
X0014648Y0051457D01*
X0014591Y0051475D01*
Y0052285D01*
X0014648Y0052303D01*
X0014721Y0052334D01*
X0014790Y0052370D01*
X0014857Y0052412D01*
X0014919Y0052460D01*
X0014977Y0052513D01*
X0015030Y0052571D01*
X0015078Y0052633D01*
X0015120Y0052700D01*
X0015156Y0052769D01*
X0015187Y0052842D01*
X0015210Y0052917D01*
X0015227Y0052994D01*
X0015237Y0053071D01*
X0015241Y0053150D01*
X0015237Y0053229D01*
X0015227Y0053306D01*
X0015210Y0053383D01*
X0015187Y0053458D01*
X0015156Y0053531D01*
X0015120Y0053600D01*
X0015078Y0053667D01*
X0015030Y0053729D01*
X0014977Y0053787D01*
X0014919Y0053840D01*
X0014857Y0053888D01*
X0014790Y0053930D01*
X0014721Y0053966D01*
X0014648Y0053997D01*
X0014573Y0054020D01*
X0014496Y0054037D01*
X0014419Y0054047D01*
X0014340Y0054051D01*
D02*
G37*
G36*
X0004180Y0051511D02*
X0004101Y0051507D01*
X0004024Y0051497D01*
X0003947Y0051480D01*
X0003872Y0051457D01*
X0003799Y0051426D01*
X0003730Y0051390D01*
X0003663Y0051348D01*
X0003601Y0051300D01*
X0003543Y0051247D01*
X0003490Y0051189D01*
X0003442Y0051127D01*
X0003400Y0051060D01*
X0003364Y0050991D01*
X0003333Y0050918D01*
X0003310Y0050843D01*
X0003293Y0050766D01*
X0003283Y0050689D01*
X0003279Y0050610D01*
X0003283Y0050531D01*
X0003293Y0050454D01*
X0003310Y0050377D01*
X0003333Y0050302D01*
X0003364Y0050229D01*
X0003400Y0050160D01*
X0003442Y0050093D01*
X0003490Y0050031D01*
X0003543Y0049973D01*
X0003601Y0049920D01*
X0003663Y0049872D01*
X0003730Y0049830D01*
X0003799Y0049794D01*
X0003872Y0049763D01*
X0003947Y0049740D01*
X0004024Y0049723D01*
X0004101Y0049713D01*
X0004180Y0049709D01*
X0004259Y0049713D01*
X0004336Y0049723D01*
X0004413Y0049740D01*
X0004488Y0049763D01*
X0004561Y0049794D01*
X0004630Y0049830D01*
X0004697Y0049872D01*
X0004759Y0049920D01*
X0004817Y0049973D01*
X0004870Y0050031D01*
X0004918Y0050093D01*
X0004960Y0050160D01*
X0004996Y0050229D01*
X0005027Y0050302D01*
X0005050Y0050377D01*
X0005067Y0050454D01*
X0005077Y0050531D01*
X0005081Y0050610D01*
X0005077Y0050689D01*
X0005067Y0050766D01*
X0005050Y0050843D01*
X0005027Y0050918D01*
X0004996Y0050991D01*
X0004960Y0051060D01*
X0004918Y0051127D01*
X0004870Y0051189D01*
X0004817Y0051247D01*
X0004759Y0051300D01*
X0004697Y0051348D01*
X0004630Y0051390D01*
X0004561Y0051426D01*
X0004488Y0051457D01*
X0004413Y0051480D01*
X0004336Y0051497D01*
X0004259Y0051507D01*
X0004180Y0051511D01*
D02*
G37*
G36*
X0006720D02*
X0006641Y0051507D01*
X0006564Y0051497D01*
X0006487Y0051480D01*
X0006412Y0051457D01*
X0006339Y0051426D01*
X0006270Y0051390D01*
X0006203Y0051348D01*
X0006141Y0051300D01*
X0006083Y0051247D01*
X0006030Y0051189D01*
X0005982Y0051127D01*
X0005940Y0051060D01*
X0005904Y0050991D01*
X0005873Y0050918D01*
X0005850Y0050843D01*
X0005833Y0050766D01*
X0005823Y0050689D01*
X0005819Y0050610D01*
X0005823Y0050531D01*
X0005833Y0050454D01*
X0005850Y0050377D01*
X0005873Y0050302D01*
X0005904Y0050229D01*
X0005940Y0050160D01*
X0005982Y0050093D01*
X0006030Y0050031D01*
X0006083Y0049973D01*
X0006141Y0049920D01*
X0006203Y0049872D01*
X0006270Y0049830D01*
X0006339Y0049794D01*
X0006412Y0049763D01*
X0006487Y0049740D01*
X0006564Y0049723D01*
X0006641Y0049713D01*
X0006720Y0049709D01*
X0006799Y0049713D01*
X0006876Y0049723D01*
X0006953Y0049740D01*
X0007028Y0049763D01*
X0007101Y0049794D01*
X0007170Y0049830D01*
X0007237Y0049872D01*
X0007299Y0049920D01*
X0007357Y0049973D01*
X0007410Y0050031D01*
X0007458Y0050093D01*
X0007500Y0050160D01*
X0007536Y0050229D01*
X0007567Y0050302D01*
X0007590Y0050377D01*
X0007607Y0050454D01*
X0007617Y0050531D01*
X0007621Y0050610D01*
X0007617Y0050689D01*
X0007607Y0050766D01*
X0007590Y0050843D01*
X0007567Y0050918D01*
X0007536Y0050991D01*
X0007500Y0051060D01*
X0007458Y0051127D01*
X0007410Y0051189D01*
X0007357Y0051247D01*
X0007299Y0051300D01*
X0007237Y0051348D01*
X0007170Y0051390D01*
X0007101Y0051426D01*
X0007028Y0051457D01*
X0006953Y0051480D01*
X0006876Y0051497D01*
X0006799Y0051507D01*
X0006720Y0051511D01*
D02*
G37*
G36*
X0043660D02*
X0043581Y0051507D01*
X0043504Y0051497D01*
X0043427Y0051480D01*
X0043352Y0051457D01*
X0043279Y0051426D01*
X0043210Y0051390D01*
X0043143Y0051348D01*
X0043081Y0051300D01*
X0043023Y0051247D01*
X0042970Y0051189D01*
X0042922Y0051127D01*
X0042880Y0051060D01*
X0042844Y0050991D01*
X0042813Y0050918D01*
X0042790Y0050843D01*
X0042773Y0050766D01*
X0042763Y0050689D01*
X0042759Y0050610D01*
X0042763Y0050531D01*
X0042773Y0050454D01*
X0042790Y0050377D01*
X0042813Y0050302D01*
X0042844Y0050229D01*
X0042880Y0050160D01*
X0042922Y0050093D01*
X0042970Y0050031D01*
X0043023Y0049973D01*
X0043081Y0049920D01*
X0043143Y0049872D01*
X0043210Y0049830D01*
X0043279Y0049794D01*
X0043352Y0049763D01*
X0043427Y0049740D01*
X0043504Y0049723D01*
X0043581Y0049713D01*
X0043660Y0049709D01*
X0043739Y0049713D01*
X0043816Y0049723D01*
X0043893Y0049740D01*
X0043968Y0049763D01*
X0044041Y0049794D01*
X0044110Y0049830D01*
X0044177Y0049872D01*
X0044239Y0049920D01*
X0044297Y0049973D01*
X0044350Y0050031D01*
X0044398Y0050093D01*
X0044440Y0050160D01*
X0044476Y0050229D01*
X0044507Y0050302D01*
X0044530Y0050377D01*
X0044547Y0050454D01*
X0044557Y0050531D01*
X0044561Y0050610D01*
X0044557Y0050689D01*
X0044547Y0050766D01*
X0044530Y0050843D01*
X0044507Y0050918D01*
X0044476Y0050991D01*
X0044440Y0051060D01*
X0044398Y0051127D01*
X0044350Y0051189D01*
X0044297Y0051247D01*
X0044239Y0051300D01*
X0044177Y0051348D01*
X0044110Y0051390D01*
X0044041Y0051426D01*
X0043968Y0051457D01*
X0043893Y0051480D01*
X0043816Y0051497D01*
X0043739Y0051507D01*
X0043660Y0051511D01*
D02*
G37*
G36*
X0038580Y0054051D02*
X0038501Y0054047D01*
X0038424Y0054037D01*
X0038347Y0054020D01*
X0038272Y0053997D01*
X0038199Y0053966D01*
X0038130Y0053930D01*
X0038063Y0053888D01*
X0038001Y0053840D01*
X0037943Y0053787D01*
X0037890Y0053729D01*
X0037842Y0053667D01*
X0037800Y0053600D01*
X0037764Y0053531D01*
X0037733Y0053458D01*
X0037710Y0053383D01*
X0037693Y0053306D01*
X0037683Y0053229D01*
X0037679Y0053150D01*
X0037683Y0053071D01*
X0037693Y0052994D01*
X0037710Y0052917D01*
X0037733Y0052842D01*
X0037764Y0052769D01*
X0037800Y0052700D01*
X0037842Y0052633D01*
X0037890Y0052571D01*
X0037943Y0052513D01*
X0038001Y0052460D01*
X0038063Y0052412D01*
X0038130Y0052370D01*
X0038199Y0052334D01*
X0038272Y0052303D01*
X0038347Y0052280D01*
X0038424Y0052263D01*
X0038501Y0052253D01*
X0038580Y0052249D01*
X0038659Y0052253D01*
X0038736Y0052263D01*
X0038813Y0052280D01*
X0038888Y0052303D01*
X0038961Y0052334D01*
X0039030Y0052370D01*
X0039097Y0052412D01*
X0039159Y0052460D01*
X0039217Y0052513D01*
X0039270Y0052571D01*
X0039318Y0052633D01*
X0039360Y0052700D01*
X0039396Y0052769D01*
X0039427Y0052842D01*
X0039450Y0052917D01*
X0039467Y0052994D01*
X0039477Y0053071D01*
X0039481Y0053150D01*
X0039477Y0053229D01*
X0039467Y0053306D01*
X0039450Y0053383D01*
X0039427Y0053458D01*
X0039396Y0053531D01*
X0039360Y0053600D01*
X0039318Y0053667D01*
X0039270Y0053729D01*
X0039217Y0053787D01*
X0039159Y0053840D01*
X0039097Y0053888D01*
X0039030Y0053930D01*
X0038961Y0053966D01*
X0038888Y0053997D01*
X0038813Y0054020D01*
X0038736Y0054037D01*
X0038659Y0054047D01*
X0038580Y0054051D01*
D02*
G37*
G36*
X0043660D02*
X0043581Y0054047D01*
X0043504Y0054037D01*
X0043427Y0054020D01*
X0043352Y0053997D01*
X0043279Y0053966D01*
X0043210Y0053930D01*
X0043143Y0053888D01*
X0043081Y0053840D01*
X0043023Y0053787D01*
X0042970Y0053729D01*
X0042922Y0053667D01*
X0042880Y0053600D01*
X0042844Y0053531D01*
X0042813Y0053458D01*
X0042790Y0053383D01*
X0042773Y0053306D01*
X0042763Y0053229D01*
X0042759Y0053150D01*
X0042763Y0053071D01*
X0042773Y0052994D01*
X0042790Y0052917D01*
X0042813Y0052842D01*
X0042844Y0052769D01*
X0042880Y0052700D01*
X0042922Y0052633D01*
X0042970Y0052571D01*
X0043023Y0052513D01*
X0043081Y0052460D01*
X0043143Y0052412D01*
X0043210Y0052370D01*
X0043279Y0052334D01*
X0043352Y0052303D01*
X0043427Y0052280D01*
X0043504Y0052263D01*
X0043581Y0052253D01*
X0043660Y0052249D01*
X0043739Y0052253D01*
X0043816Y0052263D01*
X0043893Y0052280D01*
X0043968Y0052303D01*
X0044041Y0052334D01*
X0044110Y0052370D01*
X0044177Y0052412D01*
X0044239Y0052460D01*
X0044297Y0052513D01*
X0044350Y0052571D01*
X0044398Y0052633D01*
X0044440Y0052700D01*
X0044476Y0052769D01*
X0044507Y0052842D01*
X0044530Y0052917D01*
X0044547Y0052994D01*
X0044557Y0053071D01*
X0044561Y0053150D01*
X0044557Y0053229D01*
X0044547Y0053306D01*
X0044530Y0053383D01*
X0044507Y0053458D01*
X0044476Y0053531D01*
X0044440Y0053600D01*
X0044398Y0053667D01*
X0044350Y0053729D01*
X0044297Y0053787D01*
X0044239Y0053840D01*
X0044177Y0053888D01*
X0044110Y0053930D01*
X0044041Y0053966D01*
X0043968Y0053997D01*
X0043893Y0054020D01*
X0043816Y0054037D01*
X0043739Y0054047D01*
X0043660Y0054051D01*
D02*
G37*
G36*
X0028420D02*
X0028341Y0054047D01*
X0028264Y0054037D01*
X0028187Y0054020D01*
X0028112Y0053997D01*
X0028039Y0053966D01*
X0027970Y0053930D01*
X0027903Y0053888D01*
X0027841Y0053840D01*
X0027783Y0053787D01*
X0027730Y0053729D01*
X0027682Y0053667D01*
X0027640Y0053600D01*
X0027604Y0053531D01*
X0027573Y0053458D01*
X0027550Y0053383D01*
X0027533Y0053306D01*
X0027523Y0053229D01*
X0027519Y0053150D01*
X0027523Y0053071D01*
X0027533Y0052994D01*
X0027550Y0052917D01*
X0027573Y0052842D01*
X0027604Y0052769D01*
X0027640Y0052700D01*
X0027682Y0052633D01*
X0027730Y0052571D01*
X0027783Y0052513D01*
X0027841Y0052460D01*
X0027903Y0052412D01*
X0027970Y0052370D01*
X0028039Y0052334D01*
X0028112Y0052303D01*
X0028187Y0052280D01*
X0028264Y0052263D01*
X0028341Y0052253D01*
X0028420Y0052249D01*
X0028499Y0052253D01*
X0028576Y0052263D01*
X0028653Y0052280D01*
X0028728Y0052303D01*
X0028801Y0052334D01*
X0028870Y0052370D01*
X0028937Y0052412D01*
X0028999Y0052460D01*
X0029057Y0052513D01*
X0029110Y0052571D01*
X0029158Y0052633D01*
X0029200Y0052700D01*
X0029236Y0052769D01*
X0029267Y0052842D01*
X0029290Y0052917D01*
X0029307Y0052994D01*
X0029317Y0053071D01*
X0029321Y0053150D01*
X0029317Y0053229D01*
X0029307Y0053306D01*
X0029290Y0053383D01*
X0029267Y0053458D01*
X0029236Y0053531D01*
X0029200Y0053600D01*
X0029158Y0053667D01*
X0029110Y0053729D01*
X0029057Y0053787D01*
X0028999Y0053840D01*
X0028937Y0053888D01*
X0028870Y0053930D01*
X0028801Y0053966D01*
X0028728Y0053997D01*
X0028653Y0054020D01*
X0028576Y0054037D01*
X0028499Y0054047D01*
X0028420Y0054051D01*
D02*
G37*
G36*
X0033500D02*
X0033421Y0054047D01*
X0033344Y0054037D01*
X0033267Y0054020D01*
X0033192Y0053997D01*
X0033119Y0053966D01*
X0033050Y0053930D01*
X0032983Y0053888D01*
X0032921Y0053840D01*
X0032863Y0053787D01*
X0032810Y0053729D01*
X0032762Y0053667D01*
X0032720Y0053600D01*
X0032684Y0053531D01*
X0032653Y0053458D01*
X0032630Y0053383D01*
X0032613Y0053306D01*
X0032603Y0053229D01*
X0032599Y0053150D01*
X0032603Y0053071D01*
X0032613Y0052994D01*
X0032630Y0052917D01*
X0032653Y0052842D01*
X0032684Y0052769D01*
X0032720Y0052700D01*
X0032762Y0052633D01*
X0032810Y0052571D01*
X0032863Y0052513D01*
X0032921Y0052460D01*
X0032983Y0052412D01*
X0033050Y0052370D01*
X0033119Y0052334D01*
X0033192Y0052303D01*
X0033267Y0052280D01*
X0033344Y0052263D01*
X0033421Y0052253D01*
X0033500Y0052249D01*
X0033579Y0052253D01*
X0033656Y0052263D01*
X0033733Y0052280D01*
X0033808Y0052303D01*
X0033881Y0052334D01*
X0033950Y0052370D01*
X0034017Y0052412D01*
X0034079Y0052460D01*
X0034137Y0052513D01*
X0034190Y0052571D01*
X0034238Y0052633D01*
X0034280Y0052700D01*
X0034316Y0052769D01*
X0034347Y0052842D01*
X0034370Y0052917D01*
X0034387Y0052994D01*
X0034397Y0053071D01*
X0034401Y0053150D01*
X0034397Y0053229D01*
X0034387Y0053306D01*
X0034370Y0053383D01*
X0034347Y0053458D01*
X0034316Y0053531D01*
X0034280Y0053600D01*
X0034238Y0053667D01*
X0034190Y0053729D01*
X0034137Y0053787D01*
X0034079Y0053840D01*
X0034017Y0053888D01*
X0033950Y0053930D01*
X0033881Y0053966D01*
X0033808Y0053997D01*
X0033733Y0054020D01*
X0033656Y0054037D01*
X0033579Y0054047D01*
X0033500Y0054051D01*
D02*
G37*
G36*
X0008860Y0054071D02*
X0008835Y0054061D01*
X0008758Y0054020D01*
X0008684Y0053973D01*
X0008614Y0053920D01*
X0008549Y0053861D01*
X0008490Y0053796D01*
X0008437Y0053726D01*
X0008390Y0053652D01*
X0008349Y0053575D01*
X0008339Y0053550D01*
X0008860D01*
Y0054071D01*
D02*
G37*
G36*
X0009660Y0054071D02*
Y0053550D01*
X0010181D01*
X0010171Y0053575D01*
X0010130Y0053652D01*
X0010083Y0053726D01*
X0010030Y0053796D01*
X0009971Y0053861D01*
X0009906Y0053920D01*
X0009836Y0053973D01*
X0009762Y0054020D01*
X0009685Y0054061D01*
X0009660Y0054071D01*
D02*
G37*
G36*
X0025250Y0054051D02*
X0023750D01*
X0023721Y0054048D01*
X0023692Y0054039D01*
X0023666Y0054025D01*
X0023643Y0054007D01*
X0023625Y0053984D01*
X0023611Y0053958D01*
X0023602Y0053929D01*
X0023599Y0053900D01*
Y0052400D01*
X0023602Y0052371D01*
X0023611Y0052342D01*
X0023625Y0052316D01*
X0023643Y0052293D01*
X0023666Y0052275D01*
X0023692Y0052261D01*
X0023721Y0052252D01*
X0023750Y0052249D01*
X0025250D01*
X0025279Y0052252D01*
X0025308Y0052261D01*
X0025334Y0052275D01*
X0025357Y0052293D01*
X0025375Y0052316D01*
X0025389Y0052342D01*
X0025398Y0052371D01*
X0025401Y0052400D01*
Y0053900D01*
X0025398Y0053929D01*
X0025389Y0053958D01*
X0025375Y0053984D01*
X0025357Y0054007D01*
X0025334Y0054025D01*
X0025308Y0054039D01*
X0025279Y0054048D01*
X0025250Y0054051D01*
D02*
G37*
G36*
X0046950D02*
X0045450D01*
X0045421Y0054048D01*
X0045392Y0054039D01*
X0045366Y0054025D01*
X0045343Y0054007D01*
X0045325Y0053984D01*
X0045311Y0053958D01*
X0045302Y0053929D01*
X0045299Y0053900D01*
Y0052400D01*
X0045302Y0052371D01*
X0045311Y0052342D01*
X0045325Y0052316D01*
X0045343Y0052293D01*
X0045366Y0052275D01*
X0045392Y0052261D01*
X0045421Y0052252D01*
X0045450Y0052249D01*
X0046950D01*
X0046979Y0052252D01*
X0047008Y0052261D01*
X0047034Y0052275D01*
X0047057Y0052293D01*
X0047075Y0052316D01*
X0047089Y0052342D01*
X0047098Y0052371D01*
X0047101Y0052400D01*
Y0053900D01*
X0047098Y0053929D01*
X0047089Y0053958D01*
X0047075Y0053984D01*
X0047057Y0054007D01*
X0047034Y0054025D01*
X0047008Y0054039D01*
X0046979Y0054048D01*
X0046950Y0054051D01*
D02*
G37*
G36*
X0009660Y0051531D02*
Y0051010D01*
X0010181D01*
X0010171Y0051035D01*
X0010130Y0051112D01*
X0010083Y0051186D01*
X0010030Y0051256D01*
X0009971Y0051321D01*
X0009906Y0051380D01*
X0009836Y0051433D01*
X0009762Y0051480D01*
X0009685Y0051521D01*
X0009660Y0051531D01*
D02*
G37*
G36*
X0008860Y0052750D02*
X0008339D01*
X0008349Y0052725D01*
X0008390Y0052648D01*
X0008437Y0052574D01*
X0008490Y0052504D01*
X0008549Y0052439D01*
X0008614Y0052380D01*
X0008684Y0052327D01*
X0008758Y0052280D01*
X0008835Y0052239D01*
X0008860Y0052229D01*
Y0052750D01*
D02*
G37*
G36*
X0046950Y0051511D02*
X0045450D01*
X0045421Y0051508D01*
X0045392Y0051499D01*
X0045366Y0051485D01*
X0045343Y0051467D01*
X0045325Y0051444D01*
X0045311Y0051418D01*
X0045302Y0051389D01*
X0045299Y0051360D01*
Y0049860D01*
X0045302Y0049831D01*
X0045311Y0049802D01*
X0045325Y0049776D01*
X0045343Y0049753D01*
X0045366Y0049735D01*
X0045392Y0049721D01*
X0045421Y0049712D01*
X0045450Y0049709D01*
X0046950D01*
X0046979Y0049712D01*
X0047008Y0049721D01*
X0047034Y0049735D01*
X0047057Y0049753D01*
X0047075Y0049776D01*
X0047089Y0049802D01*
X0047098Y0049831D01*
X0047101Y0049860D01*
Y0051360D01*
X0047098Y0051389D01*
X0047089Y0051418D01*
X0047075Y0051444D01*
X0047057Y0051467D01*
X0047034Y0051485D01*
X0047008Y0051499D01*
X0046979Y0051508D01*
X0046950Y0051511D01*
D02*
G37*
G36*
X0008860Y0051531D02*
X0008835Y0051521D01*
X0008758Y0051480D01*
X0008684Y0051433D01*
X0008614Y0051380D01*
X0008549Y0051321D01*
X0008490Y0051256D01*
X0008437Y0051186D01*
X0008390Y0051112D01*
X0008349Y0051035D01*
X0008339Y0051010D01*
X0008860D01*
Y0051531D01*
D02*
G37*
G36*
X0004180Y0054051D02*
X0004101Y0054047D01*
X0004024Y0054037D01*
X0003947Y0054020D01*
X0003872Y0053997D01*
X0003799Y0053966D01*
X0003730Y0053930D01*
X0003663Y0053888D01*
X0003601Y0053840D01*
X0003543Y0053787D01*
X0003490Y0053729D01*
X0003442Y0053667D01*
X0003400Y0053600D01*
X0003364Y0053531D01*
X0003333Y0053458D01*
X0003310Y0053383D01*
X0003293Y0053306D01*
X0003283Y0053229D01*
X0003279Y0053150D01*
X0003283Y0053071D01*
X0003293Y0052994D01*
X0003310Y0052917D01*
X0003333Y0052842D01*
X0003364Y0052769D01*
X0003400Y0052700D01*
X0003442Y0052633D01*
X0003490Y0052571D01*
X0003543Y0052513D01*
X0003601Y0052460D01*
X0003663Y0052412D01*
X0003730Y0052370D01*
X0003799Y0052334D01*
X0003872Y0052303D01*
X0003947Y0052280D01*
X0004024Y0052263D01*
X0004101Y0052253D01*
X0004180Y0052249D01*
X0004259Y0052253D01*
X0004336Y0052263D01*
X0004413Y0052280D01*
X0004488Y0052303D01*
X0004561Y0052334D01*
X0004630Y0052370D01*
X0004697Y0052412D01*
X0004759Y0052460D01*
X0004817Y0052513D01*
X0004870Y0052571D01*
X0004918Y0052633D01*
X0004960Y0052700D01*
X0004996Y0052769D01*
X0005027Y0052842D01*
X0005050Y0052917D01*
X0005067Y0052994D01*
X0005077Y0053071D01*
X0005081Y0053150D01*
X0005077Y0053229D01*
X0005067Y0053306D01*
X0005050Y0053383D01*
X0005027Y0053458D01*
X0004996Y0053531D01*
X0004960Y0053600D01*
X0004918Y0053667D01*
X0004870Y0053729D01*
X0004817Y0053787D01*
X0004759Y0053840D01*
X0004697Y0053888D01*
X0004630Y0053930D01*
X0004561Y0053966D01*
X0004488Y0053997D01*
X0004413Y0054020D01*
X0004336Y0054037D01*
X0004259Y0054047D01*
X0004180Y0054051D01*
D02*
G37*
G36*
X0006720D02*
X0006641Y0054047D01*
X0006564Y0054037D01*
X0006487Y0054020D01*
X0006412Y0053997D01*
X0006339Y0053966D01*
X0006270Y0053930D01*
X0006203Y0053888D01*
X0006141Y0053840D01*
X0006083Y0053787D01*
X0006030Y0053729D01*
X0005982Y0053667D01*
X0005940Y0053600D01*
X0005904Y0053531D01*
X0005873Y0053458D01*
X0005850Y0053383D01*
X0005833Y0053306D01*
X0005823Y0053229D01*
X0005819Y0053150D01*
X0005823Y0053071D01*
X0005833Y0052994D01*
X0005850Y0052917D01*
X0005873Y0052842D01*
X0005904Y0052769D01*
X0005940Y0052700D01*
X0005982Y0052633D01*
X0006030Y0052571D01*
X0006083Y0052513D01*
X0006141Y0052460D01*
X0006203Y0052412D01*
X0006270Y0052370D01*
X0006339Y0052334D01*
X0006412Y0052303D01*
X0006487Y0052280D01*
X0006564Y0052263D01*
X0006641Y0052253D01*
X0006720Y0052249D01*
X0006799Y0052253D01*
X0006876Y0052263D01*
X0006953Y0052280D01*
X0007028Y0052303D01*
X0007101Y0052334D01*
X0007170Y0052370D01*
X0007237Y0052412D01*
X0007299Y0052460D01*
X0007357Y0052513D01*
X0007410Y0052571D01*
X0007458Y0052633D01*
X0007500Y0052700D01*
X0007536Y0052769D01*
X0007567Y0052842D01*
X0007590Y0052917D01*
X0007607Y0052994D01*
X0007617Y0053071D01*
X0007621Y0053150D01*
X0007617Y0053229D01*
X0007607Y0053306D01*
X0007590Y0053383D01*
X0007567Y0053458D01*
X0007536Y0053531D01*
X0007500Y0053600D01*
X0007458Y0053667D01*
X0007410Y0053729D01*
X0007357Y0053787D01*
X0007299Y0053840D01*
X0007237Y0053888D01*
X0007170Y0053930D01*
X0007101Y0053966D01*
X0007028Y0053997D01*
X0006953Y0054020D01*
X0006876Y0054037D01*
X0006799Y0054047D01*
X0006720Y0054051D01*
D02*
G37*
G36*
X0010181Y0052750D02*
X0009660D01*
Y0052229D01*
X0009685Y0052239D01*
X0009762Y0052280D01*
X0009836Y0052327D01*
X0009906Y0052380D01*
X0009971Y0052439D01*
X0010030Y0052504D01*
X0010083Y0052574D01*
X0010130Y0052648D01*
X0010171Y0052725D01*
X0010181Y0052750D01*
D02*
G37*
G36*
X0001640Y0054051D02*
X0001561Y0054047D01*
X0001484Y0054037D01*
X0001407Y0054020D01*
X0001332Y0053997D01*
X0001259Y0053966D01*
X0001190Y0053930D01*
X0001123Y0053888D01*
X0001061Y0053840D01*
X0001003Y0053787D01*
X0000950Y0053729D01*
X0000902Y0053667D01*
X0000860Y0053600D01*
X0000824Y0053531D01*
X0000793Y0053458D01*
X0000770Y0053383D01*
X0000753Y0053306D01*
X0000743Y0053229D01*
X0000739Y0053150D01*
X0000743Y0053071D01*
X0000753Y0052994D01*
X0000770Y0052917D01*
X0000793Y0052842D01*
X0000824Y0052769D01*
X0000860Y0052700D01*
X0000902Y0052633D01*
X0000950Y0052571D01*
X0001003Y0052513D01*
X0001061Y0052460D01*
X0001123Y0052412D01*
X0001190Y0052370D01*
X0001259Y0052334D01*
X0001332Y0052303D01*
X0001407Y0052280D01*
X0001484Y0052263D01*
X0001561Y0052253D01*
X0001640Y0052249D01*
X0001719Y0052253D01*
X0001796Y0052263D01*
X0001873Y0052280D01*
X0001948Y0052303D01*
X0002021Y0052334D01*
X0002090Y0052370D01*
X0002157Y0052412D01*
X0002219Y0052460D01*
X0002277Y0052513D01*
X0002330Y0052571D01*
X0002378Y0052633D01*
X0002420Y0052700D01*
X0002456Y0052769D01*
X0002487Y0052842D01*
X0002510Y0052917D01*
X0002527Y0052994D01*
X0002537Y0053071D01*
X0002541Y0053150D01*
X0002537Y0053229D01*
X0002527Y0053306D01*
X0002510Y0053383D01*
X0002487Y0053458D01*
X0002456Y0053531D01*
X0002420Y0053600D01*
X0002378Y0053667D01*
X0002330Y0053729D01*
X0002277Y0053787D01*
X0002219Y0053840D01*
X0002157Y0053888D01*
X0002090Y0053930D01*
X0002021Y0053966D01*
X0001948Y0053997D01*
X0001873Y0054020D01*
X0001796Y0054037D01*
X0001719Y0054047D01*
X0001640Y0054051D01*
D02*
G37*
G36*
X0025250Y0051511D02*
X0023750D01*
X0023721Y0051508D01*
X0023692Y0051499D01*
X0023666Y0051485D01*
X0023643Y0051467D01*
X0023625Y0051444D01*
X0023611Y0051418D01*
X0023602Y0051389D01*
X0023599Y0051360D01*
Y0049860D01*
X0023602Y0049831D01*
X0023611Y0049802D01*
X0023625Y0049776D01*
X0023643Y0049753D01*
X0023666Y0049735D01*
X0023692Y0049721D01*
X0023721Y0049712D01*
X0023750Y0049709D01*
X0024249D01*
Y0049176D01*
X0024175D01*
X0024146Y0049173D01*
X0024117Y0049164D01*
X0024091Y0049150D01*
X0024068Y0049132D01*
X0024050Y0049109D01*
X0024036Y0049083D01*
X0024027Y0049054D01*
X0024024Y0049025D01*
Y0048375D01*
X0024027Y0048346D01*
X0024036Y0048317D01*
X0024050Y0048291D01*
X0024068Y0048268D01*
X0024091Y0048250D01*
X0024112Y0048239D01*
X0024117Y0048206D01*
Y0048094D01*
X0024112Y0048061D01*
X0024091Y0048050D01*
X0024068Y0048032D01*
X0024050Y0048009D01*
X0024036Y0047983D01*
X0024027Y0047954D01*
X0024024Y0047925D01*
Y0047275D01*
X0024027Y0047246D01*
X0024036Y0047217D01*
X0024050Y0047191D01*
X0024068Y0047168D01*
X0024091Y0047150D01*
X0024117Y0047136D01*
X0024146Y0047127D01*
X0024175Y0047124D01*
X0024199D01*
Y0043225D01*
X0023964Y0042989D01*
X0023938Y0042987D01*
X0023886Y0042977D01*
X0023837Y0042960D01*
X0023790Y0042937D01*
X0023746Y0042908D01*
X0023707Y0042873D01*
X0023672Y0042834D01*
X0023643Y0042790D01*
X0023620Y0042743D01*
X0023603Y0042694D01*
X0023593Y0042642D01*
X0023589Y0042590D01*
X0023593Y0042538D01*
X0023603Y0042486D01*
X0023620Y0042437D01*
X0023643Y0042390D01*
X0023672Y0042346D01*
X0023707Y0042307D01*
X0023746Y0042272D01*
X0023790Y0042243D01*
X0023837Y0042220D01*
X0023886Y0042203D01*
X0023938Y0042193D01*
X0023990Y0042189D01*
X0024042Y0042193D01*
X0024094Y0042203D01*
X0024143Y0042220D01*
X0024190Y0042243D01*
X0024234Y0042272D01*
X0024273Y0042307D01*
X0024308Y0042346D01*
X0024337Y0042390D01*
X0024360Y0042437D01*
X0024377Y0042486D01*
X0024387Y0042538D01*
X0024389Y0042564D01*
X0024713Y0042887D01*
X0024743Y0042923D01*
X0024768Y0042963D01*
X0024786Y0043007D01*
X0024797Y0043053D01*
X0024801Y0043100D01*
Y0047124D01*
X0024825D01*
X0024854Y0047127D01*
X0024883Y0047136D01*
X0024909Y0047150D01*
X0024932Y0047168D01*
X0024950Y0047191D01*
X0024964Y0047217D01*
X0024973Y0047246D01*
X0024976Y0047275D01*
Y0047925D01*
X0024973Y0047954D01*
X0024964Y0047983D01*
X0024950Y0048009D01*
X0024932Y0048032D01*
X0024909Y0048050D01*
X0024888Y0048061D01*
X0024883Y0048094D01*
Y0048206D01*
X0024888Y0048239D01*
X0024909Y0048250D01*
X0024932Y0048268D01*
X0024950Y0048291D01*
X0024964Y0048317D01*
X0024973Y0048346D01*
X0024976Y0048375D01*
Y0049025D01*
X0024973Y0049054D01*
X0024964Y0049083D01*
X0024950Y0049109D01*
X0024932Y0049132D01*
X0024909Y0049150D01*
X0024883Y0049164D01*
X0024854Y0049173D01*
X0024825Y0049176D01*
X0024751D01*
Y0049709D01*
X0025250D01*
X0025279Y0049712D01*
X0025308Y0049721D01*
X0025334Y0049735D01*
X0025357Y0049753D01*
X0025375Y0049776D01*
X0025389Y0049802D01*
X0025398Y0049831D01*
X0025401Y0049860D01*
Y0051360D01*
X0025398Y0051389D01*
X0025389Y0051418D01*
X0025375Y0051444D01*
X0025357Y0051467D01*
X0025334Y0051485D01*
X0025308Y0051499D01*
X0025279Y0051508D01*
X0025250Y0051511D01*
D02*
G37*
G36*
X0076450Y0026275D02*
X0076350D01*
Y0026150D01*
X0076450D01*
Y0026275D01*
D02*
G37*
G36*
X0056580Y0027675D02*
X0055875D01*
X0055725Y0027525D01*
Y0027200D01*
X0055420D01*
Y0027075D01*
X0055423Y0027035D01*
X0055433Y0026996D01*
X0055448Y0026959D01*
X0055469Y0026925D01*
X0055495Y0026895D01*
X0055525Y0026869D01*
X0055559Y0026848D01*
X0055596Y0026833D01*
X0055635Y0026823D01*
X0055675Y0026820D01*
X0055800D01*
Y0027400D01*
X0056000D01*
Y0027600D01*
X0056580D01*
Y0027675D01*
D02*
G37*
G36*
X0077030Y0025950D02*
X0076650D01*
Y0025570D01*
X0076775D01*
X0076815Y0025573D01*
X0076854Y0025583D01*
X0076891Y0025598D01*
X0076925Y0025619D01*
X0076955Y0025645D01*
X0076981Y0025675D01*
X0077002Y0025709D01*
X0077017Y0025746D01*
X0077027Y0025785D01*
X0077030Y0025825D01*
Y0025950D01*
D02*
G37*
G36*
X0073350Y0032180D02*
X0073225D01*
X0073185Y0032177D01*
X0073146Y0032167D01*
X0073109Y0032152D01*
X0073075Y0032131D01*
X0073045Y0032105D01*
X0073019Y0032075D01*
X0072998Y0032041D01*
X0072983Y0032004D01*
X0072973Y0031965D01*
X0072970Y0031925D01*
Y0031800D01*
X0073350D01*
Y0032180D01*
D02*
G37*
G36*
X0068775D02*
X0068650D01*
Y0031800D01*
X0069030D01*
Y0031925D01*
X0069027Y0031965D01*
X0069017Y0032004D01*
X0069002Y0032041D01*
X0068981Y0032075D01*
X0068955Y0032105D01*
X0068925Y0032131D01*
X0068891Y0032152D01*
X0068854Y0032167D01*
X0068815Y0032177D01*
X0068775Y0032180D01*
D02*
G37*
G36*
X0056580Y0027200D02*
X0056200D01*
Y0026820D01*
X0056325D01*
X0056365Y0026823D01*
X0056404Y0026833D01*
X0056441Y0026848D01*
X0056475Y0026869D01*
X0056505Y0026895D01*
X0056531Y0026925D01*
X0056552Y0026959D01*
X0056567Y0026996D01*
X0056577Y0027035D01*
X0056580Y0027075D01*
Y0027200D01*
D02*
G37*
G36*
X0081480Y0028375D02*
X0081100D01*
Y0027995D01*
X0081225D01*
X0081265Y0027998D01*
X0081304Y0028008D01*
X0081341Y0028023D01*
X0081375Y0028044D01*
X0081405Y0028070D01*
X0081431Y0028100D01*
X0081452Y0028134D01*
X0081467Y0028171D01*
X0081477Y0028210D01*
X0081480Y0028250D01*
Y0028375D01*
D02*
G37*
G36*
X0080700D02*
X0080320D01*
Y0028250D01*
X0080323Y0028210D01*
X0080333Y0028171D01*
X0080348Y0028134D01*
X0080369Y0028100D01*
X0080395Y0028070D01*
X0080425Y0028044D01*
X0080459Y0028023D01*
X0080496Y0028008D01*
X0080535Y0027998D01*
X0080575Y0027995D01*
X0080700D01*
Y0028375D01*
D02*
G37*
G36*
X0083700D02*
X0083320D01*
Y0028250D01*
X0083323Y0028210D01*
X0083333Y0028171D01*
X0083348Y0028134D01*
X0083369Y0028100D01*
X0083395Y0028070D01*
X0083425Y0028044D01*
X0083459Y0028023D01*
X0083496Y0028008D01*
X0083535Y0027998D01*
X0083575Y0027995D01*
X0083700D01*
Y0028375D01*
D02*
G37*
G36*
X0065250Y0028125D02*
X0064700D01*
Y0027870D01*
X0064825D01*
X0064865Y0027873D01*
X0064904Y0027883D01*
X0064941Y0027898D01*
X0064975Y0027919D01*
X0064975Y0027919D01*
X0064975Y0027919D01*
X0065009Y0027898D01*
X0065046Y0027883D01*
X0065085Y0027873D01*
X0065125Y0027870D01*
X0065250D01*
Y0028125D01*
D02*
G37*
G36*
X0066030D02*
X0065650D01*
Y0027870D01*
X0065775D01*
X0065815Y0027873D01*
X0065854Y0027883D01*
X0065891Y0027898D01*
X0065925Y0027919D01*
X0065955Y0027945D01*
X0065981Y0027975D01*
X0066002Y0028009D01*
X0066017Y0028046D01*
X0066027Y0028085D01*
X0066030Y0028125D01*
D02*
G37*
G36*
X0026500Y0017605D02*
X0026250D01*
Y0017100D01*
X0026755D01*
Y0017350D01*
X0026752Y0017390D01*
X0026742Y0017429D01*
X0026727Y0017466D01*
X0026706Y0017500D01*
X0026680Y0017530D01*
X0026650Y0017556D01*
X0026616Y0017577D01*
X0026579Y0017592D01*
X0026540Y0017602D01*
X0026500Y0017605D01*
D02*
G37*
G36*
X0063800Y0036325D02*
X0060825D01*
X0060750Y0036250D01*
Y0034100D01*
X0058912D01*
X0058871Y0034156D01*
X0058838Y0034275D01*
X0058843Y0034281D01*
X0058872Y0034325D01*
X0058895Y0034372D01*
X0058912Y0034421D01*
X0058922Y0034473D01*
X0058926Y0034525D01*
X0058924Y0034547D01*
X0058950Y0034574D01*
X0058979Y0034577D01*
X0059008Y0034586D01*
X0059034Y0034600D01*
X0059057Y0034618D01*
X0059075Y0034641D01*
X0059089Y0034667D01*
X0059098Y0034696D01*
X0059101Y0034725D01*
Y0035475D01*
X0059098Y0035504D01*
X0059089Y0035533D01*
X0059075Y0035559D01*
X0059057Y0035582D01*
X0059034Y0035600D01*
X0059008Y0035614D01*
X0058979Y0035623D01*
X0058950Y0035626D01*
X0058100D01*
X0058018Y0035742D01*
X0058000Y0035784D01*
Y0036300D01*
X0054750Y0036300D01*
X0054750Y0035300D01*
X0055199D01*
X0055374Y0035300D01*
Y0034476D01*
X0053725Y0034476D01*
X0053725Y0034476D01*
X0052325D01*
X0052296Y0034473D01*
X0052267Y0034464D01*
X0052241Y0034450D01*
X0052218Y0034432D01*
X0051493Y0033707D01*
X0051475Y0033684D01*
X0051461Y0033658D01*
X0051452Y0033629D01*
X0051449Y0033600D01*
Y0031621D01*
X0050829Y0031001D01*
X0033200D01*
X0033171Y0030998D01*
X0033142Y0030989D01*
X0033116Y0030975D01*
X0033093Y0030957D01*
X0022793Y0020657D01*
X0022775Y0020634D01*
X0022761Y0020608D01*
X0022752Y0020579D01*
X0022749Y0020550D01*
Y0019313D01*
X0022750Y0019308D01*
X0022750Y0019303D01*
X0022750Y0019300D01*
X0022750Y0019297D01*
X0022750Y0019292D01*
X0022749Y0019287D01*
Y0018000D01*
Y0013650D01*
X0022752Y0013621D01*
X0022761Y0013592D01*
X0022775Y0013566D01*
X0022793Y0013543D01*
X0022816Y0013525D01*
X0022842Y0013511D01*
X0022871Y0013502D01*
X0022900Y0013499D01*
X0025000D01*
X0025029Y0013502D01*
X0025058Y0013511D01*
X0025084Y0013525D01*
X0025107Y0013543D01*
X0025125Y0013566D01*
X0025139Y0013592D01*
X0025148Y0013621D01*
X0025151Y0013650D01*
Y0018750D01*
Y0018838D01*
X0034612Y0028299D01*
X0050838D01*
X0051736Y0027401D01*
X0051759Y0027382D01*
X0051785Y0027368D01*
X0051813Y0027360D01*
X0051843Y0027357D01*
X0055093D01*
X0055123Y0027360D01*
X0055151Y0027368D01*
X0055177Y0027382D01*
X0055200Y0027401D01*
X0055749Y0027950D01*
X0056750D01*
Y0027725D01*
X0056725Y0027700D01*
X0056753Y0027703D01*
X0056764Y0027657D01*
X0056782Y0027613D01*
X0056807Y0027573D01*
X0056837Y0027537D01*
X0056873Y0027507D01*
X0056913Y0027482D01*
X0056957Y0027464D01*
X0057003Y0027453D01*
X0057038Y0027450D01*
X0057150D01*
Y0026205D01*
X0057149Y0026204D01*
Y0025712D01*
X0057117Y0025683D01*
X0057082Y0025644D01*
X0057053Y0025600D01*
X0057030Y0025553D01*
X0057013Y0025504D01*
X0057003Y0025452D01*
X0056999Y0025400D01*
X0057003Y0025348D01*
X0057013Y0025296D01*
X0057030Y0025247D01*
X0057053Y0025200D01*
X0057082Y0025156D01*
X0057117Y0025117D01*
X0057156Y0025082D01*
X0057200Y0025053D01*
X0057247Y0025030D01*
X0057296Y0025013D01*
X0057348Y0025003D01*
X0057400Y0024999D01*
X0057452Y0025003D01*
X0057504Y0025013D01*
X0057553Y0025030D01*
X0057600Y0025053D01*
X0057644Y0025082D01*
X0057683Y0025117D01*
X0057718Y0025156D01*
X0057747Y0025200D01*
X0057770Y0025247D01*
X0057787Y0025296D01*
X0057797Y0025348D01*
X0057801Y0025400D01*
X0057797Y0025452D01*
X0057787Y0025504D01*
X0057770Y0025553D01*
X0057747Y0025600D01*
X0057718Y0025644D01*
X0057683Y0025683D01*
X0057651Y0025712D01*
Y0025908D01*
X0057667Y0025933D01*
X0057723Y0025974D01*
X0057826Y0026020D01*
X0057846Y0026013D01*
X0057898Y0026003D01*
X0057970Y0025979D01*
X0058029Y0025920D01*
X0058053Y0025848D01*
X0058063Y0025796D01*
X0058080Y0025747D01*
X0058103Y0025700D01*
X0058132Y0025656D01*
X0058167Y0025617D01*
X0058206Y0025582D01*
X0058250Y0025553D01*
X0058297Y0025530D01*
X0058346Y0025513D01*
X0058398Y0025503D01*
X0058450Y0025499D01*
X0058502Y0025503D01*
X0058554Y0025513D01*
X0058603Y0025530D01*
X0058650Y0025553D01*
X0058694Y0025582D01*
X0058733Y0025617D01*
X0058768Y0025656D01*
X0058797Y0025700D01*
X0058820Y0025747D01*
X0058837Y0025796D01*
X0058847Y0025848D01*
X0058851Y0025900D01*
X0058847Y0025952D01*
X0058837Y0026004D01*
X0058820Y0026053D01*
X0058797Y0026100D01*
X0058768Y0026144D01*
X0058778Y0026220D01*
X0058916Y0026278D01*
X0058971Y0026274D01*
X0059049Y0026196D01*
Y0025193D01*
X0059052Y0025154D01*
X0059062Y0025115D01*
X0059077Y0025079D01*
X0059097Y0025045D01*
X0059123Y0025016D01*
X0059416Y0024723D01*
X0059445Y0024697D01*
X0059479Y0024677D01*
X0059515Y0024662D01*
X0059554Y0024652D01*
X0059593Y0024649D01*
X0061538D01*
X0061567Y0024617D01*
X0061606Y0024582D01*
X0061650Y0024553D01*
X0061697Y0024530D01*
X0061746Y0024513D01*
X0061798Y0024503D01*
X0061850Y0024499D01*
X0061902Y0024503D01*
X0061954Y0024513D01*
X0062003Y0024530D01*
X0062050Y0024553D01*
X0062094Y0024582D01*
X0062133Y0024617D01*
X0062168Y0024656D01*
X0062197Y0024700D01*
X0062220Y0024747D01*
X0062237Y0024796D01*
X0062247Y0024848D01*
X0062251Y0024900D01*
X0062247Y0024952D01*
X0062237Y0025004D01*
X0062220Y0025053D01*
X0062197Y0025100D01*
X0062168Y0025144D01*
X0062133Y0025183D01*
X0062094Y0025218D01*
X0062050Y0025247D01*
X0062003Y0025270D01*
X0061954Y0025287D01*
X0061902Y0025297D01*
X0061850Y0025301D01*
X0061798Y0025297D01*
X0061746Y0025287D01*
X0061697Y0025270D01*
X0061650Y0025247D01*
X0061606Y0025218D01*
X0061567Y0025183D01*
X0061538Y0025151D01*
X0060851D01*
X0060779Y0025326D01*
X0061684Y0026231D01*
X0061710Y0026261D01*
X0061731Y0026295D01*
X0061746Y0026331D01*
X0061755Y0026369D01*
X0061758Y0026409D01*
Y0027775D01*
X0061483Y0028050D01*
X0060100D01*
Y0028400D01*
X0061635D01*
X0062162Y0027873D01*
X0063975Y0027873D01*
Y0027873D01*
X0063975D01*
Y0028975D01*
X0065898D01*
X0066227Y0028649D01*
X0075179D01*
X0075203Y0028678D01*
X0075223Y0028711D01*
X0075239Y0028748D01*
X0075248Y0028786D01*
X0075251Y0028825D01*
Y0029225D01*
X0075248Y0029264D01*
X0075239Y0029302D01*
X0075223Y0029339D01*
X0075203Y0029372D01*
X0075178Y0029401D01*
X0073972D01*
X0073971Y0029401D01*
X0066631D01*
X0066282Y0029749D01*
X0066282Y0029750D01*
X0066268Y0029764D01*
Y0029925D01*
X0075153D01*
X0075177Y0029948D01*
X0075203Y0029978D01*
X0075203Y0029978D01*
X0075223Y0030011D01*
X0075223Y0030011D01*
X0075238Y0030047D01*
X0075239Y0030048D01*
X0075241Y0030060D01*
X0075248Y0030086D01*
X0075251Y0030125D01*
Y0030525D01*
X0075248Y0030564D01*
X0075239Y0030602D01*
X0075223Y0030639D01*
X0075203Y0030672D01*
X0075177Y0030702D01*
X0075147Y0030728D01*
X0075114Y0030748D01*
X0075077Y0030764D01*
X0075039Y0030773D01*
X0075000Y0030776D01*
X0074379D01*
X0074354Y0030798D01*
X0074313Y0030825D01*
X0074269Y0030847D01*
X0074222Y0030863D01*
X0074174Y0030873D01*
X0074153Y0030874D01*
Y0031072D01*
X0074150Y0031075D01*
Y0031075D01*
X0068075D01*
Y0032025D01*
X0065825D01*
Y0031075D01*
X0064975D01*
Y0032075D01*
X0062351D01*
Y0034665D01*
X0062294Y0034659D01*
X0062258Y0034664D01*
X0062258Y0034664D01*
X0062246Y0034668D01*
X0062229Y0034673D01*
X0062200Y0034676D01*
X0061550D01*
X0061550Y0034676D01*
X0061468Y0034792D01*
X0061450Y0034834D01*
Y0035325D01*
X0063800D01*
Y0036325D01*
D02*
G37*
G36*
X0025850Y0017605D02*
X0025600D01*
X0025560Y0017602D01*
X0025521Y0017592D01*
X0025484Y0017577D01*
X0025450Y0017556D01*
X0025420Y0017530D01*
X0025394Y0017500D01*
X0025373Y0017466D01*
X0025358Y0017429D01*
X0025348Y0017390D01*
X0025345Y0017350D01*
Y0017100D01*
X0025850D01*
Y0017605D01*
D02*
G37*
G36*
X0059875Y0037126D02*
X0059823Y0037122D01*
X0059771Y0037112D01*
X0059722Y0037095D01*
X0059675Y0037072D01*
X0059631Y0037043D01*
X0059592Y0037008D01*
X0059557Y0036969D01*
X0059528Y0036925D01*
X0059505Y0036878D01*
X0059488Y0036829D01*
X0059478Y0036777D01*
X0059474Y0036725D01*
X0059476Y0036703D01*
X0059450Y0036676D01*
X0059421Y0036673D01*
X0059392Y0036664D01*
X0059366Y0036650D01*
X0059343Y0036632D01*
X0059325Y0036609D01*
X0059311Y0036583D01*
X0059302Y0036554D01*
X0059299Y0036525D01*
Y0035775D01*
X0059302Y0035746D01*
X0059311Y0035717D01*
X0059325Y0035691D01*
X0059343Y0035668D01*
X0059366Y0035650D01*
X0059392Y0035636D01*
X0059421Y0035627D01*
X0059450Y0035624D01*
X0060300D01*
X0060329Y0035627D01*
X0060358Y0035636D01*
X0060384Y0035650D01*
X0060407Y0035668D01*
X0060425Y0035691D01*
X0060439Y0035717D01*
X0060448Y0035746D01*
X0060451Y0035775D01*
Y0036525D01*
X0060448Y0036554D01*
X0060439Y0036583D01*
X0060425Y0036609D01*
X0060407Y0036632D01*
X0060384Y0036650D01*
X0060358Y0036664D01*
X0060329Y0036673D01*
X0060300Y0036676D01*
X0060274Y0036703D01*
X0060276Y0036725D01*
X0060272Y0036777D01*
X0060262Y0036829D01*
X0060245Y0036878D01*
X0060222Y0036925D01*
X0060193Y0036969D01*
X0060158Y0037008D01*
X0060119Y0037043D01*
X0060075Y0037072D01*
X0060028Y0037095D01*
X0059979Y0037112D01*
X0059927Y0037122D01*
X0059875Y0037126D01*
D02*
G37*
G36*
X0063300Y0034780D02*
X0063175D01*
Y0034400D01*
X0063555D01*
Y0034525D01*
X0063552Y0034565D01*
X0063542Y0034604D01*
X0063527Y0034641D01*
X0063506Y0034675D01*
X0063480Y0034705D01*
X0063450Y0034731D01*
X0063416Y0034752D01*
X0063379Y0034767D01*
X0063340Y0034777D01*
X0063300Y0034780D01*
D02*
G37*
G36*
X0063555Y0034000D02*
X0063175D01*
Y0033620D01*
X0063300D01*
X0063340Y0033623D01*
X0063379Y0033633D01*
X0063416Y0033648D01*
X0063450Y0033669D01*
X0063480Y0033695D01*
X0063506Y0033725D01*
X0063527Y0033759D01*
X0063542Y0033796D01*
X0063552Y0033835D01*
X0063555Y0033875D01*
Y0034000D01*
D02*
G37*
G36*
X0063925Y0033280D02*
X0063800D01*
Y0032900D01*
X0064180D01*
Y0033025D01*
X0064177Y0033065D01*
X0064167Y0033104D01*
X0064152Y0033141D01*
X0064131Y0033175D01*
X0064105Y0033205D01*
X0064075Y0033231D01*
X0064041Y0033252D01*
X0064004Y0033267D01*
X0063965Y0033277D01*
X0063925Y0033280D01*
D02*
G37*
G36*
X0061550Y0020901D02*
X0061498Y0020897D01*
X0061446Y0020887D01*
X0061397Y0020870D01*
X0061350Y0020847D01*
X0061306Y0020818D01*
X0061267Y0020783D01*
X0061232Y0020744D01*
X0061203Y0020700D01*
X0061180Y0020653D01*
X0061163Y0020604D01*
X0061153Y0020552D01*
X0061149Y0020500D01*
X0061153Y0020448D01*
X0061163Y0020396D01*
X0061180Y0020347D01*
X0061203Y0020300D01*
X0061232Y0020256D01*
X0061267Y0020217D01*
X0061306Y0020182D01*
X0061350Y0020153D01*
X0061397Y0020130D01*
X0061446Y0020113D01*
X0061498Y0020103D01*
X0061550Y0020099D01*
X0061602Y0020103D01*
X0061654Y0020113D01*
X0061703Y0020130D01*
X0061750Y0020153D01*
X0061794Y0020182D01*
X0061833Y0020217D01*
X0061868Y0020256D01*
X0061897Y0020300D01*
X0061920Y0020347D01*
X0061937Y0020396D01*
X0061947Y0020448D01*
X0061951Y0020500D01*
X0061947Y0020552D01*
X0061937Y0020604D01*
X0061920Y0020653D01*
X0061897Y0020700D01*
X0061868Y0020744D01*
X0061833Y0020783D01*
X0061794Y0020818D01*
X0061750Y0020847D01*
X0061703Y0020870D01*
X0061654Y0020887D01*
X0061602Y0020897D01*
X0061550Y0020901D01*
D02*
G37*
G36*
X0073875Y0032180D02*
X0073750D01*
Y0031800D01*
X0074130D01*
Y0031925D01*
X0074127Y0031965D01*
X0074117Y0032004D01*
X0074102Y0032041D01*
X0074081Y0032075D01*
X0074055Y0032105D01*
X0074025Y0032131D01*
X0073991Y0032152D01*
X0073954Y0032167D01*
X0073915Y0032177D01*
X0073875Y0032180D01*
D02*
G37*
G36*
X0076775Y0033780D02*
X0076650D01*
Y0033400D01*
X0077030D01*
Y0033525D01*
X0077027Y0033565D01*
X0077017Y0033604D01*
X0077002Y0033641D01*
X0076981Y0033675D01*
X0076955Y0033705D01*
X0076925Y0033731D01*
X0076891Y0033752D01*
X0076854Y0033767D01*
X0076815Y0033777D01*
X0076775Y0033780D01*
D02*
G37*
G36*
X0063400Y0033280D02*
X0063275D01*
X0063235Y0033277D01*
X0063196Y0033267D01*
X0063159Y0033252D01*
X0063150Y0033246D01*
X0063141Y0033252D01*
X0063104Y0033267D01*
X0063065Y0033277D01*
X0063025Y0033280D01*
Y0032900D01*
X0063400D01*
Y0033280D01*
D02*
G37*
%LPD*%
G36*
X0022300Y0011900D02*
X0020450D01*
Y0013250D01*
X0019550D01*
X0019450Y0013150D01*
Y0004600D01*
X0018850Y0004000D01*
X0017400D01*
X0016850Y0004550D01*
Y0015150D01*
X0020450D01*
Y0017350D01*
X0022300D01*
Y0011900D01*
D02*
G37*
G36*
X0022400Y0008000D02*
X0021700D01*
Y0009650D01*
X0022400D01*
Y0008000D01*
D02*
G37*
G36*
X0021350Y0004890D02*
X0019950D01*
Y0008700D01*
X0021350D01*
Y0004890D01*
D02*
G37*
G36*
X0025000Y0010100D02*
Y0010050D01*
X0021700D01*
Y0010750D01*
X0022900D01*
Y0012800D01*
X0025000D01*
Y0010100D01*
D02*
G37*
G36*
X0062200Y0034525D02*
X0062200Y0032250D01*
X0060600Y0030650D01*
X0060300D01*
X0060300Y0031100D01*
X0061550Y0032350D01*
X0061550Y0034525D01*
X0062200Y0034525D01*
D02*
G37*
G36*
X0056780Y0031745D02*
X0056950Y0031575D01*
Y0031575D01*
X0057550Y0030975D01*
X0057550Y0030250D01*
X0056900D01*
Y0030500D01*
X0056400Y0031000D01*
X0053750D01*
X0053750Y0032350D01*
X0055850Y0032350D01*
Y0032350D01*
X0056175D01*
X0056780Y0031745D01*
D02*
G37*
G36*
X0056775Y0035000D02*
X0056775Y0033025D01*
D01*
Y0032675D01*
X0053700Y0032675D01*
X0053500Y0032475D01*
X0053500Y0029050D01*
X0053650Y0028900D01*
X0057300D01*
Y0028600D01*
X0057000D01*
X0056950Y0028550D01*
Y0028450D01*
X0057000Y0028400D01*
X0057300D01*
Y0028100D01*
X0055700D01*
X0055687Y0028087D01*
X0055665Y0028075D01*
X0055642Y0028057D01*
X0055093Y0027507D01*
X0051843D01*
X0050900Y0028450D01*
X0034550D01*
X0025000Y0018900D01*
Y0018000D01*
Y0013650D01*
X0022900D01*
Y0018000D01*
Y0019287D01*
X0022901Y0019300D01*
X0022900Y0019313D01*
Y0020550D01*
X0033200Y0030850D01*
X0050892D01*
X0051600Y0031558D01*
Y0033600D01*
X0052325Y0034325D01*
X0053725D01*
Y0034325D01*
X0055525Y0034325D01*
Y0035300D01*
X0056475D01*
X0056775Y0035000D01*
D02*
G37*
G36*
X0064825Y0031275D02*
X0062350D01*
X0061500Y0030425D01*
Y0030250D01*
X0060775D01*
Y0030375D01*
X0060800Y0030400D01*
Y0030625D01*
X0062100Y0031925D01*
X0064825D01*
Y0031275D01*
D02*
G37*
G36*
X0055350Y0030025D02*
X0055575Y0029800D01*
X0056350D01*
X0056725Y0029425D01*
X0057575D01*
X0057650Y0029350D01*
Y0029150D01*
X0057575Y0029075D01*
X0053750D01*
Y0030650D01*
X0055350D01*
Y0030025D01*
D02*
G37*
G36*
X0062775Y0030175D02*
X0062200D01*
X0061625Y0029600D01*
X0061150D01*
Y0029900D01*
X0061425D01*
X0062125Y0030600D01*
Y0030825D01*
X0062775D01*
Y0030175D01*
D02*
G37*
G36*
X0058300Y0031850D02*
X0058300Y0031550D01*
X0058600Y0031250D01*
X0058600Y0029900D01*
X0058300D01*
Y0029575D01*
X0056800D01*
X0056425Y0029950D01*
X0055650D01*
Y0030650D01*
X0056525D01*
X0056750Y0030425D01*
Y0030125D01*
X0056925Y0029950D01*
X0058250D01*
X0058250Y0031275D01*
X0058075Y0031450D01*
X0057300D01*
X0057125Y0031625D01*
Y0031825D01*
X0057275Y0031975D01*
X0058175D01*
X0058300Y0031850D01*
D02*
G37*
G36*
X0060600Y0031840D02*
X0060600Y0031625D01*
X0060440Y0031465D01*
X0060315Y0031465D01*
X0060150Y0031300D01*
X0060150Y0029900D01*
X0059800D01*
X0059800Y0031250D01*
X0060100Y0031550D01*
X0060100Y0031840D01*
X0060225Y0031965D01*
X0060475D01*
X0060600Y0031840D01*
D02*
G37*
D10*
X0041100Y0008550D02*
D03*
Y0007450D02*
D03*
X0039650Y0008550D02*
D03*
Y0007450D02*
D03*
X0036000Y0008550D02*
D03*
Y0007450D02*
D03*
X0037100D02*
D03*
Y0008550D02*
D03*
X0075500Y0026150D02*
D03*
Y0027250D02*
D03*
X0076450Y0027250D02*
D03*
Y0026150D02*
D03*
X0062450Y0029550D02*
D03*
Y0028450D02*
D03*
X0019420Y0014550D02*
D03*
Y0015650D02*
D03*
X0056000Y0028500D02*
D03*
Y0027400D02*
D03*
Y0030300D02*
D03*
Y0031400D02*
D03*
X0076450Y0033200D02*
D03*
Y0032100D02*
D03*
X0063600Y0032700D02*
D03*
Y0031600D02*
D03*
X0075550Y0033200D02*
D03*
Y0032100D02*
D03*
X0064500Y0031600D02*
D03*
Y0030500D02*
D03*
X0062700Y0031600D02*
D03*
Y0032700D02*
D03*
X0083900Y0028575D02*
D03*
Y0029675D02*
D03*
X0080900D02*
D03*
Y0028575D02*
D03*
X0065450Y0030500D02*
D03*
Y0031600D02*
D03*
X0068450Y0030500D02*
D03*
Y0031600D02*
D03*
X0055600Y0008421D02*
D03*
Y0007321D02*
D03*
X0053050D02*
D03*
Y0008421D02*
D03*
X0024500Y0048700D02*
D03*
Y0047600D02*
D03*
X0073550Y0030500D02*
D03*
Y0031600D02*
D03*
X0065450Y0028450D02*
D03*
Y0029550D02*
D03*
X0022050Y0009300D02*
D03*
Y0010400D02*
D03*
D11*
X0074950Y0005350D02*
D03*
X0076050D02*
D03*
X0071450Y0030500D02*
D03*
X0072550D02*
D03*
X0082950Y0029675D02*
D03*
X0081850D02*
D03*
X0062450Y0030500D02*
D03*
X0063550D02*
D03*
X0061875Y0034200D02*
D03*
X0062975D02*
D03*
X0025600Y0006750D02*
D03*
X0024500D02*
D03*
X0066400Y0030500D02*
D03*
X0067500D02*
D03*
X0078600Y0029675D02*
D03*
X0077500D02*
D03*
X0070500Y0030500D02*
D03*
X0069400D02*
D03*
X0067500Y0031450D02*
D03*
X0066400D02*
D03*
X0063400Y0029550D02*
D03*
X0064500D02*
D03*
Y0028450D02*
D03*
X0063400D02*
D03*
X0020950Y0008350D02*
D03*
X0022050D02*
D03*
X0076050Y0003050D02*
D03*
X0074950D02*
D03*
Y0004200D02*
D03*
X0076050D02*
D03*
X0074950Y0006500D02*
D03*
X0076050D02*
D03*
X0074950Y0007650D02*
D03*
X0076050D02*
D03*
D12*
X0020650Y0007000D02*
D03*
X0022450D02*
D03*
D13*
X0054550Y0031700D02*
D03*
Y0029900D02*
D03*
D14*
X0026050Y0016900D02*
D03*
X0024550D02*
D03*
X0026050Y0012350D02*
D03*
X0024550D02*
D03*
X0023350Y0016900D02*
D03*
X0021850D02*
D03*
X0023350Y0012350D02*
D03*
X0021850D02*
D03*
D15*
X0018120Y0016000D02*
D03*
Y0014200D02*
D03*
D16*
X0053050Y0003971D02*
D03*
Y0005971D02*
D03*
X0055600Y0005921D02*
D03*
Y0003921D02*
D03*
D17*
X0076475Y0030325D02*
D03*
Y0029675D02*
D03*
Y0029025D02*
D03*
X0074575D02*
D03*
Y0029675D02*
D03*
Y0030325D02*
D03*
D18*
X0086650Y0029675D02*
D03*
D19*
X0059200Y0029000D02*
D03*
D20*
X0060450Y0030900D02*
D03*
X0059950D02*
D03*
X0059450D02*
D03*
X0058950D02*
D03*
X0058450D02*
D03*
X0057950D02*
D03*
Y0027100D02*
D03*
X0058450D02*
D03*
X0058950D02*
D03*
X0059450D02*
D03*
X0059950D02*
D03*
X0060450D02*
D03*
D21*
X0057300Y0030250D02*
D03*
Y0029750D02*
D03*
Y0029250D02*
D03*
Y0028750D02*
D03*
Y0028250D02*
D03*
Y0027750D02*
D03*
X0061100D02*
D03*
Y0028250D02*
D03*
Y0028750D02*
D03*
Y0029250D02*
D03*
Y0029750D02*
D03*
Y0030250D02*
D03*
D22*
X0058525Y0036150D02*
D03*
Y0035100D02*
D03*
X0059875Y0036150D02*
D03*
Y0035100D02*
D03*
D23*
X0050350Y0023550D02*
D03*
D24*
X0057950Y0026400D02*
Y0027100D01*
Y0026375D02*
X0057950Y0026375D01*
X0058450Y0025900D02*
X0058450Y0025900D01*
X0058450Y0025900D02*
Y0027100D01*
X0057950Y0026400D02*
X0057950Y0026400D01*
X0057400Y0027650D02*
X0057500Y0027750D01*
X0024499Y0050610D02*
X0024500Y0050609D01*
X0036025Y0053150D02*
X0036040Y0053135D01*
X0038500Y0004950D02*
X0038580Y0004870D01*
X0059300Y0025193D02*
Y0026300D01*
X0058950Y0026650D02*
X0059300Y0026300D01*
X0058950Y0026650D02*
Y0027100D01*
X0076450Y0032100D02*
X0076450Y0032100D01*
X0076450Y0030325D02*
X0076450Y0030325D01*
X0061100Y0027750D02*
X0061350D01*
X0061507Y0027593D01*
Y0026409D02*
Y0027593D01*
X0060498Y0025400D02*
X0061507Y0026409D01*
X0059800Y0025400D02*
X0060498D01*
X0075500Y0027250D02*
X0075500Y0027250D01*
X0046656Y0003800D02*
X0047256Y0004400D01*
X0044750Y0003800D02*
X0046656D01*
X0043660Y0004890D02*
X0044750Y0003800D01*
X0059300Y0025193D02*
X0059593Y0024900D01*
X0059450Y0026784D02*
X0060284Y0025950D01*
X0059450Y0026784D02*
Y0027100D01*
X0060284Y0026450D02*
X0060841D01*
X0059950Y0026784D02*
X0060284Y0026450D01*
X0059950Y0026784D02*
Y0027100D01*
X0060900D02*
X0060900Y0027100D01*
X0060450Y0027100D02*
X0060900D01*
X0054631Y0004890D02*
X0055600Y0003921D01*
X0046200Y0004890D02*
X0054631D01*
X0047256Y0004400D02*
X0052550D01*
X0052979Y0003971D01*
X0053050D01*
X0059593Y0024900D02*
X0061850D01*
X0024500Y0048700D02*
Y0050609D01*
X0057400Y0025400D02*
Y0027650D01*
X0011800Y0050610D02*
Y0053150D01*
Y0053175D01*
X0014325Y0053200D02*
X0014340Y0053185D01*
Y0050610D02*
Y0053150D01*
Y0053185D01*
X0016875D02*
X0016880Y0053180D01*
Y0050610D02*
Y0053150D01*
Y0053180D01*
X0019420Y0050610D02*
Y0053150D01*
X0021960Y0050610D02*
Y0053150D01*
X0016880Y0048174D02*
X0017504Y0047550D01*
X0016880Y0048174D02*
Y0050610D01*
X0030950Y0053175D02*
X0030960Y0053165D01*
Y0050610D02*
Y0053150D01*
Y0053165D01*
X0036040Y0050610D02*
Y0053135D01*
X0041120Y0050610D02*
Y0053150D01*
Y0053185D01*
D25*
X0023990Y0011110D02*
Y0011600D01*
X0036000Y0009800D02*
X0040675D01*
X0025300D02*
X0036000D01*
Y0008550D02*
Y0009800D01*
X0040675D02*
X0041100Y0009375D01*
Y0008550D02*
Y0009375D01*
X0024499Y0006750D02*
Y0007801D01*
X0024500Y0004200D02*
Y0006750D01*
X0023475Y0008825D02*
X0024499Y0007801D01*
X0023935Y0003635D02*
X0024500Y0004200D01*
X0022035Y0003635D02*
X0023935D01*
X0020750Y0002350D02*
X0022035Y0003635D01*
X0020660Y0002350D02*
X0020750D01*
X0022075Y0008825D02*
X0023475D01*
X0023990Y0011110D02*
X0025300Y0009800D01*
D26*
X0041125Y0004890D02*
Y0007425D01*
X0041100Y0007450D02*
X0041125Y0007425D01*
X0036040Y0004900D02*
X0036050Y0004890D01*
X0015580Y0004870D02*
X0015600Y0004890D01*
X0039125Y0007450D02*
X0039630D01*
X0038580Y0006905D02*
X0039125Y0007450D01*
X0038580Y0004890D02*
Y0006905D01*
X0036000Y0007450D02*
X0037100D01*
X0036000Y0004940D02*
X0036040Y0004900D01*
Y0007410D01*
Y0004890D02*
Y0004900D01*
X0036000Y0007450D02*
X0036040Y0007410D01*
X0060100Y0028200D02*
X0060150Y0028250D01*
X0061100D01*
X0058450Y0029850D02*
X0058450Y0029850D01*
X0024500Y0043100D02*
Y0047600D01*
X0023990Y0042590D02*
X0024500Y0043100D01*
X0057300Y0029750D02*
X0058300D01*
X0058450Y0029850D02*
Y0030900D01*
X0059950Y0029900D02*
Y0030900D01*
D27*
X0058700Y0031725D02*
X0058950Y0031475D01*
Y0030900D02*
Y0031475D01*
X0059450Y0031475D02*
X0059700Y0031725D01*
X0059450Y0030900D02*
Y0031475D01*
D28*
X0059875Y0036150D02*
Y0036725D01*
X0058525Y0034525D02*
Y0035100D01*
X0055600Y0005921D02*
Y0007321D01*
X0053050Y0005971D02*
Y0007321D01*
D29*
X0076450Y0027250D02*
Y0029025D01*
X0066475D02*
X0074575D01*
X0065950Y0029550D02*
X0066475Y0029025D01*
X0065450Y0029550D02*
X0065950D01*
X0074300Y0030325D02*
X0074350D01*
X0074125Y0030500D02*
X0074300Y0030325D01*
X0073550Y0030500D02*
X0074125D01*
X0064500Y0029550D02*
X0065450D01*
X0072550Y0030500D02*
X0073550D01*
X0070500D02*
X0071450D01*
X0068450D02*
X0069400D01*
X0067500D02*
X0068450D01*
X0067500Y0031450D02*
Y0031500D01*
Y0030500D02*
Y0031450D01*
X0066400Y0030500D02*
X0066400Y0030500D01*
Y0031450D01*
X0064500Y0030500D02*
X0065450D01*
X0066400D01*
X0063550D02*
X0064500D01*
X0062450Y0029550D02*
X0063400D01*
X0062150Y0029250D02*
X0062450Y0029550D01*
X0061100Y0029250D02*
X0062150D01*
X0063400Y0028450D02*
X0063400Y0028450D01*
X0062450Y0028450D02*
X0063400D01*
X0062150Y0028750D02*
X0062450Y0028450D01*
X0061100Y0028750D02*
X0062150D01*
X0076475Y0029675D02*
X0077500D01*
X0082950Y0029675D02*
X0083900D01*
X0081850D02*
X0081850Y0029675D01*
X0080900Y0029675D02*
X0081850D01*
X0080900Y0029675D02*
X0080900Y0029675D01*
X0078600Y0029675D02*
X0080900D01*
X0076450Y0030325D02*
Y0032100D01*
X0075550Y0032100D02*
X0076450D01*
X0075500Y0027250D02*
X0076450D01*
X0075500Y0025550D02*
Y0026150D01*
X0075550Y0033200D02*
Y0033800D01*
D30*
X0055600Y0008421D02*
Y0009050D01*
X0053050Y0008421D02*
Y0009021D01*
D31*
X0021450Y0014550D02*
X0021450Y0014550D01*
D32*
X0000000Y0000000D02*
Y0058000D01*
Y0000000D02*
X0089000D01*
Y0058000D01*
X0000000D02*
X0089000D01*
D33*
X0028420Y0050610D02*
D03*
X0030960D02*
D03*
X0033500D02*
D03*
X0036040D02*
D03*
X0038580D02*
D03*
X0041120D02*
D03*
X0043660D02*
D03*
X0021960D02*
D03*
X0016880D02*
D03*
X0014340D02*
D03*
X0011800D02*
D03*
X0009260D02*
D03*
X0006720D02*
D03*
X0004180D02*
D03*
X0001640D02*
D03*
X0019420D02*
D03*
X0036040Y0002350D02*
D03*
X0038580D02*
D03*
X0041120D02*
D03*
X0043660D02*
D03*
X0046200D02*
D03*
X0028280D02*
D03*
X0025740D02*
D03*
X0023200D02*
D03*
X0020660D02*
D03*
X0018120D02*
D03*
X0015580D02*
D03*
X0013040D02*
D03*
X0036040Y0004890D02*
D03*
X0038580D02*
D03*
X0041120D02*
D03*
X0043660D02*
D03*
X0046200D02*
D03*
X0013040D02*
D03*
X0015580D02*
D03*
X0018120D02*
D03*
X0020660D02*
D03*
X0023200D02*
D03*
X0025740D02*
D03*
X0028280D02*
D03*
X0019420Y0053150D02*
D03*
X0001640D02*
D03*
X0004180D02*
D03*
X0006720D02*
D03*
X0009260D02*
D03*
X0011800D02*
D03*
X0014340D02*
D03*
X0016880D02*
D03*
X0021960D02*
D03*
X0043660D02*
D03*
X0041120D02*
D03*
X0038580D02*
D03*
X0036040D02*
D03*
X0033500D02*
D03*
X0030960D02*
D03*
X0028420D02*
D03*
D34*
X0046200Y0050610D02*
D03*
X0024500D02*
D03*
X0033500Y0002350D02*
D03*
X0010500D02*
D03*
X0033500Y0004890D02*
D03*
X0010500D02*
D03*
X0024500Y0053150D02*
D03*
X0046200D02*
D03*
D35*
X0021450Y0014550D02*
D03*
D36*
X0023990D02*
D03*
D37*
X0061000Y0005000D02*
D03*
D38*
X0086650Y0025295D02*
D03*
Y0034055D02*
D03*
D39*
X0057950Y0026400D02*
D03*
X0058450Y0025900D02*
D03*
X0062350Y0037975D02*
D03*
X0056725Y0038600D02*
D03*
X0060400D02*
D03*
X0058475D02*
D03*
X0052450Y0034775D02*
D03*
X0062675Y0035025D02*
D03*
X0064525Y0034050D02*
D03*
X0072875Y0036625D02*
D03*
X0070600D02*
D03*
X0068075D02*
D03*
X0073925Y0034175D02*
D03*
X0065600Y0038025D02*
D03*
X0064475Y0034900D02*
D03*
X0064875Y0036150D02*
D03*
X0063425Y0038050D02*
D03*
X0059275Y0037400D02*
D03*
X0057100Y0037100D02*
D03*
X0058225Y0037325D02*
D03*
X0061250Y0037100D02*
D03*
X0060375Y0037375D02*
D03*
X0062325Y0037100D02*
D03*
X0063400Y0037125D02*
D03*
X0065775Y0036625D02*
D03*
X0063575Y0035025D02*
D03*
X0061750D02*
D03*
X0064075Y0035800D02*
D03*
X0063900Y0036600D02*
D03*
X0062850D02*
D03*
X0061775D02*
D03*
X0060750D02*
D03*
X0058775Y0036825D02*
D03*
X0060475Y0034775D02*
D03*
Y0035400D02*
D03*
X0059950Y0034475D02*
D03*
X0057750Y0036600D02*
D03*
X0052525Y0035575D02*
D03*
X0054475Y0035825D02*
D03*
X0055100Y0034775D02*
D03*
X0054225D02*
D03*
X0053325D02*
D03*
X0045175Y0009000D02*
D03*
X0041875Y0007980D02*
D03*
X0057400Y0031725D02*
D03*
X0058025D02*
D03*
X0060350D02*
D03*
X0059875Y0036725D02*
D03*
X0058525Y0034525D02*
D03*
X0058700Y0031725D02*
D03*
X0059700D02*
D03*
X0043050Y0007400D02*
D03*
X0038800Y0007982D02*
D03*
X0039650Y0009050D02*
D03*
X0053525Y0035675D02*
D03*
X0056500Y0036600D02*
D03*
X0061350Y0038100D02*
D03*
X0059475Y0038150D02*
D03*
X0062650Y0033375D02*
D03*
X0076800Y0007650D02*
D03*
X0074200D02*
D03*
X0075350Y0029675D02*
D03*
X0078050Y0007750D02*
D03*
X0041750Y0006150D02*
D03*
X0039850Y0006600D02*
D03*
X0037300D02*
D03*
X0061500Y0019550D02*
D03*
X0062600Y0020700D02*
D03*
X0046550Y0010350D02*
D03*
X0044200D02*
D03*
X0050250Y0014800D02*
D03*
X0052450Y0015500D02*
D03*
X0048600Y0008050D02*
D03*
X0047450Y0007150D02*
D03*
X0047500Y0009021D02*
D03*
X0048800Y0010300D02*
D03*
X0050250Y0011850D02*
D03*
X0051750Y0013200D02*
D03*
X0047650D02*
D03*
X0044200D02*
D03*
X0040700D02*
D03*
X0047750Y0016800D02*
D03*
X0044200D02*
D03*
X0040700D02*
D03*
Y0023700D02*
D03*
X0054700Y0020700D02*
D03*
X0052900D02*
D03*
X0055600Y0021950D02*
D03*
X0053750D02*
D03*
X0051950Y0022000D02*
D03*
X0049100Y0024200D02*
D03*
X0048100Y0025500D02*
D03*
X0057400Y0021825D02*
D03*
X0056350Y0020750D02*
D03*
X0055075Y0019475D02*
D03*
X0053550Y0019450D02*
D03*
X0052025D02*
D03*
X0050725Y0020775D02*
D03*
X0049600Y0021907D02*
D03*
X0048425Y0023050D02*
D03*
X0055750Y0024700D02*
D03*
X0050450Y0023600D02*
D03*
X0051650D02*
D03*
X0053050D02*
D03*
X0054500D02*
D03*
X0055950D02*
D03*
X0057400D02*
D03*
X0019400Y0001900D02*
D03*
X0016850Y0003000D02*
D03*
X0015000Y0006350D02*
D03*
X0013700Y0003650D02*
D03*
X0037100Y0009050D02*
D03*
X0078300Y0041300D02*
D03*
X0078350Y0039700D02*
D03*
X0078400Y0037900D02*
D03*
X0072300Y0050250D02*
D03*
X0070150Y0050400D02*
D03*
X0066400D02*
D03*
X0062750D02*
D03*
X0059100Y0050350D02*
D03*
X0054900D02*
D03*
X0053050Y0051450D02*
D03*
X0056950D02*
D03*
X0060950D02*
D03*
X0064600D02*
D03*
X0068200Y0051500D02*
D03*
X0071700D02*
D03*
X0073500Y0050750D02*
D03*
X0074800Y0049400D02*
D03*
X0076050Y0048000D02*
D03*
Y0046150D02*
D03*
Y0044650D02*
D03*
Y0043100D02*
D03*
Y0041300D02*
D03*
Y0039700D02*
D03*
Y0038100D02*
D03*
Y0036200D02*
D03*
Y0034450D02*
D03*
X0074850Y0047700D02*
D03*
X0074900Y0046150D02*
D03*
Y0044650D02*
D03*
Y0043100D02*
D03*
Y0041350D02*
D03*
X0074950Y0039750D02*
D03*
Y0038100D02*
D03*
Y0036200D02*
D03*
X0056850Y0024450D02*
D03*
X0078100Y0026700D02*
D03*
X0077800Y0025400D02*
D03*
X0076100Y0024600D02*
D03*
X0074750Y0033450D02*
D03*
X0074100Y0032900D02*
D03*
X0068800Y0032950D02*
D03*
X0055850Y0037775D02*
D03*
X0055225Y0036600D02*
D03*
X0076400Y0033750D02*
D03*
X0077050Y0033100D02*
D03*
X0077350Y0032075D02*
D03*
X0061850Y0021450D02*
D03*
X0059200Y0018950D02*
D03*
X0060574Y0020350D02*
D03*
X0063100Y0019250D02*
D03*
X0072700Y0020700D02*
D03*
X0074750Y0025400D02*
D03*
X0074650Y0026700D02*
D03*
X0074500Y0027600D02*
D03*
X0073600D02*
D03*
X0072700D02*
D03*
X0069550Y0028350D02*
D03*
X0064975Y0028700D02*
D03*
X0071350Y0028350D02*
D03*
X0070450D02*
D03*
X0067750D02*
D03*
X0074050D02*
D03*
X0068650D02*
D03*
X0079750Y0029000D02*
D03*
X0084225Y0031250D02*
D03*
X0078975Y0030525D02*
D03*
X0066725Y0029675D02*
D03*
X0083500Y0031150D02*
D03*
X0084225Y0028100D02*
D03*
X0082400Y0028825D02*
D03*
X0080425D02*
D03*
X0079000D02*
D03*
X0075800Y0031150D02*
D03*
X0071850Y0032075D02*
D03*
X0067700Y0032300D02*
D03*
X0070750Y0029675D02*
D03*
X0069700D02*
D03*
X0068675Y0029675D02*
D03*
X0042875Y0009000D02*
D03*
X0040325Y0008550D02*
D03*
X0037775D02*
D03*
X0049500Y0043350D02*
D03*
X0074050Y0019850D02*
D03*
X0077750D02*
D03*
X0064700Y0020700D02*
D03*
X0068800Y0020750D02*
D03*
X0066600Y0019250D02*
D03*
X0071100Y0020700D02*
D03*
X0069450Y0019250D02*
D03*
X0074000Y0022050D02*
D03*
X0071300Y0019350D02*
D03*
X0081100Y0004350D02*
D03*
Y0007600D02*
D03*
X0083100Y0025850D02*
D03*
X0081350Y0019850D02*
D03*
X0081400Y0022150D02*
D03*
Y0025800D02*
D03*
X0083100Y0002100D02*
D03*
X0087000D02*
D03*
X0084650Y0004300D02*
D03*
Y0007600D02*
D03*
Y0011000D02*
D03*
Y0014350D02*
D03*
Y0017750D02*
D03*
Y0021100D02*
D03*
X0082850Y0034000D02*
D03*
X0084650Y0037900D02*
D03*
Y0041050D02*
D03*
X0086950Y0056000D02*
D03*
X0081650Y0055400D02*
D03*
X0084650Y0044900D02*
D03*
Y0048800D02*
D03*
Y0052700D02*
D03*
X0046200Y0043400D02*
D03*
X0086300Y0057400D02*
D03*
X0082850Y0032575D02*
D03*
X0081300D02*
D03*
X0083100Y0027300D02*
D03*
X0081400D02*
D03*
X0086200Y0000600D02*
D03*
X0083600D02*
D03*
X0082875Y0028300D02*
D03*
X0081925D02*
D03*
X0082675Y0031150D02*
D03*
X0081850D02*
D03*
X0081000D02*
D03*
X0080150Y0031100D02*
D03*
X0078600Y0031150D02*
D03*
X0077325Y0034400D02*
D03*
X0078450Y0034000D02*
D03*
Y0032575D02*
D03*
X0077825Y0031150D02*
D03*
X0078775Y0028175D02*
D03*
X0078850Y0025850D02*
D03*
Y0027300D02*
D03*
X0077000Y0026400D02*
D03*
X0067950Y0025850D02*
D03*
X0069900D02*
D03*
X0071850D02*
D03*
X0073750D02*
D03*
X0072850Y0026700D02*
D03*
X0070950D02*
D03*
X0068850D02*
D03*
X0066950D02*
D03*
X0065950Y0025850D02*
D03*
X0063750D02*
D03*
X0054350Y0024700D02*
D03*
X0053050D02*
D03*
X0051650D02*
D03*
X0053050Y0025850D02*
D03*
X0051650D02*
D03*
X0053050Y0027050D02*
D03*
X0051750D02*
D03*
X0051400Y0035250D02*
D03*
X0052050Y0039200D02*
D03*
Y0037700D02*
D03*
Y0036425D02*
D03*
X0053800Y0036600D02*
D03*
Y0037775D02*
D03*
X0060600Y0039450D02*
D03*
X0058650D02*
D03*
X0056950Y0039400D02*
D03*
X0055200D02*
D03*
X0053750Y0040700D02*
D03*
X0055850D02*
D03*
X0058050D02*
D03*
X0060200D02*
D03*
X0072100Y0034150D02*
D03*
X0070250D02*
D03*
X0068450D02*
D03*
X0066850D02*
D03*
X0065450Y0034200D02*
D03*
X0063700D02*
D03*
X0072950Y0032900D02*
D03*
X0071850D02*
D03*
X0070750D02*
D03*
X0069750D02*
D03*
X0065275Y0035300D02*
D03*
X0074950Y0034450D02*
D03*
X0074550Y0032075D02*
D03*
X0072750D02*
D03*
X0071050D02*
D03*
X0070150Y0032050D02*
D03*
X0069250D02*
D03*
X0067800Y0033050D02*
D03*
X0066850D02*
D03*
X0065900Y0033000D02*
D03*
X0065050D02*
D03*
X0064375Y0033280D02*
D03*
X0079800Y0028250D02*
D03*
Y0026600D02*
D03*
Y0025050D02*
D03*
X0074050Y0023600D02*
D03*
X0075650D02*
D03*
X0063350Y0024650D02*
D03*
X0079350Y0031100D02*
D03*
X0079800Y0032575D02*
D03*
Y0034000D02*
D03*
X0078400Y0036200D02*
D03*
X0077200Y0035300D02*
D03*
X0074050D02*
D03*
X0077100Y0031150D02*
D03*
X0076350Y0025600D02*
D03*
X0077425Y0030525D02*
D03*
X0078200D02*
D03*
X0079750Y0030325D02*
D03*
X0080575Y0030525D02*
D03*
X0081425D02*
D03*
X0082300D02*
D03*
X0083150D02*
D03*
X0084000D02*
D03*
X0081475Y0028825D02*
D03*
X0051100Y0033600D02*
D03*
Y0032250D02*
D03*
X0083325Y0028825D02*
D03*
X0080900Y0027950D02*
D03*
X0078200Y0028825D02*
D03*
X0077425D02*
D03*
X0077100Y0028200D02*
D03*
X0077300Y0027300D02*
D03*
X0074150Y0031350D02*
D03*
X0074900Y0031075D02*
D03*
X0075525Y0030500D02*
D03*
Y0028850D02*
D03*
X0075800Y0028200D02*
D03*
X0071850Y0027600D02*
D03*
X0070950D02*
D03*
X0070000D02*
D03*
X0069100D02*
D03*
X0068250D02*
D03*
X0073500Y0024600D02*
D03*
X0055250Y0027100D02*
D03*
X0056011Y0026750D02*
D03*
X0073900Y0029675D02*
D03*
X0057550Y0038100D02*
D03*
X0071450Y0031350D02*
D03*
X0073050D02*
D03*
X0072250D02*
D03*
X0070600D02*
D03*
X0069750D02*
D03*
X0068950D02*
D03*
X0066950Y0032300D02*
D03*
X0066200D02*
D03*
X0072875Y0029675D02*
D03*
X0074950Y0028350D02*
D03*
X0064900Y0027350D02*
D03*
X0072250Y0028350D02*
D03*
X0066850D02*
D03*
X0066000Y0028450D02*
D03*
X0065450Y0027850D02*
D03*
X0064350D02*
D03*
X0063650Y0027600D02*
D03*
X0062800D02*
D03*
X0062016Y0027650D02*
D03*
X0064775Y0032350D02*
D03*
X0073150Y0028350D02*
D03*
X0071800Y0029675D02*
D03*
X0067650Y0029675D02*
D03*
X0056550Y0025250D02*
D03*
X0075500Y0025550D02*
D03*
Y0002200D02*
D03*
X0079450Y0002100D02*
D03*
X0075500Y0008500D02*
D03*
X0054300Y0027050D02*
D03*
X0026450Y0008000D02*
D03*
X0025250Y0005950D02*
D03*
X0020950Y0003700D02*
D03*
X0024829Y0003300D02*
D03*
X0023200Y0005950D02*
D03*
X0022000Y0002300D02*
D03*
X0024450Y0002350D02*
D03*
X0023200Y0001300D02*
D03*
X0022600Y0000600D02*
D03*
X0026200Y0006750D02*
D03*
X0074200Y0003050D02*
D03*
Y0004200D02*
D03*
Y0005350D02*
D03*
Y0006500D02*
D03*
X0062300Y0005000D02*
D03*
X0059700Y0004950D02*
D03*
X0061900Y0025800D02*
D03*
X0011850Y0000600D02*
D03*
X0010500Y0003600D02*
D03*
Y0006100D02*
D03*
X0018125Y0003550D02*
D03*
X0019600Y0003100D02*
D03*
X0016850Y0001900D02*
D03*
X0026650Y0050800D02*
D03*
X0020700Y0049950D02*
D03*
X0055600Y0009050D02*
D03*
X0052300Y0006800D02*
D03*
X0052250Y0008450D02*
D03*
X0056450D02*
D03*
X0056500Y0006700D02*
D03*
X0058100Y0003050D02*
D03*
X0054050Y0013850D02*
D03*
X0053000Y0012700D02*
D03*
X0051850Y0011600D02*
D03*
X0050700Y0010450D02*
D03*
X0041625Y0010075D02*
D03*
X0049450Y0009250D02*
D03*
X0036300Y0010600D02*
D03*
X0033950D02*
D03*
X0031600D02*
D03*
X0029200D02*
D03*
X0034600Y0009021D02*
D03*
X0032500D02*
D03*
X0030300D02*
D03*
X0027950D02*
D03*
X0050500Y0028000D02*
D03*
X0049050D02*
D03*
X0047300D02*
D03*
X0045450D02*
D03*
X0050425Y0034300D02*
D03*
Y0032975D02*
D03*
X0051725Y0034325D02*
D03*
X0050600Y0031300D02*
D03*
X0048800D02*
D03*
X0046800D02*
D03*
X0044400D02*
D03*
X0042100D02*
D03*
X0037000Y0028000D02*
D03*
X0034750D02*
D03*
X0033650Y0026900D02*
D03*
X0032450Y0025700D02*
D03*
X0031300Y0024500D02*
D03*
X0030000Y0023250D02*
D03*
X0028850Y0022050D02*
D03*
X0027650Y0020900D02*
D03*
X0034150Y0031300D02*
D03*
X0032450Y0030800D02*
D03*
X0031300Y0029600D02*
D03*
X0030050Y0028350D02*
D03*
X0028950Y0027250D02*
D03*
X0027750Y0026050D02*
D03*
X0026400Y0024750D02*
D03*
X0025100Y0023400D02*
D03*
X0023800Y0022100D02*
D03*
X0019420Y0017750D02*
D03*
X0021050D02*
D03*
X0026950Y0006050D02*
D03*
Y0003600D02*
D03*
X0022477Y0020780D02*
D03*
X0022500Y0019300D02*
D03*
X0025400Y0014550D02*
D03*
X0026050Y0016100D02*
D03*
X0029750Y0000600D02*
D03*
X0027200D02*
D03*
X0024450Y0009600D02*
D03*
X0022500Y0017750D02*
D03*
X0025400Y0013250D02*
D03*
X0024000D02*
D03*
X0022700D02*
D03*
X0019950Y0012000D02*
D03*
Y0012850D02*
D03*
X0020550Y0009750D02*
D03*
X0021250Y0010450D02*
D03*
X0019900D02*
D03*
X0021250Y0009150D02*
D03*
X0019850D02*
D03*
X0025700Y0009021D02*
D03*
X0024600Y0008800D02*
D03*
X0023700Y0009600D02*
D03*
X0025250Y0007500D02*
D03*
X0025750Y0003600D02*
D03*
X0016600Y0004100D02*
D03*
X0016400Y0005850D02*
D03*
Y0007400D02*
D03*
Y0008850D02*
D03*
Y0010400D02*
D03*
Y0015100D02*
D03*
Y0013300D02*
D03*
Y0012000D02*
D03*
X0015250Y0034900D02*
D03*
X0014955Y0032700D02*
D03*
X0015000Y0031550D02*
D03*
Y0029500D02*
D03*
Y0027200D02*
D03*
Y0025300D02*
D03*
Y0023150D02*
D03*
Y0021200D02*
D03*
Y0019000D02*
D03*
Y0017000D02*
D03*
Y0015100D02*
D03*
Y0013300D02*
D03*
X0013700D02*
D03*
Y0015100D02*
D03*
Y0017000D02*
D03*
Y0019000D02*
D03*
Y0021200D02*
D03*
Y0023150D02*
D03*
Y0025300D02*
D03*
Y0027200D02*
D03*
Y0029500D02*
D03*
Y0031550D02*
D03*
Y0033400D02*
D03*
X0056837Y0027200D02*
D03*
X0059800Y0025400D02*
D03*
X0060300Y0025950D02*
D03*
X0060841Y0026450D02*
D03*
X0060900Y0027100D02*
D03*
X0025300Y0047900D02*
D03*
X0023150Y0049803D02*
D03*
X0013100Y0054200D02*
D03*
X0023150D02*
D03*
X0018120D02*
D03*
X0020660D02*
D03*
X0018200Y0049950D02*
D03*
X0010100Y0051850D02*
D03*
X0010500Y0054200D02*
D03*
X0055650Y0003050D02*
D03*
X0056886Y0004950D02*
D03*
X0053100Y0003050D02*
D03*
X0053050Y0009050D02*
D03*
X0054300D02*
D03*
X0000600Y0051850D02*
D03*
Y0054200D02*
D03*
X0003000D02*
D03*
X0005450D02*
D03*
X0008000D02*
D03*
X0026400Y0054300D02*
D03*
X0031650Y0054950D02*
D03*
X0034200D02*
D03*
X0036750D02*
D03*
X0039350D02*
D03*
X0042050D02*
D03*
X0044750D02*
D03*
X0047500Y0055000D02*
D03*
X0004800Y0048600D02*
D03*
X0003000Y0051850D02*
D03*
X0005450D02*
D03*
X0008000Y0050610D02*
D03*
Y0053100D02*
D03*
Y0051850D02*
D03*
X0023150D02*
D03*
X0025950D02*
D03*
X0020750Y0048600D02*
D03*
X0026550Y0049550D02*
D03*
X0027000Y0052650D02*
D03*
X0027900Y0051900D02*
D03*
X0030180D02*
D03*
X0029600Y0049800D02*
D03*
X0031650Y0051900D02*
D03*
X0032250Y0053850D02*
D03*
X0029650D02*
D03*
X0031450Y0047950D02*
D03*
X0031550Y0049300D02*
D03*
X0028100Y0048000D02*
D03*
X0027800Y0049550D02*
D03*
X0029850Y0047400D02*
D03*
X0033100Y0047950D02*
D03*
X0036500D02*
D03*
X0036600Y0049300D02*
D03*
X0033100D02*
D03*
X0034750Y0049800D02*
D03*
X0035275Y0051900D02*
D03*
X0036700D02*
D03*
X0040500D02*
D03*
X0034800Y0048150D02*
D03*
X0038250Y0047950D02*
D03*
X0042400Y0049300D02*
D03*
X0038150D02*
D03*
X0039850D02*
D03*
X0044900Y0051900D02*
D03*
X0037250Y0053800D02*
D03*
X0039800Y0053750D02*
D03*
X0042450D02*
D03*
X0047500Y0050610D02*
D03*
Y0053150D02*
D03*
Y0049300D02*
D03*
X0041700Y0051900D02*
D03*
X0044900Y0049300D02*
D03*
X0054200Y0004279D02*
D03*
X0055600Y0004950D02*
D03*
X0054300Y0005435D02*
D03*
Y0007321D02*
D03*
X0052050Y0003850D02*
D03*
X0000600Y0048150D02*
D03*
X0005350Y0050150D02*
D03*
X0002950Y0049803D02*
D03*
X0009260Y0049400D02*
D03*
X0008100Y0048700D02*
D03*
X0000600Y0049803D02*
D03*
X0001650Y0049250D02*
D03*
X0023750Y0048125D02*
D03*
X0014925Y0051850D02*
D03*
X0018250Y0048600D02*
D03*
X0015600Y0054200D02*
D03*
X0037390Y0003130D02*
D03*
X0039850Y0003100D02*
D03*
X0042350Y0003088D02*
D03*
X0044900Y0003050D02*
D03*
X0047450D02*
D03*
X0050250D02*
D03*
X0049550Y0005450D02*
D03*
X0047400Y0005435D02*
D03*
X0047550Y0003850D02*
D03*
X0049600D02*
D03*
X0061850Y0024900D02*
D03*
X0021800Y0006050D02*
D03*
X0023400Y0007000D02*
D03*
X0026850Y0016900D02*
D03*
X0025400Y0015700D02*
D03*
X0026550Y0019800D02*
D03*
X0025450Y0018700D02*
D03*
X0026050Y0017650D02*
D03*
X0026700Y0010600D02*
D03*
X0025500Y0010650D02*
D03*
X0026050Y0011600D02*
D03*
Y0013100D02*
D03*
X0026800Y0012350D02*
D03*
X0020200Y0000600D02*
D03*
X0018120Y0017000D02*
D03*
X0017150Y0015600D02*
D03*
Y0017000D02*
D03*
X0020050D02*
D03*
X0019420Y0016300D02*
D03*
X0054350Y0025850D02*
D03*
X0062450Y0038900D02*
D03*
X0062050Y0026775D02*
D03*
X0062450Y0025250D02*
D03*
X0044900Y0053750D02*
D03*
X0012400Y0051850D02*
D03*
X0013750D02*
D03*
X0011800Y0046650D02*
D03*
X0006150D02*
D03*
X0018950Y0046500D02*
D03*
X0022035Y0004900D02*
D03*
X0026950Y0002350D02*
D03*
Y0004900D02*
D03*
X0019600Y0004100D02*
D03*
X0024800Y0000600D02*
D03*
X0017650D02*
D03*
X0034046Y0006200D02*
D03*
X0035050Y0007200D02*
D03*
X0038350Y0010600D02*
D03*
X0040000D02*
D03*
X0039850Y0012000D02*
D03*
X0034750Y0005000D02*
D03*
X0051950Y0005464D02*
D03*
X0050750Y0016750D02*
D03*
X0046850Y0020625D02*
D03*
X0045550Y0021907D02*
D03*
X0043050Y0024400D02*
D03*
X0041850Y0025550D02*
D03*
X0039450Y0028000D02*
D03*
X0036150Y0031300D02*
D03*
X0034750Y0032750D02*
D03*
X0033450Y0034050D02*
D03*
X0031900Y0035600D02*
D03*
X0030200Y0037250D02*
D03*
X0028450Y0039000D02*
D03*
X0026700Y0040700D02*
D03*
X0025000Y0042400D02*
D03*
X0023800Y0043600D02*
D03*
X0022250Y0045100D02*
D03*
X0020850Y0046500D02*
D03*
X0016900D02*
D03*
X0015150D02*
D03*
X0013500D02*
D03*
X0009550Y0046650D02*
D03*
X0011000Y0048125D02*
D03*
X0047275Y0024200D02*
D03*
X0045968Y0025525D02*
D03*
X0043475Y0028000D02*
D03*
X0040150Y0031300D02*
D03*
X0039100Y0032400D02*
D03*
X0037950Y0033550D02*
D03*
X0036850Y0034150D02*
D03*
X0035500Y0035500D02*
D03*
X0034150Y0036800D02*
D03*
X0032800Y0038200D02*
D03*
X0032850Y0040250D02*
D03*
Y0042350D02*
D03*
Y0044400D02*
D03*
Y0046400D02*
D03*
X0031750Y0038700D02*
D03*
X0030400Y0040050D02*
D03*
X0029050Y0041400D02*
D03*
X0027750Y0042750D02*
D03*
X0026650Y0043300D02*
D03*
X0025250Y0044750D02*
D03*
X0023800Y0046250D02*
D03*
X0022400Y0047546D02*
D03*
X0026650Y0046464D02*
D03*
X0027750Y0046450D02*
D03*
X0026650Y0044800D02*
D03*
X0027750Y0044600D02*
D03*
X0031750Y0040500D02*
D03*
Y0042400D02*
D03*
Y0044450D02*
D03*
X0031700Y0046400D02*
D03*
X0036850Y0036350D02*
D03*
Y0038450D02*
D03*
X0036800Y0040550D02*
D03*
Y0042600D02*
D03*
Y0044650D02*
D03*
Y0046464D02*
D03*
X0037950Y0046500D02*
D03*
Y0036150D02*
D03*
Y0038400D02*
D03*
Y0040500D02*
D03*
Y0042600D02*
D03*
X0038000Y0044650D02*
D03*
X0052400Y0016650D02*
D03*
X0020050Y0015600D02*
D03*
X0023750Y0006400D02*
D03*
X0023550Y0007709D02*
D03*
X0000600Y0000600D02*
D03*
X0003400D02*
D03*
X0006100D02*
D03*
X0009000D02*
D03*
X0014800D02*
D03*
X0025750Y0001250D02*
D03*
X0032450Y0000600D02*
D03*
X0035150D02*
D03*
X0037950D02*
D03*
X0040850D02*
D03*
X0043500D02*
D03*
X0046400D02*
D03*
X0049050D02*
D03*
X0052000D02*
D03*
X0054850D02*
D03*
X0057700D02*
D03*
X0060643D02*
D03*
X0063600D02*
D03*
X0066400D02*
D03*
X0069100D02*
D03*
X0072000D02*
D03*
X0075000D02*
D03*
X0077900D02*
D03*
X0080800D02*
D03*
X0088400D02*
D03*
X0000600Y0003241D02*
D03*
Y0006050D02*
D03*
Y0008800D02*
D03*
Y0011400D02*
D03*
Y0013900D02*
D03*
Y0016500D02*
D03*
Y0019000D02*
D03*
Y0021800D02*
D03*
Y0024700D02*
D03*
Y0027696D02*
D03*
Y0030700D02*
D03*
Y0033550D02*
D03*
Y0036150D02*
D03*
X0000650Y0038900D02*
D03*
Y0041700D02*
D03*
X0000600Y0044300D02*
D03*
Y0046900D02*
D03*
Y0057400D02*
D03*
Y0055700D02*
D03*
X0003200Y0057400D02*
D03*
X0005900D02*
D03*
X0008500D02*
D03*
X0011200D02*
D03*
X0014100D02*
D03*
X0016900D02*
D03*
X0019501D02*
D03*
X0022300D02*
D03*
X0025350D02*
D03*
X0027950D02*
D03*
X0030700D02*
D03*
X0033600D02*
D03*
X0036400D02*
D03*
X0039100D02*
D03*
X0041950D02*
D03*
X0044700D02*
D03*
X0047400D02*
D03*
X0050000D02*
D03*
X0052600D02*
D03*
X0055200D02*
D03*
X0057802D02*
D03*
X0060400D02*
D03*
X0062900D02*
D03*
X0065450D02*
D03*
X0067900D02*
D03*
X0070200D02*
D03*
X0072400D02*
D03*
X0074700D02*
D03*
X0077000D02*
D03*
X0079450D02*
D03*
X0081750D02*
D03*
X0088400D02*
D03*
Y0037900D02*
D03*
Y0040000D02*
D03*
Y0042300D02*
D03*
Y0044300D02*
D03*
Y0046400D02*
D03*
Y0048500D02*
D03*
Y0050500D02*
D03*
Y0052800D02*
D03*
Y0055150D02*
D03*
Y0021050D02*
D03*
Y0018700D02*
D03*
Y0016500D02*
D03*
Y0014300D02*
D03*
Y0012000D02*
D03*
Y0009700D02*
D03*
Y0007500D02*
D03*
Y0005338D02*
D03*
Y0002938D02*
D03*
X0050425Y0024850D02*
D03*
X0064275Y0023600D02*
D03*
X0065900D02*
D03*
X0067550D02*
D03*
X0069200D02*
D03*
X0070800D02*
D03*
X0072500D02*
D03*
X0077950D02*
D03*
X0079800D02*
D03*
X0078850Y0024600D02*
D03*
X0077200Y0038900D02*
D03*
Y0037100D02*
D03*
X0076700Y0042100D02*
D03*
X0074200D02*
D03*
X0072600D02*
D03*
X0071000D02*
D03*
X0069400D02*
D03*
X0067800D02*
D03*
X0066000D02*
D03*
X0064000D02*
D03*
X0062100D02*
D03*
X0060100D02*
D03*
X0058150D02*
D03*
X0056200D02*
D03*
X0054450D02*
D03*
X0053050D02*
D03*
X0051700D02*
D03*
X0050450D02*
D03*
X0050425Y0035850D02*
D03*
Y0037600D02*
D03*
X0050450Y0039200D02*
D03*
Y0040700D02*
D03*
X0076800Y0006500D02*
D03*
Y0005350D02*
D03*
Y0004200D02*
D03*
Y0003050D02*
D03*
X0044950Y0004550D02*
D03*
X0029700Y0005000D02*
D03*
X0032200D02*
D03*
X0029700Y0002350D02*
D03*
X0032100D02*
D03*
X0009200D02*
D03*
Y0004890D02*
D03*
X0044750Y0026750D02*
D03*
X0040750Y0026700D02*
D03*
X0050450Y0026350D02*
D03*
X0003500Y0003300D02*
D03*
X0007500D02*
D03*
X0003500Y0007000D02*
D03*
X0007500D02*
D03*
X0011500Y0007500D02*
D03*
Y0010700D02*
D03*
X0007500D02*
D03*
X0003500D02*
D03*
Y0013900D02*
D03*
X0007500D02*
D03*
X0011500D02*
D03*
X0003500Y0017500D02*
D03*
X0007500D02*
D03*
X0011500D02*
D03*
X0003500Y0021700D02*
D03*
X0007500D02*
D03*
X0011500D02*
D03*
X0003500Y0026000D02*
D03*
X0007500D02*
D03*
X0011500D02*
D03*
X0003500Y0030700D02*
D03*
X0007500D02*
D03*
X0011500D02*
D03*
X0003500Y0035000D02*
D03*
X0007500Y0035100D02*
D03*
X0011500D02*
D03*
X0003500Y0038900D02*
D03*
X0007500D02*
D03*
X0011500Y0039000D02*
D03*
X0003500Y0043200D02*
D03*
X0007500D02*
D03*
X0011500D02*
D03*
X0003500Y0046650D02*
D03*
X0004200Y0055700D02*
D03*
X0008000D02*
D03*
X0017000Y0019600D02*
D03*
X0019850D02*
D03*
X0017000Y0023800D02*
D03*
X0020050D02*
D03*
X0017000Y0028400D02*
D03*
X0020400D02*
D03*
X0023500D02*
D03*
X0026800D02*
D03*
X0023300Y0023850D02*
D03*
X0017000Y0032900D02*
D03*
X0020450D02*
D03*
X0023800D02*
D03*
X0027250D02*
D03*
X0030950D02*
D03*
X0016700Y0036250D02*
D03*
X0020500Y0036800D02*
D03*
X0023800D02*
D03*
X0027300D02*
D03*
X0015200Y0043200D02*
D03*
X0020200Y0041200D02*
D03*
X0023800Y0041300D02*
D03*
X0021750Y0043200D02*
D03*
X0029200Y0013200D02*
D03*
X0032850D02*
D03*
X0036700D02*
D03*
X0029200Y0016800D02*
D03*
X0032850D02*
D03*
X0036700D02*
D03*
X0049400Y0018100D02*
D03*
X0029100Y0020200D02*
D03*
X0032850D02*
D03*
X0036700D02*
D03*
X0040700D02*
D03*
X0044200D02*
D03*
X0032850Y0023700D02*
D03*
X0036700D02*
D03*
X0035950Y0026700D02*
D03*
X0038450D02*
D03*
X0048200Y0019300D02*
D03*
X0032000Y0007600D02*
D03*
X0028420D02*
D03*
X0050200Y0008000D02*
D03*
X0052100Y0009800D02*
D03*
X0053550Y0011300D02*
D03*
X0046900Y0026700D02*
D03*
X0049050D02*
D03*
X0040750Y0033400D02*
D03*
X0044400Y0033500D02*
D03*
X0048000Y0033600D02*
D03*
X0040700Y0037100D02*
D03*
X0044400D02*
D03*
X0048000D02*
D03*
X0040700Y0040750D02*
D03*
X0044350Y0040800D02*
D03*
X0048000D02*
D03*
X0040700Y0044600D02*
D03*
X0044300Y0044700D02*
D03*
X0048000Y0044900D02*
D03*
X0040700Y0047800D02*
D03*
X0044400D02*
D03*
X0048000D02*
D03*
X0051500Y0044950D02*
D03*
X0055291D02*
D03*
X0059100Y0044900D02*
D03*
X0062900Y0044950D02*
D03*
X0066500D02*
D03*
X0070100D02*
D03*
X0073700Y0044900D02*
D03*
X0077300D02*
D03*
X0051500Y0047800D02*
D03*
X0055300D02*
D03*
X0059100D02*
D03*
X0063000D02*
D03*
X0066450D02*
D03*
X0070100D02*
D03*
X0073700Y0048800D02*
D03*
X0077300D02*
D03*
X0080900D02*
D03*
X0050100Y0054100D02*
D03*
X0055300Y0052700D02*
D03*
X0059100D02*
D03*
X0063000D02*
D03*
X0066400D02*
D03*
X0070100D02*
D03*
X0073700D02*
D03*
X0077300D02*
D03*
X0080900D02*
D03*
X0084000Y0057400D02*
D03*
X0075800Y0055400D02*
D03*
X0069900D02*
D03*
X0063200D02*
D03*
X0055900D02*
D03*
X0048350Y0056000D02*
D03*
X0061000Y0003000D02*
D03*
X0065100D02*
D03*
X0058550Y0006300D02*
D03*
X0070400Y0007600D02*
D03*
X0066450D02*
D03*
X0062400D02*
D03*
X0058600D02*
D03*
X0080200Y0011000D02*
D03*
X0075900D02*
D03*
X0071800D02*
D03*
X0068050D02*
D03*
X0064275D02*
D03*
X0060300D02*
D03*
X0056750D02*
D03*
X0080200Y0014350D02*
D03*
X0075900D02*
D03*
X0071800D02*
D03*
X0068050D02*
D03*
X0064200D02*
D03*
X0060200D02*
D03*
X0056810Y0014500D02*
D03*
X0080200Y0017750D02*
D03*
X0076000D02*
D03*
X0071800D02*
D03*
X0068050Y0017800D02*
D03*
X0064200D02*
D03*
X0060250Y0018000D02*
D03*
X0080000Y0021100D02*
D03*
X0076000D02*
D03*
X0072500Y0022050D02*
D03*
X0068100D02*
D03*
X0063450D02*
D03*
X0058550Y0016300D02*
D03*
X0055200Y0012900D02*
D03*
X0075000Y0024600D02*
D03*
X0077800Y0022300D02*
D03*
X0053100Y0043400D02*
D03*
X0057300D02*
D03*
X0061200D02*
D03*
X0064850D02*
D03*
X0068700D02*
D03*
X0072550Y0043450D02*
D03*
X0053750Y0039200D02*
D03*
X0052050Y0040700D02*
D03*
X0063150Y0026775D02*
D03*
X0065500D02*
D03*
X0066350Y0027600D02*
D03*
X0067350D02*
D03*
X0077925Y0028200D02*
D03*
X0065700Y0024600D02*
D03*
X0062400Y0024300D02*
D03*
X0068300Y0024600D02*
D03*
X0070850D02*
D03*
X0077450D02*
D03*
X0065450Y0032100D02*
D03*
X0078050Y0004350D02*
D03*
X0069200Y0003000D02*
D03*
X0072950D02*
D03*
X0068050Y0005150D02*
D03*
X0071800D02*
D03*
X0064250D02*
D03*
X0035400Y0006050D02*
D03*
X0034900Y0003130D02*
D03*
X0048600Y0006350D02*
D03*
X0051050D02*
D03*
X0035200Y0008300D02*
D03*
X0030300Y0006650D02*
D03*
X0042350Y0004350D02*
D03*
X0039850D02*
D03*
X0037300D02*
D03*
X0067450Y0035300D02*
D03*
X0069600D02*
D03*
X0071775D02*
D03*
X0073550Y0032200D02*
D03*
X0068400Y0032175D02*
D03*
X0064650Y0037125D02*
D03*
X0066800Y0037100D02*
D03*
X0069225D02*
D03*
X0071700D02*
D03*
X0074050D02*
D03*
X0064650Y0038900D02*
D03*
X0066800D02*
D03*
X0069300D02*
D03*
X0071700D02*
D03*
X0074000D02*
D03*
X0064700Y0040700D02*
D03*
X0066800D02*
D03*
X0069300D02*
D03*
X0071700D02*
D03*
X0074000D02*
D03*
X0077200D02*
D03*
X0027800Y0018350D02*
D03*
Y0015750D02*
D03*
X0027900Y0011700D02*
D03*
X0026100Y0014550D02*
D03*
X0027900Y0013200D02*
D03*
X0025450Y0011400D02*
D03*
X0025400Y0016900D02*
D03*
X0022900Y0009600D02*
D03*
Y0008100D02*
D03*
X0056837Y0026150D02*
D03*
X0055750Y0025850D02*
D03*
X0062400Y0023100D02*
D03*
X0062450Y0040700D02*
D03*
X0063600Y0033350D02*
D03*
X0064300Y0026775D02*
D03*
X0018150Y0037700D02*
D03*
X0023250Y0039000D02*
D03*
X0025950D02*
D03*
X0018900Y0051850D02*
D03*
X0058925Y0024800D02*
D03*
X0044275Y0023200D02*
D03*
X0059200Y0023625D02*
D03*
X0058925Y0022300D02*
D03*
X0053900Y0016650D02*
D03*
X0054400Y0015650D02*
D03*
X0053050Y0014350D02*
D03*
X0055400Y0016650D02*
D03*
X0056650Y0016400D02*
D03*
X0057850Y0017600D02*
D03*
X0055350Y0015100D02*
D03*
X0061550Y0020500D02*
D03*
X0023990Y0042590D02*
D03*
X0075550Y0033800D02*
D03*
X0057400Y0025400D02*
D03*
X0043660Y0006150D02*
D03*
X0046200D02*
D03*
X0044200Y0007750D02*
D03*
X0046200D02*
D03*
X0066800Y0020700D02*
D03*
X0065700Y0022050D02*
D03*
X0070450D02*
D03*
X0013040Y0001050D02*
D03*
X0015000Y0011650D02*
D03*
Y0009800D02*
D03*
Y0008100D02*
D03*
X0013700Y0011650D02*
D03*
Y0009800D02*
D03*
Y0008100D02*
D03*
Y0006350D02*
D03*
X0015000Y0003650D02*
D03*
X0019600Y0039100D02*
D03*
X0021183Y0040650D02*
D03*
X0022800Y0042300D02*
D03*
X0022265Y0040000D02*
D03*
X0020750Y0038350D02*
D03*
X0019150Y0036850D02*
D03*
X0017550Y0035350D02*
D03*
X0016350Y0034000D02*
D03*
X0015100Y0039000D02*
D03*
X0018250D02*
D03*
X0018700Y0043200D02*
D03*
X0015700Y0048125D02*
D03*
X0014200Y0047600D02*
D03*
X0026400Y0048100D02*
D03*
X0020660Y0051850D02*
D03*
X0016375D02*
D03*
X0011175D02*
D03*
X0010575Y0049575D02*
D03*
X0010450Y0053150D02*
D03*
X0024900Y0054550D02*
D03*
X0028600Y0054950D02*
D03*
X0026250Y0055650D02*
D03*
X0025150Y0046450D02*
D03*
X0025400Y0049300D02*
D03*
X0022100Y0011350D02*
D03*
X0020800D02*
D03*
X0011750Y0055700D02*
D03*
X0015650D02*
D03*
X0019420D02*
D03*
X0023150D02*
D03*
X0030250Y0056050D02*
D03*
X0033100D02*
D03*
X0035500D02*
D03*
X0038100D02*
D03*
X0040750D02*
D03*
X0043450D02*
D03*
X0045900D02*
D03*
X0048950Y0053600D02*
D03*
X0050450Y0052050D02*
D03*
X0052250Y0050350D02*
D03*
X0051600Y0052700D02*
D03*
X0050600Y0055400D02*
D03*
X0080900Y0044900D02*
D03*
Y0041100D02*
D03*
X0080850Y0037850D02*
D03*
X0081300Y0034000D02*
D03*
X0079750Y0037900D02*
D03*
Y0039850D02*
D03*
Y0042050D02*
D03*
X0078250Y0042100D02*
D03*
X0079750Y0035650D02*
D03*
X0088400Y0026200D02*
D03*
X0087200D02*
D03*
X0086000D02*
D03*
X0084800D02*
D03*
Y0033150D02*
D03*
X0086000D02*
D03*
X0087200D02*
D03*
X0088450D02*
D03*
X0084225Y0032075D02*
D03*
Y0032850D02*
D03*
Y0027350D02*
D03*
Y0026600D02*
D03*
Y0025850D02*
D03*
X0088450Y0035600D02*
D03*
X0087200D02*
D03*
X0086000D02*
D03*
X0084800D02*
D03*
Y0023750D02*
D03*
X0086000D02*
D03*
X0087200D02*
D03*
X0088400D02*
D03*
X0084225Y0025100D02*
D03*
Y0024350D02*
D03*
Y0033600D02*
D03*
Y0034400D02*
D03*
X0084250Y0035150D02*
D03*
X0087850Y0036400D02*
D03*
X0086650D02*
D03*
X0085400D02*
D03*
Y0022900D02*
D03*
X0086650D02*
D03*
X0087900D02*
D03*
X0081400Y0024100D02*
D03*
X0082850Y0035450D02*
D03*
X0081300D02*
D03*
X0083900Y0036550D02*
D03*
X0083100Y0024100D02*
D03*
X0083800Y0023000D02*
D03*
X0029750Y0044650D02*
D03*
X0030050Y0042300D02*
D03*
X0034800Y0044800D02*
D03*
Y0041900D02*
D03*
Y0038250D02*
D03*
X0064050Y0032350D02*
D03*
X0056500Y0030225D02*
D03*
X0063150Y0032350D02*
D03*
X0017504Y0047550D02*
D03*
X0017450Y0051850D02*
D03*
X0033200Y0051900D02*
D03*
X0038200D02*
D03*
X0042475Y0051875D02*
D03*
X0049675Y0050250D02*
D03*
X0012975Y0049550D02*
D03*
X0015700Y0049525D02*
D03*
X0059500Y0029300D02*
D03*
X0058300Y0029900D02*
D03*
X0059500D02*
D03*
X0058900D02*
D03*
X0060100D02*
D03*
X0058900Y0029300D02*
D03*
X0060100D02*
D03*
X0058300D02*
D03*
X0060100Y0028700D02*
D03*
X0059500D02*
D03*
X0060100Y0028100D02*
D03*
X0059500D02*
D03*
X0058900D02*
D03*
X0058300D02*
D03*
Y0028700D02*
D03*
X0058900D02*
D03*
D40*
X0056100Y0034975D02*
D03*
X0056450Y0034275D02*
D03*
Y0033500D02*
D03*
X0061875Y0033525D02*
D03*
Y0032825D02*
D03*
X0024000Y0011600D02*
D03*
X0024700D02*
D03*
M02*
