M48
;Layer_Color=9474304
;FILE_FORMAT=4:3
METRIC
;TYPE=PLATED
T1F00S00C0.250
T2F00S00C0.300
T3F00S00C0.900
T4F00S00C1.000
%
T01
X0000600Y0000600
Y0003241
Y0006050
Y0008800
Y0011400
Y0013900
Y0016500
Y0019000
Y0021800
X0003500Y0021700
X0007500
X0011500
X0013700Y0021200
X0015000
Y0019000
X0013700
Y0017000
X0015000
Y0015100
X0013700
Y0013300
X0015000
X0016400
Y0012000
Y0010400
Y0008850
Y0007400
Y0005850
X0015000Y0006350
X0013700
Y0008100
X0015000
Y0009800
X0013700
Y0011650
X0015000
X0011500Y0010700
Y0007500
X0010500Y0006100
Y0003600
X0009200Y0002350
X0009000Y0000600
X0011850
X0013040Y0001050
X0014800Y0000600
X0017650
X0016850Y0001900
Y0003000
X0016600Y0004100
X0015000Y0003650
X0013700
X0018125Y0003550
X0019600Y0003100
Y0004100
X0020950Y0003700
X0022035Y0004900
X0021800Y0006050
X0023200Y0005950
X0023750Y0006400
X0023400Y0007000
X0023550Y0007709
X0022900Y0008100
Y0009600
X0023700
X0021250Y0009150
Y0010450
X0019900
X0020550Y0009750
X0019850Y0009150
X0019950Y0012000
Y0012850
X0020800Y0011350
X0022100
X0022700Y0013250
X0024000
X0022500Y0017750
X0021050
X0019420
X0020050Y0017000
X0019420Y0016300
X0020050Y0015600
X0017150
X0016400Y0015100
X0017150Y0017000
X0018120
X0017000Y0019600
X0019850
X0022500Y0019300
X0022477Y0020780
X0023800Y0022100
X0011500Y0017500
Y0013900
X0007500
Y0010700
Y0007000
Y0003300
X0009200Y0004890
X0003500Y0003300
X0003400Y0000600
X0006100
X0003500Y0007000
Y0010700
Y0013900
Y0017500
X0007500
X0019400Y0001900
X0020200Y0000600
X0022600
X0023200Y0001300
X0022000Y0002300
X0024450Y0002350
X0024829Y0003300
X0025750Y0003600
X0026950
Y0002350
X0027200Y0000600
X0025750Y0001250
X0024800Y0000600
X0029750
X0029700Y0002350
X0032100
X0032450Y0000600
X0035150
X0034900Y0003130
X0034750Y0005000
X0035400Y0006050
X0035050Y0007200
X0035200Y0008300
X0034600Y0009021
X0032500
X0032000Y0007600
X0030300Y0006650
X0029700Y0005000
X0032200
X0034046Y0006200
X0037300Y0006600
Y0004350
X0037390Y0003130
X0039850Y0003100
X0039850Y0004350
Y0006600
X0041750Y0006150
X0043660
X0043050Y0007400
X0044200Y0007750
X0046200
Y0006150
X0047400Y0005435
X0047550Y0003850
X0047450Y0003050
X0044900
X0044950Y0004550
X0042350Y0004350
Y0003088
X0043500Y0000600
X0040850
X0037950
X0037775Y0008550
X0037100Y0009050
X0036300Y0010600
X0038350
X0040000
X0039850Y0012000
X0040700Y0013200
X0044200
Y0010350
X0045175Y0009000
X0042875
X0041875Y0007980
X0040325Y0008550
X0039650Y0009050
X0038800Y0007982
X0041625Y0010075
X0046550Y0010350
X0047500Y0009021
X0047450Y0007150
X0048600Y0006350
Y0008050
X0050200Y0008000
X0049450Y0009250
X0048800Y0010300
X0050700Y0010450
X0050250Y0011850
X0051850Y0011600
X0051750Y0013200
X0053000Y0012700
X0053050Y0014350
X0054050Y0013850
X0055200Y0012900
X0055350Y0015100
X0054400Y0015650
X0053900Y0016650
X0052400
X0052450Y0015500
X0050250Y0014800
X0050750Y0016750
X0049400Y0018100
X0048200Y0019300
X0046850Y0020625
X0045550Y0021907
X0044200Y0020200
Y0016800
X0040700
Y0020200
X0036700
Y0016800
Y0013200
X0032850
Y0016800
Y0020200
X0029100
X0028850Y0022050
X0027650Y0020900
X0026550Y0019800
X0025450Y0018700
X0026050Y0017650
X0025400Y0016900
Y0015700
X0026050Y0016100
X0026850Y0016900
X0027800Y0015750
X0029200Y0016800
X0027800Y0018350
X0027900Y0013200
X0029200
Y0010600
X0031600
X0033950
X0030300Y0009021
X0027950
X0028420Y0007600
X0026450Y0008000
X0026200Y0006750
X0026950Y0006050
Y0004900
X0025250Y0005950
Y0007500
X0024600Y0008800
X0024450Y0009600
X0025700Y0009021
X0025500Y0010650
X0025450Y0011400
X0026050Y0011600
Y0013100
X0025400Y0013250
Y0014550
X0026100
X0026800Y0012350
X0027900Y0011700
X0026700Y0010600
X0047650Y0013200
X0047750Y0016800
X0052025Y0019450
X0053550
X0055075Y0019475
X0054700Y0020700
X0056350Y0020750
X0055600Y0021950
X0053750
X0051950Y0022000
X0052900Y0020700
X0050725Y0020775
X0049600Y0021907
X0057400Y0021825
X0058925Y0022300
X0060574Y0020350
X0061550Y0020500
X0061500Y0019550
X0063100Y0019250
X0062600Y0020700
X0061850Y0021450
X0063450Y0022050
X0060250Y0018000
X0059200Y0018950
X0057850Y0017600
X0058550Y0016300
X0056650Y0016400
X0055400Y0016650
X0056810Y0014500
X0060200Y0014350
X0060300Y0011000
X0056750
X0056450Y0008450
X0055600Y0009050
X0054300
X0053050
X0052250Y0008450
X0052100Y0009800
X0053550Y0011300
X0054300Y0007321
Y0005435
X0054200Y0004279
X0055600Y0004950
X0056886
X0056500Y0006700
X0058550Y0006300
X0058600Y0007600
X0059700Y0004950
X0062300Y0005000
X0062400Y0007600
X0061000Y0003000
X0060643Y0000600
X0057700
X0054850
X0052000
X0049050
X0046400
X0050250Y0003050
X0049600Y0003850
X0049550Y0005450
X0051050Y0006350
X0052300Y0006800
X0051950Y0005464
X0052050Y0003850
X0053100Y0003050
X0055650
X0058100
X0063600Y0000600
X0066400
X0069100
X0069200Y0003000
X0068050Y0005150
X0071800
X0074200Y0005350
Y0004200
Y0003050
X0072950Y0003000
X0075500Y0002200
X0075000Y0000600
X0077900
X0080800
X0083600
X0083100Y0002100
X0079450
X0076800Y0003050
Y0004200
Y0005350
Y0006500
Y0007650
X0078050Y0007750
X0081100Y0007600
Y0004350
X0078050
X0074200Y0006500
Y0007650
X0075500Y0008500
X0075900Y0011000
Y0014350
X0076000Y0017750
Y0021100
X0074000Y0022050
X0072500
X0072700Y0020700
X0071100
X0071300Y0019350
X0069450Y0019250
X0068800Y0020750
X0068100Y0022050
X0070450
X0065700
X0064700Y0020700
X0066800
X0066600Y0019250
X0068050Y0017800
Y0014350
Y0011000
X0071800
Y0014350
Y0017750
X0074050Y0019850
X0077750
X0077800Y0022300
X0080000Y0021100
X0081400Y0022150
X0081350Y0019850
X0080200Y0017750
Y0014350
Y0011000
X0084650
Y0014350
Y0017750
Y0021100
X0088400Y0021050
Y0018700
Y0016500
Y0014300
Y0012000
Y0009700
Y0007500
Y0005338
Y0002938
X0087000Y0002100
X0086200Y0000600
X0088400
X0084650Y0004300
Y0007600
X0070400
X0066450
X0064250Y0005150
X0065100Y0003000
X0064275Y0011000
X0064200Y0014350
Y0017800
X0072000Y0000600
X0072500Y0023600
X0074050
X0073500Y0024600
X0073750Y0025850
X0074750Y0025400
X0075500Y0025550
X0076350Y0025600
X0076100Y0024600
X0075000
X0075650Y0023600
X0077950
X0077450Y0024600
X0077800Y0025400
X0078850Y0025850
Y0024600
X0079800Y0025050
Y0023600
X0081400Y0024100
Y0025800
Y0027300
X0080900Y0027950
X0080425Y0028825
X0079750Y0029000
X0079800Y0028250
X0078775Y0028175
X0079000Y0028825
X0078200
X0077425
X0077100Y0028200
X0077925
X0077300Y0027300
X0077000Y0026400
X0078100Y0026700
X0078850Y0027300
X0079800Y0026600
X0079750Y0030325
X0078975Y0030525
X0078200
X0077425
X0077100Y0031150
X0077825
X0078600
X0079350Y0031100
X0080150
X0081000Y0031150
X0081850
X0082675
X0083500
X0084225Y0031250
Y0032075
Y0032850
Y0033600
Y0034400
X0084250Y0035150
X0084800Y0035600
X0086000
X0087200
X0088450
X0087850Y0036400
X0086650
X0085400
X0083900Y0036550
X0084650Y0037900
Y0041050
X0080900Y0041100
X0079750Y0042050
X0078250Y0042100
X0078300Y0041300
X0078350Y0039700
X0079750Y0039850
Y0037900
X0080850Y0037850
X0078400Y0037900
Y0036200
X0079750Y0035650
X0079800Y0034000
X0078450
Y0032575
X0079800
X0081300
Y0034000
Y0035450
X0082850
Y0034000
Y0032575
X0083150Y0030525
X0082300
X0081425
X0080575
X0081475Y0028825
X0082400
X0083325
X0082875Y0028300
X0081925
X0083100Y0027300
X0084225Y0027350
Y0028100
Y0026600
Y0025850
Y0025100
Y0024350
X0084800Y0023750
X0086000
X0087200
X0088400
X0087900Y0022900
X0086650
X0085400
X0083800Y0023000
X0083100Y0024100
Y0025850
X0084800Y0026200
X0086000
X0087200
X0088400
X0088450Y0033150
X0087200
X0086000
X0084800
X0084000Y0030525
X0077350Y0032075
X0077050Y0033100
X0076400Y0033750
X0075550Y0033800
X0076050Y0034450
X0074950
X0074750Y0033450
X0074100Y0032900
X0072950
X0072750Y0032075
X0071850
X0071050
X0070150Y0032050
X0069250
X0068400Y0032175
X0067700Y0032300
X0066950
X0066200
X0065450Y0032100
X0064775Y0032350
X0064050Y0032350
X0064375Y0033280
X0064525Y0034050
X0064475Y0034900
X0065275Y0035300
X0064875Y0036150
X0064075Y0035800
X0063900Y0036600
X0064650Y0037125
X0065775Y0036625
X0066800Y0037100
X0068075Y0036625
X0069225Y0037100
X0070600Y0036625
X0071700Y0037100
X0072875Y0036625
X0074050Y0037100
X0074950Y0036200
X0076050
Y0038100
X0074950
Y0039750
X0076050Y0039700
Y0041300
X0074900Y0041350
X0074200Y0042100
X0072600
X0072550Y0043450
X0073700Y0044900
X0074900Y0044650
X0076050
Y0046150
X0074900
X0074850Y0047700
X0076050Y0048000
X0077300Y0048800
X0074800Y0049400
X0073700Y0048800
X0073500Y0050750
X0072300Y0050250
X0071700Y0051500
X0070150Y0050400
X0070100Y0052700
X0069900Y0055400
X0070200Y0057400
X0072400
X0074700
X0077000
X0079450
X0081750
X0081650Y0055400
X0080900Y0052700
X0077300
X0073700
X0075800Y0055400
X0067900Y0057400
X0065450
X0066400Y0052700
Y0050400
X0066450Y0047800
X0066500Y0044950
X0064850Y0043400
X0064000Y0042100
X0066000
X0067800
X0069400
X0069300Y0040700
Y0038900
X0071700
Y0040700
X0071000Y0042100
X0068700Y0043400
X0070100Y0044950
Y0047800
X0068200Y0051500
X0064600Y0051450
X0064700Y0040700
X0064650Y0038900
X0065600Y0038025
X0066800Y0038900
Y0040700
X0067450Y0035300
X0066850Y0034150
Y0033050
X0067800
X0068800Y0032950
X0069750Y0032900
X0070750
X0071850
X0072100Y0034150
X0071775Y0035300
X0069600
X0070250Y0034150
X0068450
X0065450Y0034200
X0065050Y0033000
X0065900
X0063700Y0034200
X0064975Y0028700
X0066000Y0028450
X0066850Y0028350
X0067750
X0068650
X0069550
X0070450
X0071350
X0072250
X0073150
X0074050
X0074950
X0075800Y0028200
X0075525Y0028850
X0075350Y0029675
X0075525Y0030500
X0075800Y0031150
X0074900Y0031075
X0074150Y0031350
X0073050
X0072250
X0071450
X0070600
X0069750
X0068950
X0068675Y0029675
X0069700Y0029675
X0070750
X0071800
X0072875Y0029675
X0073900Y0029675
X0073600Y0027600
X0074500
X0074650Y0026700
X0072850
X0072700Y0027600
X0071850
X0070950
Y0026700
X0071850Y0025850
X0069900
X0070000Y0027600
X0069100
X0068250
X0067350
X0066350
X0065450Y0027850
X0064900Y0027350
X0064350Y0027850
X0064300Y0026775
X0065500
X0065950Y0025850
X0065700Y0024600
X0065900Y0023600
X0064275
X0063750Y0025850
X0066950Y0026700
X0067950Y0025850
X0068300Y0024600
X0067550Y0023600
X0069200
X0070800
X0070850Y0024600
X0068850Y0026700
X0067650Y0029675
X0066725
X0073550Y0032200
X0074550Y0032075
X0073925Y0034175
X0074050Y0035300
X0077200
X0077325Y0034400
X0077200Y0037100
Y0038900
Y0040700
X0076700Y0042100
X0076050Y0043100
X0074900
X0074000Y0040700
Y0038900
X0077300Y0044900
X0080900
X0084650
Y0048800
X0080900
X0084650Y0052700
X0088400Y0052800
Y0050500
Y0048500
Y0046400
Y0044300
Y0042300
Y0040000
Y0037900
Y0055150
Y0057400
X0086300
X0086950Y0056000
X0084000Y0057400
X0062900
X0063200Y0055400
X0063000Y0052700
X0062750Y0050400
X0060950Y0051450
X0059100Y0050350
X0059100Y0052700
X0056950Y0051450
X0055300Y0052700
X0054900Y0050350
X0052250
X0053050Y0051450
X0051600Y0052700
X0050450Y0052050
X0050100Y0054100
X0048950Y0053600
X0047500Y0053150
Y0055000
X0048350Y0056000
X0047400Y0057400
X0050000
X0052600
X0055200
X0057802
X0060400
X0055900Y0055400
X0050600
X0045900Y0056050
X0044750Y0054950
X0044900Y0053750
Y0051900
X0042475Y0051875
X0041700Y0051900
X0040500
X0038200
X0036700
X0035275
X0033200
X0031650
X0030180
X0027900
X0027000Y0052650
X0025950Y0051850
X0026650Y0050800
X0026550Y0049550
X0027800
X0028100Y0048000
X0026400Y0048100
X0025300Y0047900
X0025400Y0049300
X0025150Y0046450
X0026650Y0046464
X0027750Y0046450
Y0044600
X0026650Y0044800
X0025250Y0044750
X0025000Y0042400
X0026650Y0043300
X0027750Y0042750
X0029050Y0041400
X0030050Y0042300
X0031750Y0042400
X0032850Y0042350
Y0044400
X0031750Y0044450
X0031700Y0046400
X0032850
X0033100Y0047950
Y0049300
X0031550
X0031450Y0047950
X0029850Y0047400
X0029600Y0049800
X0029650Y0053850
X0028600Y0054950
X0030250Y0056050
X0030700Y0057400
X0027950
X0025350
X0026250Y0055650
X0026400Y0054300
X0024900Y0054550
X0031650Y0054950
X0032250Y0053850
X0034200Y0054950
X0033100Y0056050
X0033600Y0057400
X0036400
X0035500Y0056050
X0036750Y0054950
X0037250Y0053800
X0039800Y0053750
X0039350Y0054950
X0038100Y0056050
X0039100Y0057400
X0041950
X0040750Y0056050
X0042050Y0054950
X0042450Y0053750
X0043450Y0056050
X0044700Y0057400
X0044900Y0049300
X0044400Y0047800
X0044300Y0044700
X0046200Y0043400
X0048000Y0044900
Y0047800
X0047500Y0049300
Y0050610
X0049675Y0050250
X0051500Y0047800
Y0044950
X0051700Y0042100
X0050450
Y0040700
Y0039200
X0052050
Y0037700
Y0036425
X0052525Y0035575
X0052450Y0034775
X0053325
X0054225
X0055100
X0054475Y0035825
X0053525Y0035675
X0053800Y0036600
Y0037775
X0053750Y0039200
Y0040700
X0052050
X0053050Y0042100
X0053100Y0043400
X0054450Y0042100
X0056200
X0055850Y0040700
X0055200Y0039400
X0056950
X0056725Y0038600
X0057550Y0038100
X0058475Y0038600
X0058650Y0039450
X0058050Y0040700
X0058150Y0042100
X0060100
X0060200Y0040700
X0060600Y0039450
X0060400Y0038600
X0060375Y0037375
X0059275Y0037400
X0059475Y0038150
X0059875Y0036725
X0060750Y0036600
X0061250Y0037100
X0061775Y0036600
X0062325Y0037100
X0062350Y0037975
X0062450Y0038900
Y0040700
X0062100Y0042100
X0061200Y0043400
X0062900Y0044950
X0063000Y0047800
X0059100
Y0044900
X0057300Y0043400
X0055291Y0044950
X0055300Y0047800
X0049500Y0043350
X0048000Y0040800
X0044350
X0040700Y0040750
X0037950Y0040500
X0036800Y0040550
Y0042600
X0037950
X0038000Y0044650
X0036800
Y0046464
X0037950Y0046500
X0038250Y0047950
X0038150Y0049300
X0036600
X0036500Y0047950
X0034800Y0048150
X0034750Y0049800
X0034800Y0044800
Y0041900
X0032850Y0040250
X0031750Y0040500
X0030400Y0040050
X0031750Y0038700
X0032800Y0038200
X0034800Y0038250
X0034150Y0036800
X0035500Y0035500
X0036850Y0036350
X0037950Y0036150
Y0038400
X0036850Y0038450
Y0034150
X0037950Y0033550
X0039100Y0032400
X0040150Y0031300
X0042100
X0044400
Y0033500
Y0037100
X0048000
X0050425Y0037600
Y0035850
Y0034300
Y0032975
X0051100Y0033600
Y0032250
X0050600Y0031300
X0048800
X0046800
X0048000Y0033600
X0051725Y0034325
X0051400Y0035250
X0055225Y0036600
X0056500
X0057100Y0037100
X0057750Y0036600
X0058225Y0037325
X0058775Y0036825
X0058525Y0034525
X0059950Y0034475
X0060475Y0034775
Y0035400
X0061750Y0035025
X0062675
X0063575
X0063600Y0033350
X0062650Y0033375
X0063150Y0032350
X0060350Y0031725
X0059700
X0058700
X0058025
X0057400
X0056500Y0030225
X0058300Y0029900
X0058900
X0059500
Y0029300
X0058900
Y0028700
X0059500
X0060100
Y0029300
Y0029900
Y0028100
X0059500
X0058900
X0058300
Y0028700
Y0029300
X0057950Y0026400
X0058450Y0025900
X0057400Y0025400
X0056550Y0025250
X0056850Y0024450
X0055750Y0024700
Y0025850
X0056011Y0026750
X0055250Y0027100
X0054300Y0027050
X0053050
Y0025850
Y0024700
Y0023600
X0051650
Y0024700
Y0025850
X0051750Y0027050
X0050450Y0026350
X0050425Y0024850
X0050450Y0023600
X0049100Y0024200
X0048425Y0023050
X0047275Y0024200
X0048100Y0025500
X0049050Y0026700
Y0028000
X0050500
X0047300
X0046900Y0026700
X0045968Y0025525
X0044750Y0026750
X0045450Y0028000
X0043475
X0043050Y0024400
X0041850Y0025550
X0040750Y0026700
X0038450
X0039450Y0028000
X0037000
X0034750
X0033650Y0026900
X0032450Y0025700
X0031300Y0024500
X0032850Y0023700
X0030000Y0023250
X0028950Y0027250
X0030050Y0028350
X0031300Y0029600
X0032450Y0030800
X0034150Y0031300
X0036150
X0034750Y0032750
X0033450Y0034050
X0031900Y0035600
X0030200Y0037250
X0027300Y0036800
X0028450Y0039000
X0025950
X0026700Y0040700
X0029750Y0044650
X0040700Y0044600
Y0047800
X0039850Y0049300
X0042400
X0040700Y0037100
X0040750Y0033400
X0040700Y0023700
X0036700
X0035950Y0026700
X0027750Y0026050
X0026400Y0024750
X0025100Y0023400
X0026800Y0028400
X0027250Y0032900
X0030950
X0044275Y0023200
X0054500Y0023600
X0054350Y0024700
Y0025850
X0056837Y0026150
Y0027200
X0057400Y0023600
X0055950
X0059200Y0023625
X0058925Y0024800
X0059800Y0025400
X0060300Y0025950
X0060841Y0026450
X0060900Y0027100
X0062050Y0026775
X0062016Y0027650
X0062800Y0027600
X0063650
X0063150Y0026775
X0061900Y0025800
X0061850Y0024900
X0062450Y0025250
X0062400Y0024300
Y0023100
X0063350Y0024650
X0062850Y0036600
X0063400Y0037125
X0063425Y0038050
X0061350Y0038100
X0055850Y0037775
X0023800Y0036800
X0023250Y0039000
X0022265Y0040000
X0021183Y0040650
X0020200Y0041200
X0019600Y0039100
X0018250Y0039000
X0018150Y0037700
X0019150Y0036850
X0020500Y0036800
X0020750Y0038350
X0020450Y0032900
X0023800
X0023500Y0028400
X0020400
X0017000
X0015000Y0029500
X0013700
Y0031550
X0015000
X0014955Y0032700
X0013700Y0033400
X0015250Y0034900
X0016350Y0034000
X0017000Y0032900
X0017550Y0035350
X0016700Y0036250
X0015100Y0039000
X0011500
Y0035100
X0007500
Y0038900
X0003500
X0000650
Y0041700
X0000600Y0044300
Y0046900
Y0048150
Y0049803
X0001650Y0049250
X0002950Y0049803
X0003000Y0051850
Y0054200
X0000600
Y0055700
Y0057400
X0003200
X0004200Y0055700
X0005450Y0054200
Y0051850
X0005350Y0050150
X0004800Y0048600
X0003500Y0046650
X0006150
X0009550
X0011800
X0013500Y0046500
X0015150
X0016900
X0017504Y0047550
X0018250Y0048600
X0018200Y0049950
X0020700
X0020750Y0048600
X0020850Y0046500
X0018950
X0018700Y0043200
X0021750
X0022800Y0042300
X0023990Y0042590
X0023800Y0043600
Y0041300
Y0046250
X0023750Y0048125
X0022400Y0047546
X0022250Y0045100
X0023150Y0049803
Y0051850
Y0054200
Y0055700
X0022300Y0057400
X0019501
X0019420Y0055700
X0020660Y0054200
Y0051850
X0018900
X0017450
X0016375
X0014925
X0013750
X0012400
X0011175
X0010100
X0010450Y0053150
X0010500Y0054200
X0008000
Y0053100
Y0051850
Y0050610
X0008100Y0048700
X0009260Y0049400
X0010575Y0049575
X0011000Y0048125
X0012975Y0049550
X0015700Y0049525
Y0048125
X0014200Y0047600
X0015200Y0043200
X0011500
X0007500
X0003500
Y0035000
X0000600Y0036150
Y0033550
Y0030700
X0003500
X0007500
X0011500
Y0026000
X0013700Y0025300
X0015000
Y0027200
X0013700
Y0023150
X0015000
X0017000Y0023800
X0020050
X0023300Y0023850
X0007500Y0026000
X0003500
X0000600Y0024700
Y0027696
Y0051850
X0005900Y0057400
X0008500
X0008000Y0055700
X0011750
X0011200Y0057400
X0014100
X0016900
X0015650Y0055700
X0015600Y0054200
X0013100
X0018120
T02
X0024000Y0011600
X0024700
X0086650Y0025295
Y0034055
X0061875Y0033525
Y0032825
X0056450Y0033500
Y0034275
X0056100Y0034975
T03
X0010500Y0002350
X0013040
X0015580
X0018120
X0020660
X0023200
Y0004890
X0020660
X0018120
X0015580
X0013040
X0010500
X0023990Y0014550
X0025740Y0004890
Y0002350
X0028280
Y0004890
X0033500
Y0002350
X0036040
X0038580
X0041120
X0043660
X0046200
Y0004890
X0043660
X0041120
X0038580
X0036040
X0061000Y0005000
X0046200Y0050610
X0043660
X0041120
X0038580
X0036040
X0033500
X0030960
X0028420
Y0053150
X0030960
X0033500
X0036040
X0038580
X0041120
X0043660
X0046200
X0024500
Y0050610
X0021960
X0019420
X0016880
X0014340
X0011800
X0009260
X0006720
X0004180
X0001640
Y0053150
X0004180
X0006720
X0009260
X0011800
X0014340
X0016880
X0019420
X0021960
T04
X0021450Y0014550
M30
