G04 Layer_Color=33789*
%FSAX43Y43*%
%MOMM*%
G71*
G01*
G75*
%ADD32C,0.050*%
%ADD44C,0.100*%
%ADD65C,0.110*%
D32*
X0000000Y0000000D02*
Y0058000D01*
Y0000000D02*
X0089000D01*
Y0058000D01*
X0000000D02*
X0089000D01*
D44*
X0021233Y0007167D02*
X0021150Y0007250D01*
X0020983D01*
X0020900Y0007167D01*
Y0006833D01*
X0020983Y0006750D01*
X0021150D01*
X0021233Y0006833D01*
X0021733Y0006750D02*
X0021400D01*
X0021733Y0007083D01*
Y0007167D01*
X0021650Y0007250D01*
X0021483D01*
X0021400Y0007167D01*
X0022233Y0007250D02*
X0022066Y0007167D01*
X0021900Y0007000D01*
Y0006833D01*
X0021983Y0006750D01*
X0022150D01*
X0022233Y0006833D01*
Y0006917D01*
X0022150Y0007000D01*
X0021900D01*
X0020900Y0008100D02*
Y0008600D01*
X0021150D01*
X0021233Y0008517D01*
Y0008350D01*
X0021150Y0008267D01*
X0020900D01*
X0021067D02*
X0021233Y0008100D01*
X0021400D02*
X0021566D01*
X0021483D01*
Y0008600D01*
X0021400Y0008517D01*
X0022150Y0008100D02*
X0021816D01*
X0022150Y0008433D01*
Y0008517D01*
X0022066Y0008600D01*
X0021900D01*
X0021816Y0008517D01*
X0021800Y0010400D02*
X0022300D01*
Y0010150D01*
X0022217Y0010067D01*
X0022050D01*
X0021967Y0010150D01*
Y0010400D01*
Y0010233D02*
X0021800Y0010067D01*
Y0009900D02*
Y0009734D01*
Y0009817D01*
X0022300D01*
X0022217Y0009900D01*
X0021800Y0009484D02*
Y0009317D01*
Y0009400D01*
X0022300D01*
X0022217Y0009484D01*
X0065617Y0029267D02*
X0065700Y0029350D01*
Y0029517D01*
X0065617Y0029600D01*
X0065283D01*
X0065200Y0029517D01*
Y0029350D01*
X0065283Y0029267D01*
X0065200Y0029100D02*
Y0028934D01*
Y0029017D01*
X0065700D01*
X0065617Y0029100D01*
Y0028684D02*
X0065700Y0028600D01*
Y0028434D01*
X0065617Y0028350D01*
X0065533D01*
X0065450Y0028434D01*
Y0028517D01*
Y0028434D01*
X0065367Y0028350D01*
X0065283D01*
X0065200Y0028434D01*
Y0028600D01*
X0065283Y0028684D01*
X0073717Y0031167D02*
X0073800Y0031250D01*
Y0031417D01*
X0073717Y0031500D01*
X0073383D01*
X0073300Y0031417D01*
Y0031250D01*
X0073383Y0031167D01*
X0073800Y0031000D02*
Y0030667D01*
X0073717D01*
X0073383Y0031000D01*
X0073300D01*
X0063633Y0028617D02*
X0063550Y0028700D01*
X0063383D01*
X0063300Y0028617D01*
Y0028283D01*
X0063383Y0028200D01*
X0063550D01*
X0063633Y0028283D01*
X0063800Y0028200D02*
X0063966D01*
X0063883D01*
Y0028700D01*
X0063800Y0028617D01*
X0064550Y0028200D02*
X0064216D01*
X0064550Y0028533D01*
Y0028617D01*
X0064466Y0028700D01*
X0064300D01*
X0064216Y0028617D01*
X0063733Y0029717D02*
X0063650Y0029800D01*
X0063483D01*
X0063400Y0029717D01*
Y0029383D01*
X0063483Y0029300D01*
X0063650D01*
X0063733Y0029383D01*
X0063900Y0029300D02*
X0064066D01*
X0063983D01*
Y0029800D01*
X0063900Y0029717D01*
X0064316Y0029300D02*
X0064483D01*
X0064400D01*
Y0029800D01*
X0064316Y0029717D01*
X0024250Y0048800D02*
X0024750D01*
Y0048550D01*
X0024667Y0048467D01*
X0024500D01*
X0024417Y0048550D01*
Y0048800D01*
Y0048633D02*
X0024250Y0048467D01*
Y0048300D02*
Y0048134D01*
Y0048217D01*
X0024750D01*
X0024667Y0048300D01*
Y0047884D02*
X0024750Y0047800D01*
Y0047634D01*
X0024667Y0047550D01*
X0024583D01*
X0024500Y0047634D01*
Y0047717D01*
Y0047634D01*
X0024417Y0047550D01*
X0024333D01*
X0024250Y0047634D01*
Y0047800D01*
X0024333Y0047884D01*
X0066833Y0031617D02*
X0066750Y0031700D01*
X0066583D01*
X0066500Y0031617D01*
Y0031283D01*
X0066583Y0031200D01*
X0066750D01*
X0066833Y0031283D01*
X0067250Y0031200D02*
Y0031700D01*
X0067000Y0031450D01*
X0067333D01*
X0052800Y0008471D02*
X0053300D01*
Y0008221D01*
X0053217Y0008137D01*
X0053050D01*
X0052967Y0008221D01*
Y0008471D01*
Y0008304D02*
X0052800Y0008137D01*
Y0007971D02*
Y0007804D01*
Y0007888D01*
X0053300D01*
X0053217Y0007971D01*
X0053300Y0007221D02*
Y0007554D01*
X0053050D01*
X0053133Y0007388D01*
Y0007304D01*
X0053050Y0007221D01*
X0052883D01*
X0052800Y0007304D01*
Y0007471D01*
X0052883Y0007554D01*
X0055350Y0008471D02*
X0055850D01*
Y0008221D01*
X0055767Y0008137D01*
X0055600D01*
X0055517Y0008221D01*
Y0008471D01*
Y0008304D02*
X0055350Y0008137D01*
Y0007971D02*
Y0007804D01*
Y0007888D01*
X0055850D01*
X0055767Y0007971D01*
X0055850Y0007221D02*
X0055767Y0007388D01*
X0055600Y0007554D01*
X0055433D01*
X0055350Y0007471D01*
Y0007304D01*
X0055433Y0007221D01*
X0055517D01*
X0055600Y0007304D01*
Y0007554D01*
X0025033Y0012517D02*
X0024950Y0012600D01*
X0024783D01*
X0024700Y0012517D01*
Y0012183D01*
X0024783Y0012100D01*
X0024950D01*
X0025033Y0012183D01*
X0025533Y0012100D02*
X0025200D01*
X0025533Y0012433D01*
Y0012517D01*
X0025450Y0012600D01*
X0025283D01*
X0025200Y0012517D01*
X0025700Y0012100D02*
X0025866D01*
X0025783D01*
Y0012600D01*
X0025700Y0012517D01*
X0069833Y0030667D02*
X0069750Y0030750D01*
X0069583D01*
X0069500Y0030667D01*
Y0030333D01*
X0069583Y0030250D01*
X0069750D01*
X0069833Y0030333D01*
X0070333Y0030750D02*
X0070166Y0030667D01*
X0070000Y0030500D01*
Y0030333D01*
X0070083Y0030250D01*
X0070250D01*
X0070333Y0030333D01*
Y0030417D01*
X0070250Y0030500D01*
X0070000D01*
X0065617Y0031117D02*
X0065700Y0031200D01*
Y0031367D01*
X0065617Y0031450D01*
X0065283D01*
X0065200Y0031367D01*
Y0031200D01*
X0065283Y0031117D01*
X0065617Y0030950D02*
X0065700Y0030867D01*
Y0030700D01*
X0065617Y0030617D01*
X0065533D01*
X0065450Y0030700D01*
Y0030784D01*
Y0030700D01*
X0065367Y0030617D01*
X0065283D01*
X0065200Y0030700D01*
Y0030867D01*
X0065283Y0030950D01*
X0077983Y0029842D02*
X0077900Y0029925D01*
X0077733D01*
X0077650Y0029842D01*
Y0029508D01*
X0077733Y0029425D01*
X0077900D01*
X0077983Y0029508D01*
X0078150Y0029842D02*
X0078233Y0029925D01*
X0078400D01*
X0078483Y0029842D01*
Y0029758D01*
X0078400Y0029675D01*
X0078483Y0029592D01*
Y0029508D01*
X0078400Y0029425D01*
X0078233D01*
X0078150Y0029508D01*
Y0029592D01*
X0078233Y0029675D01*
X0078150Y0029758D01*
Y0029842D01*
X0078233Y0029675D02*
X0078400D01*
X0081067Y0029242D02*
X0081150Y0029325D01*
Y0029492D01*
X0081067Y0029575D01*
X0080733D01*
X0080650Y0029492D01*
Y0029325D01*
X0080733Y0029242D01*
Y0029075D02*
X0080650Y0028992D01*
Y0028825D01*
X0080733Y0028742D01*
X0081067D01*
X0081150Y0028825D01*
Y0028992D01*
X0081067Y0029075D01*
X0080983D01*
X0080900Y0028992D01*
Y0028742D01*
X0084067Y0029392D02*
X0084150Y0029475D01*
Y0029642D01*
X0084067Y0029725D01*
X0083733D01*
X0083650Y0029642D01*
Y0029475D01*
X0083733Y0029392D01*
X0083650Y0029225D02*
Y0029059D01*
Y0029142D01*
X0084150D01*
X0084067Y0029225D01*
Y0028809D02*
X0084150Y0028725D01*
Y0028559D01*
X0084067Y0028475D01*
X0083733D01*
X0083650Y0028559D01*
Y0028725D01*
X0083733Y0028809D01*
X0084067D01*
X0062867Y0032117D02*
X0062950Y0032200D01*
Y0032367D01*
X0062867Y0032450D01*
X0062533D01*
X0062450Y0032367D01*
Y0032200D01*
X0062533Y0032117D01*
X0062450Y0031950D02*
Y0031784D01*
Y0031867D01*
X0062950D01*
X0062867Y0031950D01*
X0066550Y0030750D02*
Y0030250D01*
X0066883D01*
X0067050Y0030667D02*
X0067133Y0030750D01*
X0067300D01*
X0067383Y0030667D01*
Y0030583D01*
X0067300Y0030500D01*
X0067216D01*
X0067300D01*
X0067383Y0030417D01*
Y0030333D01*
X0067300Y0030250D01*
X0067133D01*
X0067050Y0030333D01*
X0064750Y0031350D02*
X0064250D01*
Y0031017D01*
Y0030850D02*
Y0030684D01*
Y0030767D01*
X0064750D01*
X0064667Y0030850D01*
X0075300Y0033100D02*
X0075800D01*
Y0032850D01*
X0075717Y0032767D01*
X0075550D01*
X0075467Y0032850D01*
Y0033100D01*
Y0032933D02*
X0075300Y0032767D01*
Y0032350D02*
X0075800D01*
X0075550Y0032600D01*
Y0032267D01*
X0024733Y0006917D02*
X0024650Y0007000D01*
X0024483D01*
X0024400Y0006917D01*
Y0006583D01*
X0024483Y0006500D01*
X0024650D01*
X0024733Y0006583D01*
X0025233Y0006500D02*
X0024900D01*
X0025233Y0006833D01*
Y0006917D01*
X0025150Y0007000D01*
X0024983D01*
X0024900Y0006917D01*
X0025650Y0006500D02*
Y0007000D01*
X0025400Y0006750D01*
X0025733D01*
X0018317Y0015417D02*
X0018400Y0015500D01*
Y0015667D01*
X0018317Y0015750D01*
X0017983D01*
X0017900Y0015667D01*
Y0015500D01*
X0017983Y0015417D01*
X0017900Y0014917D02*
Y0015250D01*
X0018233Y0014917D01*
X0018317D01*
X0018400Y0015000D01*
Y0015167D01*
X0018317Y0015250D01*
X0017900Y0014417D02*
Y0014750D01*
X0018233Y0014417D01*
X0018317D01*
X0018400Y0014500D01*
Y0014667D01*
X0018317Y0014750D01*
X0024983Y0017067D02*
X0024900Y0017150D01*
X0024733D01*
X0024650Y0017067D01*
Y0016733D01*
X0024733Y0016650D01*
X0024900D01*
X0024983Y0016733D01*
X0025483Y0016650D02*
X0025150D01*
X0025483Y0016983D01*
Y0017067D01*
X0025400Y0017150D01*
X0025233D01*
X0025150Y0017067D01*
X0025650D02*
X0025733Y0017150D01*
X0025900D01*
X0025983Y0017067D01*
Y0016733D01*
X0025900Y0016650D01*
X0025733D01*
X0025650Y0016733D01*
Y0017067D01*
X0063767Y0032217D02*
X0063850Y0032300D01*
Y0032467D01*
X0063767Y0032550D01*
X0063433D01*
X0063350Y0032467D01*
Y0032300D01*
X0063433Y0032217D01*
X0063350Y0031717D02*
Y0032050D01*
X0063683Y0031717D01*
X0063767D01*
X0063850Y0031800D01*
Y0031967D01*
X0063767Y0032050D01*
X0076592Y0032967D02*
X0076675Y0033050D01*
Y0033217D01*
X0076592Y0033300D01*
X0076258D01*
X0076175Y0033217D01*
Y0033050D01*
X0076258Y0032967D01*
X0076175Y0032800D02*
Y0032634D01*
Y0032717D01*
X0076675D01*
X0076592Y0032800D01*
X0076175Y0032134D02*
X0076675D01*
X0076425Y0032384D01*
Y0032050D01*
X0062133Y0034367D02*
X0062050Y0034450D01*
X0061883D01*
X0061800Y0034367D01*
Y0034033D01*
X0061883Y0033950D01*
X0062050D01*
X0062133Y0034033D01*
X0062300Y0033950D02*
X0062466D01*
X0062383D01*
Y0034450D01*
X0062300Y0034367D01*
X0063050Y0034450D02*
X0062883Y0034367D01*
X0062716Y0034200D01*
Y0034033D01*
X0062800Y0033950D01*
X0062966D01*
X0063050Y0034033D01*
Y0034117D01*
X0062966Y0034200D01*
X0062716D01*
X0056142Y0031167D02*
X0056225Y0031250D01*
Y0031417D01*
X0056142Y0031500D01*
X0055808D01*
X0055725Y0031417D01*
Y0031250D01*
X0055808Y0031167D01*
X0055725Y0031000D02*
Y0030834D01*
Y0030917D01*
X0056225D01*
X0056142Y0031000D01*
X0056225Y0030584D02*
Y0030250D01*
X0056142D01*
X0055808Y0030584D01*
X0055725D01*
X0056167Y0028267D02*
X0056250Y0028350D01*
Y0028517D01*
X0056167Y0028600D01*
X0055833D01*
X0055750Y0028517D01*
Y0028350D01*
X0055833Y0028267D01*
X0055750Y0028100D02*
Y0027934D01*
Y0028017D01*
X0056250D01*
X0056167Y0028100D01*
Y0027684D02*
X0056250Y0027600D01*
Y0027434D01*
X0056167Y0027350D01*
X0056083D01*
X0056000Y0027434D01*
X0055917Y0027350D01*
X0055833D01*
X0055750Y0027434D01*
Y0027600D01*
X0055833Y0027684D01*
X0055917D01*
X0056000Y0027600D01*
X0056083Y0027684D01*
X0056167D01*
X0056000Y0027600D02*
Y0027434D01*
X0019617Y0015417D02*
X0019700Y0015500D01*
Y0015667D01*
X0019617Y0015750D01*
X0019283D01*
X0019200Y0015667D01*
Y0015500D01*
X0019283Y0015417D01*
X0019200Y0014917D02*
Y0015250D01*
X0019533Y0014917D01*
X0019617D01*
X0019700Y0015000D01*
Y0015167D01*
X0019617Y0015250D01*
Y0014750D02*
X0019700Y0014667D01*
Y0014500D01*
X0019617Y0014417D01*
X0019533D01*
X0019450Y0014500D01*
Y0014584D01*
Y0014500D01*
X0019367Y0014417D01*
X0019283D01*
X0019200Y0014500D01*
Y0014667D01*
X0019283Y0014750D01*
X0062600Y0030750D02*
Y0030250D01*
X0062933D01*
X0063433D02*
X0063100D01*
X0063433Y0030583D01*
Y0030667D01*
X0063350Y0030750D01*
X0063183D01*
X0063100Y0030667D01*
X0081950Y0029925D02*
Y0029425D01*
X0082283D01*
X0082783Y0029925D02*
X0082450D01*
Y0029675D01*
X0082616Y0029758D01*
X0082700D01*
X0082783Y0029675D01*
Y0029508D01*
X0082700Y0029425D01*
X0082533D01*
X0082450Y0029508D01*
X0071600Y0030750D02*
Y0030250D01*
X0071933D01*
X0072350D02*
Y0030750D01*
X0072100Y0030500D01*
X0072433D01*
X0062700Y0029450D02*
X0062200D01*
Y0029117D01*
X0062700Y0028617D02*
X0062617Y0028784D01*
X0062450Y0028950D01*
X0062283D01*
X0062200Y0028867D01*
Y0028700D01*
X0062283Y0028617D01*
X0062367D01*
X0062450Y0028700D01*
Y0028950D01*
X0054850Y0031200D02*
X0054350D01*
Y0030867D01*
X0054850Y0030700D02*
Y0030367D01*
X0054767D01*
X0054433Y0030700D01*
X0054350D01*
X0076617Y0026988D02*
X0076700Y0027071D01*
Y0027238D01*
X0076617Y0027321D01*
X0076283D01*
X0076200Y0027238D01*
Y0027071D01*
X0076283Y0026988D01*
X0076200Y0026821D02*
Y0026655D01*
Y0026738D01*
X0076700D01*
X0076617Y0026821D01*
X0076700Y0026071D02*
Y0026405D01*
X0076450D01*
X0076533Y0026238D01*
Y0026155D01*
X0076450Y0026071D01*
X0076283D01*
X0076200Y0026155D01*
Y0026321D01*
X0076283Y0026405D01*
X0075250Y0027100D02*
X0075750D01*
Y0026850D01*
X0075667Y0026767D01*
X0075500D01*
X0075417Y0026850D01*
Y0027100D01*
Y0026933D02*
X0075250Y0026767D01*
X0075667Y0026600D02*
X0075750Y0026517D01*
Y0026350D01*
X0075667Y0026267D01*
X0075583D01*
X0075500Y0026350D01*
Y0026434D01*
Y0026350D01*
X0075417Y0026267D01*
X0075333D01*
X0075250Y0026350D01*
Y0026517D01*
X0075333Y0026600D01*
D65*
X0068617Y0031167D02*
X0068700Y0031250D01*
Y0031417D01*
X0068617Y0031500D01*
X0068283D01*
X0068200Y0031417D01*
Y0031250D01*
X0068283Y0031167D01*
X0068700Y0030667D02*
Y0031000D01*
X0068450D01*
X0068533Y0030834D01*
Y0030750D01*
X0068450Y0030667D01*
X0068283D01*
X0068200Y0030750D01*
Y0030917D01*
X0068283Y0031000D01*
M02*
