G04 Layer_Color=16711935*
%FSAX43Y43*%
%MOMM*%
G71*
G01*
G75*
%ADD32C,0.050*%
%ADD36C,1.700*%
%ADD37C,1.600*%
%ADD40C,0.600*%
%ADD60R,1.600X1.600*%
G04:AMPARAMS|DCode=61|XSize=1.8mm|YSize=1.8mm|CornerRadius=0.22mm|HoleSize=0mm|Usage=FLASHONLY|Rotation=0.000|XOffset=0mm|YOffset=0mm|HoleType=Round|Shape=RoundedRectangle|*
%AMROUNDEDRECTD61*
21,1,1.800,1.360,0,0,0.0*
21,1,1.360,1.800,0,0,0.0*
1,1,0.440,0.680,-0.680*
1,1,0.440,-0.680,-0.680*
1,1,0.440,-0.680,0.680*
1,1,0.440,0.680,0.680*
%
%ADD61ROUNDEDRECTD61*%
%ADD62C,1.800*%
%ADD63R,4.300X2.513*%
G36*
X0060500Y0027700D02*
X0057900D01*
Y0030300D01*
X0060500D01*
Y0027700D01*
D02*
G37*
D32*
X0000000Y0000000D02*
Y0058000D01*
Y0000000D02*
X0089000D01*
Y0058000D01*
X0000000D02*
X0089000D01*
D36*
X0061000Y0005000D02*
D03*
D37*
X0028420Y0050610D02*
D03*
X0030960D02*
D03*
X0033500D02*
D03*
X0036040D02*
D03*
X0038580D02*
D03*
X0041120D02*
D03*
X0043660D02*
D03*
X0021960D02*
D03*
X0016880D02*
D03*
X0014340D02*
D03*
X0011800D02*
D03*
X0009260D02*
D03*
X0006720D02*
D03*
X0004180D02*
D03*
X0001640D02*
D03*
X0019420D02*
D03*
X0036040Y0002350D02*
D03*
X0038580D02*
D03*
X0041120D02*
D03*
X0043660D02*
D03*
X0046200D02*
D03*
X0028280D02*
D03*
X0025740D02*
D03*
X0023200D02*
D03*
X0020660D02*
D03*
X0018120D02*
D03*
X0015580D02*
D03*
X0013040D02*
D03*
X0036040Y0004890D02*
D03*
X0038580D02*
D03*
X0041120D02*
D03*
X0043660D02*
D03*
X0046200D02*
D03*
X0013040D02*
D03*
X0015580D02*
D03*
X0018120D02*
D03*
X0020660D02*
D03*
X0023200D02*
D03*
X0025740D02*
D03*
X0028280D02*
D03*
X0019420Y0053150D02*
D03*
X0001640D02*
D03*
X0004180D02*
D03*
X0006720D02*
D03*
X0009260D02*
D03*
X0011800D02*
D03*
X0014340D02*
D03*
X0016880D02*
D03*
X0021960D02*
D03*
X0043660D02*
D03*
X0041120D02*
D03*
X0038580D02*
D03*
X0036040D02*
D03*
X0033500D02*
D03*
X0030960D02*
D03*
X0028420D02*
D03*
D40*
X0059500Y0029300D02*
D03*
X0058300Y0029900D02*
D03*
X0059500D02*
D03*
X0058900D02*
D03*
X0060100D02*
D03*
X0058900Y0029300D02*
D03*
X0060100D02*
D03*
X0058300D02*
D03*
X0060100Y0028700D02*
D03*
X0059500D02*
D03*
X0060100Y0028100D02*
D03*
X0059500D02*
D03*
X0058900D02*
D03*
X0058300D02*
D03*
Y0028700D02*
D03*
X0058900D02*
D03*
D60*
X0046200Y0050610D02*
D03*
X0024500D02*
D03*
X0033500Y0002350D02*
D03*
X0010500D02*
D03*
X0033500Y0004890D02*
D03*
X0010500D02*
D03*
X0024500Y0053150D02*
D03*
X0046200D02*
D03*
D61*
X0021450Y0014550D02*
D03*
D62*
X0023990D02*
D03*
D63*
X0086650Y0025295D02*
D03*
Y0034055D02*
D03*
M02*
